<svg width="71" height="16" viewBox="0 0 71 16" fill="none" xmlns="http://www.w3.org/2000/svg">
<path d="M2.37113 12.097C2.37113 12.5879 2.55047 12.9749 2.90913 13.2581C3.2678 13.5413 3.69254 13.6829 4.18334 13.6829C4.78112 13.6829 5.36002 13.5445 5.92005 13.2676C6.86388 12.8081 7.33587 12.0561 7.33587 11.0114V9.6426C7.12817 9.77473 6.86074 9.88487 6.53355 9.973C6.20635 10.0611 5.88544 10.124 5.57082 10.1618L4.54201 10.2939C3.92536 10.3757 3.46287 10.5048 3.15454 10.681C2.63227 10.9768 2.37113 11.4488 2.37113 12.097ZM6.48636 8.6608C6.87647 8.61047 7.13763 8.4468 7.26974 8.16993C7.34526 8.01887 7.38306 7.80173 7.38306 7.51853C7.38306 6.93956 7.17536 6.52105 6.76009 6.26302C6.35108 5.9987 5.76274 5.86653 4.99507 5.86653C4.10784 5.86653 3.4786 6.10569 3.10735 6.58399C2.89969 6.84831 2.76441 7.24165 2.70149 7.764H1.1158C1.14726 6.51791 1.54998 5.65256 2.32394 5.16797C3.1042 4.67708 4.00716 4.43164 5.03282 4.43164C6.22208 4.43164 7.18796 4.6582 7.93044 5.11133C8.66665 5.56445 9.03479 6.26931 9.03479 7.22591V13.0505C9.03479 13.2267 9.06939 13.3683 9.13858 13.4753C9.2141 13.5823 9.36827 13.6357 9.6011 13.6357C9.67663 13.6357 9.76155 13.6326 9.85593 13.6263C9.95032 13.6137 10.051 13.598 10.1579 13.5791V14.8347C9.89372 14.9101 9.69236 14.9573 9.55391 14.9763C9.41547 14.9951 9.2267 15.0045 8.9876 15.0045C8.40243 15.0045 7.97763 14.7969 7.71341 14.3815C7.57496 14.1613 7.47744 13.8497 7.42079 13.4469C7.07471 13.9001 6.5776 14.2934 5.92948 14.6269C5.28137 14.9605 4.56718 15.1273 3.78693 15.1273C2.84936 15.1273 2.08169 14.8441 1.48391 14.2777C0.892422 13.705 0.59668 12.9907 0.59668 12.1347C0.59668 11.1971 0.889276 10.4701 1.47447 9.95413C2.05966 9.43807 2.82733 9.1202 3.77749 9.00067L6.48636 8.6608Z" fill="white"/>
<path d="M11.21 4.67706H12.8242V6.42348C12.9564 6.08364 13.2805 5.67142 13.7966 5.18683C14.3126 4.69595 14.9074 4.4505 15.5807 4.4505C15.6122 4.4505 15.6657 4.45365 15.7412 4.45994C15.8167 4.46623 15.9458 4.47882 16.1282 4.4977V6.29132C16.0276 6.27244 15.9332 6.25985 15.845 6.25356C15.7632 6.24727 15.672 6.24412 15.5713 6.24412C14.7154 6.24412 14.0577 6.52103 13.5983 7.07485C13.1389 7.62238 12.9092 8.25485 12.9092 8.97231V14.7874H11.21V4.67706Z" fill="white"/>
<path d="M20.8313 4.38445C21.9702 4.38445 22.8952 4.66135 23.6062 5.21517C24.3236 5.76899 24.7546 6.72245 24.8994 8.07554H23.2476C23.1469 7.45247 22.9173 6.93642 22.5586 6.52735C22.1999 6.11199 21.6241 5.90431 20.8313 5.90431C19.749 5.90431 18.975 6.43295 18.5094 7.49027C18.2074 8.1762 18.0564 9.02267 18.0564 10.0296C18.0564 11.0429 18.2703 11.8956 18.6982 12.5879C19.1261 13.2801 19.7994 13.6263 20.718 13.6263C21.4228 13.6263 21.9797 13.4123 22.3887 12.9844C22.804 12.5501 23.0903 11.9585 23.2476 11.2097H24.8994C24.7106 12.5501 24.2387 13.5319 23.4836 14.1549C22.7285 14.7717 21.7626 15.0801 20.5859 15.0801C19.2645 15.0801 18.2106 14.5986 17.424 13.6357C16.6374 12.6665 16.2441 11.4582 16.2441 10.0107C16.2441 8.236 16.6752 6.8546 17.5373 5.86654C18.3993 4.87848 19.4974 4.38445 20.8313 4.38445Z" fill="white"/>
<path d="M25.9316 0.872711H27.6306V6.04589C28.0333 5.53612 28.3951 5.1774 28.7161 4.96972C29.2635 4.61099 29.9462 4.43163 30.7642 4.43163C32.2304 4.43163 33.2245 4.94454 33.7468 5.97037C34.0299 6.53048 34.1715 7.30772 34.1715 8.30206V14.7875H32.4254V8.41532C32.4254 7.67272 32.331 7.12836 32.1422 6.78222C31.8339 6.2284 31.255 5.95149 30.4055 5.95149C29.7008 5.95149 29.0621 6.19378 28.4895 6.67838C27.9169 7.16297 27.6306 8.07866 27.6306 9.42546V14.7875H25.9316V0.872711Z" fill="white"/>
<path d="M35.2695 13.4469L41.263 6.19694H35.7131V4.67708H43.5471V6.06478L37.5914 13.2676H43.7265V14.7875H35.2695V13.4469Z" fill="white"/>
<path d="M45.0234 4.72429H46.751V14.7875H45.0234V4.72429Z" fill="white"/>
<path d="M48.708 0.919922H50.4073V14.7875H48.708V0.919922Z" fill="white"/>
<path d="M52.3457 0.919922H54.0449V14.7875H52.3457V0.919922Z" fill="white"/>
<path d="M57.2383 12.097C57.2383 12.5879 57.4176 12.9749 57.7763 13.2581C58.135 13.5413 58.5597 13.6829 59.0505 13.6829C59.6483 13.6829 60.2272 13.5445 60.7872 13.2676C61.7311 12.8081 62.203 12.0561 62.203 11.0114V9.6426C61.9954 9.77473 61.7279 9.88487 61.4007 9.973C61.0735 10.0611 60.7526 10.124 60.438 10.1618L59.4092 10.2939C58.7925 10.3757 58.33 10.5048 58.0217 10.681C57.4995 10.9768 57.2383 11.4488 57.2383 12.097ZM61.3535 8.6608C61.7437 8.61047 62.0048 8.4468 62.1369 8.16993C62.2125 8.01887 62.2502 7.80173 62.2502 7.51853C62.2502 6.93956 62.0426 6.52105 61.6273 6.26302C61.2183 5.9987 60.6299 5.86653 59.8622 5.86653C58.975 5.86653 58.3458 6.10569 57.9745 6.58399C57.7669 6.84831 57.6316 7.24165 57.5687 7.764H55.983C56.0144 6.51791 56.4172 5.65256 57.1911 5.16797C57.9714 4.67708 58.8743 4.43164 59.9 4.43164C61.0892 4.43164 62.0551 4.6582 62.7976 5.11133C63.5338 5.56445 63.902 6.26931 63.902 7.22591V13.0505C63.902 13.2267 63.9366 13.3683 64.0058 13.4753C64.0813 13.5823 64.2355 13.6357 64.4683 13.6357C64.5438 13.6357 64.6287 13.6326 64.7231 13.6263C64.8175 13.6137 64.9182 13.598 65.0251 13.5791V14.8347C64.7608 14.9101 64.5595 14.9573 64.4211 14.9763C64.2827 14.9951 64.0939 15.0045 63.8548 15.0045C63.2696 15.0045 62.8448 14.7969 62.5805 14.3815C62.4422 14.1613 62.3446 13.8497 62.288 13.4469C61.9419 13.9001 61.4448 14.2934 60.7967 14.6269C60.1485 14.9605 59.4344 15.1273 58.6541 15.1273C57.7165 15.1273 56.9488 14.8441 56.3511 14.2777C55.7596 13.705 55.4639 12.9907 55.4639 12.1347C55.4639 11.1971 55.7564 10.4701 56.3417 9.95413C56.9268 9.43807 57.6945 9.1202 58.6447 9.00067L61.3535 8.6608Z" fill="white"/>
<path d="M66.5651 1.79007H67.4169V1.29007H65.0811V1.79007H65.9651V4.20607H66.5651V1.79007ZM68.3263 1.93407L68.8503 4.20607H69.4503L69.9663 1.93407V4.20607H70.5663V1.29007H69.6623L69.1503 3.61007L68.6223 1.29007H67.7263V4.20607H68.3263V1.93407Z" fill="white"/>
</svg>
