<svg width="50" height="16" viewBox="0 0 50 16" fill="none" xmlns="http://www.w3.org/2000/svg">
<path d="M46.0207 1.14166V10.1155C45.8632 10.1155 45.6858 10.1155 45.5279 10.1155C45.4887 10.0751 45.4494 10.0346 45.4296 9.99424L38.7279 1.16187H35.4756V3.10216C36.5991 4.4159 37.1707 6.05301 37.1707 7.91246C37.1707 9.99423 36.5991 11.793 35.4756 13.228V15.1683H38.5505V6.15407C38.7081 6.15407 38.8856 6.15407 39.0432 6.15407C39.0827 6.19448 39.1221 6.2349 39.1615 6.29554L45.8632 15.1481H49.1156V1.14166H46.0207Z" fill="white"/>
<path d="M24.6939 14.8247L24.4968 14.3194L21.5204 6.21471L21.3233 5.68921L21.1657 5.20412L19.6676 1.14166H16.0408L11.8818 12.2579L14.1092 15.0268L15.0553 12.5812H20.6137L21.5401 15.1279H24.8318L24.6939 14.8247ZM15.8437 10.3378L17.598 5.02224C17.7557 5.02224 17.933 5.02224 18.0908 5.02224L18.1696 5.24458L19.8056 10.3378H15.8437Z" fill="white"/>
<path d="M35.502 4.12282C35.3838 3.96113 35.2655 3.79944 35.2655 3.79944C35.1079 3.59732 34.8713 3.31437 34.5559 2.97078C34.5559 2.97078 34.3983 2.80908 34.2603 2.68782C33.0185 1.59641 31.5204 1.07091 31.5204 1.07091C30.8109 0.828378 30.0619 0.707109 29.2931 0.666687L28.9778 0.666687C27.0067 0.666687 25.2327 1.35387 23.6755 2.70803C22.8477 3.43564 22.2564 4.28451 21.8818 5.23445L25.4101 14.855C26.4548 15.3805 27.6374 15.6433 28.958 15.6433C30.4955 15.6433 31.8359 15.2997 32.9988 14.5923C33.7478 14.1274 34.28 13.6221 34.418 13.4806C34.5559 13.3392 35.0487 12.8339 35.4824 12.0658C36.5664 10.2266 36.5467 8.32677 36.5467 7.90233C36.5664 5.71949 35.6006 4.2643 35.502 4.12282ZM32.0527 11.2372C31.2051 12.1265 30.1604 12.5913 28.9778 12.5913C27.7951 12.5913 26.7504 12.1467 25.9029 11.2574C25.0553 10.3681 24.6217 9.23627 24.6217 7.90233C24.6217 6.81091 25.0553 5.82059 25.9029 4.97169C26.7504 4.12282 27.7951 3.69838 28.9778 3.69838C30.1801 3.69838 31.2051 4.12282 32.0527 4.97169C32.9199 5.82059 33.3339 6.79072 33.3339 7.90233C33.3339 9.21608 32.9002 10.3681 32.0527 11.2372Z" fill="white"/>
<path d="M13.3598 15.1481H9.37827L4.66737 8.90282C4.64765 8.86236 4.60824 8.82195 4.58852 8.78154C4.41113 8.78154 4.23373 8.78154 4.07604 8.78154V15.1279H0.981445V1.14166H4.05633V6.86145C4.05633 6.96251 4.05633 7.08379 4.05633 7.18484C4.23373 7.18484 4.39141 7.18484 4.56881 7.18484L9.06287 1.14166H12.8474L7.42687 7.75076L11.1522 12.3791L11.3887 12.6419L11.6253 12.9451L13.3598 15.1481Z" fill="white"/>
</svg>
