<svg width="38" height="21" viewBox="0 0 38 21" fill="none" xmlns="http://www.w3.org/2000/svg">
<path d="M0.950195 10.1228C0.950195 4.53211 5.48159 1.52588e-05 11.0713 1.52588e-05V20.2455C5.48159 20.2455 0.950195 15.7134 0.950195 10.1228Z" fill="white"/>
<path d="M17.6899 0.623047C13.8268 2.04866 11.0723 5.76406 11.0723 10.1229C11.0723 14.4817 13.8268 18.1971 17.6899 19.6227V0.623047Z" fill="white"/>
<path d="M17.6895 10.1228C17.6895 4.53211 22.2208 1.52588e-05 27.8106 1.52588e-05C33.4003 1.52588e-05 37.9317 4.53211 37.9317 10.1228C37.9317 15.7134 33.4003 20.2455 27.8106 20.2455C22.2208 20.2455 17.6895 15.7134 17.6895 10.1228Z" fill="white"/>
</svg>
