<svg width="83" height="16" viewBox="0 0 83 16" fill="none" xmlns="http://www.w3.org/2000/svg">
<path d="M14.2725 8.00012C14.2725 3.33218 11.2955 0.670746 7.40963 0.670746C3.50238 0.670746 0.546875 3.33218 0.546875 8.00012C0.546875 12.6472 3.50238 15.3296 7.40963 15.3296C11.2955 15.3296 14.2725 12.6681 14.2725 8.00012ZM11.1309 8.00012C11.1309 11.0239 9.65671 12.6611 7.40963 12.6611C5.15546 12.6611 3.68844 11.0239 3.68844 8.00012C3.68844 4.97642 5.15546 3.33915 7.40963 3.33915C9.65671 3.33915 11.1309 4.97642 11.1309 8.00012Z" fill="white"/>
<path d="M15.0732 3.22605H19.5602V15.3291H22.623V3.22605H27.11V0.670883H15.0732V3.22605Z" fill="white"/>
<path d="M31.8091 0.670883H28.71V15.3291H31.8091V0.670883Z" fill="white"/>
<path d="M37.6521 0.670883H34.21L39.2694 15.3291H43.2626L48.3148 0.670883H44.8799L41.3304 11.8077H41.1944L37.6521 0.670883Z" fill="white"/>
<path d="M63.2285 15.3291H66.327V10.1328H68.5885L71.3651 15.3291H74.7857L71.6731 9.63188C73.3403 8.91615 74.2635 7.46319 74.2635 5.45914C74.2635 2.5461 72.3381 0.670883 69.0105 0.670883H63.2285V15.3291ZM66.327 7.64212V3.20458H68.4169C70.206 3.20458 71.0718 3.99904 71.0718 5.45914C71.0718 6.91211 70.206 7.64212 68.431 7.64212H66.327Z" fill="white"/>
<path d="M50.0372 15.3334H46.7148L51.7772 0.666687H55.7726L60.8278 15.3334H57.5054L56.4171 11.989L53.8322 4.01825H53.7176L50.0372 15.3334Z" fill="white"/>
<path d="M55.3215 12.7233C55.3215 13.5795 54.6274 14.2737 53.7711 14.2737C52.9148 14.2737 52.2207 13.5795 52.2207 12.7233C52.2207 11.867 52.9148 11.1729 53.7711 11.1729C54.6274 11.1729 55.3215 11.867 55.3215 12.7233Z" fill="white"/>
<path d="M79.5886 7.07561C81.3573 7.07561 82.7906 5.64254 82.7906 3.87324C82.7906 2.10394 81.3573 0.670883 79.5886 0.670883C77.8194 0.670883 76.3867 2.10394 76.3867 3.87324C76.3867 5.64254 77.8194 7.07561 79.5886 7.07561ZM79.5886 6.255C78.272 6.255 77.2035 5.19021 77.2035 3.87324C77.2035 2.55627 78.272 1.49148 79.5886 1.49148C80.9014 1.49148 81.97 2.55627 81.97 3.87324C81.97 5.19021 80.9052 6.255 79.5886 6.255ZM78.4397 5.3143H79.1685V4.32157H79.7123L80.1892 5.3143H80.9894L80.413 4.17747C80.6853 4.01334 80.8855 3.72514 80.8855 3.32884C80.8855 2.70038 80.3971 2.36013 79.9011 2.36013H78.4397V5.3143ZM79.1685 3.78918V2.89652H79.7009C79.8928 2.89652 80.1089 3.01261 80.1089 3.32884C80.1089 3.63307 79.8966 3.78918 79.6887 3.78918H79.1685Z" fill="white"/>
</svg>
