<svg width="68" height="20" viewBox="0 0 68 20" fill="none" xmlns="http://www.w3.org/2000/svg">
<path fill-rule="evenodd" clip-rule="evenodd" d="M66.1605 3.09908L65.5852 3.16974H61.6143V3.20525C61.7732 3.24937 61.9055 3.37349 62.0031 3.54136L62.0207 3.59445L62.1448 3.93056V10.5645C62.0565 10.9534 61.8883 11.1923 61.6143 11.2895V11.3253H66.7883L67.3461 9.70649H67.3102C66.9844 9.96028 66.6202 10.1603 66.2312 10.2991L65.0109 10.4322L63.4451 10.2815V7.33614L64.9754 7.38923C65.2143 7.44232 65.3649 7.53953 65.4532 7.69879H65.5062V6.3809H65.4532L64.9137 6.4426H63.4451V4.15153L64.7096 4.06292L65.5062 4.15153C65.771 4.21358 65.9923 4.34595 66.1605 4.54969H66.2136V3.09908H66.1605Z" fill="white"/>
<path fill-rule="evenodd" clip-rule="evenodd" d="M62.0198 3.59245L62.0029 3.54135H61.9863V3.59245H62.0198Z" fill="#A6A8AA"/>
<path fill-rule="evenodd" clip-rule="evenodd" d="M56.1753 9.44963C55.6093 8.79499 55.317 7.98144 55.317 7.05274C55.317 6.1592 55.5918 5.41631 56.1312 4.84131C56.6706 4.28387 57.3606 3.99224 58.2271 3.99224C59.0144 3.99224 59.7751 4.23114 60.5178 4.70858V3.28451C59.6596 3.06354 58.8996 2.96598 58.254 2.98391C56.9715 2.96598 55.9278 3.35517 55.132 4.15115C54.3096 4.92094 53.8943 5.95581 53.9201 7.2382C53.8943 8.55609 54.3185 9.59993 55.185 10.3611L55.2467 10.4318C56.0957 11.1567 57.2276 11.5108 58.6428 11.5283C59.3684 11.5108 59.996 11.396 60.5182 11.1571L61.1458 9.72405H61.1107C60.1993 10.2456 59.3246 10.5028 58.4753 10.5028C57.7146 10.5028 57.078 10.2815 56.5468 9.82161L56.1753 9.44963Z" fill="white"/>
<path fill-rule="evenodd" clip-rule="evenodd" d="M59.7571 14.3507L59.6599 14.3683H59.5541L59.4569 14.3324L59.3504 14.28L59.1646 14.3152H58.9706L58.7841 14.2359L57.9882 14.2176L57.7852 14.1652C57.7494 14.1652 57.7146 14.1828 57.6787 14.2176L57.5815 14.2441L57.4933 14.1824L57.3961 14.1294L57.0073 14.0763L56.786 14.1469L56.6002 14.0763H56.4679L56.3173 14.1121L55.9636 14.1297L55.7779 14.0325L55.5741 14.0684L55.4066 13.9977L54.6459 13.9618L54.4422 13.9088L53.8505 13.9977L53.7439 13.9618L53.6467 13.9088L53.4785 13.8912L53.3727 13.9088L53.2755 13.9446L53.0898 13.874L52.9926 13.9091L52.886 13.9357L52.8068 13.8915C52.7733 13.8677 52.7376 13.847 52.7003 13.8298L52.6031 13.8915L52.4973 13.9357L52.3115 13.794L52.1078 13.8123L52.0106 13.8474L51.9048 13.865L51.719 13.8126L51.6218 13.8478L51.516 13.8653L51.4188 13.813C51.4005 13.7599 51.3657 13.7416 51.3299 13.7599L51.1351 13.8306L51.0293 13.7947C50.9942 13.7595 50.9587 13.7416 50.9321 13.7416L50.5344 13.7775L50.1538 13.7416L49.9508 13.7599L49.8443 13.724L49.7651 13.7158H49.5438L49.4466 13.6892L49.3408 13.6451L49.155 13.6892L48.9513 13.7244L48.8982 13.7161L48.8365 13.663L48.6776 13.6896H48.5005L48.3416 13.6272L48.1468 13.663L47.961 13.583L47.7398 13.6455L47.3686 13.663L47.2628 13.6099L47.1656 13.5393L46.9798 13.5217L46.7933 13.5393L46.5992 13.5041L46.5021 13.5393L46.4049 13.5924L46.2191 13.5565L46.0243 13.4948L45.8479 13.4772L45.6442 13.5389L45.5384 13.5038L45.4501 13.4414L45.3529 13.5038L45.2557 13.5561L44.8662 13.5038L44.6805 13.5213L44.2734 13.4948L44.1762 13.4417L44.088 13.371L43.9908 13.4069L43.6996 13.4593L43.4958 13.4417L43.2835 13.3893L43.0977 13.371L42.8947 13.4069L42.709 13.371L42.5225 13.3093H42.3195C42.2836 13.3093 42.2488 13.3183 42.2137 13.3617L42.1165 13.389L42.0099 13.3359L41.9307 13.2735L41.8242 13.3183L41.727 13.3617C41.7064 13.3625 41.6859 13.3581 41.6674 13.3489C41.649 13.3398 41.6331 13.3262 41.6212 13.3093C41.5946 13.2735 41.5588 13.2563 41.5412 13.2563C41.506 13.2563 41.4705 13.2738 41.4354 13.3093L41.3382 13.3183L40.9311 13.3359L40.878 13.3093L40.8164 13.2735C40.7805 13.2735 40.7457 13.2918 40.7281 13.3093L40.6657 13.3183L40.5068 13.3359L40.4096 13.2735C40.4013 13.2574 40.3886 13.2439 40.373 13.2346C40.3574 13.2254 40.3396 13.2207 40.3214 13.2211L40.2242 13.2563L40.127 13.3093L39.853 13.2563L39.7824 13.2211L39.5787 13.2918L39.3929 13.2211H39.1981L39.0041 13.2563L38.9241 13.2387L38.8359 13.1856L38.6501 13.2563L38.5529 13.2211L38.4464 13.168L38.2606 13.2387L38.1634 13.1856C38.151 13.1721 38.136 13.1612 38.1193 13.1536C38.1026 13.146 38.0846 13.1419 38.0662 13.1415L37.4917 13.1504L37.2879 13.088L37.1022 13.1504L36.1209 13.0532L36.0237 13.0884H35.9172L35.5284 13.1243L34.9531 13.0536L34.8032 13.1418L34.635 13.2035L34.0425 13.1684L33.8564 13.0353L33.653 12.9646L33.4497 13.0712L33.2639 13.0353L32.7775 13.1418L32.5918 13.0712L32.406 13.0536L32.2202 13.0887L32.0172 13.0712L31.6632 13.0887L31.4599 13.1246L31.3713 13.0357L31.1855 13.0005L30.9997 12.9388C30.9814 12.9391 30.9632 12.9431 30.9465 12.9507C30.9298 12.9583 30.9148 12.9693 30.9025 12.9829L30.7964 13.0536L30.6106 12.9471L30.531 12.9646L30.2304 13.0536L30.0271 12.9829L29.8413 13.0353L29.4521 12.9829L29.2664 13.0536L29.1602 13.0005L29.063 12.9646L28.8772 12.9471L28.4705 13.0001L28.2672 12.9384L28.1524 12.9826H28.0107L27.8074 13.0532L27.6571 13.0708L27.4537 13.0001L27.3035 13.0884L27.2063 13.0532L27.118 13.0001L26.9147 13.0177L26.6317 13.0884H26.5431L26.3398 13.0532L26.1719 13.0884L25.9861 13.0708L25.7828 13.106L25.597 13.0708H25.3897L25.2925 13.106L25.2039 13.1508H24.8237L24.6204 13.0536C24.5849 13.0536 24.5497 13.0712 24.5142 13.106L24.417 13.1508L24.3109 13.1418L24.2313 13.106L24.0279 13.1418L23.5326 13.0887H23.435L23.2493 13.1418L23.0459 13.239L22.8601 13.1684H22.7629L22.6568 13.1418C22.6213 13.1418 22.5861 13.1508 22.5596 13.186L22.4534 13.239L21.8785 13.1684H21.6927C21.6572 13.1684 21.631 13.186 21.6131 13.2215L21.5069 13.2566L21.4097 13.239L21.3036 13.2032C21.2868 13.2043 21.2707 13.2098 21.2567 13.2191C21.2427 13.2284 21.2314 13.2412 21.224 13.2563L21.1178 13.2921L21.0206 13.2563L20.9144 13.2032L20.8173 13.2215L20.6315 13.1856L20.4812 13.1415L20.1717 13.2387L20.0035 13.1856L19.8532 13.2215L19.7029 13.1243L19.5526 13.2035L19.3844 13.1684L19.2252 13.239L19.0308 13.186L18.845 13.2742L18.5355 13.2218L18.4383 13.186L18.235 13.239L17.8458 13.2566L17.6425 13.2215C17.6249 13.2215 17.5897 13.239 17.5542 13.2738L17.457 13.3363H17.2713L17.1741 13.3097L17.0679 13.2566H16.696L16.5281 13.2742L16.422 13.319L16.3424 13.3897L15.9712 13.319L15.7499 13.3897L15.0953 13.3714L14.892 13.4245L14.6707 13.3621L14.4673 13.4069L14.264 13.3363L14.0606 13.3893L13.8573 13.371L13.4681 13.5041L13.2823 13.4417L13.0962 13.4948H12.8753L12.6543 13.5213L12.4331 13.4241L12.0529 13.4948L11.8495 13.4772L11.6638 13.583L11.5045 13.4772L11.2746 13.6272L11.1774 13.6803L11.0182 13.6451L10.8238 13.7244L10.638 13.6272L10.4347 13.663L10.2664 13.7247L10.1603 13.6896L10.0631 13.6455L9.89525 13.6806L9.78908 13.7165L9.69189 13.7606L9.48853 13.6899L9.11733 13.7606L8.72819 13.7782L8.54241 13.7606L8.33906 13.7958H8.1357L8.02954 13.8316L7.94992 13.8758L7.74657 13.8933L7.56078 13.8668L7.375 13.9468L7.27781 13.9109L7.17165 13.8668L6.98587 13.9468L6.59709 14.035L6.39338 13.9644L6.20759 14.0002H5.58856L5.4824 14.0526L5.38521 14.0791L5.31455 14.0526L5.22597 14.035L5.04018 14.0526L4.87198 14.115L4.53592 14.2033L4.14678 14.1857L3.961 14.2829L3.2003 14.3711L3.01452 14.4511L2.84667 14.5745L2.73155 14.5569L2.62574 14.5218L2.47547 14.6893L2.36034 14.6717L2.25418 14.6366L2.0684 14.7955L1.88262 14.8927L1.69684 14.9278H1.58207L1.49348 14.9103L1.34321 14.9809L1.29874 15.0426L1.24565 15.1492L0.909598 15.3522L0.767931 15.4853L0.484955 15.651L0.343288 15.8185L0.378795 16.0223L0.246094 16.1722L0.343288 16.3229L0.299174 16.5793C0.281242 16.6324 0.299174 16.6676 0.316748 16.6765L0.484955 16.7296L0.653163 16.8885L0.856518 16.8534L1.0423 16.9502L1.05987 17.0033L1.09538 17.0392L1.28116 16.9685L1.56414 17.0037L1.67926 17.0396C1.69684 17.022 1.71477 17.0037 1.76749 16.9689C1.82057 16.9158 1.85608 16.8982 1.86469 16.8982L2.10355 16.9334L2.54577 16.7834H2.71397L2.88182 16.6769L2.97041 16.7128L3.0676 16.7304L3.21788 16.6156H3.40366L3.57151 16.5356H3.77486L3.92514 16.3939H4.04887L4.14607 16.4115L4.34942 16.3763L4.5352 16.2615L4.75613 16.2257H4.95949L5.12734 16.155H5.34827L5.48097 16.0933H5.83496L6.02074 16.0402L6.42745 16.005L6.59565 15.8368L6.79901 15.9075L6.98479 15.8544H7.17057L7.57728 15.7037H7.76306L7.86026 15.6331C7.91334 15.5979 7.94885 15.5807 7.96642 15.5807L8.08155 15.5983L8.37349 15.5807L8.55927 15.5366L8.76262 15.5183L8.94841 15.4125L9.0456 15.43L9.14351 15.4645L9.19659 15.4121L9.24967 15.3497L9.39995 15.3587L9.736 15.2787L9.84216 15.3145L9.93936 15.3321L10.1251 15.2263C10.1606 15.208 10.1958 15.2263 10.2492 15.2787L10.364 15.3145L10.4347 15.2614C10.4522 15.2263 10.4791 15.2084 10.5143 15.2084L11.2926 15.0584L11.4783 15.1291L11.5755 15.076L11.6641 15.0053L11.9647 15.0229L12.0708 15.0405L12.6809 14.9081L12.7605 14.944L12.8667 14.9616L12.9639 14.9085L13.0611 14.8733L13.1141 14.8202C13.1317 14.8019 13.1496 14.7937 13.1672 14.7937L13.3175 14.8202L13.5033 14.7937L13.7066 14.8554L13.8128 14.7937C13.8214 14.7578 13.8569 14.7406 13.8924 14.7406L13.9986 14.7582L14.0958 14.794L14.2991 14.7765L14.5025 14.7058L14.5997 14.7582L14.7058 14.794L14.9092 14.7765L14.9888 14.7234L15.0774 14.6875L15.1746 14.7058L15.2804 14.741L15.4665 14.6527L15.6699 14.6879L15.7671 14.6355C15.8026 14.609 15.8377 14.5907 15.8643 14.5907L15.9704 14.6172L16.0676 14.6703L16.271 14.6527L16.3596 14.5903C16.367 14.5753 16.3783 14.5625 16.3923 14.5533C16.4063 14.5441 16.4225 14.5388 16.4392 14.5379L17.0496 14.5021C17.0848 14.4845 17.1203 14.5021 17.1558 14.5551L17.253 14.5903L17.3591 14.5551C17.37 14.5393 17.3845 14.5262 17.4014 14.517C17.4183 14.5078 17.4371 14.5027 17.4563 14.5021L17.5535 14.5379L17.6597 14.5555L17.8455 14.4314H18.1109L18.1995 14.4497L18.2966 14.4848L18.4559 14.5024L18.6592 14.45L18.7564 14.4052C18.774 14.3701 18.8095 14.3528 18.8536 14.3528L19.0308 14.4235L19.2166 14.4052L19.411 14.4318L19.6143 14.4235L19.8001 14.3345L20.375 14.3704L20.5608 14.238L20.667 14.2997L20.7642 14.3349L20.95 14.3173L21.1357 14.2201L21.2419 14.2467L21.5424 14.2997L21.631 14.238C21.6486 14.2022 21.6751 14.185 21.7106 14.185L21.8168 14.2201L22.1174 14.2642L22.2146 14.2201L22.3207 14.185L22.4179 14.2201H22.5241L22.9132 14.185L23.099 14.1319H23.382L23.5677 14.0967L23.7711 14.1319L24.1427 14.1143L24.3457 14.185L24.4518 14.1319L24.549 14.0702L24.7348 14.1319L24.9382 14.1494L25.0353 14.1319L25.1325 14.0967L25.2387 14.1143L25.3445 14.1494L25.4417 14.0971L25.5479 14.0705L25.7336 14.0522C25.7602 14.0347 25.7953 14.0522 25.8308 14.0971L25.928 14.1494L26.0342 14.0971C26.0521 14.0788 26.0873 14.0705 26.1228 14.0705L26.3172 14.1322L26.9276 14.0971L27.1309 14.0347L27.3343 14.0971L27.4315 14.0522C27.4398 14.0361 27.4525 14.0226 27.4681 14.0133C27.4837 14.0041 27.5016 13.9994 27.5197 13.9999H27.8203L27.9795 14.0971L28.1298 14.0522L28.2625 13.9816H28.4834L28.6696 14.0347L29.0587 13.9816L29.4654 14.0705C29.483 14.0522 29.4919 14.0347 29.545 13.9999L29.6336 13.9468L29.8194 13.9819L30.191 13.9644L30.3767 14.035L30.4739 13.9819L30.5801 13.9468L30.7924 13.9999L30.9958 13.964L31.3849 14.0347L31.4911 13.9816L31.5883 13.9464L31.774 13.964L32.1987 13.8758L32.3845 13.9374L32.6054 13.9464L33.0125 13.8664L33.1272 13.893L33.4281 13.9461L33.6315 13.893L33.9589 13.8754L34.1268 13.9461L34.4804 13.9636L34.6486 14.0519L34.8516 13.8754L35.0553 13.9105L35.1701 13.893L35.32 13.9636L35.6564 13.9105L35.763 13.9371L35.8602 13.9636L36.0632 13.9461L36.2662 13.9636L36.6381 13.9461L36.8411 13.9102H37.0269L37.2306 14.0967L37.9905 13.9995C38.0088 13.9995 38.0436 14.0171 38.0705 14.0519L38.1763 14.0702L38.3628 14.0519L38.4597 14.0784L38.5486 14.0967L38.7516 13.9995L38.8488 14.0519L38.937 14.0702L39.1407 14.0343L39.2731 14.0967L39.4237 14.0784L39.5736 14.1315L39.9631 14.0784L40.1661 14.1315L40.2544 14.0784L40.3343 14.0519L40.4408 14.0702L40.5201 14.0967L40.7238 14.0343L40.8913 14.0702L41.0778 14.0784L41.1836 14.1143L41.2808 14.1674L41.6703 14.1143L41.8561 14.1494L41.9619 14.1143L42.0591 14.0702L42.1473 14.1143L42.2273 14.1494L42.4303 14.1319L43.0056 14.185L43.2086 14.1491L43.4123 14.1674L43.5095 14.1315C43.5177 14.1153 43.5303 14.1017 43.5459 14.0923C43.5616 14.0829 43.5795 14.0781 43.5977 14.0784L43.6949 14.1315L43.8007 14.1674L43.8631 14.1315L43.933 14.0784L44.0661 14.2201L44.2343 14.1677H44.4201L44.5259 14.1494L44.6231 14.1143L45.0302 14.1319C45.0477 14.1319 45.0832 14.1494 45.1184 14.185L45.2332 14.238L45.3397 14.185C45.3486 14.1491 45.3838 14.1319 45.4196 14.1319L45.6226 14.1677L45.9939 14.1494C46.0204 14.1494 46.0645 14.1677 46.091 14.2025L46.1976 14.2467L46.2948 14.2201C46.3299 14.185 46.3654 14.1677 46.4006 14.1677L46.4978 14.2201L46.5949 14.2467L46.789 14.2642H46.869L47.196 14.3349L47.2402 14.3173L47.771 14.3704L47.8682 14.3528L47.9654 14.317L48.0536 14.3701L48.1508 14.4052L48.23 14.3701L48.319 14.3525L48.513 14.3701L48.7078 14.4318L49.0973 14.3876H49.3003L49.8755 14.45L49.9813 14.4318L50.0785 14.4052L50.468 14.3701L50.662 14.4231L50.7686 14.3873L50.8744 14.3697L51.1932 14.4314L51.3614 14.3697L51.5472 14.4228H51.733L51.8395 14.3869L51.9363 14.3693L52.1228 14.431L52.6974 14.4045L52.9011 14.5903L52.9983 14.5379L53.0951 14.5021L53.3075 14.5203L53.5112 14.5021L53.697 14.5379H53.9175L54.1123 14.5731L54.7223 14.609L54.873 14.5907L55.0501 14.6172L55.2359 14.609L55.4041 14.6355H55.6071L55.7929 14.6707L56.0935 14.6176C56.1118 14.6093 56.1465 14.591 56.1907 14.591L56.5977 14.5734C56.6329 14.5559 56.6684 14.5734 56.7042 14.6176L56.8011 14.6707L57.0224 14.6355L57.1196 14.609L57.2078 14.5907L57.3226 14.609L57.4291 14.6355L57.6321 14.5907H57.8358L57.8975 14.6172L57.9506 14.6703L58.1005 14.6086H58.2687L58.4545 14.6703L58.6402 14.6086L58.844 14.5903L58.9498 14.6351L59.047 14.6703L59.1535 14.6351L59.2327 14.6168L59.3393 14.6527L59.4365 14.7058L59.8077 14.6875L60.0107 14.7582L60.1078 14.6875C60.1254 14.6351 60.1609 14.6168 60.1961 14.6168L60.3826 14.6527L60.4798 14.6879L60.568 14.741L60.771 14.7058L61.1781 14.7765L61.3638 14.7406L61.5496 14.7582L61.6468 14.7406L61.7533 14.7054L61.9391 14.7578L62.3369 14.7227L62.5226 14.7933L62.7967 14.8199L62.8673 14.855L62.9297 14.9081L62.9828 14.9788L63.0535 14.9257L63.0976 14.8733L63.4512 14.8909L63.637 14.8733L64.0258 14.9085L64.1323 14.9616L64.2295 14.9791L64.3353 14.9616L64.4325 14.9257L64.6182 14.8905L64.7248 14.9436L64.8216 14.9612L65.1311 14.8905L65.2283 14.8547H65.1311L64.9902 14.8016L64.9278 14.8199L64.8571 14.855L64.7065 14.7758L64.5035 14.7933L64.3353 14.7575L64.1671 14.7758L64.0788 14.7227C64.0716 14.7074 64.0603 14.6944 64.0462 14.685C64.0321 14.6757 64.0157 14.6703 63.9989 14.6696H63.8131L63.5925 14.7054H63.4243L63.3178 14.6524L63.2385 14.5899L63.0527 14.6699L62.2737 14.5727L61.9825 14.5903L61.8853 14.6168L61.4965 14.5021L61.4076 14.4845L61.3104 14.4314H61.1074L61.0102 14.4845L60.9044 14.5021L60.7179 14.4669H60.5149L60.3467 14.3697C60.2936 14.3697 60.2674 14.3873 60.2319 14.4228L60.1254 14.4493H59.9224L59.7571 14.3507Z" fill="#979797"/>
<path fill-rule="evenodd" clip-rule="evenodd" d="M54.3183 11.1395L53.7965 10.547L50.7544 3.16975H48.7994V3.20527C49.0565 3.2849 49.1889 3.4352 49.1889 3.69168L48.9859 4.3639L46.4829 10.547C46.2971 10.8827 46.0493 11.1395 45.7222 11.2895V11.3253H48.0035V11.2895L47.9594 11.2719C47.703 11.1571 47.5882 11.0248 47.5706 10.8382C47.5524 10.6883 47.5965 10.3963 47.7471 10.0071L48.393 8.26449H51.5151L52.4609 10.8741C52.4433 11.0248 52.3109 11.1571 52.028 11.2895V11.3253H54.5575V11.2895L54.3183 11.1395ZM49.9492 4.2136L51.1604 7.33615H48.7108L49.9492 4.2136ZM51.0636 16.6941V16.6766H50.4176V16.6941L50.6034 16.933L50.6386 17.2519V19.0476L50.6034 19.3841L50.4004 19.6223V19.6406H51.1963V19.6223L50.9933 19.3841L50.9574 19.0476V17.3226L52.4964 19.2682C52.6994 19.5161 52.921 19.6843 53.1599 19.7726V17.2519L53.1864 16.933C53.204 16.8358 53.2746 16.7566 53.3894 16.6941V16.6766H52.6022V16.6941L52.8145 16.933L52.8328 18.9583L51.1342 16.8003L51.0636 16.6941ZM54.3714 16.6676L54.2208 17.1895C54.3355 17.0661 54.5213 17.0037 54.7602 17.0037H55.1489V19.3479L54.9632 19.6219V19.6402H55.8386V19.6219L55.6356 19.3837L55.6091 19.0473V17.0037H56.0068C56.2281 17.0037 56.3515 17.0661 56.3963 17.1895H56.4139L56.5638 16.6676H56.538L56.3343 16.6766H54.5572L54.3714 16.6676ZM41.839 3.54138C41.928 3.3735 42.0603 3.24939 42.2285 3.20527V3.16975H39.8496V3.20527C40.0171 3.24939 40.1502 3.3735 40.256 3.54138L40.2743 3.60307L40.3714 3.93058V10.5645C40.2915 10.9534 40.1236 11.1923 39.8496 11.2895V11.3253H44.9521L45.607 9.68892H45.5712C44.917 10.2281 44.1739 10.4845 43.378 10.4322L41.6891 10.3174L41.7243 3.94851C41.7415 3.78889 41.7949 3.65652 41.839 3.54138Z" fill="white"/>
<path fill-rule="evenodd" clip-rule="evenodd" d="M40.2568 3.54135H40.2393V3.59444L40.2748 3.60305L40.2568 3.54135Z" fill="#A6A8AA"/>
<path fill-rule="evenodd" clip-rule="evenodd" d="M36.5241 2.35619L36.8598 2.6923C37.0811 3.01944 37.1787 3.40864 37.1963 3.89541C37.1787 4.62072 36.8781 5.2133 36.2498 5.68214C35.6928 6.10685 35.0562 6.32781 34.2955 6.3809C34.6136 6.5312 35.0203 6.59326 35.4715 6.61083H35.5597C36.4711 6.59326 37.2669 6.31024 37.9394 5.78831C38.6642 5.19573 39.0358 4.45248 39.0358 3.5593C39.0358 2.9312 38.85 2.3917 38.4964 1.94942C38.3457 1.7636 38.1775 1.61331 37.9745 1.46301C37.3028 0.9766 36.418 0.720123 35.3212 0.720123H31.3857V0.77321L31.8104 1.10932L31.8631 1.18895L32.0492 1.74603V10.3791C31.9607 10.8827 31.7397 11.2106 31.3857 11.3257V11.3788H34.596V11.3257L34.4103 11.2109C34.1273 11.0072 33.9415 10.7507 33.8529 10.4677C33.7823 10.2463 33.7557 9.85715 33.7557 9.30007V1.98421L34.8962 1.90458C35.5952 1.887 36.1346 2.03766 36.5241 2.35619Z" fill="white"/>
<path fill-rule="evenodd" clip-rule="evenodd" d="M31.8636 1.18859L31.8105 1.1086H31.7754V1.16169L31.8636 1.18859Z" fill="#A6A8AA"/>
<path fill-rule="evenodd" clip-rule="evenodd" d="M26.2565 3.20524C26.6102 3.35554 26.7254 3.62099 26.5751 3.99261L24.3105 7.08826L27.0615 10.8034L27.3355 11.0423L27.6186 11.1747L28.4676 11.3253H29.6352V11.2895C29.246 11.1036 28.9275 10.9006 28.6534 10.67L28.1491 10.1305L25.6457 6.83143L28.4848 3.18695V3.16937H26.2562L26.2565 3.20524Z" fill="white"/>
<path fill-rule="evenodd" clip-rule="evenodd" d="M22.7276 3.54135L22.7452 3.59444L22.8427 3.93055V10.5645C22.7897 10.901 22.6394 11.1399 22.4181 11.2547L21.1535 10.2815L18.7394 7.33613C19.2612 7.22995 19.721 6.96451 20.1102 6.58428C20.4993 6.15957 20.7027 5.68177 20.7027 5.15985C20.7027 4.7355 20.5789 4.36387 20.3401 4.06291L20.0392 3.74438C19.5883 3.35519 18.9424 3.16937 18.1469 3.16937H15.1931V3.20488C15.3433 3.24901 15.4846 3.37312 15.5646 3.541L15.5998 3.59408L15.6973 3.93019V10.5645C15.6353 10.9182 15.485 11.1571 15.2286 11.2722L15.0252 11.1575C14.8219 11.0068 14.6537 10.8038 14.5034 10.5473C14.3972 10.3791 14.2469 10.0429 14.0432 9.5386L11.4609 3.17009H9.50665V3.2056C9.71897 3.2673 9.86028 3.40899 9.87786 3.5948L9.89579 3.69201L9.69243 4.36423L7.18941 10.5473C6.98605 10.883 6.72962 11.1399 6.41113 11.2898V11.3257H8.69287V11.2898L8.63979 11.2722C8.40093 11.1575 8.26823 11.0251 8.25065 10.8386C8.23308 10.6886 8.30373 10.3966 8.45401 10.0074L9.09958 8.26483H12.2216L13.1502 10.8744C13.1502 11.0251 13.0085 11.1575 12.7255 11.2898V11.3257H17.5544V11.2898L17.5279 11.2722C17.2715 11.175 17.1032 10.9358 17.0326 10.5645L16.9971 4.02776L17.846 3.93055C18.2707 3.91298 18.6419 4.02776 18.9603 4.28424L19.2254 4.56726C19.367 4.78858 19.4287 5.02712 19.4467 5.31015C19.4291 5.84068 19.1988 6.25678 18.7391 6.58392C18.3854 6.81385 17.9253 6.98173 17.3683 7.07033L17.2887 7.08791L18.4385 8.83912L19.9595 10.6965L20.278 11.0244L20.561 11.1919L21.3924 11.325H24.7178V11.2891L24.6823 11.2715C24.4258 11.1567 24.2576 10.9178 24.1959 10.5638V3.93055L24.3286 3.54135C24.4169 3.37348 24.5496 3.24936 24.7178 3.20524V3.16973H22.3385V3.20524C22.4887 3.24936 22.6214 3.37312 22.7276 3.54135ZM11.8494 7.33577H9.41735L10.6468 4.21322L11.8494 7.33577Z" fill="white"/>
<path fill-rule="evenodd" clip-rule="evenodd" d="M22.7454 3.59444L22.7282 3.54135H22.7102V3.59444H22.7454ZM15.5645 3.54135V3.59444H15.5996L15.5645 3.54135Z" fill="#A6A8AA"/>
<path fill-rule="evenodd" clip-rule="evenodd" d="M30.378 17.0037H30.7847C30.997 17.0037 31.1207 17.0661 31.1652 17.1895H31.1828L31.3244 16.6676L31.1035 16.6765H29.3257L29.1575 16.6676H29.1399L28.972 17.1895H29.0072C29.1223 17.0661 29.2991 17.0037 29.529 17.0037H29.9182V19.3478L29.7324 19.6219V19.6402H30.6078V19.6219L30.4135 19.3837L30.378 19.0472V17.0037ZM35.8617 16.6765V16.6941L36.0475 16.9506V19.3482C36.021 19.5071 35.9503 19.5871 35.8617 19.6222V19.6405H36.7107V19.6222C36.6217 19.5699 36.56 19.4806 36.5425 19.3482V16.9506C36.56 16.8182 36.6217 16.73 36.7107 16.6941V16.6765H35.8617ZM33.0313 16.6765V16.6941C33.1109 16.7124 33.164 16.7831 33.164 16.8623L33.0933 17.1188L32.1823 19.3482L31.9169 19.6222V19.6405H32.7393V19.6222C32.6245 19.5871 32.5715 19.534 32.5715 19.4547L32.6421 19.1627L32.872 18.526H34.0039L34.34 19.4633L34.1718 19.6222V19.6405H35.1007V19.6222L34.8177 19.3482L33.7385 16.6769L33.0313 16.6765ZM33.8716 18.1982H32.9958L33.4294 17.0661L33.8716 18.1982ZM22.507 16.6941C22.5866 16.73 22.6573 16.8182 22.6928 16.9506V19.3482L22.507 19.6222V19.6405H24.3645L24.5588 19.048H24.5502C24.3293 19.251 24.0463 19.331 23.7189 19.3127L23.1619 19.251V18.1985H23.489C23.7013 18.1896 23.8426 18.2337 23.8867 18.3219H23.9047V17.8448H23.8867L23.6923 17.88H23.1619V17.0399L23.6217 17.004C23.8516 17.004 24.0284 17.0664 24.1435 17.1898H24.1611V16.6679H24.1435L23.9398 16.6769H22.507V16.6941ZM25.7528 16.6765V16.6941L25.9296 16.9506V19.3482L25.7528 19.6222V19.6405H26.5931V19.6222C26.4959 19.5871 26.4163 19.5075 26.4073 19.3482L26.3898 17.004L26.7082 16.9509C26.8585 16.9334 26.9912 16.9868 27.1153 17.084C27.2125 17.1723 27.2656 17.3046 27.2656 17.4553C27.2656 17.809 27.0181 18.0131 26.5049 18.1013L27.4689 19.4192C27.5927 19.5699 27.7605 19.6405 27.9818 19.6405H28.3975L27.6723 19.0121L27.0353 18.1985L27.5217 17.9155C27.6719 17.7649 27.7429 17.5966 27.7429 17.4112C27.7429 17.1898 27.6544 17.0223 27.5041 16.8892C27.3359 16.7569 27.0974 16.6769 26.814 16.6769L25.7528 16.6765ZM43.3787 16.6941V16.6765H42.6004V16.6941L42.7511 16.8979L42.4857 18.9941C42.4326 19.2947 42.3533 19.5071 42.2292 19.6219V19.6402H42.9716V19.6219L42.8034 19.4013L42.8217 19.0476L43.0782 17.1371L43.9181 19.1452C44.0246 19.3841 44.157 19.5699 44.3252 19.6847L45.3247 17.1192L45.5719 19.2779C45.5719 19.4637 45.5277 19.5875 45.4036 19.6226V19.6409H46.2709V19.6226L46.0844 19.4196L45.7397 16.9513C45.7221 16.8014 45.7756 16.7131 45.8814 16.6948V16.6772H45.1031V16.6948L45.0324 16.9696L44.29 18.8801L43.3787 16.6941ZM47.3321 16.6941C47.429 16.73 47.4996 16.8182 47.5261 16.9506V19.3482C47.4996 19.5071 47.429 19.5871 47.3321 19.6222V19.6405H49.2068L49.4105 19.048C49.1716 19.251 48.8887 19.331 48.5616 19.3127L47.9863 19.251V18.1985H48.3227C48.5433 18.1896 48.6763 18.2337 48.7291 18.3219H48.7474V17.8448H48.7291L48.5261 17.88H47.9867V17.0399L48.4461 17.004C48.7032 17.004 48.8887 17.0664 48.9862 17.1898H49.0038V16.6679L47.3325 16.6769L47.3321 16.6941ZM38.8066 16.8889L38.6825 16.6941V16.6765H38.0283V16.6941L38.2313 16.933L38.2579 17.2519V19.0476L38.2313 19.3841L38.0283 19.6222V19.6405H38.8156V19.6222L38.6208 19.3841L38.585 19.0476V17.3226L40.1239 19.2682C40.3187 19.5161 40.5393 19.6843 40.7781 19.7725V17.2519L40.814 16.933C40.8316 16.8358 40.8932 16.7565 40.9998 16.6941V16.6765H40.2215V16.6941L40.4245 16.933L40.4428 18.9583L38.8066 16.8889ZM7.17179 1.40954C6.49968 0.923133 5.61524 0.666656 4.53642 0.666656H0.600582V0.719744L1.02487 1.05585L1.07795 1.14446L1.26373 1.68395V10.3256C1.17514 10.8386 0.936638 11.1571 0.583008 11.2722V11.3253H3.81087V11.2722L3.62509 11.175C3.34211 10.9537 3.15633 10.6972 3.06774 10.4142C2.99709 10.1936 2.97055 9.78646 2.97055 9.22903V1.93146L4.11142 1.83425C4.81007 1.83425 5.34948 1.98455 5.73862 2.29412L6.0571 2.63058C6.27803 2.94876 6.39316 3.33796 6.39316 3.82473C6.39316 4.55003 6.084 5.14262 5.46461 5.638C4.90726 6.05374 4.27066 6.27471 3.51032 6.31022C3.81087 6.46052 4.20001 6.53118 4.68634 6.54912H4.81007C5.70347 6.53118 6.49932 6.23955 7.15386 5.71763C7.87905 5.12504 8.23268 4.39974 8.23268 3.50619C8.23268 2.87845 8.06483 2.35617 7.71084 1.92285L7.17179 1.40954Z" fill="white"/>
<path fill-rule="evenodd" clip-rule="evenodd" d="M1.07786 1.14446L1.02441 1.05586H0.989258V1.10859L1.07786 1.14446Z" fill="#A6A8AA"/>
<path fill-rule="evenodd" clip-rule="evenodd" d="M15.8823 16.8007L15.8206 16.6941V16.6766H15.1574V16.6941L15.3608 16.933L15.3963 17.2519V19.0476L15.3608 19.3841L15.1574 19.6223V19.6406H15.9533V19.6223L15.7499 19.3841L15.7144 19.0476V17.3226L17.2534 19.2682C17.4568 19.5161 17.678 19.6843 17.9169 19.7726V17.2519C17.8993 17.1013 17.9169 16.9865 17.9259 16.933C17.9614 16.8358 18.032 16.7565 18.1472 16.6941V16.6766H17.3596V16.6941L17.554 16.933L17.5715 18.9583L15.8823 16.8007ZM19.2432 16.6676H19.2256L19.0754 17.1895H19.0929C19.217 17.0661 19.3849 17.0037 19.6148 17.0037H20.0218L20.0039 19.3479C19.9684 19.4802 19.9067 19.5692 19.8181 19.6219V19.6402H20.7026V19.6219L20.4992 19.3837C20.473 19.2736 20.4671 19.1596 20.4816 19.0473V17.0037H20.8883C21.0917 17.0037 21.2244 17.0661 21.2775 17.1895L21.4277 16.6676H21.4102L21.2068 16.6766H19.4114L19.2432 16.6676ZM11.8496 16.6766V16.6941C11.9468 16.73 12.0178 16.8182 12.0354 16.9506V19.3482C12.0178 19.5071 11.9468 19.5871 11.8496 19.6223V19.6406H13.7157L13.928 19.048H13.9104C13.6716 19.251 13.4062 19.331 13.0791 19.3127L12.5041 19.251V18.1986H12.8488C13.0611 18.1896 13.1849 18.2337 13.229 18.322H13.2645V17.8449H13.229L13.0522 17.88H12.5041V17.0399L12.9639 17.0041C13.2204 17.0041 13.3886 17.0665 13.5033 17.1899V16.6679L13.2824 16.6769L11.8496 16.6766Z" fill="white"/>
</svg>
