<svg width="48" height="48" viewBox="0 0 48 48" fill="none" xmlns="http://www.w3.org/2000/svg">
<g opacity="0.8">
<path d="M29.9086 41.8717C30.049 40.8003 30.4366 39.7761 31.0408 38.8801C31.0556 38.8535 31.0687 38.826 31.0801 38.7977C44.0177 31.2024 44.7937 14.6138 44.8001 14.4297C44.8069 14.2492 44.7524 14.0717 44.6455 13.9262C44.5385 13.7806 44.3854 13.6756 44.2111 13.6282C36.2477 11.4562 33.0326 3.6435 32.7713 2.97469C32.4661 0.935437 28.0894 0 24.0009 0C19.9125 0 15.5358 0.935437 15.2304 2.97469C14.9692 3.6435 11.7541 11.4562 3.79078 13.6281C3.61647 13.6755 3.46335 13.7805 3.35638 13.9261C3.24942 14.0716 3.19491 14.2491 3.20174 14.4296C3.20812 14.6138 3.98428 31.2024 16.9218 38.7976C16.9332 38.8258 16.9463 38.8534 16.9611 38.88C17.561 39.778 17.9468 40.8016 18.0888 41.8721C12.99 42.3476 10.4009 43.331 10.4009 44.7999C10.4009 47.8457 21.7298 48 24.0009 48C26.272 48 37.601 47.8457 37.601 44.8C37.601 43.3306 35.0103 42.3472 29.9086 41.8717ZM24.0009 1.60003C28.6385 1.60003 31.0369 2.74725 31.1986 3.20006C31.0369 3.65278 28.6385 4.8 24.0009 4.8C19.3212 4.8 16.9221 3.63197 16.7993 3.21206C16.9221 2.76797 19.3212 1.60003 24.0009 1.60003ZM16.1839 4.77169C16.6259 5.07106 17.1055 5.3106 17.6104 5.48409C17.6661 5.51145 17.7249 5.532 17.7855 5.54531C19.8011 6.14786 21.8974 6.43612 24.0008 6.39994C26.1045 6.43615 28.2011 6.14783 30.2168 5.54513C30.2765 5.5319 30.3344 5.51167 30.3892 5.48484C30.8948 5.31122 31.3752 5.07142 31.8179 4.77169C33.0147 7.2152 34.6603 9.41182 36.6691 11.247C36.4473 11.6481 36.2049 12.0375 35.9429 12.4135C35.4727 12.146 34.9418 12.0036 34.4008 12C33.7663 11.9994 33.1459 12.1876 32.6186 12.5407C32.0914 12.8938 31.6812 13.3959 31.4402 13.9829C31.1993 14.5699 31.1385 15.2154 31.2655 15.8371C31.3926 16.4588 31.7018 17.0286 32.1538 17.474C32.0469 17.6358 31.9393 17.7885 31.8262 17.9502C31.3852 17.7232 30.8968 17.6033 30.4008 17.6001C28.6342 17.6019 27.2027 19.0335 27.2008 20.8C27.2044 21.3164 27.3346 21.8241 27.5798 22.2786L26.4407 23.2534C25.0131 22.1155 22.9884 22.1155 21.5608 23.2534L20.4216 22.2786C20.667 21.8241 20.7971 21.3165 20.8007 20.8C20.7988 19.0335 19.3672 17.6019 17.6007 17.6001C17.1047 17.6033 16.6163 17.7232 16.1752 17.9502C16.0621 17.7885 15.9546 17.6358 15.8477 17.474C16.9983 16.3577 17.1405 14.5605 16.1799 13.2771C15.2194 11.9936 13.4548 11.6237 12.0595 12.4132C11.797 12.0374 11.5546 11.6479 11.3334 11.2463C13.3419 9.41133 14.9873 7.21493 16.1839 4.77169ZM36.0009 15.2C36.0009 16.0837 35.2846 16.8 34.4009 16.8C33.5177 16.799 32.8019 16.0832 32.8009 15.2C32.8009 14.3163 33.5172 13.5999 34.4009 13.5999C35.2846 13.5999 36.0009 14.3164 36.0009 15.2ZM32.0009 20.8C32.0015 21.1191 31.9066 21.431 31.7283 21.6956C31.55 21.9601 31.2965 22.1652 31.0006 22.2844C30.7046 22.4036 30.3797 22.4313 30.0679 22.3641C29.756 22.2969 29.4714 22.1379 29.2507 21.9074L29.2486 21.9036L29.2457 21.9013C28.643 21.2681 28.6611 20.268 29.2864 19.6571C29.9117 19.0462 30.9119 19.0512 31.5309 19.6686L31.5322 19.6701L31.5325 19.6702C31.6811 19.8184 31.799 19.9945 31.8794 20.1884C31.9598 20.3823 32.0011 20.5901 32.0009 20.8ZM26.4009 26.4C26.4009 27.7254 25.3265 28.8 24.0009 28.8C22.6754 28.8 21.6009 27.7254 21.6009 26.4C21.6023 25.0751 22.6761 24.0014 24.0009 24C25.3264 24 26.4009 25.0746 26.4009 26.4ZM16.4693 19.6702L16.4697 19.67L16.471 19.6685C17.0894 19.0475 18.0926 19.0405 18.7195 19.653C19.3463 20.2655 19.3627 21.2686 18.7563 21.9012L18.7534 21.9035L18.7512 21.9073C18.6043 22.0571 18.4294 22.1766 18.2363 22.2588C18.0433 22.341 17.8359 22.3844 17.6261 22.3865C17.4163 22.3885 17.2081 22.3493 17.0135 22.2709C16.8188 22.1925 16.6415 22.0766 16.4917 21.9297C16.3419 21.7828 16.2224 21.6078 16.1402 21.4148C16.058 21.2217 16.0146 21.0144 16.0126 20.8045C16.0105 20.5947 16.0498 20.3866 16.1281 20.1919C16.2065 19.9973 16.3224 19.82 16.4693 19.6702ZM15.2009 15.2C15.2009 16.0837 14.4846 16.8 13.6009 16.8C12.7172 16.8 12.0009 16.0837 12.0009 15.2C12.002 14.3167 12.7177 13.601 13.601 13.5999C14.4846 13.6 15.2009 14.3164 15.2009 15.2ZM4.84621 14.9856C6.73309 14.3899 8.50336 13.4739 10.0795 12.2778C10.3256 12.7071 10.5959 13.122 10.8891 13.5206C10.5721 14.0236 10.4029 14.6055 10.4009 15.2001C10.4028 16.9666 11.8343 18.3982 13.6009 18.4C13.8907 18.3959 14.1786 18.3519 14.4564 18.2692C14.6166 18.5134 14.7831 18.7508 14.9596 18.9982C14.0953 20.2585 14.2445 21.9543 15.3155 23.0443C16.3865 24.1343 18.0793 24.3134 19.3546 23.4714L20.52 24.4688C20.1842 25.0573 20.0054 25.7224 20.0009 26.4C20.0009 28.6091 21.7918 30.4 24.0009 30.4C26.2101 30.4 28.001 28.6092 28.001 26.4C27.9965 25.7224 27.8177 25.0573 27.4819 24.4688L28.6473 23.4714C29.9226 24.3119 31.6145 24.1323 32.6849 23.0427C33.7553 21.9533 33.9051 20.2585 33.0423 18.9982C33.2187 18.7508 33.3852 18.5134 33.5454 18.2691C33.8233 18.3518 34.1111 18.3958 34.401 18.3999C36.1675 18.3981 37.5991 16.9665 37.601 15.2C37.5989 14.6055 37.4298 14.0235 37.1128 13.5205C37.406 13.1219 37.6762 12.707 37.9223 12.2777C39.4985 13.4738 41.2688 14.3898 43.1556 14.9855C42.8486 18.3218 40.6314 34.2378 26.1408 39.3257C24.7553 39.8101 23.2465 39.8101 21.8611 39.3257C7.37043 34.2379 5.15324 18.3218 4.84621 14.9856ZM24.0009 46.4C17.0369 46.4 13.0306 45.4183 12.1282 44.8039C12.634 44.4726 14.2925 43.8468 18.1132 43.4768C18.0744 43.851 18.0039 44.2213 17.9025 44.5836C17.8723 44.6852 17.8627 44.7919 17.8741 44.8973C17.8856 45.0028 17.9179 45.1049 17.9691 45.1978C18.0204 45.2906 18.0896 45.3723 18.1727 45.4382C18.2558 45.5041 18.3512 45.5528 18.4533 45.5815C18.5554 45.6102 18.6622 45.6183 18.7674 45.6053C18.8727 45.5924 18.9743 45.5586 19.0665 45.506C19.1586 45.4535 19.2393 45.3831 19.304 45.299C19.3686 45.215 19.416 45.1189 19.4432 45.0164C19.904 43.3687 19.8482 41.6193 19.2832 40.0044C19.942 40.3014 20.6177 40.5847 21.3315 40.8353C23.0598 41.4399 24.9422 41.4399 26.6706 40.8353C27.3844 40.5847 28.06 40.3014 28.7189 40.0044C28.1539 41.6193 28.098 43.3687 28.5589 45.0164C28.5855 45.1195 28.6325 45.2163 28.697 45.301C28.7616 45.3858 28.8424 45.4568 28.9347 45.5099C29.027 45.563 29.129 45.5972 29.2347 45.6103C29.3404 45.6235 29.4477 45.6155 29.5502 45.5867C29.6528 45.5579 29.7485 45.5089 29.8319 45.4426C29.9153 45.3763 29.9846 45.294 30.0357 45.2006C30.0869 45.1072 30.1189 45.0045 30.1299 44.8985C30.1408 44.7926 30.1305 44.6855 30.0996 44.5836C29.9979 44.2212 29.927 43.8509 29.8874 43.4767C33.709 43.8466 35.3679 44.4725 35.8737 44.8039C34.9713 45.4184 30.965 46.4 24.0009 46.4Z" fill="#0B0C0C"/>
</g>
</svg>
