<svg width="48" height="48" viewBox="0 0 48 48" fill="none" xmlns="http://www.w3.org/2000/svg">
<g opacity="0.8">
<path d="M45.3757 20.04L42.5618 17.7885L42.528 17.7593L45.1478 17.235C45.3177 17.2011 45.4706 17.1094 45.5805 16.9753C45.6903 16.8413 45.7502 16.6733 45.75 16.5V14.25C45.75 14.0511 45.671 13.8603 45.5303 13.7197C45.3897 13.579 45.1989 13.5 45 13.5H41.25C41.0511 13.5 40.8603 13.579 40.7197 13.7197C40.579 13.8603 40.5 14.0511 40.5 14.25V15.564L40.4482 15.4943C40.4006 15.3669 40.3183 15.2554 40.2105 15.1725C39.7882 14.5747 39.4268 13.9762 39.1912 13.4587L37.9237 10.671C37.116 8.89275 34.953 7.5 33 7.5H15C13.047 7.5 10.884 8.89275 10.0763 10.671L8.8095 13.458C8.574 13.9755 8.2125 14.5747 7.79025 15.1725C7.68269 15.2556 7.60037 15.367 7.5525 15.4943L7.50075 15.564V14.25C7.50075 14.0511 7.42173 13.8603 7.28108 13.7197C7.14043 13.579 6.94966 13.5 6.75075 13.5H3C2.80109 13.5 2.61032 13.579 2.46967 13.7197C2.32902 13.8603 2.25 14.0511 2.25 14.25V16.5C2.25 16.8577 2.502 17.1652 2.853 17.235L5.47275 17.7593L5.439 17.7885L2.62425 20.04C1.15275 21.2175 0 23.616 0 25.5V38.25C0 39.4905 1.0095 40.5 2.25 40.5H8.25C9.4905 40.5 10.5 39.4905 10.5 38.25V36.75H37.5V38.25C37.5 39.4905 38.5095 40.5 39.75 40.5H45.75C46.9905 40.5 48 39.4905 48 38.25V25.5C48 23.616 46.8472 21.2175 45.3757 20.04ZM38.5605 35.25L36.8407 33.5303C36.111 32.8005 34.782 32.25 33.75 32.25H13.875C12.843 32.25 11.514 32.8005 10.7843 33.5303L9.0645 35.25H3.75C2.5095 35.25 1.5 34.2405 1.5 33V29.25H2.25V30C2.25 31.6545 3.5955 33 5.25 33H7.5C7.69891 33 7.88968 32.921 8.03033 32.7803C8.17098 32.6397 8.25 32.4489 8.25 32.25C8.25 32.0511 8.17098 31.8603 8.03033 31.7197C7.88968 31.579 7.69891 31.5 7.5 31.5H5.25C4.42275 31.5 3.75 30.8272 3.75 30V29.25H5.25C5.8725 29.25 6.84 29.6505 7.28025 30.0907C7.34974 30.1606 7.43236 30.2161 7.52336 30.2539C7.61436 30.2918 7.71194 30.3113 7.8105 30.3113C7.90906 30.3113 8.00664 30.2918 8.09764 30.2539C8.18864 30.2161 8.27126 30.1606 8.34075 30.0907C8.41046 30.0212 8.46576 29.9385 8.5035 29.8475C8.54123 29.7565 8.56065 29.659 8.56065 29.5605C8.56065 29.462 8.54123 29.3645 8.5035 29.2735C8.46576 29.1825 8.41046 29.0998 8.34075 29.0303C7.611 28.3005 6.28275 27.75 5.25 27.75H1.5V25.5C1.5 25.2353 1.542 24.9495 1.60125 24.6577C2.08125 25.1587 2.7795 25.5 3.75 25.5H9.75C9.9489 25.5 10.1396 25.4209 10.2802 25.2803L11.25 24.3105L12.2197 25.2803C12.2893 25.35 12.372 25.4053 12.463 25.443C12.5539 25.4807 12.6515 25.5001 12.75 25.5H21.4395L23.4697 27.5303C23.5392 27.6001 23.6219 27.6556 23.7129 27.6934C23.8039 27.7313 23.9014 27.7508 24 27.7508C24.0986 27.7508 24.1961 27.7313 24.2871 27.6934C24.3781 27.6556 24.4608 27.6001 24.5303 27.5303L26.5605 25.5H35.25C35.4487 25.5 35.64 25.4213 35.7803 25.2803L36.75 24.3105L37.7197 25.2803C37.7893 25.35 37.872 25.4053 37.963 25.443C38.0539 25.4807 38.1515 25.5001 38.25 25.5H44.25C45.2205 25.5 45.9188 25.1587 46.3988 24.6577C46.458 24.9495 46.5 25.2353 46.5 25.5V27.75H42.75C41.718 27.75 40.389 28.3005 39.6593 29.0303C39.5896 29.0999 39.5344 29.1826 39.4967 29.2735C39.459 29.3645 39.4396 29.462 39.4396 29.5605C39.4396 29.659 39.459 29.7565 39.4967 29.8475C39.5344 29.9384 39.5896 30.0211 39.6593 30.0907C39.7289 30.1604 39.8116 30.2156 39.9025 30.2533C39.9935 30.291 40.091 30.3104 40.1895 30.3104C40.288 30.3104 40.3855 30.291 40.4765 30.2533C40.5674 30.2156 40.6501 30.1604 40.7197 30.0907C41.16 29.6505 42.1275 29.25 42.75 29.25H44.25V30C44.25 30.8272 43.5773 31.5 42.75 31.5H40.5C40.3011 31.5 40.1103 31.579 39.9697 31.7197C39.829 31.8603 39.75 32.0511 39.75 32.25C39.75 32.4489 39.829 32.6397 39.9697 32.7803C40.1103 32.921 40.3011 33 40.5 33H42.75C44.4045 33 45.75 31.6545 45.75 30V29.25H46.5V33C46.5 34.2405 45.4905 35.25 44.25 35.25H38.5605ZM36.4395 35.25H11.1855L11.8448 34.5907C12.285 34.1505 13.2525 33.75 13.875 33.75H33.75C34.3725 33.75 35.34 34.1505 35.7803 34.5907L36.4395 35.25ZM8.67 16.5H39.33C40.0567 17.4607 40.887 18.3698 41.6243 18.96L42.5265 19.6815L37.2218 21.8032L37.2202 21.804C37.1268 21.8417 37.0418 21.8978 36.9705 21.969L36.2205 22.719L34.9395 24H26.25C26.1515 23.9999 26.0539 24.0193 25.963 24.057C25.872 24.0947 25.7893 24.15 25.7197 24.2197L24 25.9395L22.2803 24.2197C22.2107 24.15 22.128 24.0947 22.037 24.057C21.9461 24.0193 21.8485 23.9999 21.75 24H13.0605L11.7802 22.7197L11.0302 21.9697C10.9589 21.8985 10.874 21.8424 10.7805 21.8048L10.779 21.804L5.47425 19.6823L6.3765 18.9608C7.113 18.3698 7.94325 17.4607 8.67 16.5ZM45.7057 22.8143C45.555 23.598 45.069 24 44.25 24H38.5605L37.8105 23.25L37.9215 23.139L43.8727 20.7585L44.4382 21.2115C44.9137 21.5918 45.3525 22.17 45.7057 22.8143ZM42 15H44.25V15.885L42 16.335V15ZM10.1737 14.079L11.4405 11.292C12.006 10.0492 13.6357 9 15 9H33C34.3643 9 35.994 10.0493 36.5588 11.2913L37.8263 14.079C37.9583 14.3685 38.13 14.6813 38.3182 15H9.68175C9.87 14.6813 10.0425 14.3685 10.1737 14.079ZM3.75 15H6V16.335L3.75 15.885V15ZM3.561 21.2115L4.1265 20.7585L10.0785 23.139L10.1895 23.25L9.4395 24H3.75C2.931 24 2.445 23.598 2.29425 22.8143C2.6475 22.17 3.0855 21.5918 3.561 21.2115ZM8.25 39H2.25C1.83675 39 1.5 38.6632 1.5 38.25V35.9812C2.14555 36.477 2.93604 36.7471 3.75 36.75H9V38.25C9 38.6632 8.66325 39 8.25 39ZM45.75 39H39.75C39.3368 39 39 38.6632 39 38.25V36.75H44.25C45.0975 36.75 45.8715 36.4567 46.5 35.9812V38.25C46.5 38.6632 46.1632 39 45.75 39Z" fill="#0B0C0C"/>
</g>
</svg>
