<svg width="48" height="48" viewBox="0 0 48 48" fill="none" xmlns="http://www.w3.org/2000/svg">
<g opacity="0.8" clip-path="url(#clip0_2006_231)">
<path fill-rule="evenodd" clip-rule="evenodd" d="M5.65916 42.9792L5.65111 23.6475L5.0749 24.1438C5.03983 24.1863 4.99785 24.2243 4.94983 24.2565C4.77415 24.3741 4.58409 24.475 4.38282 24.5573C4.18184 24.6395 3.97626 24.7007 3.76924 24.7398C2.90637 24.9029 2.05903 24.7004 1.3865 24.2418C0.714258 23.7832 0.216547 23.0673 0.0535191 22.2033C-0.0396399 21.7093 -0.0140498 21.209 0.119651 20.7406C0.253639 20.2714 0.496312 19.832 0.836745 19.4614C0.882174 19.4122 0.933642 19.3726 0.989422 19.3424L20.8996 2.06195C20.924 2.03147 20.9519 2.00329 20.9832 1.9777C21.0361 1.934 21.0896 1.89173 21.1437 1.8509C21.152 1.84458 21.1601 1.83825 21.1687 1.83221C21.2322 1.78477 21.2969 1.73906 21.3619 1.69535C21.491 1.60909 21.6264 1.52772 21.7679 1.45239C22.6383 0.988033 23.6052 0.817529 24.5379 0.925639C25.3388 1.01807 26.1026 1.31394 26.7568 1.78506C26.8002 1.80662 26.8413 1.83394 26.8796 1.86701L27.0271 1.99495C27.057 2.01997 27.0863 2.04498 27.1156 2.07086C27.1228 2.07719 27.13 2.0838 27.1366 2.09013L33.7935 7.86771V4.0111C33.7935 3.97171 33.7975 3.93347 33.8047 3.89609C33.8607 3.09044 34.2179 2.37133 34.7627 1.84832C35.3297 1.30403 36.0977 0.970493 36.9399 0.970493C37.7818 0.970493 38.55 1.30403 39.117 1.84832C39.6651 2.37449 40.0233 3.09906 40.0759 3.91104C40.0814 3.94353 40.0846 3.97688 40.0846 4.01081V13.3284L47.022 19.3498C47.0729 19.3792 47.1204 19.4163 47.1624 19.4617C47.1767 19.4775 47.1911 19.4933 47.2052 19.5094C47.2365 19.539 47.2639 19.5715 47.2869 19.6057C47.5592 19.9401 47.7607 20.3263 47.8792 20.7409C48.0129 21.2093 48.0385 21.7096 47.9453 22.2036C47.782 23.0676 47.2846 23.7832 46.6123 24.2421C45.9401 24.7007 45.0924 24.9032 44.2296 24.7401C44.0225 24.701 43.8167 24.6398 43.616 24.5575C43.4519 24.4907 43.2937 24.4103 43.143 24.3172C43.0878 24.2939 43.0352 24.2617 42.9874 24.2203L42.3667 23.6855L42.3589 42.9392C42.3601 42.9504 42.3609 42.9613 42.3615 42.9728C42.4087 43.8711 42.1459 44.7285 41.6562 45.4272C41.166 46.1261 40.4486 46.6658 39.5866 46.9281C39.358 46.9976 39.1288 47.0459 38.902 47.0727C38.674 47.0994 38.4413 47.106 38.2073 47.0917L9.81336 47.0983C9.57931 47.1127 9.3467 47.1063 9.11869 47.0793C8.89184 47.0526 8.66268 47.0043 8.43409 46.9347C7.57208 46.6722 6.8547 46.1328 6.36447 45.4338C5.87452 44.7351 5.61201 43.8777 5.65887 42.9794L5.65916 42.9792ZM6.8225 22.6389L6.83084 42.9792C6.83199 42.999 6.83199 43.0191 6.83084 43.0395C6.79777 43.6715 6.98179 44.2739 7.3251 44.7633C7.67702 45.2658 8.1874 45.6358 8.77452 45.8139C8.92605 45.8602 9.08592 45.893 9.25239 45.9125C9.41744 45.9321 9.58219 45.9367 9.74493 45.9269C9.76822 45.9257 9.79122 45.9257 9.81394 45.9269H10.3344L10.3346 29.5453C10.3134 29.1347 10.4338 28.7425 10.6581 28.4225C10.883 28.1019 11.2119 27.8546 11.607 27.7344C11.7148 27.7017 11.82 27.6792 11.9215 27.6672C12.0242 27.6551 12.1303 27.6522 12.2378 27.6588H20.7981C20.8909 27.6554 20.9821 27.6588 21.0712 27.6695C21.1727 27.6815 21.278 27.7037 21.3855 27.7365C21.7806 27.8566 22.1095 28.1042 22.3343 28.4245C22.5323 28.7062 22.645 29.039 22.659 29.3831C22.669 29.4265 22.6745 29.4717 22.6745 29.518V45.9234L38.2082 45.9197C38.2309 45.9186 38.2542 45.9186 38.2775 45.9197C38.4399 45.9298 38.605 45.9249 38.77 45.9053C38.9365 45.8858 39.0963 45.8527 39.2479 45.8067C39.852 45.623 40.3543 45.2452 40.6973 44.7561C41.0416 44.2652 41.2158 43.6752 41.1933 43.0761C41.1904 43.0519 41.1887 43.0272 41.1887 43.0024L41.197 22.6765L26.2364 9.78983C26.2148 9.77143 26.1953 9.75159 26.1771 9.73089C25.6547 9.32576 25.0403 9.08223 24.4057 9.00891C23.7004 8.92725 22.9724 9.05462 22.32 9.40253C22.2173 9.45716 22.1155 9.51841 22.0149 9.58569C21.9203 9.64894 21.8297 9.71594 21.7437 9.78609L21.7397 9.78955L6.8225 22.6389ZM24.6308 15.8871V19.4433H28.187C28.0576 18.5229 27.6289 17.6983 27.0021 17.072C26.3755 16.4455 25.5512 16.0165 24.6308 15.8871ZM23.4545 19.4433V15.8871C22.5339 16.0165 21.7095 16.4455 21.083 17.072C20.4565 17.6986 20.0275 18.5229 19.8981 19.4433H23.4545ZM19.2992 20.6187C19.3093 20.6193 19.3193 20.6196 19.3291 20.6196H28.8161C29.1407 20.6196 29.4041 20.3562 29.4041 20.0316C29.4041 18.5511 28.804 17.2106 27.8336 16.2405C26.8635 15.2701 25.523 14.67 24.0425 14.67C22.5621 14.67 21.2216 15.2701 20.2515 16.2405C19.2814 17.2106 18.681 18.5511 18.681 20.0316C18.681 20.3562 18.9444 20.6196 19.269 20.6196C19.2793 20.6196 19.2894 20.6193 19.2992 20.6187ZM26.1585 32.2325H30.7163V29.4757H26.1585V32.2325ZM31.8923 32.2325H36.4502V29.4757H31.8923V32.2325ZM36.4502 33.4085H31.8923V36.1653H36.4502V33.4085ZM30.7163 33.4085H26.1585V36.1653H30.7163V33.4085ZM25.5705 37.3413H37.0382C37.3628 37.3413 37.6262 37.0779 37.6262 36.7533V28.8877C37.6262 28.5631 37.3628 28.2997 37.0382 28.2997H25.5705C25.2456 28.2997 24.9825 28.5631 24.9825 28.8877V36.7533C24.9822 37.0779 25.2456 37.3413 25.5705 37.3413ZM12.6613 39.6231H14.1024C14.427 39.6231 14.6904 39.3598 14.6904 39.0351C14.6904 38.7102 14.427 38.4469 14.1024 38.4469H12.6613C12.3364 38.4469 12.0733 38.7102 12.0733 39.0351C12.073 39.3598 12.3364 39.6231 12.6613 39.6231ZM21.5019 45.924L21.5022 29.6606C21.4881 29.6043 21.4825 29.5463 21.4855 29.4884C21.493 29.3437 21.4513 29.2066 21.3734 29.0956C21.2958 28.9849 21.1819 28.8995 21.0448 28.8575C21.0146 28.8483 20.9784 28.8411 20.9372 28.8362C20.8973 28.8316 20.859 28.8305 20.8228 28.8325C20.7903 28.8345 20.7584 28.8337 20.7271 28.8302H12.2366C12.2142 28.8314 12.1912 28.8316 12.1682 28.8302C12.132 28.8282 12.0937 28.8293 12.0541 28.8339C12.0129 28.8388 11.9767 28.8457 11.9462 28.8549C11.8132 28.8954 11.6975 28.9792 11.6176 29.093C11.54 29.204 11.498 29.3411 11.5057 29.4861C11.5069 29.5068 11.5069 29.5272 11.5057 29.5473L11.5055 45.9263L21.5019 45.924ZM34.9715 4.0341C34.9712 4.04273 34.9706 4.05107 34.97 4.05912V8.88901L38.9089 12.3077V4.03094C38.8867 3.50505 38.6587 3.03379 38.3042 2.69336C37.9508 2.35408 37.4698 2.14648 36.9402 2.14648C36.4105 2.14648 35.9295 2.35436 35.5761 2.69365C35.221 3.03466 34.9927 3.50706 34.9715 4.0341ZM27.1159 8.98734C27.1429 9.01092 27.1674 9.03651 27.1887 9.06354L43.6795 23.2686C43.687 23.2732 43.6945 23.2778 43.7017 23.2826C43.8167 23.3597 43.936 23.4235 44.0573 23.473C44.179 23.5227 44.3092 23.561 44.4461 23.5869C44.9915 23.6898 45.5266 23.5621 45.9513 23.2726C46.376 22.9828 46.6899 22.5316 46.7926 21.9876C46.8512 21.6771 46.8346 21.3608 46.7495 21.0626C46.6731 20.7943 46.5416 20.5449 46.3633 20.3303L26.2553 2.87824C25.7162 2.43545 25.0719 2.17035 24.4048 2.093C23.6995 2.01134 22.9715 2.13872 22.3191 2.48663C22.2167 2.54126 22.1149 2.6025 22.0143 2.67007C21.968 2.70112 21.9229 2.73275 21.8786 2.76553L1.62515 20.3441C1.45253 20.5557 1.32494 20.8003 1.25021 21.0629C1.1651 21.3608 1.14842 21.6774 1.20708 21.9879C1.30973 22.5319 1.624 22.9833 2.04839 23.2729C2.47307 23.5624 3.00815 23.6901 3.55359 23.5871C3.69046 23.5613 3.82071 23.523 3.94233 23.4733C4.0375 23.4345 4.13124 23.3867 4.22267 23.3309L20.972 8.90338C20.9812 8.89533 20.9907 8.88786 21.0002 8.88038C21.1178 8.78435 21.2386 8.69464 21.3619 8.61212C21.491 8.52586 21.6264 8.44449 21.7682 8.36916C22.6385 7.9048 23.6055 7.7343 24.5382 7.84212C25.4724 7.95023 26.3752 8.33724 27.1159 8.98734Z" fill="black"/>
</g>
<defs>
<clipPath id="clip0_2006_231">
<rect width="48" height="48" fill="white"/>
</clipPath>
</defs>
</svg>
