<svg width="48" height="48" viewBox="0 0 48 48" fill="none" xmlns="http://www.w3.org/2000/svg">
<g opacity="0.8">
<path d="M18.1236 29.0607C20.098 22.6248 23.8545 18.7379 23.8545 18.7379V14.266L16.9414 8.58948L23.0248 3.13606C24.6776 1.65387 27.1845 1.66325 28.8261 3.15762L29.4748 3.74824C30.9729 5.11324 33.2642 5.11324 34.7632 3.74824L35.412 3.15762C36.6954 1.9895 38.5076 1.72887 40.0273 2.3795" stroke="#0B0C0C" stroke-miterlimit="10" stroke-linecap="round" stroke-linejoin="round"/>
<path d="M42.2609 4.07537L47.2971 8.58942L40.3839 14.266V18.7378C40.3839 18.7378 47.2971 25.8909 47.2971 36.855C47.2971 36.855 41.2803 39.0515 32.12 39.0515C31.2959 39.0515 30.4972 39.0337 29.7266 39.0009" stroke="#0B0C0C" stroke-miterlimit="10" stroke-linecap="round" stroke-linejoin="round"/>
<path d="M39.4707 29.3727C39.9574 31.9677 40.3256 35.0226 40.3782 38.4443" stroke="#0B0C0C" stroke-miterlimit="10" stroke-linecap="round" stroke-linejoin="round"/>
<path d="M42.7969 30.8357C43.1841 32.8982 43.4962 35.2513 43.6342 37.8481" stroke="#0B0C0C" stroke-miterlimit="10" stroke-linecap="round" stroke-linejoin="round"/>
<path d="M23.8555 14.2659V9.90304" stroke="#0B0C0C" stroke-miterlimit="10" stroke-linecap="round" stroke-linejoin="round"/>
<path d="M40.3828 14.2659V9.90304" stroke="#0B0C0C" stroke-miterlimit="10" stroke-linecap="round" stroke-linejoin="round"/>
<path d="M40.3834 18.7383C34.9154 19.6927 29.3234 19.6927 23.8555 18.7383" stroke="#0B0C0C" stroke-miterlimit="10" stroke-linecap="round" stroke-linejoin="round"/>
<path d="M10.556 29.0925C15.8528 28.9763 21.1487 29.0579 26.4456 29.3344C27.9653 29.4132 29.2132 30.5663 29.4054 32.0757C29.8684 35.6953 29.8684 39.315 29.4054 42.9347C29.2132 44.4441 27.9653 45.5972 26.4456 45.6769C18.9723 46.0669 11.4838 46.0669 4.01045 45.6769C2.49077 45.5972 1.24287 44.4441 1.04983 42.9347C0.587555 39.315 0.587555 35.6953 1.04983 32.0757C1.24287 30.5663 2.49077 29.4132 4.01045 29.3344C5.25639 29.2697 6.50326 29.2153 7.74919 29.1722" stroke="#0B0C0C" stroke-miterlimit="10" stroke-linecap="round" stroke-linejoin="round"/>
<path d="M20.9023 39.8315C22.7502 39.7828 24.597 39.7097 26.4448 39.6131C27.9645 39.5344 29.2133 38.3822 29.4054 36.8728C29.5086 36.0731 29.5873 35.2734 29.6445 34.4747" stroke="#0B0C0C" stroke-miterlimit="10" stroke-linecap="round" stroke-linejoin="round"/>
<path d="M0.810547 34.4747C0.869609 35.2734 0.948453 36.0731 1.05064 36.8728C1.24273 38.3822 2.49054 39.5344 4.01126 39.6131C6.12244 39.7237 8.23513 39.8034 10.3486 39.8522" stroke="#0B0C0C" stroke-miterlimit="10" stroke-linecap="round" stroke-linejoin="round"/>
<path d="M19.0143 42.0756C16.7559 42.1992 14.4925 42.1992 12.2341 42.0756C11.245 42.0215 10.4564 41.2386 10.3768 40.2512C10.2676 38.8982 10.2676 37.5386 10.3768 36.1856C10.4564 35.1982 11.245 34.4153 12.2341 34.3612C14.4925 34.2376 16.7559 34.2376 19.0143 34.3612C20.0034 34.4153 20.792 35.1982 20.8716 36.1856C20.9808 37.5386 20.9808 38.8982 20.8716 40.2512C20.792 41.2386 20.0034 42.0215 19.0143 42.0756Z" stroke="#0B0C0C" stroke-miterlimit="10" stroke-linecap="round" stroke-linejoin="round"/>
<path d="M15.6239 39.6702C14.699 39.6702 13.763 39.6482 12.8351 39.6048C12.7789 38.6814 12.7789 37.7555 12.8351 36.8321C13.763 36.7887 14.699 36.7666 15.6239 36.7666C16.5485 36.7666 17.4845 36.7887 18.4124 36.8321C18.4686 37.7539 18.4686 38.683 18.4124 39.6048C17.4835 39.6483 16.5538 39.67 15.6239 39.6702Z" stroke="#0B0C0C" stroke-miterlimit="10" stroke-linecap="round" stroke-linejoin="round"/>
<path d="M26.4457 29.3341C25.8136 22.9273 6.54496 19.7159 6.54496 13.055C6.54496 6.3943 16.6554 8.05995 15.228 15.0773C13.8004 22.0947 3.26081 24.4415 4.01081 29.3341" stroke="#0B0C0C" stroke-miterlimit="10" stroke-linecap="round" stroke-linejoin="round"/>
<path d="M26.9258 2.15006C27.1498 3.20474 28.9058 10.9588 32.1195 12.0847C35.3333 10.9588 37.0901 3.20474 37.3142 2.15006" stroke="#0B0C0C" stroke-miterlimit="10" stroke-linecap="round" stroke-linejoin="round"/>
</g>
</svg>
