<svg width="48" height="48" viewBox="0 0 48 48" fill="none" xmlns="http://www.w3.org/2000/svg">
<g opacity="0.8">
<path d="M16.4922 22.5C19.8006 22.5 22.4922 20.3131 22.4922 17.625C22.4922 17.426 22.4132 17.2353 22.2725 17.0946C22.1319 16.954 21.9411 16.875 21.7422 16.875C21.5433 16.875 21.3525 16.954 21.2119 17.0946C21.0712 17.2353 20.9922 17.426 20.9922 17.625C20.9922 19.2943 19.3676 20.6836 17.2422 20.9521V18.5718C17.3215 18.5323 17.3976 18.4865 17.4698 18.4351L18.7427 17.5267C18.9762 17.3572 19.1661 17.1345 19.2964 16.877C19.4267 16.6195 19.4938 16.3346 19.4921 16.046C19.4921 15.0558 18.7173 14.2502 17.765 14.2502H15.2192C14.2669 14.2502 13.4922 15.0558 13.4922 16.046C13.4905 16.3346 13.5576 16.6195 13.6879 16.877C13.8182 17.1345 14.008 17.3572 14.2416 17.5267L15.5145 18.4351C15.5867 18.4866 15.6628 18.5323 15.7422 18.5718V20.9521C13.6168 20.6836 11.9922 19.2943 11.9922 17.625C11.9922 17.426 11.9132 17.2353 11.7725 17.0946C11.6319 16.954 11.4411 16.875 11.2422 16.875C11.0433 16.875 10.8525 16.954 10.7119 17.0946C10.5712 17.2353 10.4922 17.426 10.4922 17.625C10.4922 20.3131 13.1837 22.5 16.4922 22.5ZM15.1131 16.3055C15.0742 16.2746 15.043 16.235 15.022 16.1899C15.001 16.1448 14.9909 16.0955 14.9924 16.0457C14.9924 15.8854 15.0964 15.75 15.2194 15.75H17.7653C17.8884 15.75 17.9924 15.8854 17.9924 16.0457C17.9938 16.0955 17.9837 16.1448 17.9627 16.1899C17.9417 16.235 17.9105 16.2746 17.8715 16.3055L16.5987 17.2138C16.5682 17.2373 16.5308 17.25 16.4923 17.25C16.4538 17.25 16.4165 17.2373 16.386 17.2138L15.1131 16.3055Z" fill="#0B0C0C"/>
<path d="M20.9922 14.25C21.4064 14.25 21.7422 13.9142 21.7422 13.5C21.7422 13.0858 21.4064 12.75 20.9922 12.75C20.578 12.75 20.2422 13.0858 20.2422 13.5C20.2422 13.9142 20.578 14.25 20.9922 14.25Z" fill="#0B0C0C"/>
<path d="M11.9922 14.25C12.4064 14.25 12.7422 13.9142 12.7422 13.5C12.7422 13.0858 12.4064 12.75 11.9922 12.75C11.578 12.75 11.2422 13.0858 11.2422 13.5C11.2422 13.9142 11.578 14.25 11.9922 14.25Z" fill="#0B0C0C"/>
<path d="M36 29.25C36.5933 29.25 37.1734 29.0741 37.6667 28.7444C38.1601 28.4148 38.5446 27.9462 38.7716 27.3981C38.9987 26.8499 39.0581 26.2467 38.9424 25.6647C38.8266 25.0828 38.5409 24.5482 38.1213 24.1287C37.7018 23.7091 37.1672 23.4234 36.5853 23.3076C36.0033 23.1919 35.4001 23.2513 34.8519 23.4784C34.3038 23.7054 33.8352 24.0899 33.5056 24.5833C33.1759 25.0766 33 25.6567 33 26.25C33.0009 27.0454 33.3173 27.8079 33.8797 28.3703C34.4421 28.9328 35.2046 29.2491 36 29.25ZM36 24.75C36.2967 24.75 36.5867 24.838 36.8334 25.0028C37.08 25.1676 37.2723 25.4019 37.3858 25.676C37.4994 25.9501 37.5291 26.2517 37.4712 26.5426C37.4133 26.8336 37.2704 27.1009 37.0607 27.3107C36.8509 27.5204 36.5836 27.6633 36.2926 27.7212C36.0017 27.7791 35.7001 27.7494 35.426 27.6358C35.1519 27.5223 34.9176 27.33 34.7528 27.0834C34.588 26.8367 34.5 26.5467 34.5 26.25C34.5005 25.8523 34.6587 25.4711 34.9399 25.1899C35.2211 24.9087 35.6023 24.7505 36 24.75Z" fill="#0B0C0C"/>
<path d="M46.4999 30.75H41.9999V21C42 20.8461 41.9525 20.696 41.864 20.5702L36.614 13.0702C36.5448 12.9714 36.4529 12.8907 36.3459 12.835C36.2389 12.7793 36.1201 12.7502 35.9995 12.7502C35.8789 12.7502 35.7601 12.7793 35.6532 12.835C35.5462 12.8907 35.4543 12.9714 35.3851 13.0702L30.1351 20.5702C30.0468 20.6961 29.9996 20.8462 29.9999 21V25.6934C28.9729 24.3127 27.6026 23.167 25.9107 22.2833C27.5812 20.3198 28.4915 17.7685 28.4915 15C28.4954 13.7767 28.3099 12.5601 27.9414 11.3936C28.672 11.008 29.3012 10.4555 29.7779 9.78097C30.2547 9.10642 30.5656 8.3289 30.6853 7.5116C30.805 6.69429 30.7302 5.86027 30.4669 5.07733C30.2036 4.29439 29.7593 3.58463 29.17 3.00573C28.5808 2.42683 27.8633 1.99514 27.0758 1.74574C26.2883 1.49634 25.4531 1.43628 24.6381 1.57043C23.823 1.70459 23.0511 2.02917 22.3851 2.5178C21.7191 3.00643 21.1778 3.64532 20.8052 4.38253C19.4082 3.95207 17.9533 3.73874 16.4915 3.75C15.0298 3.73874 13.575 3.95211 12.178 4.38262C11.8054 3.64541 11.2641 3.00651 10.5982 2.51788C9.93216 2.02924 9.16026 1.70464 8.3452 1.57048C7.53015 1.43631 6.69493 1.49637 5.90745 1.74575C5.11998 1.99514 4.40245 2.42682 3.81322 3.00571C3.22398 3.5846 2.77965 4.29436 2.51635 5.0773C2.25305 5.86024 2.17821 6.69425 2.29791 7.51156C2.41761 8.32887 2.72848 9.10639 3.20524 9.78094C3.682 10.4555 4.3112 11.008 5.0417 11.3936C4.67321 12.5601 4.48761 13.7767 4.49148 15C4.49148 17.7685 5.40217 20.3199 7.07232 22.2833C3.42095 24.1904 1.26807 27.3182 0.826418 31.3901C0.82548 31.3995 0.824543 31.4089 0.823887 31.4182L0.751793 32.4478C0.749402 32.4816 0.749402 32.5156 0.751793 32.5494C0.81176 33.4273 1.12727 34.2685 1.65943 34.9693C2.1916 35.6701 2.91717 36.1998 3.74673 36.4933C3.2519 37.5074 2.9964 38.6216 2.99992 39.75C2.99992 43.4719 5.69148 46.5 8.99992 46.5C10.7812 46.5 12.3827 45.6214 13.4826 44.2301C14.4081 44.7353 15.4455 45 16.4999 45C17.5543 45 18.5918 44.7353 19.5173 44.2301C20.6171 45.6214 22.2187 46.5 23.9999 46.5C26.3508 46.5 28.389 44.9704 29.3726 42.75H46.4999C46.6988 42.75 46.8896 42.671 47.0302 42.5303C47.1709 42.3897 47.2499 42.1989 47.2499 42V31.5C47.2499 31.3011 47.1709 31.1103 47.0302 30.9697C46.8896 30.829 46.6988 30.75 46.4999 30.75ZM35.9999 14.8078L39.8094 20.25H32.1904L35.9999 14.8078ZM31.4999 21.75H40.4999V30.75H32.0702C31.952 29.9836 31.761 29.2302 31.4999 28.5V21.75ZM29.2506 36.4881C29.9573 36.2344 30.5898 35.8089 31.0913 35.25H32.2499V38.25H29.8487C29.726 37.6394 29.525 37.0472 29.2506 36.4881ZM30.6637 31.5381L30.7312 32.4993C30.6772 33.1341 30.4229 33.7354 30.005 34.2163C29.5871 34.6972 29.0273 35.033 28.4062 35.175C27.4659 34.0298 26.1787 33.252 24.7341 33.0527C24.5975 30.0022 23.5692 27.1874 21.8892 25.2168C22.9484 24.7693 23.9307 24.1579 24.7999 23.4052C28.2354 25.0508 30.2596 27.8524 30.6637 31.5375V31.5381ZM25.4915 3C26.3155 2.99973 27.1167 3.27091 27.7712 3.77162C28.4257 4.27232 28.8971 4.97467 29.1124 5.7701C29.3277 6.56552 29.2751 7.40973 28.9625 8.17222C28.65 8.93471 28.095 9.57303 27.3834 9.9885C26.8598 8.89141 26.1492 7.89388 25.2834 7.04062C24.3899 6.1643 23.3516 5.44919 22.2143 4.92694C22.5399 4.3434 23.0152 3.85723 23.5913 3.51853C24.1673 3.17983 24.8232 3.00084 25.4915 3ZM3.74148 6.75C3.74126 5.9192 4.01693 5.11184 4.52523 4.45468C5.03352 3.79752 5.74566 3.32775 6.54984 3.11914C7.35402 2.91052 8.20472 2.97486 8.96837 3.30206C9.73203 3.62926 10.3654 4.2008 10.7691 4.92694C9.63175 5.44914 8.59339 6.16426 7.69998 7.04062C6.83411 7.89381 6.12349 8.89132 5.59998 9.98841C5.0349 9.65733 4.56613 9.18434 4.24014 8.61631C3.91415 8.04828 3.74226 7.40492 3.74148 6.75ZM8.75176 8.11012C10.6545 6.23906 13.3312 5.25 16.4915 5.25C19.6518 5.25 22.3284 6.23906 24.2313 8.11022C26.0112 9.86053 26.9915 12.3073 26.9915 15C26.9915 17.6927 26.0112 20.1395 24.2313 21.8898C22.3284 23.7609 19.6521 24.75 16.4915 24.75C13.3309 24.75 10.6545 23.7609 8.75176 21.8899C6.97173 20.1395 5.99148 17.6927 5.99148 15C5.99148 12.3073 6.97173 9.86053 8.75176 8.11012ZM2.25189 32.4991L2.3192 31.5378C2.72336 27.8523 4.74732 25.0507 8.18298 23.4049C9.05604 24.1609 10.043 24.7743 11.1075 25.2223C9.43248 27.1935 8.40311 30.0165 8.26576 33.0523C6.81986 33.2518 5.53117 34.0312 4.59095 35.1778C3.96681 35.0382 3.40345 34.7032 2.98279 34.2215C2.56213 33.7397 2.30608 33.1364 2.25189 32.4991ZM8.99992 45C6.51854 45 4.49992 42.6449 4.49992 39.75C4.49992 36.8551 6.51854 34.5 8.99992 34.5C11.4813 34.5 13.4999 36.8551 13.4999 39.75C13.4999 42.6449 11.4813 45 8.99992 45ZM16.4999 43.5C15.7269 43.4974 14.9657 43.31 14.2799 42.9534C14.7574 41.9532 15.0035 40.8583 14.9999 39.75C14.9999 36.3208 12.7146 33.4827 9.76754 33.0572C9.91173 30.1322 10.9626 27.4584 12.65 25.7563C13.9027 26.0916 15.1947 26.2577 16.4915 26.25C17.7927 26.2578 19.089 26.0907 20.3456 25.7531C22.0384 27.4548 23.0892 30.1179 23.2326 33.0574C20.2854 33.4825 17.9999 36.3206 17.9999 39.75C17.9964 40.8583 18.2425 41.9532 18.7199 42.9534C18.0341 43.31 17.2729 43.4974 16.4999 43.5ZM23.9999 45C21.5185 45 19.4999 42.6449 19.4999 39.75C19.4999 36.8551 21.5185 34.5 23.9999 34.5C26.4813 34.5 28.4999 36.8551 28.4999 39.75C28.4999 42.6449 26.4813 45 23.9999 45ZM29.9999 39.75H32.9999C33.1988 39.75 33.3896 39.671 33.5302 39.5303C33.6709 39.3897 33.7499 39.1989 33.7499 39V34.5C33.7499 34.3011 33.6709 34.1103 33.5302 33.9697C33.3896 33.829 33.1988 33.75 32.9999 33.75H31.9834C32.1209 33.3631 32.2044 32.9591 32.2314 32.5494C32.2337 32.5156 32.2337 32.4816 32.2314 32.4478L32.2176 32.25H35.2499V41.25H29.8487C29.9491 40.7563 29.9997 40.2538 29.9999 39.75ZM45.7499 41.25H36.7499V32.25H45.7499V41.25Z" fill="#0B0C0C"/>
<path d="M39 39.7499H43.5C43.6278 39.7499 43.7535 39.7173 43.8652 39.655C43.9769 39.5927 44.0707 39.503 44.138 39.3942C44.2052 39.2855 44.2435 39.1613 44.2492 39.0336C44.2549 38.9059 44.2279 38.7789 44.1708 38.6645L41.9208 34.1645C41.8585 34.04 41.7627 33.9352 41.6442 33.862C41.5258 33.7888 41.3892 33.75 41.25 33.75C41.1107 33.75 40.9742 33.7888 40.8557 33.862C40.7372 33.9352 40.6415 34.04 40.5792 34.1645L38.3292 38.6645C38.272 38.7789 38.245 38.9059 38.2508 39.0336C38.2565 39.1613 38.2948 39.2855 38.362 39.3942C38.4292 39.503 38.5231 39.5927 38.6348 39.655C38.7464 39.7173 38.8721 39.7499 39 39.7499ZM41.25 36.177L42.2865 38.2499H40.2135L41.25 36.177Z" fill="#0B0C0C"/>
</g>
</svg>
