<svg width="48" height="48" viewBox="0 0 48 48" fill="none" xmlns="http://www.w3.org/2000/svg">
<g opacity="0.8" clip-path="url(#clip0_2788_670)">
<path d="M1.32377 16.5751C1.68817 16.7506 2.10049 16.8392 2.54177 16.8392C2.79452 16.8392 3.05664 16.8104 3.32514 16.7518C4.93679 16.4002 5.8457 15.1617 5.53595 13.7396V13.7393L3.76305 5.61157L11.2168 3.98566L12.5308 10.0091C12.1112 9.92959 11.6387 9.94065 11.1292 10.0516C9.48178 10.4108 8.58085 11.5992 8.88816 13.008C9.147 14.1952 10.1256 14.9123 11.3795 14.9123C11.6273 14.9123 11.8867 14.8841 12.1529 14.8262C13.7646 14.4747 14.6738 13.2358 14.3637 11.8138V11.8134L12.0012 0.982387C11.855 0.310014 11.188 -0.117767 10.5149 0.0291393L2.75308 1.72207C2.5929 1.75657 2.44115 1.82246 2.30658 1.91593C2.17201 2.00941 2.05729 2.12861 1.96905 2.26667C1.87993 2.40431 1.81905 2.55829 1.78994 2.71966C1.76082 2.88104 1.76406 3.04658 1.79946 3.2067L3.70305 11.935C3.28333 11.8555 2.81055 11.8661 2.30149 11.9771C1.56508 12.1379 0.960864 12.4664 0.55474 12.9267C0.0728658 13.473 -0.103009 14.1857 0.060397 14.9335C0.222584 15.6773 0.671177 16.2601 1.32377 16.5751ZM11.8531 13.4521C11.5334 13.5217 10.4728 13.6748 10.2622 12.7084C10.0759 11.8544 10.9133 11.538 11.4293 11.4256C11.6026 11.3879 11.7886 11.3615 11.9699 11.3615C12.431 11.3615 12.8627 11.531 12.9898 12.1129V12.1133C13.2007 13.0794 12.1732 13.3822 11.8531 13.4521ZM10.6611 1.43642L10.9174 2.61157L3.46352 4.23766L3.2072 3.06288L10.6611 1.43642ZM1.60942 13.8573C1.81342 13.6262 2.16574 13.4464 2.60149 13.3512C2.77473 13.3135 2.96073 13.2871 3.14205 13.2871C3.60311 13.2871 4.03483 13.457 4.16195 14.0385V14.0389C4.37251 15.0054 3.3453 15.3083 3.02523 15.3778C2.60524 15.4694 2.21767 15.4448 1.93427 15.3082C1.66877 15.1804 1.50508 14.9595 1.43439 14.634C1.36521 14.3176 1.4208 14.0708 1.60942 13.8573ZM47.8932 35.179C47.8276 35.0288 47.7327 34.893 47.6143 34.7796C47.4958 34.6662 47.356 34.5774 47.203 34.5184L39.7971 31.6407C39.1551 31.3914 38.4308 31.7107 38.1814 32.3523L34.9444 40.6847C34.6339 40.3789 34.2329 40.1247 33.7554 39.9391C33.0526 39.6663 32.3678 39.6062 31.7745 39.7655C31.0711 39.9545 30.5312 40.4517 30.254 41.1651C29.9783 41.8748 30.0302 42.6087 30.4002 43.2313C30.7249 43.778 31.268 44.2116 31.9708 44.4845C32.3938 44.6489 32.8091 44.7276 33.2006 44.7276C34.2325 44.7276 35.0956 44.1786 35.478 43.195L38.4904 35.441L45.6015 38.204L43.3665 43.9567C43.056 43.6513 42.6553 43.3971 42.1775 43.2114C40.6057 42.6006 39.1983 43.0936 38.6761 44.4376C38.4003 45.1473 38.4524 45.8809 38.8226 46.5038C39.1474 47.0505 39.6905 47.4837 40.3929 47.7569C40.8159 47.9209 41.2316 48.0001 41.623 48.0001C42.655 48.0001 43.5181 47.4507 43.9002 46.4671L47.9145 36.1342C47.9743 35.9814 48.0031 35.8184 47.9995 35.6545C47.9958 35.4905 47.9597 35.3289 47.8932 35.179ZM32.4798 43.1735C32.0789 43.0178 31.7694 42.7835 31.609 42.5132C31.4585 42.2594 31.4438 41.9851 31.5646 41.6745C31.6818 41.3724 31.8646 41.1977 32.1396 41.1237C32.236 41.0977 32.3425 41.0849 32.4565 41.0849C32.694 41.0849 32.9651 41.1406 33.246 41.2501C33.6565 41.4095 33.9692 41.6368 34.127 41.8906C34.2735 42.1261 34.286 42.3787 34.167 42.6856C33.8088 43.6074 32.7853 43.2921 32.4798 43.1735ZM38.9995 34.1299L39.4349 33.0089L46.5463 35.7719L46.111 36.8929L38.9995 34.1299ZM40.9019 46.4458C40.501 46.2902 40.1919 46.0555 40.0315 45.7852C39.8805 45.5318 39.8663 45.2575 39.9868 44.947C40.164 44.491 40.5152 44.3526 40.8767 44.3526C41.1608 44.3526 41.4516 44.4383 41.668 44.5225C42.0786 44.6819 42.3913 44.9092 42.5492 45.163C42.6957 45.3985 42.7081 45.6512 42.5891 45.9577C42.2309 46.8799 41.2074 46.5645 40.9019 46.4459V46.4458ZM20.6502 44.7845C16.3266 47.9265 9.747 46.8985 5.34479 42.3934C2.77727 39.7658 1.34205 36.3176 1.40833 32.9331C1.46111 30.2287 2.48795 27.7951 4.29958 26.0805C5.58976 24.8611 7.23516 24.0387 9.05813 23.7016C11.5352 23.2443 13.7285 22.0483 15.4005 20.2432C15.4633 20.1755 15.5121 20.0961 15.5442 20.0095C15.5763 19.9229 15.591 19.8309 15.5875 19.7386C15.584 19.6463 15.5624 19.5557 15.5238 19.4718C15.4853 19.3879 15.4305 19.3124 15.3628 19.2496C15.2951 19.1868 15.2157 19.1379 15.1291 19.1058C15.0426 19.0737 14.9505 19.059 14.8582 19.0625C14.7659 19.066 14.6752 19.0876 14.5913 19.1262C14.5074 19.1648 14.432 19.2195 14.3692 19.2873C12.9041 20.8687 10.9796 21.9167 8.80285 22.3188C6.7126 22.7049 4.82148 23.6522 3.3332 25.0588C1.24539 27.0349 0.0625532 29.8213 0.00245962 32.9057C-0.071134 36.6648 1.50977 40.4811 4.33914 43.3763C7.29816 46.4044 11.1657 48.0001 14.8417 48.0001C17.2363 48.0001 19.5504 47.3223 21.4767 45.9222C21.6251 45.8117 21.724 45.6471 21.7519 45.4641C21.7798 45.2812 21.7345 45.0946 21.6257 44.9449C21.5169 44.7951 21.3535 44.6943 21.1709 44.6643C20.9883 44.6342 20.8012 44.6774 20.6502 44.7844V44.7845Z" fill="#0B0C0C"/>
<path d="M32.7923 30.6457C34.2618 29.1757 34.9642 27.2819 34.8224 25.169C34.7104 23.4921 34.0739 21.7105 32.9779 19.9853L37.465 15.4981C37.5303 15.4328 37.5821 15.3554 37.6174 15.2701C37.6528 15.1848 37.671 15.0934 37.671 15.0011C37.671 14.9088 37.6528 14.8174 37.6175 14.7321C37.5822 14.6468 37.5304 14.5693 37.4652 14.504C37.3999 14.4388 37.3224 14.387 37.2372 14.3516C37.1519 14.3163 37.0605 14.2981 36.9682 14.2981C36.8759 14.2981 36.7845 14.3162 36.6992 14.3516C36.6139 14.3869 36.5364 14.4386 36.4711 14.5039L24.0295 26.9451C23.7581 26.2731 23.3536 25.6628 22.8404 25.151C22.3193 24.6299 21.7103 24.2292 21.0467 23.962L35.6914 9.31595L38.675 12.2995L38.5918 12.3826C38.4934 12.4809 38.4264 12.6062 38.3993 12.7426C38.3722 12.879 38.3861 13.0204 38.4393 13.1489C38.4926 13.2773 38.5828 13.3871 38.6984 13.4643C38.8141 13.5416 38.9501 13.5827 39.0892 13.5826C39.269 13.5826 39.4492 13.5142 39.586 13.3769L39.7642 13.1993C39.8757 13.2344 39.9926 13.2531 40.1112 13.2531C40.1234 13.2531 40.1354 13.2527 40.1475 13.2523C40.3066 13.2471 40.4629 13.2095 40.6069 13.1417C40.7508 13.0738 40.8794 12.9773 40.9847 12.8579L41.7309 12.0105L42.5312 12.8107C42.5964 12.8761 42.6739 12.928 42.7593 12.9634C42.8446 12.9988 42.9361 13.017 43.0285 13.0169C43.2084 13.0169 43.3885 12.948 43.5258 12.8107C43.5911 12.7454 43.6429 12.6679 43.6782 12.5826C43.7136 12.4973 43.7318 12.4059 43.7318 12.3136C43.7318 12.2212 43.7136 12.1298 43.6782 12.0445C43.6429 11.9592 43.5911 11.8817 43.5258 11.8165L42.6624 10.9529L43.8368 9.61914L44.6724 10.4549C44.7377 10.5203 44.8152 10.5721 44.9005 10.6074C44.9859 10.6427 45.0773 10.6608 45.1697 10.6607C45.3088 10.6607 45.4447 10.6194 45.5603 10.5422C45.676 10.4649 45.7661 10.3551 45.8193 10.2266C45.8725 10.0981 45.8865 9.95672 45.8594 9.82032C45.8323 9.68391 45.7653 9.55861 45.667 9.46024L44.768 8.56155L45.9337 7.23808L46.539 7.8438C46.6043 7.90916 46.6818 7.96099 46.7672 7.9963C46.8525 8.03162 46.944 8.04972 47.0364 8.04958C47.1754 8.04955 47.3114 8.0083 47.427 7.93103C47.5426 7.85375 47.6327 7.74394 47.686 7.61546C47.7392 7.48697 47.7531 7.3456 47.726 7.20919C47.6989 7.07279 47.632 6.94748 47.5337 6.84911L46.8646 6.18049L47.7084 5.22245C48.1133 4.76252 48.0913 4.06267 47.6581 3.62908L44.3699 0.340986C43.9363 -0.0926082 43.2365 -0.11464 42.7765 0.290361L41.8181 1.13458L41.1488 0.465486C41.0168 0.333681 40.8379 0.259689 40.6514 0.259785C40.4649 0.259882 40.2861 0.33406 40.1543 0.466001C40.0225 0.597942 39.9485 0.776838 39.9486 0.963334C39.9487 1.14983 40.0229 1.32865 40.1548 1.46045L40.7605 2.0658L39.4374 3.23074L38.5303 2.32399C38.465 2.25868 38.3876 2.20688 38.3023 2.17154C38.217 2.13619 38.1255 2.118 38.0332 2.118C37.9409 2.118 37.8495 2.13619 37.7642 2.17154C37.6789 2.20688 37.6014 2.25868 37.5361 2.32399C37.4708 2.38926 37.419 2.46676 37.3836 2.55206C37.3483 2.63737 37.3301 2.7288 37.3301 2.82114C37.3301 2.91348 37.3483 3.00492 37.3836 3.09022C37.419 3.17552 37.4708 3.25303 37.5361 3.3183L38.3802 4.16205L37.0462 5.33674L36.1829 4.47367C36.1176 4.40837 36.0401 4.35657 35.9549 4.32123C35.8696 4.28588 35.7781 4.26769 35.6858 4.26769C35.5935 4.26769 35.5021 4.28588 35.4168 4.32123C35.3315 4.35657 35.254 4.40837 35.1887 4.47367C35.1234 4.53894 35.0716 4.61644 35.0362 4.70174C35.0009 4.78703 34.9827 4.87845 34.9827 4.97078C34.9827 5.06311 35.0009 5.15453 35.0362 5.23983C35.0716 5.32513 35.1234 5.40262 35.1887 5.46789L35.9888 6.26805L35.1411 7.01439C35.0219 7.1198 34.9255 7.24841 34.8577 7.39236C34.79 7.53631 34.7523 7.69257 34.747 7.85158C34.7433 7.97709 34.76 8.10238 34.7964 8.22255L28.0138 15.0055C24.0609 12.4655 20.0802 12.4505 17.5252 15.0059C16.8675 15.6622 16.364 16.303 15.9857 16.9647C15.9398 17.0449 15.9102 17.1333 15.8985 17.2249C15.8868 17.3164 15.8933 17.4094 15.9175 17.4985C15.9418 17.5876 15.9833 17.6711 16.0398 17.7441C16.0963 17.8171 16.1666 17.8783 16.2468 17.9242C16.3269 17.9701 16.4154 17.9997 16.507 18.0114C16.5986 18.0231 16.6916 18.0166 16.7807 17.9923C16.8698 17.968 16.9533 17.9264 17.0263 17.8698C17.0993 17.8132 17.1604 17.7428 17.2062 17.6626C17.5219 17.1113 17.9507 16.5678 18.5191 16.0004C21.314 13.2052 25.1431 14.9129 26.9918 16.0276L19.4313 23.5884C19.2974 23.5779 19.1631 23.5724 19.0288 23.572C17.5893 23.572 16.2354 24.1326 15.2173 25.151C14.1989 26.1691 13.6382 27.523 13.6382 28.9629C13.6382 30.4028 14.1988 31.7567 15.2173 32.7747C16.2354 33.7929 17.5893 34.3539 19.0288 34.3539C20.4688 34.3539 21.8227 33.7929 22.8407 32.7748C23.8587 31.7568 24.4194 30.4029 24.4194 28.963C24.4194 28.8278 24.4129 28.6937 24.403 28.5605L31.9546 21.0088C33.0577 22.8673 34.7217 26.7276 31.7976 29.6517C31.3352 30.1146 30.809 30.509 30.2349 30.8229C27.0379 32.5716 24.9231 35.4496 24.2803 38.9268C24.0127 40.3784 23.4531 41.6909 22.6166 42.8284C22.3867 43.1415 22.4537 43.5817 22.7664 43.8116C22.8869 43.9005 23.0327 43.9484 23.1824 43.9482C23.2928 43.9484 23.4017 43.9226 23.5002 43.8727C23.5987 43.8229 23.684 43.7506 23.7493 43.6615C24.7128 42.3512 25.3567 40.8443 25.6631 39.182C26.2275 36.1289 28.0908 33.5984 30.9099 32.0563C31.6013 31.6782 32.2351 31.2032 32.7922 30.6457H32.7923ZM43.5356 1.49561L46.503 4.46299L40.099 11.7356L36.2637 7.89958L43.5356 1.49561ZM21.846 31.7801C21.0935 32.5328 20.093 32.9473 19.0288 32.9473C17.9646 32.9473 16.9641 32.5328 16.2115 31.7801C15.4589 31.0276 15.0444 30.0271 15.0444 28.963C15.0444 27.8983 15.4589 26.8978 16.2115 26.1453C16.9637 25.3927 17.9646 24.9781 19.0287 24.9781C20.093 24.9781 21.0935 25.3927 21.846 26.1453C22.5983 26.8978 23.0128 27.8983 23.0128 28.963C23.0128 30.0271 22.5986 31.0276 21.846 31.7801ZM5.98116 31.389C5.03232 32.3379 5.03232 33.8822 5.98116 34.8311L13.1607 42.011C13.6353 42.4853 14.2585 42.7225 14.8815 42.7225C15.5049 42.7225 16.1281 42.4853 16.6028 42.0106C17.5515 41.0619 17.5515 39.5178 16.6028 38.5686L9.42319 31.3886C8.96354 30.9291 8.35238 30.676 7.70232 30.676C7.05226 30.676 6.4412 30.9295 5.98116 31.389ZM15.6081 39.5633C16.0088 39.9639 16.0088 40.6157 15.6081 41.0164C15.2078 41.417 14.556 41.4174 14.1549 41.0164L6.97576 33.8368C6.57516 33.4361 6.57516 32.784 6.97576 32.3833C7.07096 32.2876 7.18419 32.2117 7.3089 32.1601C7.43361 32.1084 7.56733 32.082 7.70232 32.0823C7.97663 32.0823 8.23482 32.1892 8.42888 32.3832L15.6081 39.5633Z" fill="#0B0C0C"/>
<path d="M35.3437 14.844C35.4361 14.8441 35.5276 14.826 35.6129 14.7907C35.6983 14.7554 35.7758 14.7036 35.8411 14.6382C36.1154 14.3635 36.1154 13.9182 35.8411 13.6439L34.3411 12.1435C34.2091 12.0118 34.0302 11.9378 33.8437 11.9378C33.6573 11.9378 33.4784 12.0118 33.3464 12.1435C33.2811 12.2088 33.2293 12.2863 33.1939 12.3717C33.1586 12.457 33.1404 12.5485 33.1404 12.6408C33.1404 12.7332 33.1586 12.8247 33.1939 12.91C33.2293 12.9953 33.2811 13.0729 33.3464 13.1382L34.8464 14.6382C34.9117 14.7036 34.9892 14.7554 35.0745 14.7907C35.1599 14.826 35.2514 14.8441 35.3437 14.844ZM33.2655 16.9222C33.4046 16.9223 33.5405 16.8812 33.6562 16.804C33.7719 16.7267 33.8621 16.617 33.9153 16.4885C33.9686 16.36 33.9825 16.2186 33.9553 16.0822C33.9282 15.9458 33.8612 15.8205 33.7628 15.7222L32.2628 14.2218C32.1309 14.09 31.9521 14.016 31.7657 14.016C31.5792 14.016 31.4004 14.09 31.2685 14.2218C31.2032 14.2871 31.1514 14.3646 31.116 14.4499C31.0807 14.5353 31.0625 14.6267 31.0625 14.7191C31.0625 14.8115 31.0807 14.9029 31.116 14.9883C31.1514 15.0736 31.2032 15.1511 31.2685 15.2164L32.7685 16.7164C32.8337 16.7818 32.9112 16.8336 32.9965 16.8689C33.0818 16.9043 33.1732 16.9224 33.2655 16.9222ZM31.1876 19.0005C31.3266 19.0004 31.4625 18.959 31.5781 18.8817C31.6936 18.8044 31.7837 18.6946 31.8369 18.5661C31.89 18.4377 31.9039 18.2963 31.8768 18.16C31.8497 18.0236 31.7828 17.8983 31.6845 17.8L30.1845 16.3C30.1192 16.2347 30.0417 16.1829 29.9564 16.1476C29.8711 16.1122 29.7797 16.094 29.6874 16.094C29.5951 16.094 29.5036 16.1122 29.4183 16.1476C29.333 16.1829 29.2555 16.2347 29.1903 16.3C29.125 16.3653 29.0731 16.4428 29.0378 16.5281C29.0024 16.6134 28.9842 16.7048 28.9842 16.7972C28.9842 16.8895 29.0024 16.9809 29.0378 17.0662C29.0731 17.1515 29.125 17.229 29.1903 17.2943L30.6903 18.7947C30.7555 18.8601 30.833 18.9119 30.9184 18.9472C31.0037 18.9826 31.0952 19.0007 31.1876 19.0005ZM29.1094 21.0787C29.2484 21.0787 29.3844 21.0374 29.5 20.9602C29.6156 20.8829 29.7058 20.7731 29.759 20.6446C29.8122 20.5161 29.8262 20.3747 29.7991 20.2383C29.7719 20.1019 29.705 19.9766 29.6067 19.8783L28.1067 18.3783C28.0414 18.3129 27.9639 18.2611 27.8786 18.2258C27.7933 18.1904 27.7019 18.1722 27.6096 18.1722C27.5172 18.1722 27.4258 18.1904 27.3405 18.2258C27.2552 18.2611 27.1777 18.3129 27.1124 18.3783C27.0471 18.4435 26.9953 18.521 26.9599 18.6063C26.9246 18.6916 26.9064 18.7831 26.9064 18.8754C26.9064 18.9677 26.9246 19.0592 26.9599 19.1445C26.9953 19.2298 27.0471 19.3073 27.1124 19.3726L28.6124 20.8729C28.6776 20.9383 28.755 20.9901 28.8403 21.0254C28.9256 21.0608 29.0171 21.0789 29.1094 21.0787ZM25.0341 20.4565C24.9688 20.5218 24.917 20.5993 24.8817 20.6847C24.8463 20.77 24.8281 20.8615 24.8281 20.9538C24.8281 21.0462 24.8463 21.1377 24.8817 21.223C24.917 21.3083 24.9688 21.3859 25.0341 21.4512L26.5341 22.9512C26.5994 23.0166 26.6769 23.0684 26.7623 23.1037C26.8476 23.1391 26.9391 23.1572 27.0315 23.157C27.1705 23.1569 27.3064 23.1155 27.422 23.0382C27.5375 22.9609 27.6276 22.8511 27.6807 22.7226C27.7339 22.5942 27.7478 22.4528 27.7207 22.3165C27.6936 22.1801 27.6266 22.0548 27.5284 21.9565L26.0284 20.4565C25.9631 20.3912 25.8856 20.3394 25.8003 20.3041C25.715 20.2687 25.6236 20.2505 25.5313 20.2505C25.4389 20.2505 25.3475 20.2687 25.2622 20.3041C25.1769 20.3394 25.0994 20.3912 25.0341 20.4565ZM39.1523 7.17588C39.0871 7.11058 39.0096 7.05877 38.9243 7.02343C38.839 6.98809 38.7476 6.9699 38.6552 6.9699C38.5629 6.9699 38.4715 6.98809 38.3862 7.02343C38.3009 7.05877 38.2234 7.11058 38.1581 7.17588C38.0928 7.24115 38.041 7.31864 38.0057 7.40394C37.9703 7.48924 37.9521 7.58066 37.9521 7.67299C37.9521 7.76531 37.9703 7.85674 38.0057 7.94203C38.041 8.02733 38.0928 8.10483 38.1581 8.1701C38.2234 8.2354 38.3009 8.2872 38.3862 8.32254C38.4715 8.35789 38.5629 8.37608 38.6552 8.37608C38.7476 8.37608 38.839 8.35789 38.9243 8.32254C39.0096 8.2872 39.0871 8.2354 39.1523 8.1701C39.2176 8.10483 39.2694 8.02733 39.3048 7.94203C39.3401 7.85674 39.3583 7.76531 39.3583 7.67299C39.3583 7.58066 39.3401 7.48924 39.3048 7.40394C39.2694 7.31864 39.2176 7.24115 39.1523 7.17588ZM40.8388 8.84763C40.7735 8.78231 40.696 8.7305 40.6106 8.69515C40.5253 8.6598 40.4338 8.64161 40.3415 8.64161C40.2491 8.64161 40.1576 8.6598 40.0723 8.69515C39.987 8.7305 39.9094 8.78231 39.8441 8.84763C39.5698 9.12194 39.5698 9.56725 39.8441 9.84185C39.9094 9.90716 39.987 9.95898 40.0723 9.99432C40.1576 10.0297 40.2491 10.0479 40.3415 10.0479C40.4338 10.0479 40.5253 10.0297 40.6106 9.99432C40.696 9.95898 40.7735 9.90716 40.8388 9.84185C41.113 9.56716 41.113 9.12185 40.8388 8.84763ZM41.2625 5.06247C41.1972 4.99716 41.1197 4.94534 41.0344 4.90999C40.9491 4.87464 40.8576 4.85644 40.7653 4.85644C40.673 4.85644 40.5815 4.87464 40.4962 4.90999C40.4109 4.94534 40.3334 4.99716 40.2681 5.06247C40.2028 5.12774 40.151 5.20524 40.1157 5.29053C40.0804 5.37583 40.0622 5.46725 40.0622 5.55958C40.0622 5.65191 40.0804 5.74333 40.1157 5.82863C40.151 5.91392 40.2028 5.99142 40.2681 6.05669C40.3334 6.12201 40.4109 6.17382 40.4962 6.20917C40.5815 6.24452 40.673 6.26272 40.7653 6.26272C40.8576 6.26272 40.9491 6.24452 41.0344 6.20917C41.1197 6.17382 41.1972 6.12201 41.2625 6.05669C41.3278 5.99142 41.3796 5.91392 41.4149 5.82863C41.4502 5.74333 41.4684 5.65191 41.4684 5.55958C41.4684 5.46725 41.4502 5.37583 41.4149 5.29053C41.3796 5.20524 41.3278 5.12774 41.2625 5.06247ZM42.95 6.7361C42.8847 6.67078 42.8072 6.61897 42.7219 6.58361C42.6366 6.54826 42.5451 6.53007 42.4528 6.53007C42.3605 6.53007 42.269 6.54826 42.1837 6.58361C42.0984 6.61897 42.0209 6.67078 41.9556 6.7361C41.8903 6.80137 41.8385 6.87886 41.8032 6.96416C41.7679 7.04945 41.7497 7.14088 41.7497 7.23321C41.7497 7.32553 41.7679 7.41696 41.8032 7.50225C41.8385 7.58755 41.8903 7.66505 41.9556 7.73032C42.0209 7.79563 42.0984 7.84745 42.1837 7.8828C42.269 7.91815 42.3605 7.93634 42.4528 7.93634C42.5451 7.93634 42.6366 7.91815 42.7219 7.8828C42.8072 7.84745 42.8847 7.79563 42.95 7.73032C43.0153 7.66505 43.0671 7.58755 43.1024 7.50225C43.1377 7.41696 43.1559 7.32553 43.1559 7.23321C43.1559 7.14088 43.1377 7.04945 43.1024 6.96416C43.0671 6.87886 43.0153 6.80137 42.95 6.7361ZM43.3736 2.95122C43.3083 2.88592 43.2308 2.83412 43.1456 2.79877C43.0603 2.76343 42.9688 2.74524 42.8765 2.74524C42.7842 2.74524 42.6928 2.76343 42.6075 2.79877C42.5222 2.83412 42.4447 2.88592 42.3794 2.95122C42.3141 3.01649 42.2623 3.094 42.2269 3.1793C42.1916 3.2646 42.1734 3.35604 42.1734 3.44838C42.1734 3.54072 42.1916 3.63215 42.2269 3.71746C42.2623 3.80276 42.3141 3.88026 42.3794 3.94553C42.4447 4.01084 42.5222 4.06264 42.6075 4.09798C42.6928 4.13332 42.7842 4.15152 42.8765 4.15152C42.9688 4.15152 43.0603 4.13332 43.1456 4.09798C43.2308 4.06264 43.3083 4.01084 43.3736 3.94553C43.4389 3.88026 43.4907 3.80276 43.5261 3.71746C43.5614 3.63215 43.5796 3.54072 43.5796 3.44838C43.5796 3.35604 43.5614 3.2646 43.5261 3.1793C43.4907 3.094 43.4389 3.01649 43.3736 2.95122ZM45.0608 4.62447C44.9956 4.55915 44.9181 4.50734 44.8328 4.47199C44.7474 4.43664 44.656 4.41844 44.5637 4.41844C44.4713 4.41844 44.3799 4.43664 44.2946 4.47199C44.2093 4.50734 44.1318 4.55915 44.0665 4.62447C44.0012 4.68974 43.9494 4.76725 43.914 4.85255C43.8787 4.93785 43.8605 5.02929 43.8605 5.12163C43.8605 5.21397 43.8787 5.3054 43.914 5.39071C43.9494 5.47601 44.0012 5.55351 44.0665 5.61878C44.1318 5.6841 44.2093 5.73591 44.2946 5.77127C44.3799 5.80662 44.4713 5.82481 44.5637 5.82481C44.656 5.82481 44.7474 5.80662 44.8328 5.77127C44.9181 5.73591 44.9956 5.6841 45.0608 5.61878C45.1261 5.55351 45.178 5.47601 45.2133 5.39071C45.2487 5.3054 45.2669 5.21397 45.2669 5.12163C45.2669 5.02929 45.2487 4.93785 45.2133 4.85255C45.178 4.76725 45.1261 4.68974 45.0608 4.62447Z" fill="#0B0C0C"/>
</g>
<defs>
<clipPath id="clip0_2788_670">
<rect width="48" height="48" fill="white"/>
</clipPath>
</defs>
</svg>
