<svg width="48" height="48" viewBox="0 0 48 48" fill="none" xmlns="http://www.w3.org/2000/svg">
<g opacity="0.8">
<path d="M10.2363 8.43992L30.7452 3.29009M33.8606 2.50784L40.9304 0.732555C41.4758 0.595591 42.0295 0.942498 42.1342 1.49494C43.2476 7.37128 41.2271 13.1956 37.1715 17.1326" stroke="#0B0C0C" stroke-miterlimit="10" stroke-linecap="round" stroke-linejoin="round"/>
<path d="M11.1067 25.2137C6.56701 20.9994 4.48332 14.5053 6.11724 8.19554C6.25824 7.65115 6.83363 7.34162 7.36875 7.51437L38.3833 17.5234C38.9216 17.6971 39.2031 18.2886 38.9979 18.8156C37.9754 21.4406 36.3695 23.6874 34.3791 25.454M30.5946 47.2975H17.4075C16.2923 47.2975 15.3884 46.3934 15.3884 45.2783V43.7225H32.6139V45.2783C32.6138 46.3934 31.7098 47.2975 30.5946 47.2975Z" stroke="#0B0C0C" stroke-miterlimit="10" stroke-linecap="round" stroke-linejoin="round"/>
<path d="M8.33776 37.6693C11.4805 42.3251 15.3877 43.7225 15.3877 43.7225H32.6132C32.6132 43.7225 42.0891 40.3335 43.3968 26.5265C43.4513 25.951 42.9959 25.4539 42.4177 25.4539H5.58312C5.005 25.4539 4.54952 25.951 4.60404 26.5265C4.92284 29.8924 5.72702 32.639 6.76109 34.8684" stroke="#0B0C0C" stroke-miterlimit="10" stroke-linecap="round" stroke-linejoin="round"/>
</g>
</svg>
