<svg width="48" height="48" viewBox="0 0 48 48" fill="none" xmlns="http://www.w3.org/2000/svg">
<path d="M12.8112 44.8622C13.3863 45.6192 14.1288 46.233 14.9805 46.6553C15.8323 47.0777 16.7702 47.2973 17.7209 47.2969H30.2777C32.794 47.2969 35.0571 45.7697 35.9983 43.4363L36.079 43.2356L34.4543 42.885L35.4405 35.9522L39.7043 29.3579L40.9765 31.0847C42.8936 25.8544 39.9293 20.3129 34.9521 18.7079C33.1793 18.136 31.9952 16.4607 31.9952 14.5979V6.66949H16.0034V14.5979C16.0034 16.4607 14.8193 18.136 13.0465 18.7079C7.97374 20.3438 4.9925 26.0682 7.1375 31.3847L11.3862 41.9147" fill="#AFAFAF" fill-opacity="0.3"/>
<path d="M12.8112 44.8622C13.3863 45.6192 14.1288 46.233 14.9805 46.6553C15.8323 47.0777 16.7702 47.2973 17.7209 47.2969H30.2777C32.794 47.2969 35.0571 45.7697 35.9983 43.4363L36.079 43.2356L34.4543 42.885L35.4405 35.9522L39.7043 29.3579L40.9765 31.0847C42.8936 25.8544 39.9293 20.3129 34.9521 18.7079C33.1793 18.136 31.9952 16.4607 31.9952 14.5979V6.6695H16.0034V14.5979C16.0034 16.4607 14.8193 18.136 13.0465 18.7079C7.97374 20.3438 4.9925 26.0682 7.1375 31.3847L11.3862 41.9147" stroke="black" stroke-miterlimit="10" stroke-linecap="round" stroke-linejoin="round"/>
<path d="M19.6501 0.703201H28.6885L29.8914 4.15225L33.2082 0.704139C34.8292 0.734138 36.1351 2.05788 36.1351 3.68632C36.1351 4.51038 35.8013 5.25569 35.2613 5.79569C34.7213 6.33568 33.976 6.66943 33.152 6.66943H14.8464C13.1992 6.66943 11.8633 5.33444 11.8633 3.68632C11.8633 2.86319 12.197 2.11695 12.737 1.57695C13.277 1.03695 14.0223 0.703201 14.8464 0.703201H16.3801" fill="#AFAFAF" fill-opacity="0.3"/>
<path d="M19.6501 0.703201H28.6885L29.8914 4.15225L33.2082 0.704139C34.8292 0.734138 36.1351 2.05788 36.1351 3.68632C36.1351 4.51038 35.8013 5.25569 35.2613 5.79569C34.7213 6.33568 33.976 6.66943 33.152 6.66943H14.8464C13.1992 6.66943 11.8633 5.33444 11.8633 3.68632C11.8633 2.86319 12.197 2.11695 12.737 1.57695C13.277 1.03695 14.0223 0.703201 14.8464 0.703201H16.3801" stroke="black" stroke-miterlimit="10" stroke-linecap="round" stroke-linejoin="round"/>
<path d="M28.4624 35.4282L30.5924 37.7719C30.6758 37.8636 30.7336 37.9757 30.7599 38.0968C30.7862 38.2179 30.7802 38.3438 30.7424 38.4619L29.8959 41.1085C29.7684 41.506 30.0121 41.9269 30.4199 42.0141L34.454 42.885L35.4402 35.9522L39.704 29.3579L38.2462 27.3797C37.9602 26.9916 37.379 26.9972 37.1005 27.391L34.0621 31.6866C33.7331 32.1516 33.0168 32.056 32.8218 31.5207L31.3518 27.5026C31.1868 27.0526 30.6309 26.8941 30.2531 27.1885L25.424 30.9572C25.1006 31.2104 25.0593 31.6857 25.3359 31.9894L26.2556 33.001" fill="#AFAFAF" fill-opacity="0.3"/>
<path d="M28.4624 35.4282L30.5924 37.7719C30.6758 37.8636 30.7336 37.9757 30.7599 38.0968C30.7862 38.2179 30.7802 38.3438 30.7424 38.4619L29.8959 41.1085C29.7684 41.506 30.0121 41.9269 30.4199 42.0141L34.454 42.885L35.4402 35.9522L39.704 29.3579L38.2462 27.3797C37.9602 26.9916 37.379 26.9972 37.1005 27.391L34.0621 31.6866C33.7331 32.1516 33.0168 32.056 32.8218 31.5207L31.3518 27.5026C31.1868 27.0526 30.6309 26.8941 30.2531 27.1885L25.424 30.9572C25.1006 31.2104 25.0593 31.6857 25.3359 31.9894L26.2556 33.001" stroke="black" stroke-miterlimit="10" stroke-linecap="round" stroke-linejoin="round"/>
<path d="M31.9957 14.5979H16.0039H31.9957Z" fill="#AFAFAF" fill-opacity="0.3"/>
<path d="M31.9957 14.5979H16.0039" stroke="black" stroke-miterlimit="10" stroke-linecap="round" stroke-linejoin="round"/>
<path d="M31.9957 11.0114H16.0039H31.9957Z" fill="#AFAFAF" fill-opacity="0.3"/>
<path d="M31.9957 11.0114H16.0039" stroke="black" stroke-miterlimit="10" stroke-linecap="round" stroke-linejoin="round"/>
<path d="M7.71289 23.0475H40.2052H7.71289Z" fill="#AFAFAF" fill-opacity="0.3"/>
<path d="M7.71289 23.0475H40.2052" stroke="black" stroke-miterlimit="10" stroke-linecap="round" stroke-linejoin="round"/>
<path d="M7.35352 31.9191C7.62539 32.0485 7.93008 32.1226 8.27789 32.1226C11.0735 32.1226 11.0735 27.3469 13.8682 27.3469C16.6638 27.3469 16.6638 32.1226 19.4585 32.1226C22.2541 32.1226 22.2541 27.3469 25.0497 27.3469C26.2685 27.3469 26.9556 28.2554 27.5753 29.2791" fill="#AFAFAF" fill-opacity="0.3"/>
<path d="M7.35352 31.9191C7.62539 32.0485 7.93008 32.1226 8.27789 32.1226C11.0735 32.1226 11.0735 27.3469 13.8682 27.3469C16.6638 27.3469 16.6638 32.1226 19.4585 32.1226C22.2541 32.1226 22.2541 27.3469 25.0497 27.3469C26.2685 27.3469 26.9556 28.2554 27.5753 29.2791" stroke="black" stroke-miterlimit="10" stroke-linecap="round" stroke-linejoin="round"/>
<path d="M30.0766 37.2037H9.48633H30.0766Z" fill="#AFAFAF" fill-opacity="0.3"/>
<path d="M30.0766 37.2037H9.48633" stroke="black" stroke-miterlimit="10" stroke-linecap="round" stroke-linejoin="round"/>
</svg>
