<svg width="48" height="48" viewBox="0 0 48 48" fill="none" xmlns="http://www.w3.org/2000/svg">
<path d="M40.0858 7.27196C40.1244 7.04049 40.163 6.78973 40.163 6.55826C40.163 4.43646 38.4463 2.71972 36.3245 2.71972C35.6108 2.71972 34.9549 2.91261 34.3763 3.25982C33.9905 3.49129 33.4889 3.39484 33.1996 3.02835C32.3316 1.89029 30.9621 1.17659 29.4189 1.17659C29.2646 1.17659 29.1103 1.17659 28.956 1.19588C27.5093 1.3309 26.0433 1.09943 24.6352 0.694358C24.1337 0.559334 23.6129 0.482178 23.0535 0.482178C22.1469 0.482178 21.2789 0.694358 20.5073 1.08014C19.0028 1.83242 17.3632 2.14105 15.6851 2.06389H15.4536C13.3896 2.06389 11.6536 3.45271 11.1135 5.32376C10.8242 6.32679 10.1684 7.15623 9.33892 7.77348C8.41304 8.48718 7.7765 9.54808 7.6029 10.7247C7.46787 11.9592 7.13996 13.1937 6.65773 14.3511C5.67398 16.7044 5.90545 19.5206 7.50645 21.7581C8.22015 22.7612 8.16228 24.0921 7.41001 25.0566C5.92474 26.9469 6.1755 29.7053 8.06584 31.287C8.68309 31.8078 8.95314 32.4057 9.06887 33.158C9.26177 34.4697 10.3998 35.4727 11.7308 35.5113C13.2932 35.5499 14.547 34.2961 14.547 32.7529C14.547 32.155 14.3541 31.5956 14.0262 31.1519C14.9135 30.3225 15.4729 29.1459 15.4729 27.8342C15.4729 26.7347 15.0678 25.7124 14.412 24.9408C18.3277 24.5936 21.4139 21.3145 21.4139 17.3023C21.4139 14.4282 19.8322 11.9014 17.4789 10.5897C17.884 10.3775 18.2698 10.1268 18.5977 9.79884C20.7774 12.5186 24.8474 12.6729 27.2393 10.146C29.2646 11.207 31.7915 10.6669 33.2189 8.79581L33.3925 9.02728C33.3539 9.25875 33.3153 9.50951 33.3153 9.74098C33.3153 11.9978 35.2828 13.811 37.5975 13.5409C39.3143 13.348 40.7224 11.9785 40.9539 10.2618C41.1082 9.14301 40.761 8.06282 40.0858 7.27196Z" fill="#AFAFAF"/>
<path d="M3.28125 47.5091H45.0423V41.2594L35.1469 40.5457C31.5784 40.295 28.8008 37.3244 28.8008 33.7367V21.3723H11.6913V32.7915C11.6913 38.829 8.48932 44.4422 3.28125 47.5091Z" fill="#EFEFEF"/>
<path d="M29.2843 36.283H26.5646C21.5108 36.283 17.2286 32.9652 15.7819 28.3937C15.6469 28.8759 15.4154 29.3389 15.1068 29.7246C15.9941 32.0586 14.0845 34.4891 11.6348 34.1997C11.6733 33.7368 11.6926 33.2546 11.6926 32.7723V21.3531H28.8021V33.7175C28.8021 34.6434 28.9757 35.4921 29.2843 36.283Z" fill="#AFAFAF"/>
<path d="M14.6048 27.275C14.6048 26.7734 14.4505 26.2912 14.219 25.8861C14.5277 25.4425 14.7013 24.9024 14.682 24.3237C14.6434 22.9928 13.5439 21.874 12.1937 21.8354C10.7277 21.7776 9.51248 22.9542 9.51248 24.4202C9.51248 24.8638 9.62821 25.2882 9.8211 25.6547C9.4739 26.0983 9.26172 26.677 9.26172 27.2943C9.26172 28.278 9.78253 29.1267 10.5734 29.5897C10.2069 29.9947 9.99471 30.5348 10.0526 31.1521C10.149 32.0587 10.882 32.7917 11.7886 32.9074C12.9845 33.0424 13.9876 32.1165 13.9876 30.9399C13.9876 30.612 13.9104 30.3226 13.7754 30.0526C13.6211 29.744 13.6789 29.3582 13.9297 29.0881C14.3348 28.5866 14.6048 27.9501 14.6048 27.275Z" fill="#AFAFAF"/>
<path d="M37.3279 16.2993L36.6721 9.16235H16.6114V16.4537H15.8977C13.5444 16.4537 11.6348 18.3633 11.6348 20.7166C11.6348 23.0698 13.5444 24.9795 15.8977 24.9795H16.6114C16.6114 30.4769 21.0672 34.9327 26.5646 34.9327H32.0427C32.5442 34.9327 32.9686 34.5662 33.0264 34.0647L34.0102 26.3683H35.8619C36.4792 26.3683 36.9421 25.8089 36.8457 25.2109L35.6691 18.1897C35.5919 17.7846 35.9198 17.3988 36.3249 17.3988C36.9229 17.3795 37.3858 16.878 37.3279 16.2993Z" fill="#EFEFEF"/>
<path d="M36.9426 11.9979C35.6309 12.538 34.0878 12.4801 32.8147 11.805C32.5254 12.1522 32.1975 12.4801 31.831 12.7501C31.5802 12.943 31.368 13.0973 31.2137 13.2709C30.1721 14.4283 28.7061 15.0841 27.163 15.1034C26.4879 16.3572 25.3498 17.3024 23.9803 17.746C23.498 17.9003 23.1123 18.2668 22.9772 18.7105L21.7813 22.5683C21.0869 24.7866 19.0615 26.2911 16.7468 26.3297L16.6504 9.16235H36.7111L36.9426 11.9979Z" fill="#AFAFAF"/>
<path d="M16.6127 24.9793C18.368 24.9793 19.9304 23.8413 20.4512 22.1631L21.6472 18.3053C21.9172 17.418 22.6309 16.7236 23.5375 16.4535C24.8685 16.0291 25.8908 14.9682 26.2766 13.6566C27.7425 13.9459 29.2278 13.4444 30.1923 12.3642C30.4237 12.0942 30.7131 11.882 31.0024 11.6505C31.4075 11.3419 31.7547 10.9754 32.0247 10.551C32.2369 10.2038 32.6806 10.1267 33.0085 10.3581C33.5872 10.7632 34.3202 11.014 35.0917 11.014C37.1749 11.014 38.7759 9.1815 38.6795 7.09827L15.166 8.93074V16.4535H16.6127V24.9793Z" fill="#AFAFAF"/>
<path d="M43.752 18.8454C43.0383 18.6139 42.4789 18.4596 42.0931 16.8393C41.9774 16.3185 41.2251 16.3185 41.0901 16.8393C40.7236 18.421 40.2028 18.5946 39.4312 18.8454C38.9682 18.9997 38.9682 19.6556 39.4312 19.8292C40.7236 20.2535 40.8586 20.8901 41.0901 21.8352C41.2058 22.356 41.9581 22.356 42.0931 21.8352C42.4596 20.2535 42.9997 20.0799 43.752 19.8292C44.2149 19.6748 44.2149 18.9997 43.752 18.8454Z" fill="black"/>
<path d="M42.3632 19.347C42.0739 19.5399 41.8231 19.81 41.6109 20.1957C41.4373 19.8871 41.1866 19.5978 40.8008 19.347C41.0901 19.1348 41.3602 18.8648 41.5916 18.4597C41.8231 18.8648 42.0932 19.1541 42.3632 19.347Z" fill="#01AA85"/>
<path d="M7.14063 4.26289C6.42693 4.03142 5.86755 3.87711 5.48176 2.25682C5.36603 1.73601 4.61375 1.73601 4.47873 2.25682C4.11223 3.83853 3.59143 4.01213 2.81986 4.26289C2.35692 4.4172 2.35692 5.07303 2.81986 5.24664C4.11223 5.671 4.24726 6.30754 4.47873 7.25271C4.59446 7.77352 5.34674 7.77352 5.48176 7.25271C5.84826 5.671 6.38835 5.4974 7.14063 5.24664C7.60357 5.09232 7.60357 4.4172 7.14063 4.26289Z" fill="black"/>
<path d="M5.75188 4.76438C5.46254 4.95727 5.21178 5.22732 4.9996 5.6131C4.826 5.30447 4.57524 5.01514 4.18945 4.76438C4.47879 4.5522 4.74884 4.28215 4.98031 3.87708C5.21178 4.28215 5.48183 4.57148 5.75188 4.76438Z" fill="#01AA85"/>
<path d="M8.26064 15.547C8.00988 15.4506 7.89415 15.1612 8.00988 14.9105C8.08704 14.7369 8.14491 14.5633 8.22206 14.3897C8.31851 14.1389 8.58856 14.0039 8.83932 14.1003C9.09008 14.1968 9.2251 14.4668 9.12865 14.7176C9.0515 14.9105 8.99363 15.0841 8.91647 15.277C8.78145 15.5277 8.5114 15.6435 8.26064 15.547ZM9.10937 13.1745C8.85861 13.1166 8.685 12.8465 8.76216 12.5958C8.89718 12.0557 8.99363 11.477 9.09008 10.9176C9.20581 10.1268 9.63017 9.39378 10.2667 8.91155C11.4048 8.04354 12.1956 6.92477 12.5428 5.70955C12.9093 4.39789 14.1245 3.4913 15.4941 3.4913H15.6677C17.5773 3.56846 19.4098 3.24054 21.1844 2.35324C21.4158 2.23751 21.7052 2.33395 21.8402 2.56542C21.9559 2.79689 21.8595 3.08623 21.628 3.22125C19.7184 4.16642 17.7316 4.53292 15.6291 4.45576H15.4941C14.5682 4.45576 13.7388 5.07301 13.4687 5.9796C13.0636 7.407 12.1571 8.68008 10.8454 9.68312C10.4017 10.011 10.1124 10.5126 10.0352 11.0527C9.95809 11.6506 9.84235 12.2486 9.68804 12.8273C9.63017 13.0973 9.36012 13.2516 9.10937 13.1745ZM8.3378 45.9467C8.14491 45.7731 8.12562 45.4645 8.29922 45.2716C8.43424 45.1366 8.54998 44.9823 8.66571 44.8473C8.83932 44.6351 9.14794 44.6158 9.34084 44.7894C9.55302 44.963 9.5723 45.2716 9.3987 45.4645C9.26368 45.6188 9.14794 45.7538 9.01292 45.9082C8.83932 46.1011 8.53069 46.1203 8.3378 45.9467ZM9.95809 44.0178C9.74591 43.8635 9.68804 43.5742 9.84235 43.3427C11.3469 41.163 12.3885 38.6362 12.8708 36.0514C12.9093 35.7814 13.1601 35.6077 13.4301 35.6656C13.7002 35.7042 13.8738 35.955 13.8159 36.225C13.3144 38.9641 12.2149 41.6067 10.6332 43.9021C10.4596 44.1143 10.1703 44.1721 9.95809 44.0178ZM31.234 33.4859H30.6554C30.3853 33.4859 30.1731 33.2738 30.1731 33.0037C30.1731 32.7337 30.3853 32.5215 30.6554 32.5215H31.234C31.5041 32.5215 31.7163 32.7337 31.7163 33.0037C31.7163 33.2738 31.5041 33.4859 31.234 33.4859ZM28.7264 33.4859H26.5661C23.0554 33.4859 19.8727 31.287 18.6189 28.0078C18.5225 27.7571 18.6575 27.487 18.889 27.3906C19.1397 27.2941 19.4098 27.4291 19.5062 27.6606C20.625 30.5733 23.4605 32.5215 26.5661 32.5215H28.7264C28.9965 32.5215 29.2087 32.7337 29.2087 33.0037C29.2087 33.2738 28.9965 33.4859 28.7264 33.4859Z" fill="white"/>
<path d="M28.8025 19.7329H31.2716C31.5416 19.7329 31.7538 19.5207 31.7538 19.2506C31.7538 18.9806 31.5416 18.7684 31.2716 18.7684H28.8025C28.5325 18.7684 28.3203 18.9806 28.3203 19.2506C28.3203 19.5207 28.5325 19.7329 28.8025 19.7329ZM28.8025 16.5116H30.9051C31.4644 16.5116 31.966 16.8395 32.1974 17.341L32.4868 17.9583C32.6025 18.209 32.8918 18.3055 33.1233 18.1897C33.3741 18.074 33.4705 17.7847 33.3548 17.5532L33.0654 16.9359C32.6797 16.1065 31.8309 15.5664 30.9051 15.5664H28.8025C28.5325 15.5664 28.3203 15.7786 28.3203 16.0486C28.3203 16.3187 28.5325 16.5116 28.8025 16.5116Z" fill="black"/>
<path d="M8.12362 10.7826C8.27793 9.74103 8.83732 8.79586 9.66675 8.15932C10.6312 7.42633 11.3063 6.48116 11.615 5.45883C12.1165 3.7421 13.6982 2.54617 15.4921 2.54617H15.7043C17.4789 2.62333 19.2149 2.27612 20.758 1.50455C21.491 1.13806 22.2819 0.964458 23.092 0.964458C23.5742 0.964458 24.0565 1.04161 24.5387 1.15735C24.9631 1.27308 25.3488 1.36953 25.8311 1.46598C26.1204 1.52384 26.3519 1.33095 26.3904 1.08019C26.4483 0.810145 26.2747 0.559386 26.0047 0.520807C25.4839 0.424362 25.1367 0.308627 24.7895 0.23147C24.2301 0.0771567 23.6514 0 23.092 0C22.1275 0 21.2017 0.212181 20.3337 0.636542C18.9448 1.33095 17.3631 1.65887 15.7621 1.56242H15.5114C13.2931 1.56242 11.3256 3.04769 10.7084 5.1695C10.4769 5.99893 9.91751 6.7705 9.10736 7.36846C8.08504 8.15932 7.37134 9.33595 7.19774 10.6283C7.00485 11.9014 6.69622 13.0973 6.25257 14.1582C5.17238 16.743 5.51958 19.7521 7.13987 22.0282C7.71854 22.8384 7.69926 23.9378 7.06271 24.748C5.38456 26.8698 5.71247 29.8982 7.77641 31.6535C8.3358 32.1357 8.5094 32.618 8.62514 33.2352C8.81803 34.5083 9.74391 35.5306 10.9591 35.8778C10.8434 36.5144 10.6891 37.1509 10.4769 37.7682C10.3997 38.0189 10.5348 38.289 10.7855 38.3661C11.0749 38.4433 11.3063 38.289 11.3835 38.0575C11.8657 36.5337 12.1358 34.952 12.1743 33.351C13.486 33.2545 14.4697 32.1743 14.4697 30.9012C14.4697 30.5155 14.3733 30.1297 14.1997 29.8018C14.1418 29.6667 14.1611 29.5124 14.2769 29.3774C14.7977 28.7987 15.087 28.0464 15.087 27.2749C15.087 26.7926 14.9713 26.3297 14.7784 25.9053C14.8748 25.7317 14.952 25.5581 15.0098 25.3845C15.2992 25.4424 15.6078 25.4617 15.9164 25.4617H16.1479C16.3987 30.9977 20.9895 35.4149 26.5833 35.4149H28.5315C29.2452 38.4819 31.8879 40.7966 35.1284 41.028L36.1122 41.1052C36.4208 41.1052 36.6137 40.893 36.633 40.6615C36.6523 40.3915 36.4594 40.16 36.1893 40.1407L35.2056 40.0636C32.4858 39.8707 30.229 37.9804 29.5346 35.4149H32.0807C32.833 35.4149 33.4503 34.8555 33.5467 34.1225L34.4726 26.8505H35.9C36.8066 26.8505 37.5203 26.0211 37.366 25.1145L36.1508 18.0932C36.1315 17.9775 36.2086 17.8811 36.3437 17.8811C37.1538 17.8811 37.8868 17.2059 37.8096 16.2608L37.6167 14.0618H37.6746C39.6035 13.8496 41.1852 12.2872 41.4553 10.3583C41.6096 9.20093 41.301 8.06287 40.6066 7.15628C40.6259 6.96339 40.6451 6.7705 40.6451 6.5776C40.6451 4.20504 38.7162 2.25683 36.3244 2.25683C35.5528 2.25683 34.8005 2.46901 34.1254 2.8548C33.7589 3.06698 33.5081 2.6619 33.5853 2.73906C32.6594 1.54313 31.2706 0.810145 29.7661 0.713699C29.496 0.69441 29.2645 0.906591 29.2645 1.15735C29.2452 1.4274 29.4381 1.65887 29.7082 1.67816C30.9427 1.75531 32.0615 2.35328 32.8137 3.33702C33.2381 3.89641 34.0097 4.05072 34.6076 3.68423C35.1284 3.3756 35.7071 3.22129 36.3051 3.22129C38.1568 3.22129 39.6614 4.72584 39.6614 6.5776C39.6614 6.78979 39.6421 7.00197 39.6035 7.21415C39.5842 7.34917 39.6228 7.50348 39.7193 7.61922C40.3365 8.35221 40.6258 9.27809 40.4908 10.2425C40.2979 11.7278 39.0634 12.943 37.5589 13.1166H37.5203L37.3081 10.8019C37.636 10.5897 37.9254 10.3197 38.1761 10.0304C38.3497 9.81818 38.3111 9.52885 38.1183 9.35524C37.9061 9.18164 37.6167 9.22022 37.4431 9.41311C36.8645 10.1075 35.9965 10.5126 35.1091 10.5319H35.0899C34.4533 10.5319 33.8361 10.339 33.296 9.9725C32.7366 9.58671 31.9843 9.72174 31.6178 10.3004C31.3671 10.6862 31.0777 11.0141 30.7112 11.2842C30.4026 11.5156 30.094 11.7471 29.8239 12.0557C28.9366 13.0395 27.6442 13.4638 26.3519 13.1938C26.1011 13.1359 25.8696 13.2902 25.7925 13.5217C25.4453 14.6983 24.5387 15.6242 23.3813 15.9907C22.3204 16.3186 21.491 17.1288 21.1824 18.1704L19.9864 22.0282C19.5621 23.3592 18.4433 24.3043 17.0931 24.4779V16.4729C17.0931 16.2029 16.8809 15.9907 16.6108 15.9907H15.9936C13.3703 15.9907 11.1906 18.0932 11.152 20.6587C11.1134 22.7033 12.3672 24.4008 14.0647 25.1145C14.0068 25.2881 13.9104 25.4617 13.8139 25.6353C13.6982 25.7896 13.6982 26.0018 13.7946 26.1561C14.0068 26.5033 14.1225 26.8891 14.1225 27.2942C14.1225 27.8343 13.9297 28.3551 13.5632 28.7601C13.1774 29.1845 13.1002 29.7632 13.351 30.2647C13.4474 30.4769 13.5053 30.6891 13.5053 30.9398C13.5053 31.8271 12.7337 32.5215 11.8464 32.4251C11.4028 32.3672 11.2099 32.6565 11.2099 32.9073C11.2099 33.6017 11.152 34.2768 11.0749 34.9712C10.284 34.7012 9.66675 33.9875 9.55101 33.1388C9.41599 32.2901 9.12665 31.5956 8.37438 30.9591C6.69622 29.551 6.44546 27.1013 7.7957 25.3845C8.70229 24.2272 8.74087 22.6841 7.91144 21.5074C6.48404 19.5013 6.17541 16.8394 7.12058 14.5633C7.58352 13.406 7.93073 12.1329 8.12362 10.7826ZM20.9123 22.2983L22.1083 18.4404C22.3397 17.7074 22.9184 17.1481 23.6707 16.8973C25.0016 16.4729 26.0625 15.4699 26.5833 14.1775C28.0493 14.3318 29.5346 13.7725 30.5376 12.673C30.7305 12.4415 30.9813 12.2486 31.2706 12.0364C31.7335 11.6892 32.1193 11.2842 32.4087 10.8019C32.4858 10.6862 32.6016 10.6669 32.7173 10.7441C33.4117 11.2263 34.2218 11.4771 35.0513 11.4771H35.0706C35.5142 11.4771 35.9386 11.3999 36.3629 11.2649L36.8259 16.3186C36.8452 16.6658 36.5944 16.8973 36.3051 16.8973C35.5914 16.8973 35.0513 17.5338 35.167 18.2475L36.3437 25.2688C36.4015 25.5774 36.1508 25.8668 35.8421 25.8668H32.8523C32.3315 25.8668 31.9843 25.3074 32.2544 24.8444C32.3701 24.6323 32.6016 24.4972 32.8523 24.4972H32.9488C33.2188 24.4972 33.431 24.2851 33.431 24.015C33.431 23.745 33.2188 23.5328 32.9488 23.5328H32.8716C32.2736 23.5328 31.7335 23.8414 31.4249 24.3815C30.8077 25.5003 31.6178 26.8505 32.8716 26.8505H33.4696L33.1802 29.1459H30.3447C30.0747 29.1459 29.8625 29.3581 29.8625 29.6281C29.8625 29.8982 30.0747 30.1104 30.3447 30.1104H33.0645L32.563 34.0068C32.5244 34.2575 32.3122 34.4504 32.0422 34.4504H26.5641C21.491 34.4504 17.3438 30.4383 17.0931 25.4231C18.887 25.2495 20.3722 24.0343 20.9123 22.2983ZM12.1165 20.6587C12.1551 18.614 13.8911 16.9359 15.9936 16.9359H16.1286V24.4972H15.8971C13.7753 24.4972 12.0972 22.7612 12.1165 20.6587Z" fill="black"/>
<path d="M27.7991 1.71666C28.0692 1.71666 28.2813 1.50447 28.2813 1.25372C28.2813 0.983667 28.0885 0.771486 27.8184 0.752197C27.5484 0.752197 27.3362 0.945089 27.3169 1.21514C27.3169 1.48519 27.5484 1.71666 27.7991 1.71666ZM2.87753 47.7599C3.01255 47.9913 3.30189 48.0685 3.53336 47.9335C6.09882 46.4096 8.2592 44.2492 9.76376 41.6838C9.89878 41.4523 9.82163 41.163 9.59016 41.028C9.35869 40.8929 9.05006 40.9701 8.93432 41.2016C7.50693 43.632 5.46228 45.6766 3.05113 47.104C2.80037 47.2391 2.7425 47.5284 2.87753 47.7599ZM10.6703 39.9092C10.7861 39.6584 10.6703 39.3884 10.4196 39.2726C10.1881 39.1762 9.87949 39.2919 9.78305 39.5234C9.66731 39.7742 9.78305 40.0442 10.0338 40.1599C10.2653 40.2564 10.5546 40.1599 10.6703 39.9092ZM38.0802 40.2757C37.8102 40.2564 37.5787 40.4493 37.5594 40.7193C37.5401 40.9701 37.733 41.2208 38.0031 41.2401C38.3117 41.2401 38.5046 41.028 38.5239 40.7965C38.5625 40.5264 38.3503 40.295 38.0802 40.2757ZM45.0051 41.7417C45.3137 41.7417 45.5066 41.5295 45.5259 41.298C45.5452 41.028 45.3523 40.7965 45.0822 40.7772L40.0285 40.4107C39.7584 40.3914 39.5269 40.5843 39.5076 40.8544C39.4883 41.1244 39.6812 41.3559 39.9513 41.3752L45.0051 41.7417ZM16.8815 37.4402C16.6114 37.4402 16.3992 37.6524 16.3992 37.9224V39.8706C16.3992 41.0665 16.8622 42.2046 17.7109 43.0533L20.0063 45.3487C20.1992 45.5416 20.5078 45.5416 20.6814 45.3487C20.8743 45.1558 20.8743 44.8472 20.6814 44.6736L18.4053 42.3589C17.7302 41.6838 17.3637 40.8158 17.3637 39.8706V37.9224C17.3637 37.6524 17.1515 37.4402 16.8815 37.4402ZM26.6032 37.9224C26.6032 37.6524 26.391 37.4402 26.121 37.4402C25.8509 37.4402 25.6387 37.6524 25.6387 37.9224V39.4462C25.6387 41.4137 24.8672 43.2655 23.4784 44.6543C23.2855 44.8472 23.2855 45.1558 23.4784 45.3294C23.6712 45.5223 23.9799 45.5223 24.1535 45.3294C25.7352 43.7477 26.6032 41.6645 26.6032 39.427V37.9224Z" fill="black"/>
</svg>
