<svg width="48" height="48" viewBox="0 0 48 48" fill="none" xmlns="http://www.w3.org/2000/svg">
<g opacity="0.8">
<path d="M30.0107 47.552H10.0213C7.80267 47.552 6 45.7494 6 43.5307V4.62937C6 2.4107 7.80267 0.608032 10.0213 0.608032H30.0107C30.9813 0.608032 31.9307 0.970699 32.6667 1.6107C32.8907 1.8027 32.912 2.14403 32.7093 2.36803C32.5173 2.59203 32.176 2.61337 31.952 2.4107C31.408 1.9307 30.7147 1.6747 30 1.6747H10.0213C8.38933 1.6747 7.06667 2.99737 7.06667 4.62937V43.5307C7.06667 45.1627 8.38933 46.4854 10.0213 46.4854H30.0107C31.6427 46.4854 32.9653 45.1627 32.9653 43.5307V41.2374C32.9653 40.9387 33.2 40.704 33.4987 40.704C33.7973 40.704 34.032 40.9387 34.032 41.2374V43.5307C34.032 45.7494 32.2293 47.552 30.0107 47.552Z" fill="black"/>
<path d="M26.6618 6.1974H13.3818C13.0831 6.1974 12.8485 5.96274 12.8485 5.66407C12.8485 5.3654 13.0831 5.13074 13.3818 5.13074H26.6618C26.9605 5.13074 27.1951 5.3654 27.1951 5.66407C27.1951 5.96274 26.9498 6.1974 26.6618 6.1974ZM22.8005 43.0187H17.2325C16.9338 43.0187 16.6991 42.7841 16.6991 42.4854C16.6991 42.1867 16.9338 41.9521 17.2325 41.9521H22.8005C23.0991 41.9521 23.3338 42.1867 23.3338 42.4854C23.3338 42.7841 23.0991 43.0187 22.8005 43.0187ZM28.8911 43.0187H26.6725C26.3738 43.0187 26.1391 42.7841 26.1391 42.4854C26.1391 42.1867 26.3738 41.9521 26.6725 41.9521H28.8911C29.1898 41.9521 29.4245 42.1867 29.4245 42.4854C29.4245 42.7841 29.1791 43.0187 28.8911 43.0187ZM13.3605 43.0187H11.1525C10.8538 43.0187 10.6191 42.7841 10.6191 42.4854C10.6191 42.1867 10.8538 41.9521 11.1525 41.9521H13.3711C13.6698 41.9521 13.9045 42.1867 13.9045 42.4854C13.9045 42.7841 13.6591 43.0187 13.3605 43.0187ZM35.2591 31.5414C29.7765 31.5414 25.3071 27.0827 25.3071 21.5894C25.3071 16.0961 29.7658 11.6374 35.2591 11.6374C40.7525 11.6374 45.2111 16.0961 45.2111 21.5894C45.2111 27.0827 40.7418 31.5414 35.2591 31.5414ZM35.2591 12.7041C30.3631 12.7041 26.3738 16.6934 26.3738 21.5894C26.3738 26.4854 30.3631 30.4747 35.2591 30.4747C40.1551 30.4747 44.1445 26.4854 44.1445 21.5894C44.1445 16.6934 40.1551 12.7041 35.2591 12.7041Z" fill="black"/>
<path d="M40.6457 14.4C40.3791 14.4 40.1444 14.1974 40.1124 13.9307L38.9711 3.79737C38.8964 3.16803 38.4697 2.48537 37.7124 2.48537H32.8057C32.0377 2.48537 31.6217 3.16803 31.5471 3.79737L30.4057 13.9307C30.3737 14.2187 30.1071 14.432 29.8191 14.4C29.5311 14.368 29.3177 14.1014 29.3497 13.8134L30.4911 3.68003C30.6404 2.36803 31.6111 1.4187 32.8164 1.4187H37.7231C38.9177 1.4187 39.8991 2.36803 40.0484 3.68003L41.1897 13.8134C41.2217 14.1014 41.0084 14.368 40.7204 14.4H40.6457ZM46.3097 23.904C46.2351 23.904 46.1711 23.8934 46.0964 23.8827L44.4537 23.5414C44.1657 23.4774 43.9844 23.2 44.0377 22.912C44.1017 22.624 44.3791 22.4427 44.6671 22.496L46.2991 22.8374C46.3311 22.816 46.4057 22.7307 46.4057 22.624V20.5654C46.4057 20.4587 46.3311 20.3734 46.2991 20.352L44.6671 20.6934C44.3791 20.7574 44.0911 20.5654 44.0377 20.2774C43.9844 19.9894 44.1657 19.7014 44.4537 19.648L46.0964 19.3067C46.4164 19.2427 46.7257 19.3174 46.9924 19.5307C47.2911 19.776 47.4831 20.1707 47.4831 20.5654V22.6134C47.4831 23.008 47.2911 23.4027 46.9924 23.648C46.7897 23.8187 46.5551 23.904 46.3097 23.904ZM35.2591 28.448C31.4831 28.448 28.4004 25.376 28.4004 21.5894C28.4004 17.8027 31.4724 14.7307 35.2591 14.7307C39.0457 14.7307 42.1177 17.8027 42.1177 21.5894C42.1177 25.376 39.0351 28.448 35.2591 28.448ZM35.2591 15.7974C32.0697 15.7974 29.4671 18.3894 29.4671 21.5894C29.4671 24.7894 32.0591 27.3814 35.2591 27.3814C38.4591 27.3814 41.0511 24.7894 41.0511 21.5894C41.0511 18.3894 38.4484 15.7974 35.2591 15.7974Z" fill="black"/>
<path d="M35.2591 18.1654C34.9604 18.1654 34.7257 17.9307 34.7257 17.632V15.264C34.7257 14.9654 34.9604 14.7307 35.2591 14.7307C35.5577 14.7307 35.7924 14.9654 35.7924 15.264V17.632C35.7924 17.9307 35.5577 18.1654 35.2591 18.1654ZM31.3017 22.1227H28.9337C28.6351 22.1227 28.4004 21.888 28.4004 21.5894C28.4004 21.2907 28.6351 21.056 28.9337 21.056H31.3017C31.6004 21.056 31.8351 21.2907 31.8351 21.5894C31.8351 21.888 31.6004 22.1227 31.3017 22.1227ZM35.2591 28.448C34.9604 28.448 34.7257 28.2134 34.7257 27.9147V25.5467C34.7257 25.248 34.9604 25.0134 35.2591 25.0134C35.5577 25.0134 35.7924 25.248 35.7924 25.5467V27.9147C35.7924 28.2027 35.5577 28.448 35.2591 28.448ZM41.5844 22.1227H39.2164C38.9177 22.1227 38.6831 21.888 38.6831 21.5894C38.6831 21.2907 38.9177 21.056 39.2164 21.056H41.5844C41.8831 21.056 42.1177 21.2907 42.1177 21.5894C42.1177 21.888 41.8724 22.1227 41.5844 22.1227ZM32.6884 17.6747C32.5071 17.6747 32.3257 17.5787 32.2297 17.408L31.6431 16.384C31.4937 16.128 31.5791 15.808 31.8351 15.6587C32.0911 15.5094 32.4217 15.5947 32.5604 15.8507L33.1471 16.8747C33.2964 17.1307 33.2111 17.4507 32.9551 17.6C32.8697 17.6534 32.7844 17.6747 32.6884 17.6747ZM30.8111 19.552C30.7257 19.552 30.6297 19.5307 30.5444 19.4774L29.5204 18.8907C29.2644 18.7414 29.1791 18.4214 29.3284 18.1654C29.4777 17.9094 29.7977 17.824 30.0537 17.9734L31.0777 18.56C31.3337 18.7094 31.4191 19.0294 31.2697 19.2854C31.1737 19.456 30.9924 19.552 30.8111 19.552ZM29.7871 25.28C29.6057 25.28 29.4244 25.184 29.3284 25.0134C29.1791 24.7574 29.2644 24.4374 29.5204 24.288L30.5444 23.7014C30.8004 23.552 31.1311 23.6374 31.2697 23.8934C31.4191 24.1494 31.3337 24.4694 31.0777 24.6187L30.0537 25.2054C29.9684 25.2587 29.8724 25.28 29.7871 25.28ZM32.1017 27.5947C32.0164 27.5947 31.9204 27.5734 31.8351 27.52C31.5791 27.3707 31.4937 27.0507 31.6431 26.7947L32.2297 25.7707C32.3791 25.5147 32.6991 25.4294 32.9551 25.5787C33.2111 25.728 33.2964 26.048 33.1471 26.304L32.5604 27.328C32.4644 27.4987 32.2831 27.5947 32.1017 27.5947ZM38.4164 27.5947C38.2351 27.5947 38.0537 27.4987 37.9577 27.328L37.3711 26.304C37.2217 26.048 37.3071 25.728 37.5631 25.5787C37.8191 25.4294 38.1391 25.5147 38.2884 25.7707L38.8751 26.7947C39.0244 27.0507 38.9391 27.3707 38.6831 27.52C38.5977 27.5734 38.5124 27.5947 38.4164 27.5947ZM40.7311 25.28C40.6457 25.28 40.5497 25.2587 40.4644 25.2054L39.4404 24.6187C39.1844 24.4694 39.0991 24.1494 39.2484 23.8934C39.3977 23.6374 39.7177 23.552 39.9737 23.7014L40.9977 24.288C41.2537 24.4374 41.3391 24.7574 41.1897 25.0134C41.0937 25.184 40.9124 25.28 40.7311 25.28ZM39.7071 19.552C39.5257 19.552 39.3444 19.456 39.2484 19.2854C39.0991 19.0294 39.1844 18.7094 39.4404 18.56L40.4644 17.9734C40.7204 17.824 41.0511 17.9094 41.1897 18.1654C41.3391 18.4214 41.2537 18.7414 40.9977 18.8907L39.9737 19.4774C39.8884 19.5307 39.8031 19.552 39.7071 19.552ZM37.8297 17.6747C37.7444 17.6747 37.6484 17.6534 37.5631 17.6C37.3071 17.4507 37.2217 17.1307 37.3711 16.8747L37.9577 15.8507C38.1071 15.5947 38.4271 15.5094 38.6831 15.6587C38.9391 15.808 39.0244 16.128 38.8751 16.384L38.2884 17.408C38.1924 17.5787 38.0111 17.6747 37.8297 17.6747ZM35.2591 23.2854C34.3204 23.2854 33.5631 22.528 33.5631 21.5894C33.5631 20.6507 34.3204 19.8934 35.2591 19.8934C36.1977 19.8934 36.9551 20.6507 36.9551 21.5894C36.9551 22.528 36.1977 23.2854 35.2591 23.2854ZM35.2591 20.96C34.9071 20.96 34.6297 21.248 34.6297 21.5894C34.6297 21.9414 34.9177 22.2187 35.2591 22.2187C35.6004 22.2187 35.8884 21.9307 35.8884 21.5894C35.8884 21.248 35.6111 20.96 35.2591 20.96ZM37.7124 41.7707H32.8057C31.6111 41.7707 30.6297 40.8214 30.4804 39.5094L29.3391 29.376C29.3071 29.088 29.5204 28.8214 29.8084 28.7894C30.0964 28.7574 30.3631 28.9707 30.3951 29.2587L31.5364 39.392C31.6111 40.0214 32.0377 40.704 32.7951 40.704H37.7017C38.4697 40.704 38.8857 40.0214 38.9604 39.392L40.1017 29.2587C40.1337 28.9707 40.4004 28.7574 40.6884 28.7894C40.9764 28.8214 41.1897 29.088 41.1577 29.376L40.0164 39.5094C39.8777 40.8214 38.9071 41.7707 37.7124 41.7707Z" fill="black"/>
</g>
</svg>
