<svg width="48" height="48" viewBox="0 0 48 48" fill="none" xmlns="http://www.w3.org/2000/svg">
<g opacity="0.8" clip-path="url(#clip0_2006_222)">
<path d="M47.2673 18.1711L47.28 18.1651C47.4741 18.1594 47.6584 18.0788 47.7942 17.94C47.9301 17.8012 48.0068 17.6152 48.0083 17.4211C48.0093 17.323 47.991 17.2256 47.9542 17.1347C47.9174 17.0437 47.8629 16.961 47.7939 16.8912C47.7249 16.8215 47.6428 16.7661 47.5523 16.7283C47.4617 16.6905 47.3646 16.6711 47.2665 16.6711C47.055 16.6036 46.5 15.6908 46.5 14.0461C46.5 12.4013 47.0557 11.4886 47.2673 11.4211L47.2777 11.4158C47.4618 11.4027 47.6345 11.3222 47.7629 11.1898C47.8913 11.0574 47.9664 10.8822 47.9739 10.6979C47.9813 10.5136 47.9205 10.333 47.8032 10.1906C47.6858 10.0483 47.5201 9.95418 47.3377 9.92631L23.166 7.08381C22.2251 6.97206 21.2742 6.97206 20.3333 7.08381L2.91075 9.17631H2.8995C1.48875 9.27381 0.75 11.2943 0.75 13.2961C0.700929 14.4863 1.0148 15.6633 1.65 16.6711C1.01458 17.6787 0.700691 18.8558 0.75 20.0461C0.709717 21.1917 0.995829 22.3253 1.575 23.3146C0.53925 24.3571 0 26.5201 0 28.6711C0 31.6276 1.01325 34.6208 2.9505 34.6711L28.4123 37.6666C28.4414 37.6699 28.4707 37.6714 28.5 37.6711C28.5298 37.6712 28.5596 37.6695 28.5892 37.6658L34.5 36.9563V39.9211C34.5 40.0851 34.5537 40.2447 34.653 40.3752C34.7523 40.5058 34.8917 40.6003 35.0498 40.6441C35.115 40.6619 35.1824 40.6709 35.25 40.6711C35.3794 40.671 35.5066 40.6375 35.6193 40.5738C35.7319 40.51 35.8261 40.4183 35.8927 40.3073L37.569 37.5136L39.15 39.6211C39.2444 39.747 39.3761 39.84 39.5264 39.887C39.6766 39.9339 39.8378 39.9324 39.9872 39.8826C40.1365 39.8328 40.2664 39.7373 40.3584 39.6096C40.4505 39.4819 40.5 39.3285 40.5 39.1711V36.2371L47.3392 35.4158C47.5292 35.3932 47.7033 35.2989 47.826 35.1522C47.9487 35.0054 48.0107 34.8173 47.9993 34.6264C47.9879 34.4354 47.904 34.256 47.7647 34.1249C47.6254 33.9938 47.4413 33.9209 47.25 33.9211C46.725 33.9211 45.75 32.2126 45.75 29.4211C45.75 26.6536 46.671 25.0516 47.25 24.9211C47.4499 24.9217 47.6418 24.8431 47.7839 24.7026C47.926 24.562 48.0067 24.3709 48.0083 24.1711C48.0098 23.9877 47.9435 23.8103 47.8221 23.6729C47.7006 23.5356 47.5326 23.448 47.3505 23.4271C47.3209 23.4235 47.2911 23.4215 47.2612 23.4211C47.046 23.3386 46.5 22.4281 46.5 20.7961C46.5 19.1461 47.0557 18.2386 47.2673 18.1711ZM24.2152 35.6618C23.5072 34.2416 23.1749 32.6637 23.25 31.0786C23.1951 29.5568 23.491 28.0427 24.1147 26.6536L26.5845 26.9438C25.8192 28.3989 25.4454 30.0279 25.5 31.6711C25.4745 33.1263 25.7556 34.5706 26.325 35.9101L24.2152 35.6618ZM21.1882 35.3056C20.5036 33.8928 20.1812 32.3319 20.25 30.7636C20.1898 29.2289 20.4946 27.7018 21.1395 26.3078L22.542 26.4728C21.9838 27.9427 21.7149 29.5066 21.75 31.0786C21.7266 32.5681 21.967 34.0499 22.4603 35.4556L21.1882 35.3056ZM9.06525 33.8806C8.49406 32.5297 8.22109 31.0715 8.265 29.6056C8.17732 27.9779 8.53846 26.3575 9.309 24.9211L19.4813 26.1158C19.5037 26.1158 19.524 26.1293 19.5465 26.1293C19.5522 26.1297 19.558 26.1297 19.5637 26.1293C18.9949 27.6068 18.7185 29.1807 18.75 30.7636C18.7283 32.2386 18.9633 33.7063 19.4445 35.1008L9.06525 33.8806ZM6.0705 33.5288C5.49361 32.1751 5.21873 30.7119 5.265 29.2411C5.17618 27.6168 5.53414 25.9992 6.3 24.5641L7.6965 24.7283C7.03831 26.2673 6.71958 27.93 6.762 29.6033C6.74446 30.986 6.94699 32.3627 7.362 33.6818L6.0705 33.5288ZM3.0165 22.6711C2.805 22.6036 2.25 21.6908 2.25 20.0461C2.25 18.4156 2.7945 17.5066 2.994 17.4256L6.54675 17.8396C6.5595 17.8396 6.56925 17.8493 6.58125 17.8508L21.6667 19.6208C21.3311 20.602 21.1689 21.6342 21.1875 22.6711C21.1856 23.3976 21.2633 24.1222 21.4193 24.8318L19.9845 24.6638C19.6324 23.7937 19.4673 22.8592 19.5 21.9211C19.4993 21.4731 19.5496 21.0264 19.65 20.5898C19.6722 20.4938 19.6752 20.3944 19.6589 20.2973C19.6427 20.2001 19.6075 20.1071 19.5553 20.0236C19.5031 19.94 19.4349 19.8676 19.3547 19.8104C19.2745 19.7532 19.1839 19.7124 19.0879 19.6902C18.9919 19.668 18.8925 19.665 18.7953 19.6812C18.6982 19.6975 18.6052 19.7327 18.5216 19.7849C18.4381 19.8371 18.3657 19.9053 18.3085 19.9855C18.2513 20.0657 18.2104 20.1563 18.1882 20.2523C18.0628 20.7997 17.9996 21.3595 18 21.9211C17.9919 22.782 18.1017 23.6399 18.3263 24.4711L9.03525 23.3791H9.0195L6.03 23.0266H6.0105L3.0165 22.6711ZM7.23 11.1721L10.1423 11.5133H10.1497L26.8147 13.4776C26.4251 14.3652 26.2324 15.3268 26.25 16.2961C26.2439 17.1126 26.377 17.9243 26.6438 18.6961L10.4115 16.7903C10.2119 16.0167 10.1156 15.22 10.125 14.4211C10.1239 13.9517 10.1527 13.4828 10.2113 13.0171C10.2239 12.9194 10.2171 12.8201 10.1914 12.725C10.1656 12.6299 10.1214 12.5409 10.0612 12.4629C10.001 12.3849 9.9261 12.3195 9.84066 12.2704C9.75522 12.2214 9.66095 12.1897 9.56325 12.1771C9.46555 12.1645 9.36632 12.1712 9.27123 12.197C9.17614 12.2227 9.08705 12.2669 9.00904 12.3271C8.93104 12.3873 8.86566 12.4622 8.81662 12.5477C8.76758 12.6331 8.73586 12.7274 8.72325 12.8251C8.65664 13.3544 8.62382 13.8875 8.625 14.4211C8.62277 15.154 8.69133 15.8854 8.82975 16.6051L7.15575 16.4086C6.85862 15.5275 6.72121 14.6004 6.75 13.6711C6.74918 12.8151 6.91211 11.9668 7.23 11.1721ZM28.5 13.6711C28.5296 13.6712 28.5591 13.6694 28.5885 13.6658L45.3885 11.6521C45.1242 12.4223 44.9928 13.2318 45 14.0461C44.9821 15.0174 45.1758 15.9809 45.5677 16.8698L28.5083 18.9143C28.2908 18.8281 27.75 17.9258 27.75 16.2961C27.75 14.6513 28.305 13.7386 28.5 13.6711ZM23.025 25.0201C22.7919 24.2592 22.6781 23.4668 22.6875 22.6711C22.6346 21.6854 22.823 20.7017 23.2365 19.8053L26.817 20.2253C26.4258 21.1134 26.2323 22.0758 26.25 23.0461C26.2439 23.8626 26.377 24.6743 26.6438 25.4461L23.025 25.0201ZM28.5105 25.6651C28.2915 25.5788 27.75 24.6766 27.75 23.0461C27.75 21.4013 28.305 20.4886 28.5 20.4211C28.5298 20.4212 28.5596 20.4195 28.5892 20.4158L45.3893 18.4021C45.1246 19.1722 44.993 19.9818 45 20.7961C44.9853 21.7681 45.1851 22.7315 45.585 23.6176L28.5105 25.6651ZM20.511 8.57106C21.3344 8.47357 22.1664 8.47357 22.9897 8.57106L40.8997 10.6771L28.5 12.1658L10.3253 10.0238H10.3177L9.366 9.91206L20.511 8.57106ZM2.99025 10.6711L5.69625 10.9883C5.40133 11.852 5.25057 12.7584 5.25 13.6711C5.24297 14.5264 5.33687 15.3795 5.52975 16.2128L3.0165 15.9211C2.805 15.8536 2.25 14.9408 2.25 13.2961C2.25 11.6776 2.787 10.7686 2.99025 10.6748V10.6711ZM3 33.1711C2.475 33.1711 1.5 31.4626 1.5 28.6711C1.5 25.8961 2.4585 24.1966 2.98875 24.1748L4.69425 24.3751C4.03997 25.9119 3.72308 27.5713 3.765 29.2411C3.74809 30.6267 3.95293 32.0061 4.37175 33.3271L3.08775 33.1771C3.05866 33.1732 3.02935 33.1712 3 33.1711ZM38.1 35.7211C38.027 35.6217 37.9303 35.5422 37.8187 35.4898C37.707 35.4374 37.5841 35.4138 37.461 35.4211C37.339 35.4281 37.2205 35.4649 37.116 35.5281C37.0114 35.5914 36.9239 35.6793 36.861 35.7841L36 37.2136V30.7801L39 30.4186V36.9211L38.1 35.7211ZM40.5 34.7258V30.2378L40.971 30.1808C41.1686 30.1572 41.3488 30.0561 41.4719 29.8997C41.5949 29.7433 41.6508 29.5444 41.6273 29.3468C41.6037 29.1492 41.5026 28.969 41.3462 28.846C41.1898 28.7229 40.9909 28.667 40.7933 28.6906L39.6683 28.8271H39.663L35.163 29.3671C35.1548 29.3671 35.148 29.3731 35.1398 29.3738L34.2052 29.4871C34.0155 29.5096 33.8416 29.6037 33.7189 29.7501C33.5962 29.8966 33.534 30.0843 33.5451 30.275C33.5561 30.4657 33.6394 30.6451 33.7781 30.7764C33.9169 30.9078 34.1005 30.9812 34.2915 30.9818C34.3211 30.9819 34.3506 30.9802 34.38 30.9766L34.5 30.9616V35.4458L28.5 36.1658L28.434 36.1583C27.9165 36.0331 27 34.4333 27 31.6711C27 28.8796 27.975 27.1711 28.5 27.1711C28.5298 27.1712 28.5596 27.1695 28.5892 27.1658L45.075 25.1896C44.5064 26.5266 44.2254 27.9683 44.25 29.4211C44.1957 31.0628 44.5675 32.6907 45.3293 34.1461L40.5 34.7258Z" fill="black"/>
</g>
<defs>
<clipPath id="clip0_2006_222">
<rect width="48" height="48" fill="white"/>
</clipPath>
</defs>
</svg>
