<svg width="48" height="48" viewBox="0 0 48 48" fill="none" xmlns="http://www.w3.org/2000/svg">
<g opacity="0.8">
<path d="M46.5 42.8587H44.6534L45.7912 35.1074H46.5C46.587 35.1074 46.6705 35.0729 46.732 35.0113C46.7936 34.9498 46.8281 34.8663 46.8281 34.7793C46.8281 34.6923 46.7936 34.6088 46.732 34.5473C46.6705 34.4858 46.587 34.4512 46.5 34.4512H45.8581C45.854 33.9318 45.684 33.4327 45.3703 33.0412C44.9895 32.5661 44.4476 32.2653 43.8532 32.1911C43.6781 31.2502 43.0393 30.4708 42.1942 30.0877C42.6613 29.7314 42.9646 29.1706 42.9646 28.5391C42.9646 27.5765 42.2624 26.7768 41.3438 26.6201V9.47254C41.4212 9.44255 41.4909 9.39544 41.5475 9.33473L43.2699 7.48326L45.6921 8.47007C45.7848 8.50804 45.8861 8.51995 45.985 8.50452C46.084 8.48909 46.1769 8.4469 46.2536 8.38251C46.3306 8.31838 46.3886 8.23445 46.4213 8.13978C46.454 8.04511 46.4603 7.9433 46.4394 7.84532L45.2428 2.19951C45.694 2.07525 46.144 1.94697 46.5928 1.81467C46.6763 1.79003 46.7465 1.73326 46.7881 1.65684C46.8297 1.58042 46.8393 1.4906 46.8147 1.40714C46.79 1.32373 46.7333 1.25353 46.6569 1.21192C46.5805 1.17032 46.4907 1.16072 46.4073 1.18523C39.1702 3.3187 31.6313 4.40057 24 4.40048C16.3685 4.40048 8.82956 3.3187 1.59281 1.18523C1.50934 1.16067 1.41954 1.17024 1.34313 1.21185C1.26671 1.25346 1.20994 1.3237 1.18528 1.40714C1.1607 1.49062 1.17027 1.58044 1.2119 1.65687C1.25353 1.73329 1.32381 1.79005 1.40728 1.81467C1.85612 1.94697 2.30614 2.07526 2.75728 2.19951L1.56047 7.84532C1.53959 7.9433 1.54586 8.04511 1.5786 8.13978C1.61135 8.23445 1.66933 8.31838 1.74628 8.38251C1.82304 8.44685 1.91591 8.48901 2.01488 8.50444C2.11384 8.51987 2.21514 8.50799 2.30784 8.47007L4.72997 7.48326L6.45253 9.33463C6.5361 9.4245 6.64736 9.48378 6.76856 9.50301V19.1884C5.67225 19.348 4.82737 20.2937 4.82737 21.4336C4.82737 22.4533 5.50341 23.3178 6.43078 23.603C6.02766 23.9419 5.50491 24.2037 4.95947 24.4759C3.60413 25.1527 2.07731 25.9168 1.94006 28.1303H1.5C1.41298 28.1303 1.32952 28.1649 1.26798 28.2264C1.20645 28.2879 1.17188 28.3714 1.17188 28.4584C1.17188 28.5454 1.20645 28.6289 1.26798 28.6904C1.32952 28.752 1.41298 28.7865 1.5 28.7865H1.92891V38.7765H1.5C1.41298 38.7765 1.32952 38.8111 1.26798 38.8726C1.20645 38.9342 1.17188 39.0176 1.17188 39.1047C1.17188 39.1917 1.20645 39.2752 1.26798 39.3367C1.32952 39.3982 1.41298 39.4328 1.5 39.4328H1.94006C2.07788 41.6364 3.60347 42.4034 4.95787 43.0825C5.70975 43.4596 6.42 43.8159 6.83137 44.3812C6.86182 44.423 6.90172 44.4571 6.94783 44.4805C6.99394 44.504 7.04495 44.5163 7.09669 44.5163C7.14843 44.5163 7.19943 44.504 7.24554 44.4805C7.29165 44.4571 7.33156 44.423 7.362 44.3812C7.7745 43.8145 8.48634 43.4535 9.23981 43.0713C10.5917 42.3858 12.1142 41.6119 12.253 39.4327H12.6934C12.7804 39.4327 12.8639 39.3981 12.9254 39.3366C12.9869 39.2751 13.0215 39.1916 13.0215 39.1046C13.0215 39.0175 12.9869 38.9341 12.9254 38.8726C12.8639 38.811 12.7804 38.7764 12.6934 38.7764H12.2644V28.7864H12.6934C12.7804 28.7864 12.8639 28.7519 12.9254 28.6903C12.9869 28.6288 13.0215 28.5453 13.0215 28.4583C13.0215 28.3713 12.9869 28.2878 12.9254 28.2263C12.8639 28.1648 12.7804 28.1302 12.6934 28.1302H12.2534C12.1165 25.9077 10.5886 25.1461 9.23231 24.4717C8.68772 24.201 8.16572 23.9407 7.76297 23.603C8.69016 23.3176 9.36591 22.4532 9.36591 21.4336C9.36591 20.2938 8.52112 19.348 7.42481 19.1884V8.94651C7.42481 8.9437 7.42406 8.94107 7.42397 8.93835L8.56322 3.56507C9.20664 3.6908 9.8516 3.80856 10.4979 3.91832L9.86972 9.33651C9.84909 9.51426 10.0357 9.64279 10.1945 9.56001L12.5778 8.31745C12.6179 8.29651 12.6635 8.28829 12.7085 8.29389C12.7534 8.29948 12.7956 8.31862 12.8294 8.34876L14.7712 10.08C14.9062 10.2002 15.1206 10.1187 15.1414 9.93923L15.7564 4.63485C18.0519 4.87048 20.3566 5.00748 22.6639 5.04548L22.5156 10.1602L20.5923 8.72432C20.5025 8.65772 20.3946 8.61984 20.2829 8.61565C20.1712 8.61147 20.0608 8.64118 19.9663 8.70088L17.8669 10.0387L17.9784 6.19701C17.9797 6.15393 17.9725 6.11103 17.9572 6.07074C17.9418 6.03046 17.9187 5.9936 17.8892 5.96225C17.8596 5.93091 17.8241 5.9057 17.7848 5.88807C17.7455 5.87044 17.703 5.86074 17.66 5.85951C17.6568 5.85932 17.6534 5.85932 17.6503 5.85932C17.565 5.85936 17.483 5.89265 17.4218 5.95212C17.3606 6.0116 17.325 6.09258 17.3225 6.17789L17.2053 10.2176C17.2022 10.3177 17.2265 10.4168 17.2757 10.5041C17.3248 10.5914 17.3968 10.6636 17.484 10.7129C17.5711 10.7625 17.67 10.7874 17.7702 10.7849C17.8704 10.7824 17.9679 10.7525 18.0524 10.6986L19.8145 9.57585V17.896C18.8534 18.0533 18.1175 18.8893 18.1175 19.8941C18.1175 20.8991 18.8534 21.7349 19.8145 21.8923V23.1704C17.0399 23.4792 14.8876 25.7793 14.7799 28.587C14.7201 30.1469 15.2818 31.6238 16.3616 32.7458C17.4419 33.8684 18.8946 34.4864 20.452 34.4864C22.1707 34.4864 23.7782 33.7198 24.8621 32.3828C25.0195 32.1887 25.0168 31.9199 24.8559 31.7294C24.6928 31.5362 24.4249 31.4881 24.2048 31.6123C23.5057 32.0057 22.7081 32.1829 21.8983 32.1249C19.8673 31.9796 18.2407 30.3366 18.1147 28.3033C17.999 26.4352 19.1575 24.7272 20.9319 24.1497C21.1721 24.0716 21.3176 23.8422 21.2859 23.5918C21.2545 23.3441 21.0585 23.1602 20.8092 23.1447C20.6965 23.1379 20.5837 23.1345 20.4708 23.1344V21.8923C21.4317 21.7349 22.1677 20.899 22.1677 19.8941C22.1677 18.8893 21.4317 18.0533 20.4708 17.8961V9.45248L22.2848 10.8068C22.3656 10.8674 22.4615 10.9046 22.562 10.9142C22.6625 10.9239 22.7637 10.9057 22.8546 10.8615C22.9456 10.8178 23.0227 10.7498 23.0777 10.6651C23.1326 10.5803 23.1631 10.4821 23.1658 10.3812L23.3201 5.05373C23.5467 5.0556 23.7733 5.05673 24 5.05673H24.0009C24.2273 5.05673 24.4537 5.0557 24.6798 5.05373L24.8342 10.3811C24.8369 10.482 24.8674 10.5803 24.9223 10.665C24.9772 10.7498 25.0544 10.8178 25.1454 10.8615C25.2362 10.9056 25.3374 10.9239 25.4379 10.9142C25.5384 10.9046 25.6343 10.8675 25.7151 10.8069L27.7423 9.29348L28.7435 9.93135V26.6526L27.7389 28.6879L25.417 29.0253C25.3565 29.0342 25.2996 29.0598 25.2528 29.0993C25.2061 29.1387 25.1713 29.1905 25.1524 29.2487C25.1334 29.3069 25.1312 29.3692 25.1458 29.4287C25.1604 29.4881 25.1914 29.5422 25.2352 29.585L27.0389 31.3431C27.1012 31.4038 27.1851 31.4373 27.2721 31.4362C27.3152 31.4357 27.3577 31.4267 27.3973 31.4097C27.4369 31.3927 27.4728 31.3681 27.5029 31.3372C27.533 31.3063 27.5567 31.2699 27.5726 31.2299C27.5886 31.1898 27.5966 31.1471 27.596 31.104C27.5955 31.0609 27.5864 31.0184 27.5694 30.9788C27.5524 30.9392 27.5278 30.9033 27.497 30.8732L26.1694 29.5792L28.004 29.3126C28.0566 29.3049 28.1066 29.2846 28.1497 29.2533C28.1927 29.222 28.2275 29.1808 28.2511 29.133L29.0716 27.4706L29.8921 29.133C29.9156 29.1807 29.9504 29.222 29.9935 29.2533C30.0365 29.2846 30.0865 29.3049 30.1391 29.3126L31.9738 29.5792L30.6462 30.8732C30.6081 30.9104 30.5796 30.9562 30.5632 31.0068C30.5468 31.0574 30.5429 31.1112 30.5519 31.1637L30.8653 32.9909L29.2243 32.1283C29.1772 32.1035 29.1248 32.0905 29.0716 32.0905C29.0184 32.0905 28.966 32.1035 28.9189 32.1283L26.6894 33.3003C26.6505 33.3199 26.6159 33.3471 26.5876 33.3802C26.5594 33.4133 26.538 33.4518 26.5247 33.4933C26.5114 33.5347 26.5065 33.5784 26.5103 33.6218C26.5141 33.6652 26.5265 33.7074 26.5468 33.746C26.567 33.7845 26.5948 33.8187 26.6284 33.8464C26.662 33.8741 26.7007 33.8949 26.7424 33.9074C26.7841 33.92 26.8279 33.9242 26.8712 33.9196C26.9146 33.9151 26.9565 33.902 26.9948 33.8811L28.7435 32.9619V35.9101C28.6035 35.9806 28.4903 36.0947 28.421 36.2352L27.055 39.0027C27.0501 39.0127 27.0428 39.0214 27.0338 39.028C27.0247 39.0346 27.0142 39.0389 27.0031 39.0405L23.9488 39.4843C23.8147 39.5033 23.6886 39.5597 23.585 39.647C23.4815 39.7344 23.4046 39.8491 23.3632 39.9781C23.3209 40.1068 23.3157 40.2448 23.3481 40.3763C23.3806 40.5078 23.4495 40.6275 23.5468 40.7217L25.7569 42.876C25.7649 42.8839 25.7709 42.8935 25.7744 42.9042C25.7778 42.9149 25.7787 42.9262 25.7767 42.9373L25.2551 45.979C25.2317 46.1124 25.2463 46.2498 25.2973 46.3753C25.3483 46.5008 25.4337 46.6094 25.5436 46.6887C25.6672 46.779 25.8163 46.8278 25.9694 46.828C26.0847 46.828 26.2006 46.8001 26.3077 46.7439L29.0395 45.3076C29.0494 45.3024 29.0605 45.2997 29.0716 45.2997C29.0828 45.2997 29.0938 45.3024 29.1038 45.3076L31.8356 46.7439C31.9553 46.8073 32.0904 46.8358 32.2256 46.826C32.3607 46.8162 32.4903 46.7686 32.5996 46.6886C32.7095 46.6094 32.7949 46.5008 32.8459 46.3753C32.8969 46.2498 32.9116 46.1125 32.8882 45.9791L32.3664 42.9374C32.3645 42.9264 32.3654 42.915 32.3688 42.9043C32.3723 42.8936 32.3783 42.8839 32.3864 42.876L34.5964 40.7218C34.6937 40.6276 34.7626 40.5079 34.795 40.3764C34.8275 40.2449 34.8223 40.107 34.7799 39.9783C34.7386 39.8493 34.6617 39.7345 34.5581 39.6471C34.4545 39.5598 34.3284 39.5034 34.1943 39.4844L31.14 39.0406C31.1289 39.039 31.1184 39.0347 31.1093 39.0281C31.1002 39.0215 31.0929 39.0128 31.088 39.0028L29.7221 36.2353C29.6528 36.0948 29.5396 35.9807 29.3996 35.9102V32.962L31.1483 33.8812C31.2025 33.9098 31.2636 33.9226 31.3247 33.9182C31.3858 33.9138 31.4444 33.8924 31.494 33.8564C31.5435 33.8204 31.582 33.7713 31.6051 33.7145C31.6281 33.6578 31.6348 33.5957 31.6244 33.5354L31.2278 31.2228L32.908 29.585C32.9519 29.5423 32.9829 29.4881 32.9976 29.4287C33.0122 29.3692 33.01 29.3069 32.9911 29.2486C32.9721 29.1904 32.9373 29.1386 32.8905 29.0992C32.8437 29.0597 32.7868 29.0341 32.7262 29.0253L30.4043 28.688L29.3997 26.6527V10.3496L29.9477 10.6987C30.1203 10.8087 30.338 10.8142 30.516 10.713C30.694 10.6119 30.8008 10.4222 30.7948 10.2178L30.637 4.7842C31.1731 4.73983 31.7087 4.69008 32.2437 4.63495L32.8587 9.93932C32.8794 10.1188 33.0938 10.2003 33.2288 10.0801L35.1706 8.34885C35.2044 8.31871 35.2466 8.29957 35.2915 8.29398C35.3365 8.28839 35.3821 8.29661 35.4222 8.31754L37.8055 9.5601C37.9642 9.64289 38.1509 9.51435 38.1303 9.3366L37.5022 3.9187C39.8934 3.51207 42.2646 2.99575 44.6084 2.37135L45.7563 7.78767L43.4505 6.84829C43.3468 6.8064 43.2329 6.79688 43.1238 6.82098C43.0146 6.84507 42.9153 6.90166 42.8389 6.98329L41.2047 8.73979L40.3605 4.75804C40.3516 4.71589 40.3344 4.6759 40.31 4.64038C40.2857 4.60485 40.2545 4.57447 40.2184 4.55098C40.1823 4.52749 40.1419 4.51134 40.0995 4.50346C40.0571 4.49558 40.0136 4.49613 39.9715 4.50506C39.9293 4.51399 39.8893 4.53114 39.8538 4.55552C39.8183 4.5799 39.7879 4.61105 39.7644 4.64717C39.7409 4.68329 39.7248 4.72369 39.7169 4.76605C39.709 4.80842 39.7096 4.85192 39.7185 4.89407L40.6046 9.07354C40.6195 9.143 40.6477 9.20893 40.6876 9.2677V26.6202C39.7689 26.7769 39.0668 27.5766 39.0668 28.5392C39.0668 29.1707 39.3701 29.7314 39.8372 30.0878C38.9921 30.4709 38.3534 31.2503 38.1782 32.1912C37.5838 32.2654 37.0419 32.5662 36.6611 33.0413C36.3474 33.4328 36.1774 33.9319 36.1733 34.4513H35.5314C35.4444 34.4513 35.361 34.4859 35.2994 34.5474C35.2379 34.6089 35.2033 34.6924 35.2033 34.7794C35.2033 34.8664 35.2379 34.9499 35.2994 35.0114C35.361 35.073 35.4444 35.1075 35.5314 35.1075H36.2404L37.378 42.8588H35.5314C35.4444 42.8588 35.361 42.8934 35.2994 42.9549C35.2379 43.0164 35.2033 43.0999 35.2033 43.1869C35.2033 43.2739 35.2379 43.3574 35.2994 43.4189C35.361 43.4805 35.4444 43.515 35.5314 43.515H38.0194C38.183 45.0364 39.4631 46.2016 41.0157 46.2016C42.5738 46.2016 43.8491 45.0385 44.012 43.515H46.5C46.587 43.515 46.6705 43.4805 46.732 43.4189C46.7936 43.3574 46.8281 43.2739 46.8281 43.1869C46.8281 43.0999 46.7936 43.0164 46.732 42.9549C46.6705 42.8934 46.587 42.8588 46.5 42.8588V42.8587ZM8.943 42.4861C8.27972 42.8224 7.59741 43.1684 7.0965 43.6821C6.59587 43.1699 5.91459 42.8282 5.25197 42.496C3.95653 41.8463 2.72963 41.2299 2.59753 39.4327H11.5956C11.4622 41.2076 10.2367 41.8299 8.943 42.4861ZM11.6081 38.7764H9.62812V33.3918C9.62812 31.9938 8.49478 30.8605 7.09678 30.8605C5.69878 30.8605 4.56544 31.9938 4.56544 33.3917V38.7764H2.58516V28.7864H11.6081V38.7764ZM8.94 25.0594C10.2367 25.7041 11.4649 26.3159 11.5959 28.1303H2.59744C2.72906 26.3242 3.95662 25.7101 5.25272 25.0631C5.91506 24.7324 6.59616 24.3922 7.09678 23.8805C7.59712 24.3916 8.27803 24.7302 8.94 25.0594ZM7.85194 20.0094C7.78978 20.0106 7.72725 20.0173 7.66491 20.0296L7.64616 20.0334C6.84478 20.2006 6.22528 20.8721 6.12412 21.6845C6.07912 22.0461 6.13416 22.3906 6.26494 22.6951C6.29091 22.7554 6.32213 22.8123 6.35747 22.8658C5.83922 22.5971 5.48372 22.0566 5.48372 21.4336C5.48372 20.5442 6.20728 19.8207 7.09669 19.8207C7.3695 19.8207 7.62637 19.8893 7.85194 20.0094ZM6.79537 8.7397L5.16094 6.9831C5.08452 6.90154 4.98521 6.845 4.87606 6.82094C4.76691 6.79688 4.65303 6.80641 4.54941 6.84829L2.24362 7.78767L3.3915 2.37126C4.8901 2.77061 6.40013 3.12577 7.91962 3.43626L6.79537 8.7397ZM17.4597 28.3439C17.606 30.7039 19.494 32.6108 21.8514 32.7794C22.5431 32.8293 23.2271 32.7304 23.864 32.4923C22.9413 33.3495 21.7314 33.8302 20.452 33.8302C19.0747 33.8302 17.7899 33.2834 16.8344 32.2908C15.8796 31.2986 15.3828 29.9921 15.4357 28.6121C15.5328 26.0818 17.5075 24.016 20.0291 23.8074C20.0364 23.8066 20.0438 23.8062 20.0512 23.8055C18.3815 24.6516 17.3408 26.4251 17.4597 28.3439ZM20.7194 18.6544C20.6927 18.6574 20.666 18.6614 20.6393 18.6667L20.623 18.67C19.9224 18.8162 19.3808 19.4031 19.2924 20.1134C19.2531 20.4296 19.3012 20.7308 19.4155 20.9969C19.4271 21.0237 19.4399 21.0497 19.4536 21.075C19.0477 20.8372 18.7737 20.3976 18.7737 19.8941C18.7737 19.1394 19.3878 18.5253 20.1426 18.5253C20.3488 18.5253 20.5438 18.5724 20.7194 18.6544ZM30.4995 39.2931C30.5515 39.3986 30.6284 39.4899 30.7236 39.559C30.8188 39.6282 30.9294 39.6731 31.0458 39.6899L34.0999 40.1338C34.1129 40.1351 34.1252 40.1403 34.1352 40.1487C34.1451 40.1571 34.1524 40.1683 34.1558 40.1809C34.1604 40.1931 34.1612 40.2065 34.1581 40.2191C34.1549 40.2318 34.148 40.2432 34.1383 40.2519L31.9283 42.406C31.8441 42.4881 31.7811 42.5894 31.7447 42.7013C31.7084 42.8132 31.6998 42.9322 31.7197 43.0482L32.2414 46.0901C32.2462 46.1182 32.2369 46.141 32.2138 46.1578C32.2036 46.1659 32.1912 46.1707 32.1782 46.1717C32.1652 46.1726 32.1522 46.1696 32.141 46.163L29.4092 44.7268C29.3051 44.672 29.1892 44.6434 29.0716 44.6434C28.954 44.6434 28.8381 44.672 28.734 44.7268L26.0022 46.163C25.991 46.1696 25.978 46.1726 25.965 46.1717C25.952 46.1708 25.9396 46.1659 25.9294 46.1578C25.9185 46.1506 25.91 46.1403 25.9051 46.1282C25.9002 46.1161 25.899 46.1028 25.9018 46.0901L26.4235 43.0484C26.4435 42.9324 26.4349 42.8133 26.3986 42.7015C26.3622 42.5896 26.2992 42.4882 26.2149 42.4061L24.005 40.2519C23.9952 40.2432 23.9883 40.2318 23.9852 40.2191C23.982 40.2065 23.9828 40.1931 23.9873 40.1809C23.9908 40.1683 23.998 40.1571 24.008 40.1487C24.018 40.1403 24.0302 40.1351 24.0432 40.1338L27.0974 39.6899C27.2138 39.6731 27.3243 39.6281 27.4195 39.559C27.5147 39.4898 27.5916 39.3986 27.6436 39.2931L29.0095 36.5256C29.0221 36.4999 29.043 36.4869 29.0716 36.4869C29.1002 36.4869 29.121 36.4999 29.1337 36.5255L30.4995 39.2931ZM28.0337 8.70098C27.9392 8.64123 27.8289 8.61148 27.7171 8.61563C27.6054 8.61978 27.4976 8.65764 27.4078 8.72423L25.4844 10.1602L25.336 5.04539C26.8864 5.01988 28.4357 4.94979 29.9821 4.8352L30.133 10.0386L28.0337 8.70098ZM39.7231 28.5391C39.7231 27.8264 40.3029 27.2465 41.0157 27.2465C41.2028 27.2465 41.3802 27.2873 41.541 27.3591C41.524 27.3614 41.5071 27.3635 41.4902 27.3669L41.4746 27.3701C40.8054 27.5097 40.2881 28.0703 40.2037 28.7486C40.1662 29.0506 40.2121 29.3383 40.3213 29.5924C40.3286 29.6095 40.3371 29.6259 40.3454 29.6424C39.973 29.4152 39.7231 29.0063 39.7231 28.5391ZM37.1733 33.4516C37.3283 33.2572 37.5252 33.1003 37.7492 32.9926C37.9733 32.8848 38.2188 32.829 38.4674 32.8293C38.5496 32.8293 38.6289 32.7983 38.6894 32.7426C38.7499 32.6869 38.7873 32.6105 38.7941 32.5286C38.89 31.3844 39.8658 30.4881 41.0157 30.4881C42.1658 30.4881 43.1415 31.3844 43.2372 32.5286C43.2441 32.6105 43.2815 32.6869 43.342 32.7426C43.4026 32.7983 43.4818 32.8293 43.564 32.8293C43.8126 32.829 44.0581 32.8848 44.2822 32.9926C44.5063 33.1003 44.7031 33.2572 44.8582 33.4515C45.0785 33.7265 45.1963 34.0802 45.2002 34.4511H36.8313C36.8351 34.0802 36.953 33.7265 37.1733 33.4517V33.4516ZM41.0157 45.5454C39.8253 45.5454 38.8394 44.67 38.68 43.5149H43.3516C43.193 44.6715 42.2104 45.5453 41.0157 45.5453V45.5454ZM43.9901 42.8587H42.846V39.0255C42.846 38.0147 42.0266 37.1953 41.0157 37.1953C40.0048 37.1953 39.1854 38.0147 39.1854 39.0255V42.8587H38.0412L36.9036 35.1074H45.1279L43.9901 42.8587Z" fill="#0B0C0C"/>
</g>
</svg>
