<svg width="48" height="48" viewBox="0 0 48 48" fill="none" xmlns="http://www.w3.org/2000/svg">
<g opacity="0.8">
<path d="M34.3125 0H13.6875C11.7489 0 10.1719 1.57706 10.1719 3.51562V44.4844C10.1719 46.4229 11.7489 48 13.6875 48H34.3125C36.2511 48 37.8281 46.4229 37.8281 44.4844V3.51562C37.8281 1.57706 36.2511 0 34.3125 0ZM36.4219 38.1562H16.5C16.3135 38.1562 16.1347 38.2303 16.0028 38.3622C15.871 38.494 15.7969 38.6729 15.7969 38.8594C15.7969 39.0459 15.871 39.2247 16.0028 39.3566C16.1347 39.4884 16.3135 39.5625 16.5 39.5625H36.4219V44.4844C36.4219 45.6475 35.4757 46.5938 34.3125 46.5938H13.6875C12.5243 46.5938 11.5781 45.6475 11.5781 44.4844V39.5625H13.6875C13.874 39.5625 14.0528 39.4884 14.1847 39.3566C14.3165 39.2247 14.3906 39.0459 14.3906 38.8594C14.3906 38.6729 14.3165 38.494 14.1847 38.3622C14.0528 38.2303 13.874 38.1562 13.6875 38.1562H11.5781V7.03125H36.4219V38.1562ZM36.4219 5.625H11.5781V3.51562C11.5781 2.35247 12.5243 1.40625 13.6875 1.40625H34.3125C35.4757 1.40625 36.4219 2.35247 36.4219 3.51562V5.625Z" fill="#0B0C0C"/>
<path d="M26.8125 2.8125H24C23.8135 2.8125 23.6347 2.88658 23.5028 3.01844C23.371 3.1503 23.2969 3.32914 23.2969 3.51562C23.2969 3.70211 23.371 3.88095 23.5028 4.01281C23.6347 4.14467 23.8135 4.21875 24 4.21875H26.8125C26.999 4.21875 27.1778 4.14467 27.3097 4.01281C27.4415 3.88095 27.5156 3.70211 27.5156 3.51562C27.5156 3.32914 27.4415 3.1503 27.3097 3.01844C27.1778 2.88658 26.999 2.8125 26.8125 2.8125ZM24 40.9688C22.8368 40.9688 21.8906 41.915 21.8906 43.0781C21.8906 44.2413 22.8368 45.1875 24 45.1875C25.1632 45.1875 26.1094 44.2413 26.1094 43.0781C26.1094 41.915 25.1632 40.9688 24 40.9688ZM24 43.7812C23.6122 43.7812 23.2969 43.4659 23.2969 43.0781C23.2969 42.6904 23.6122 42.375 24 42.375C24.3877 42.375 24.7031 42.6904 24.7031 43.0781C24.7031 43.4659 24.3877 43.7812 24 43.7812Z" fill="#0B0C0C"/>
<path d="M21.1875 4.21875C21.5758 4.21875 21.8906 3.90395 21.8906 3.51562C21.8906 3.1273 21.5758 2.8125 21.1875 2.8125C20.7992 2.8125 20.4844 3.1273 20.4844 3.51562C20.4844 3.90395 20.7992 4.21875 21.1875 4.21875Z" fill="#0B0C0C"/>
</g>
</svg>
