<svg width="20" height="20" viewBox="0 0 20 20" fill="none" xmlns="http://www.w3.org/2000/svg">
<g clip-path="url(#clip0_1661_114)">
<path d="M15.6484 16H9.27344C9.07926 16 8.92188 15.8426 8.92188 15.6484V15.2734C8.92188 14.8851 9.23664 14.5703 9.625 14.5703V14.15C9.625 13.5934 10.0778 13.1406 10.6344 13.1406H14.2875C14.8441 13.1406 15.2969 13.5934 15.2969 14.15V14.5703C15.6852 14.5703 16 14.8851 16 15.2734V15.6484C16 15.8425 15.8425 16 15.6484 16ZM11.6 11.7424C11.3663 12.0525 10.9254 12.1145 10.6153 11.8808C10.3052 11.6471 10.2433 11.2062 10.4769 10.896L12.5927 8.08837C12.8264 7.7782 13.2672 7.7163 13.5773 7.94995C13.8875 8.18369 13.9495 8.6245 13.7157 8.9347L11.6 11.7424ZM6.54618 7.93403C6.31244 8.24411 5.8716 8.3061 5.56143 8.07236C5.25135 7.83871 5.18936 7.3979 5.4231 7.08771L7.53888 4.28008C7.77252 3.96991 8.21343 3.90792 8.52353 4.14166C8.83361 4.3754 8.8956 4.81621 8.66186 5.12641L6.54618 7.93403ZM8.08837 9.97657C7.56874 9.58499 7.17862 9.09876 6.93463 8.58679L9.39648 5.31984C9.95587 5.41331 10.5307 5.65417 11.0505 6.04584C11.5701 6.43741 11.9602 6.92364 12.2042 7.43552L9.74235 10.7027C9.18299 10.6092 8.60812 10.3682 8.08837 9.97657ZM7.13908 10.0681C7.30277 10.2349 7.47517 10.3949 7.66523 10.5382C7.85538 10.6814 8.0567 10.803 8.26206 10.9144L7.80365 11.5228L6.68057 10.6766L7.13908 10.0681ZM6.25741 11.2381L7.38049 12.0843L5.26471 14.892C5.03097 15.2022 4.59016 15.2641 4.28006 15.0305C3.96988 14.7967 3.90799 14.3559 4.14163 14.0457L6.25741 11.2381Z" fill="#01AA85"/>
</g>
<path d="M10.6022 0.391367L12.6995 0.862048C12.8666 0.899568 13.0299 0.952631 13.1873 1.02054L15.1606 1.87249C15.5337 2.03357 15.8665 2.27534 16.135 2.58041L17.5551 4.19394C17.6683 4.32256 17.7692 4.46148 17.8565 4.60889L18.9523 6.45805C19.1594 6.80767 19.2865 7.19887 19.3244 7.60349L19.5249 9.74355C19.5409 9.91414 19.5409 10.0859 19.5249 10.2565L19.3244 12.3965C19.2865 12.8011 19.1594 13.1923 18.9523 13.542L17.8565 15.3911C17.7692 15.5385 17.6683 15.6774 17.5551 15.8061L16.135 17.4196C15.8665 17.7247 15.5337 17.9664 15.1606 18.1275L13.1873 18.9795C13.0299 19.0474 12.8666 19.1004 12.6995 19.138L10.6022 19.6086C10.2057 19.6976 9.79434 19.6976 9.39781 19.6086L7.30055 19.138C7.13337 19.1004 6.97006 19.0474 6.81275 18.9795L4.83937 18.1275C4.46626 17.9664 4.13349 17.7247 3.865 17.4196L2.44494 15.8061C2.33174 15.6774 2.23081 15.5385 2.14347 15.3911L1.04774 13.542C0.840564 13.1923 0.713457 12.8011 0.675559 12.3965L0.475115 10.2565C0.459137 10.0859 0.459137 9.91414 0.475115 9.74355L0.675559 7.60349C0.713457 7.19887 0.840564 6.80767 1.04774 6.45805L2.14347 4.60889C2.23081 4.46148 2.33174 4.32256 2.44494 4.19394L3.865 2.58041C4.13349 2.27534 4.46626 2.03357 4.83937 1.87249L6.81275 1.02054C6.97006 0.95263 7.13337 0.899568 7.30055 0.862048L9.39781 0.391367C9.79434 0.302375 10.2057 0.302375 10.6022 0.391367Z" stroke="#01AA85" stroke-width="0.5"/>
<defs>
<clipPath id="clip0_1661_114">
<rect width="12" height="12" fill="white" transform="matrix(-1 0 0 1 16 4)"/>
</clipPath>
</defs>
</svg>
