<svg width="171" height="50" viewBox="0 0 171 50" fill="none" xmlns="http://www.w3.org/2000/svg">
<g opacity="0.8">
<path d="M165.587 47.3463C165.507 47.3463 165.44 47.3222 165.384 47.274C165.336 47.2177 165.312 47.1494 165.312 47.0691V41.3684C165.312 41.288 165.336 41.2197 165.384 41.1635C165.44 41.1072 165.507 41.0791 165.587 41.0791H166.137C166.217 41.0791 166.285 41.1072 166.34 41.1635C166.396 41.2197 166.424 41.288 166.424 41.3684V41.8987C166.584 41.6255 166.803 41.4206 167.082 41.284C167.361 41.1474 167.7 41.0791 168.098 41.0791H168.565C168.644 41.0791 168.708 41.1072 168.756 41.1635C168.812 41.2117 168.84 41.276 168.84 41.3563V41.8504C168.84 41.9308 168.812 41.9951 168.756 42.0433C168.708 42.0915 168.644 42.1156 168.565 42.1156H167.847C167.417 42.1156 167.078 42.2442 166.831 42.5013C166.584 42.7503 166.46 43.0918 166.46 43.5257V47.0691C166.46 47.1494 166.432 47.2177 166.376 47.274C166.32 47.3222 166.253 47.3463 166.173 47.3463H165.587Z" fill="#222222"/>
<path d="M161.107 47.4682C160.278 47.4682 159.62 47.2151 159.134 46.7089C158.647 46.1947 158.38 45.4956 158.332 44.6118C158.324 44.5073 158.32 44.3748 158.32 44.2141C158.32 44.0453 158.324 43.9087 158.332 43.8043C158.364 43.2338 158.496 42.7357 158.727 42.3098C158.958 41.8759 159.273 41.5425 159.672 41.3095C160.078 41.0765 160.553 40.96 161.095 40.96C161.701 40.96 162.207 41.0885 162.613 41.3456C163.028 41.6027 163.343 41.9683 163.558 42.4424C163.773 42.9164 163.881 43.4708 163.881 44.1056V44.3105C163.881 44.3989 163.853 44.4672 163.797 44.5154C163.749 44.5636 163.686 44.5877 163.606 44.5877H159.468C159.468 44.5957 159.468 44.6118 159.468 44.6359C159.468 44.66 159.468 44.6801 159.468 44.6962C159.484 45.0256 159.556 45.3349 159.684 45.6242C159.811 45.9054 159.995 46.1344 160.234 46.3112C160.481 46.4879 160.768 46.5763 161.095 46.5763C161.382 46.5763 161.621 46.5321 161.812 46.4437C162.004 46.3554 162.159 46.2589 162.279 46.1545C162.398 46.042 162.478 45.9536 162.518 45.8893C162.59 45.7929 162.645 45.7367 162.685 45.7206C162.725 45.6965 162.789 45.6844 162.877 45.6844H163.462C163.534 45.6844 163.594 45.7086 163.642 45.7568C163.698 45.7969 163.722 45.8572 163.714 45.9375C163.706 46.0581 163.642 46.2067 163.522 46.3835C163.403 46.5522 163.231 46.7209 163.008 46.8897C162.793 47.0584 162.522 47.199 162.195 47.3115C161.876 47.416 161.513 47.4682 161.107 47.4682ZM159.468 43.7561H162.745V43.7199C162.745 43.3584 162.677 43.037 162.542 42.7557C162.414 42.4745 162.227 42.2536 161.98 42.0929C161.733 41.9241 161.438 41.8398 161.095 41.8398C160.752 41.8398 160.457 41.9241 160.21 42.0929C159.971 42.2536 159.787 42.4745 159.66 42.7557C159.532 43.037 159.468 43.3584 159.468 43.7199V43.7561Z" fill="#222222"/>
<path d="M154.032 49.9992C153.49 49.9992 153.043 49.9268 152.692 49.7822C152.35 49.6376 152.079 49.4608 151.879 49.2519C151.688 49.051 151.548 48.8462 151.461 48.6373C151.381 48.4364 151.337 48.2757 151.329 48.1552C151.321 48.0748 151.345 48.0065 151.401 47.9503C151.465 47.894 151.532 47.8659 151.604 47.8659H152.178C152.25 47.8659 152.31 47.882 152.358 47.9141C152.405 47.9463 152.445 48.0146 152.477 48.119C152.525 48.2395 152.597 48.3721 152.692 48.5167C152.788 48.6694 152.936 48.7979 153.135 48.9024C153.334 49.0149 153.613 49.0711 153.972 49.0711C154.347 49.0711 154.662 49.0189 154.917 48.9145C155.172 48.81 155.363 48.6332 155.491 48.3842C155.626 48.1351 155.694 47.7896 155.694 47.3477V46.5281C155.503 46.7772 155.251 46.9861 154.941 47.1548C154.63 47.3155 154.239 47.3959 153.769 47.3959C153.322 47.3959 152.94 47.3195 152.621 47.1669C152.302 47.0062 152.039 46.7933 151.831 46.5281C151.632 46.2549 151.481 45.9456 151.377 45.6001C151.281 45.2546 151.226 44.893 151.21 44.5154C151.202 44.2904 151.202 44.0694 151.21 43.8525C151.226 43.4749 151.281 43.1133 151.377 42.7678C151.481 42.4223 151.632 42.113 151.831 41.8398C152.039 41.5666 152.302 41.3537 152.621 41.201C152.94 41.0403 153.322 40.96 153.769 40.96C154.247 40.96 154.642 41.0483 154.953 41.2251C155.271 41.4019 155.531 41.6228 155.73 41.888V41.3697C155.73 41.2894 155.754 41.2211 155.802 41.1648C155.857 41.1086 155.925 41.0805 156.005 41.0805H156.555C156.635 41.0805 156.702 41.1086 156.758 41.1648C156.814 41.2211 156.842 41.2894 156.842 41.3697V47.2151C156.842 47.7534 156.75 48.2315 156.567 48.6493C156.392 49.0671 156.097 49.3965 155.682 49.6376C155.275 49.8786 154.725 49.9992 154.032 49.9992ZM154.008 46.4317C154.406 46.4317 154.725 46.3393 154.964 46.1545C155.212 45.9697 155.391 45.7367 155.503 45.4555C155.622 45.1742 155.686 44.889 155.694 44.5997C155.702 44.4873 155.706 44.3507 155.706 44.19C155.706 44.0212 155.702 43.8806 155.694 43.7681C155.686 43.4789 155.622 43.1936 155.503 42.9124C155.391 42.6312 155.212 42.3982 154.964 42.2134C154.725 42.0286 154.406 41.9362 154.008 41.9362C153.609 41.9362 153.29 42.0286 153.051 42.2134C152.812 42.3902 152.641 42.6272 152.537 42.9245C152.433 43.2137 152.374 43.5271 152.358 43.8646C152.35 44.0735 152.35 44.2864 152.358 44.5033C152.374 44.8408 152.433 45.1582 152.537 45.4555C152.641 45.7447 152.812 45.9817 153.051 46.1665C153.29 46.3433 153.609 46.4317 154.008 46.4317Z" fill="#222222"/>
<path d="M146.896 49.9992C146.354 49.9992 145.907 49.9268 145.557 49.7822C145.214 49.6376 144.943 49.4608 144.743 49.2519C144.552 49.051 144.413 48.8462 144.325 48.6373C144.245 48.4364 144.201 48.2757 144.193 48.1552C144.185 48.0748 144.209 48.0065 144.265 47.9503C144.329 47.894 144.397 47.8659 144.468 47.8659H145.042C145.114 47.8659 145.174 47.882 145.222 47.9141C145.27 47.9463 145.309 48.0146 145.341 48.119C145.389 48.2395 145.461 48.3721 145.557 48.5167C145.652 48.6694 145.8 48.7979 145.999 48.9024C146.198 49.0149 146.477 49.0711 146.836 49.0711C147.211 49.0711 147.526 49.0189 147.781 48.9145C148.036 48.81 148.227 48.6332 148.355 48.3842C148.49 48.1351 148.558 47.7896 148.558 47.3477V46.5281C148.367 46.7772 148.116 46.9861 147.805 47.1548C147.494 47.3155 147.103 47.3959 146.633 47.3959C146.186 47.3959 145.804 47.3195 145.485 47.1669C145.166 47.0062 144.903 46.7933 144.696 46.5281C144.496 46.2549 144.345 45.9456 144.241 45.6001C144.145 45.2546 144.09 44.893 144.074 44.5154C144.066 44.2904 144.066 44.0694 144.074 43.8525C144.09 43.4749 144.145 43.1133 144.241 42.7678C144.345 42.4223 144.496 42.113 144.696 41.8398C144.903 41.5666 145.166 41.3537 145.485 41.201C145.804 41.0403 146.186 40.96 146.633 40.96C147.111 40.96 147.506 41.0483 147.817 41.2251C148.136 41.4019 148.395 41.6228 148.594 41.888V41.3697C148.594 41.2894 148.618 41.2211 148.666 41.1648C148.721 41.1086 148.789 41.0805 148.869 41.0805H149.419C149.499 41.0805 149.567 41.1086 149.622 41.1648C149.678 41.2211 149.706 41.2894 149.706 41.3697V47.2151C149.706 47.7534 149.614 48.2315 149.431 48.6493C149.256 49.0671 148.961 49.3965 148.546 49.6376C148.14 49.8786 147.589 49.9992 146.896 49.9992ZM146.872 46.4317C147.271 46.4317 147.589 46.3393 147.829 46.1545C148.076 45.9697 148.255 45.7367 148.367 45.4555C148.486 45.1742 148.55 44.889 148.558 44.5997C148.566 44.4873 148.57 44.3507 148.57 44.19C148.57 44.0212 148.566 43.8806 148.558 43.7681C148.55 43.4789 148.486 43.1936 148.367 42.9124C148.255 42.6312 148.076 42.3982 147.829 42.2134C147.589 42.0286 147.271 41.9362 146.872 41.9362C146.473 41.9362 146.154 42.0286 145.915 42.2134C145.676 42.3902 145.505 42.6272 145.401 42.9245C145.297 43.2137 145.238 43.5271 145.222 43.8646C145.214 44.0735 145.214 44.2864 145.222 44.5033C145.238 44.8408 145.297 45.1582 145.401 45.4555C145.505 45.7447 145.676 45.9817 145.915 46.1665C146.154 46.3433 146.473 46.4317 146.872 46.4317Z" fill="#222222"/>
<path d="M141.729 47.3469C141.649 47.3469 141.582 47.3228 141.526 47.2746C141.478 47.2183 141.454 47.15 141.454 47.0697V41.3569C141.454 41.2766 141.478 41.2123 141.526 41.1641C141.582 41.1078 141.649 41.0797 141.729 41.0797H142.303C142.383 41.0797 142.447 41.1078 142.494 41.1641C142.55 41.2123 142.578 41.2766 142.578 41.3569V47.0697C142.578 47.15 142.55 47.2183 142.494 47.2746C142.447 47.3228 142.383 47.3469 142.303 47.3469H141.729ZM141.633 39.9106C141.554 39.9106 141.486 39.8865 141.43 39.8383C141.382 39.7821 141.358 39.7138 141.358 39.6334V38.9826C141.358 38.9023 141.382 38.834 141.43 38.7777C141.486 38.7215 141.554 38.6934 141.633 38.6934H142.387C142.467 38.6934 142.534 38.7215 142.59 38.7777C142.646 38.834 142.674 38.9023 142.674 38.9826V39.6334C142.674 39.7138 142.646 39.7821 142.59 39.8383C142.534 39.8865 142.467 39.9106 142.387 39.9106H141.633Z" fill="#222222"/>
<path d="M133.896 47.3467C133.808 47.3467 133.74 47.3226 133.692 47.2744C133.644 47.2182 133.62 47.1499 133.62 47.0695V39.1994C133.62 39.111 133.644 39.0427 133.692 38.9945C133.74 38.9383 133.808 38.9102 133.896 38.9102H137.172C137.77 38.9102 138.256 39.0106 138.631 39.2115C139.014 39.4043 139.293 39.6694 139.468 40.0069C139.651 40.3444 139.743 40.722 139.743 41.1398C139.743 41.4693 139.687 41.7545 139.576 41.9955C139.472 42.2285 139.341 42.4214 139.181 42.574C139.022 42.7187 138.866 42.8312 138.715 42.9115C139.026 43.0642 139.301 43.3133 139.54 43.6587C139.787 44.0042 139.911 44.4221 139.911 44.9122C139.911 45.3541 139.811 45.7599 139.612 46.1295C139.412 46.4991 139.113 46.7964 138.715 47.0213C138.324 47.2383 137.842 47.3467 137.268 47.3467H133.896ZM134.792 46.3705H137.112C137.623 46.3705 138.017 46.2299 138.296 45.9487C138.575 45.6675 138.715 45.322 138.715 44.9122C138.715 44.4863 138.575 44.1368 138.296 43.8636C138.017 43.5824 137.623 43.4418 137.112 43.4418H134.792V46.3705ZM134.792 42.4776H136.993C137.503 42.4776 137.89 42.3611 138.153 42.1281C138.416 41.8871 138.547 41.5617 138.547 41.1519C138.547 40.7421 138.416 40.4287 138.153 40.2118C137.89 39.9949 137.503 39.8864 136.993 39.8864H134.792V42.4776Z" fill="#222222"/>
<path d="M126.331 47.4682C125.502 47.4682 124.844 47.2151 124.358 46.7089C123.871 46.1947 123.604 45.4956 123.557 44.6118C123.549 44.5073 123.545 44.3748 123.545 44.2141C123.545 44.0453 123.549 43.9087 123.557 43.8043C123.588 43.2338 123.72 42.7357 123.951 42.3098C124.182 41.8759 124.497 41.5425 124.896 41.3095C125.302 41.0765 125.777 40.96 126.319 40.96C126.925 40.96 127.431 41.0885 127.838 41.3456C128.252 41.6027 128.567 41.9683 128.782 42.4424C128.998 42.9164 129.105 43.4708 129.105 44.1056V44.3105C129.105 44.3989 129.077 44.4672 129.021 44.5154C128.974 44.5636 128.91 44.5877 128.83 44.5877H124.693C124.693 44.5957 124.693 44.6118 124.693 44.6359C124.693 44.66 124.693 44.6801 124.693 44.6962C124.708 45.0256 124.78 45.3349 124.908 45.6242C125.035 45.9054 125.219 46.1344 125.458 46.3112C125.705 46.4879 125.992 46.5763 126.319 46.5763C126.606 46.5763 126.845 46.5321 127.036 46.4437C127.228 46.3554 127.383 46.2589 127.503 46.1545C127.622 46.042 127.702 45.9536 127.742 45.8893C127.814 45.7929 127.869 45.7367 127.909 45.7206C127.949 45.6965 128.013 45.6844 128.101 45.6844H128.687C128.758 45.6844 128.818 45.7086 128.866 45.7568C128.922 45.7969 128.946 45.8572 128.938 45.9375C128.93 46.0581 128.866 46.2067 128.746 46.3835C128.627 46.5522 128.455 46.7209 128.232 46.8897C128.017 47.0584 127.746 47.199 127.419 47.3115C127.1 47.416 126.737 47.4682 126.331 47.4682ZM124.693 43.7561H127.969V43.7199C127.969 43.3584 127.901 43.037 127.766 42.7557C127.638 42.4745 127.451 42.2536 127.204 42.0929C126.957 41.9241 126.662 41.8398 126.319 41.8398C125.976 41.8398 125.681 41.9241 125.434 42.0929C125.195 42.2536 125.011 42.4745 124.884 42.7557C124.756 43.037 124.693 43.3584 124.693 43.7199V43.7561Z" fill="#222222"/>
<path d="M121.222 47.3471C121.142 47.3471 121.074 47.323 121.019 47.2748C120.971 47.2186 120.947 47.1503 120.947 47.0699V39.0672C120.947 38.9869 120.971 38.9226 121.019 38.8744C121.074 38.8182 121.142 38.79 121.222 38.79H121.784C121.872 38.79 121.939 38.8182 121.987 38.8744C122.035 38.9226 122.059 38.9869 122.059 39.0672V47.0699C122.059 47.1503 122.035 47.2186 121.987 47.2748C121.939 47.323 121.872 47.3471 121.784 47.3471H121.222Z" fill="#222222"/>
<path d="M118.313 47.3469C118.233 47.3469 118.166 47.3228 118.11 47.2746C118.062 47.2183 118.038 47.15 118.038 47.0697V41.3569C118.038 41.2766 118.062 41.2123 118.11 41.1641C118.166 41.1078 118.233 41.0797 118.313 41.0797H118.887C118.967 41.0797 119.031 41.1078 119.079 41.1641C119.134 41.2123 119.162 41.2766 119.162 41.3569V47.0697C119.162 47.15 119.134 47.2183 119.079 47.2746C119.031 47.3228 118.967 47.3469 118.887 47.3469H118.313ZM118.218 39.9106C118.138 39.9106 118.07 39.8865 118.014 39.8383C117.966 39.7821 117.943 39.7138 117.943 39.6334V38.9826C117.943 38.9023 117.966 38.834 118.014 38.7777C118.07 38.7215 118.138 38.6934 118.218 38.6934H118.971C119.051 38.6934 119.118 38.7215 119.174 38.7777C119.23 38.834 119.258 38.9023 119.258 38.9826V39.6334C119.258 39.7138 119.23 39.7821 119.174 39.8383C119.118 39.8865 119.051 39.9106 118.971 39.9106H118.218Z" fill="#222222"/>
<path d="M107.686 47.3468C107.606 47.3468 107.538 47.3227 107.483 47.2745C107.435 47.2183 107.411 47.15 107.411 47.0696V41.3568C107.411 41.2765 107.435 41.2122 107.483 41.164C107.538 41.1078 107.606 41.0796 107.686 41.0796H108.224C108.304 41.0796 108.367 41.1078 108.415 41.164C108.471 41.2122 108.499 41.2765 108.499 41.3568V41.7787C108.682 41.5296 108.914 41.3327 109.193 41.1881C109.472 41.0354 109.806 40.9591 110.197 40.9591C111.098 40.9511 111.736 41.3207 112.11 42.0679C112.294 41.7305 112.561 41.4613 112.912 41.2604C113.262 41.0595 113.661 40.9591 114.107 40.9591C114.522 40.9591 114.897 41.0555 115.231 41.2484C115.574 41.4412 115.841 41.7345 116.033 42.1282C116.232 42.5139 116.332 43 116.332 43.5865V47.0696C116.332 47.15 116.304 47.2183 116.248 47.2745C116.2 47.3227 116.136 47.3468 116.057 47.3468H115.495C115.415 47.3468 115.347 47.3227 115.291 47.2745C115.243 47.2183 115.219 47.15 115.219 47.0696V43.695C115.219 43.245 115.156 42.8915 115.028 42.6344C114.901 42.3773 114.729 42.1965 114.514 42.092C114.299 41.9876 114.064 41.9353 113.808 41.9353C113.601 41.9353 113.39 41.9876 113.175 42.092C112.959 42.1965 112.78 42.3773 112.637 42.6344C112.501 42.8915 112.433 43.245 112.433 43.695V47.0696C112.433 47.15 112.405 47.2183 112.35 47.2745C112.302 47.3227 112.238 47.3468 112.158 47.3468H111.596C111.516 47.3468 111.449 47.3227 111.393 47.2745C111.345 47.2183 111.321 47.15 111.321 47.0696V43.695C111.321 43.245 111.253 42.8915 111.118 42.6344C110.982 42.3773 110.807 42.1965 110.592 42.092C110.376 41.9876 110.149 41.9353 109.91 41.9353C109.703 41.9353 109.492 41.9876 109.276 42.092C109.061 42.1965 108.882 42.3773 108.738 42.6344C108.603 42.8915 108.535 43.241 108.535 43.6829V47.0696C108.535 47.15 108.507 47.2183 108.451 47.2745C108.403 47.3227 108.34 47.3468 108.26 47.3468H107.686Z" fill="#222222"/>
<path d="M102.82 47.4677C102.126 47.4677 101.544 47.3592 101.074 47.1423C100.604 46.9253 100.241 46.6481 99.9857 46.3106C99.7386 45.9652 99.607 45.6036 99.5911 45.2259C99.5911 45.1617 99.615 45.1054 99.6628 45.0572C99.7186 45.001 99.7824 44.9728 99.8542 44.9728H100.464C100.56 44.9728 100.631 44.997 100.679 45.0452C100.727 45.0934 100.759 45.1496 100.775 45.2139C100.823 45.4067 100.922 45.5996 101.074 45.7924C101.225 45.9772 101.441 46.1339 101.72 46.2624C102.007 46.383 102.373 46.4432 102.82 46.4432C103.505 46.4432 104.008 46.3227 104.327 46.0817C104.653 45.8326 104.817 45.5031 104.817 45.0934C104.817 44.8122 104.729 44.5872 104.554 44.4184C104.386 44.2417 104.127 44.085 103.776 43.9484C103.426 43.8118 102.971 43.6632 102.413 43.5025C101.831 43.3337 101.349 43.1489 100.966 42.9481C100.584 42.7472 100.297 42.4981 100.105 42.2008C99.9219 41.9035 99.8302 41.5259 99.8302 41.0679C99.8302 40.634 99.9458 40.2484 100.177 39.9109C100.408 39.5654 100.743 39.2922 101.182 39.0913C101.62 38.8905 102.146 38.79 102.76 38.79C103.254 38.79 103.685 38.8583 104.051 38.9949C104.426 39.1235 104.737 39.3003 104.984 39.5252C105.231 39.7422 105.419 39.9792 105.546 40.2363C105.674 40.4854 105.742 40.7305 105.75 40.9715C105.75 41.0277 105.73 41.084 105.69 41.1402C105.65 41.1884 105.586 41.2125 105.498 41.2125H104.865C104.809 41.2125 104.749 41.1965 104.685 41.1643C104.629 41.1322 104.586 41.0719 104.554 40.9836C104.506 40.6541 104.323 40.3769 104.004 40.1519C103.685 39.927 103.27 39.8145 102.76 39.8145C102.242 39.8145 101.819 39.9149 101.492 40.1158C101.174 40.3167 101.014 40.63 101.014 41.0559C101.014 41.329 101.09 41.558 101.241 41.7428C101.393 41.9196 101.632 42.0763 101.959 42.2129C102.286 42.3495 102.712 42.4941 103.238 42.6468C103.876 42.8235 104.398 43.0123 104.805 43.2132C105.211 43.4061 105.51 43.6511 105.702 43.9484C105.901 44.2377 106.001 44.6113 106.001 45.0693C106.001 45.5755 105.869 46.0093 105.606 46.3709C105.343 46.7244 104.972 46.9976 104.494 47.1905C104.024 47.3753 103.466 47.4677 102.82 47.4677Z" fill="#222222"/>
<path d="M93.9797 48.2509C93.916 48.2509 93.8641 48.2268 93.8243 48.1786C93.7924 48.1304 93.7804 48.0701 93.7884 47.9978L94.0634 46.2743C94.0794 46.1779 94.1113 46.0976 94.1591 46.0333C94.2149 45.961 94.2946 45.9248 94.3983 45.9248H95.1995C95.2553 45.9248 95.2991 45.9449 95.331 45.9851C95.3709 46.0252 95.3908 46.0734 95.3908 46.1297C95.3908 46.194 95.3788 46.2583 95.3549 46.3225L94.7211 47.9737C94.6893 48.054 94.6454 48.1183 94.5896 48.1665C94.5418 48.2228 94.47 48.2509 94.3744 48.2509H93.9797Z" fill="#222222"/>
<path d="M89.476 49.9992C88.9338 49.9992 88.4874 49.9268 88.1366 49.7822C87.7938 49.6376 87.5228 49.4608 87.3235 49.2519C87.1321 49.051 86.9926 48.8462 86.9049 48.6373C86.8252 48.4364 86.7814 48.2757 86.7734 48.1552C86.7654 48.0748 86.7893 48.0065 86.8451 47.9503C86.9089 47.894 86.9767 47.8659 87.0484 47.8659H87.6224C87.6942 47.8659 87.754 47.882 87.8018 47.9141C87.8496 47.9463 87.8895 48.0146 87.9214 48.119C87.9692 48.2395 88.041 48.3721 88.1366 48.5167C88.2323 48.6694 88.3798 48.7979 88.5791 48.9024C88.7784 49.0149 89.0574 49.0711 89.4162 49.0711C89.7909 49.0711 90.1058 49.0189 90.3609 48.9145C90.616 48.81 90.8073 48.6332 90.9349 48.3842C91.0704 48.1351 91.1382 47.7896 91.1382 47.3477V46.5281C90.9468 46.7772 90.6957 46.9861 90.3848 47.1548C90.0739 47.3155 89.6832 47.3959 89.2129 47.3959C88.7664 47.3959 88.3838 47.3195 88.0649 47.1669C87.746 47.0062 87.4829 46.7933 87.2756 46.5281C87.0763 46.2549 86.9249 45.9456 86.8212 45.6001C86.7256 45.2546 86.6698 44.893 86.6538 44.5154C86.6458 44.2904 86.6458 44.0694 86.6538 43.8525C86.6698 43.4749 86.7256 43.1133 86.8212 42.7678C86.9249 42.4223 87.0763 42.113 87.2756 41.8398C87.4829 41.5666 87.746 41.3537 88.0649 41.201C88.3838 41.0403 88.7664 40.96 89.2129 40.96C89.6912 40.96 90.0858 41.0483 90.3967 41.2251C90.7156 41.4019 90.9747 41.6228 91.174 41.888V41.3697C91.174 41.2894 91.198 41.2211 91.2458 41.1648C91.3016 41.1086 91.3694 41.0805 91.4491 41.0805H91.9992C92.0789 41.0805 92.1466 41.1086 92.2024 41.1648C92.2582 41.2211 92.2861 41.2894 92.2861 41.3697V47.2151C92.2861 47.7534 92.1945 48.2315 92.0111 48.6493C91.8357 49.0671 91.5407 49.3965 91.1262 49.6376C90.7196 49.8786 90.1695 49.9992 89.476 49.9992ZM89.452 46.4317C89.8506 46.4317 90.1695 46.3393 90.4087 46.1545C90.6558 45.9697 90.8352 45.7367 90.9468 45.4555C91.0664 45.1742 91.1302 44.889 91.1382 44.5997C91.1461 44.4873 91.1501 44.3507 91.1501 44.19C91.1501 44.0212 91.1461 43.8806 91.1382 43.7681C91.1302 43.4789 91.0664 43.1936 90.9468 42.9124C90.8352 42.6312 90.6558 42.3982 90.4087 42.2134C90.1695 42.0286 89.8506 41.9362 89.452 41.9362C89.0534 41.9362 88.7345 42.0286 88.4954 42.2134C88.2562 42.3902 88.0848 42.6272 87.9812 42.9245C87.8775 43.2137 87.8177 43.5271 87.8018 43.8646C87.7938 44.0735 87.7938 44.2864 87.8018 44.5033C87.8177 44.8408 87.8775 45.1582 87.9812 45.4555C88.0848 45.7447 88.2562 45.9817 88.4954 46.1665C88.7345 46.3433 89.0534 46.4317 89.452 46.4317Z" fill="#222222"/>
<path d="M84.3075 47.3469C84.2278 47.3469 84.16 47.3228 84.1042 47.2746C84.0563 47.2183 84.0324 47.15 84.0324 47.0697V41.3569C84.0324 41.2766 84.0563 41.2123 84.1042 41.1641C84.16 41.1078 84.2278 41.0797 84.3075 41.0797H84.8815C84.9612 41.0797 85.025 41.1078 85.0728 41.1641C85.1286 41.2123 85.1565 41.2766 85.1565 41.3569V47.0697C85.1565 47.15 85.1286 47.2183 85.0728 47.2746C85.025 47.3228 84.9612 47.3469 84.8815 47.3469H84.3075ZM84.2118 39.9106C84.1321 39.9106 84.0643 39.8865 84.0085 39.8383C83.9607 39.7821 83.9368 39.7138 83.9368 39.6334V38.9826C83.9368 38.9023 83.9607 38.834 84.0085 38.7777C84.0643 38.7215 84.1321 38.6934 84.2118 38.6934H84.9652C85.0449 38.6934 85.1127 38.7215 85.1685 38.7777C85.2243 38.834 85.2522 38.9023 85.2522 38.9826V39.6334C85.2522 39.7138 85.2243 39.7821 85.1685 39.8383C85.1127 39.8865 85.0449 39.9106 84.9652 39.9106H84.2118Z" fill="#222222"/>
<path d="M76.475 47.3467C76.3873 47.3467 76.3195 47.3226 76.2717 47.2744C76.2239 47.2182 76.2 47.1499 76.2 47.0695V39.1994C76.2 39.111 76.2239 39.0427 76.2717 38.9945C76.3195 38.9383 76.3873 38.9102 76.475 38.9102H79.7516C80.3495 38.9102 80.8358 39.0106 81.2105 39.2115C81.5931 39.4043 81.8722 39.6694 82.0475 40.0069C82.2309 40.3444 82.3226 40.722 82.3226 41.1398C82.3226 41.4693 82.2668 41.7545 82.1552 41.9955C82.0515 42.2285 81.92 42.4214 81.7605 42.574C81.6011 42.7187 81.4456 42.8312 81.2942 42.9115C81.6051 43.0642 81.8801 43.3133 82.1193 43.6587C82.3664 44.0042 82.49 44.4221 82.49 44.9122C82.49 45.3541 82.3903 45.7599 82.191 46.1295C81.9917 46.4991 81.6928 46.7964 81.2942 47.0213C80.9035 47.2383 80.4212 47.3467 79.8472 47.3467H76.475ZM77.3719 46.3705H79.6918C80.202 46.3705 80.5966 46.2299 80.8756 45.9487C81.1547 45.6675 81.2942 45.322 81.2942 44.9122C81.2942 44.4863 81.1547 44.1368 80.8756 43.8636C80.5966 43.5824 80.202 43.4418 79.6918 43.4418H77.3719V46.3705ZM77.3719 42.4776H79.5722C80.0824 42.4776 80.469 42.3611 80.7321 42.1281C80.9952 41.8871 81.1268 41.5617 81.1268 41.1519C81.1268 40.7421 80.9952 40.4287 80.7321 40.2118C80.469 39.9949 80.0824 39.8864 79.5722 39.8864H77.3719V42.4776Z" fill="#222222"/>
<path d="M66.1371 47.3477C66.0574 47.3477 65.9896 47.3236 65.9338 47.2753C65.886 47.2191 65.8621 47.1508 65.8621 47.0705V41.3577C65.8621 41.2773 65.886 41.2131 65.9338 41.1648C65.9896 41.1086 66.0574 41.0805 66.1371 41.0805H66.6991C66.7789 41.0805 66.8426 41.1086 66.8905 41.1648C66.9463 41.2131 66.9742 41.2773 66.9742 41.3577V41.888C67.1815 41.6148 67.4405 41.3938 67.7515 41.2251C68.0704 41.0483 68.4769 40.96 68.9712 40.96C69.4894 40.96 69.9279 41.0765 70.2866 41.3095C70.6533 41.5345 70.9284 41.8518 71.1117 42.2616C71.3031 42.6633 71.3987 43.1334 71.3987 43.6717V47.0705C71.3987 47.1508 71.3708 47.2191 71.315 47.2753C71.2672 47.3236 71.2034 47.3477 71.1237 47.3477H70.5258C70.4461 47.3477 70.3783 47.3236 70.3225 47.2753C70.2747 47.2191 70.2507 47.1508 70.2507 47.0705V43.732C70.2507 43.1695 70.1152 42.7316 69.8442 42.4183C69.5731 42.0969 69.1745 41.9362 68.6483 41.9362C68.1541 41.9362 67.7555 42.0969 67.4525 42.4183C67.1575 42.7316 67.01 43.1695 67.01 43.732V47.0705C67.01 47.1508 66.9821 47.2191 66.9263 47.2753C66.8785 47.3236 66.8147 47.3477 66.735 47.3477H66.1371Z" fill="#222222"/>
<path d="M63.24 47.3469C63.1602 47.3469 63.0925 47.3228 63.0367 47.2746C62.9888 47.2183 62.9649 47.15 62.9649 47.0697V41.3569C62.9649 41.2766 62.9888 41.2123 63.0367 41.1641C63.0925 41.1078 63.1602 41.0797 63.24 41.0797H63.814C63.8937 41.0797 63.9575 41.1078 64.0053 41.1641C64.0611 41.2123 64.089 41.2766 64.089 41.3569V47.0697C64.089 47.15 64.0611 47.2183 64.0053 47.2746C63.9575 47.3228 63.8937 47.3469 63.814 47.3469H63.24ZM63.1443 39.9106C63.0646 39.9106 62.9968 39.8865 62.941 39.8383C62.8932 39.7821 62.8693 39.7138 62.8693 39.6334V38.9826C62.8693 38.9023 62.8932 38.834 62.941 38.7777C62.9968 38.7215 63.0646 38.6934 63.1443 38.6934H63.8977C63.9774 38.6934 64.0452 38.7215 64.101 38.7777C64.1568 38.834 64.1847 38.9023 64.1847 38.9826V39.6334C64.1847 39.7138 64.1568 39.7821 64.101 39.8383C64.0452 39.8865 63.9774 39.9106 63.8977 39.9106H63.1443Z" fill="#222222"/>
<path d="M54.9548 47.3467C54.8512 47.3467 54.7675 47.3186 54.7037 47.2624C54.6479 47.2061 54.608 47.1258 54.5841 47.0213L53.0415 39.2838C53.0335 39.2516 53.0295 39.2235 53.0295 39.1994C53.0295 39.1753 53.0295 39.1592 53.0295 39.1512C53.0295 39.0869 53.0535 39.0307 53.1013 38.9825C53.1491 38.9343 53.2049 38.9102 53.2687 38.9102H53.8905C54.058 38.9102 54.1536 38.9785 54.1775 39.115L55.3973 45.334L56.6888 41.0675C56.7127 40.9952 56.7525 40.9309 56.8084 40.8747C56.8721 40.8104 56.9598 40.7783 57.0714 40.7783H57.5139C57.6335 40.7783 57.7212 40.8104 57.777 40.8747C57.8328 40.9309 57.8687 40.9952 57.8846 41.0675L59.188 45.334L60.3958 39.115C60.4197 38.9785 60.5194 38.9102 60.6948 38.9102H61.3166C61.3804 38.9102 61.4362 38.9343 61.484 38.9825C61.5319 39.0307 61.5558 39.0869 61.5558 39.1512C61.5558 39.1592 61.5518 39.1753 61.5438 39.1994C61.5438 39.2235 61.5438 39.2516 61.5438 39.2838L60.0012 47.0213C59.9773 47.1258 59.9334 47.2061 59.8697 47.2624C59.8139 47.3186 59.7341 47.3467 59.6305 47.3467H59.1641C59.0525 47.3467 58.9648 47.3186 58.901 47.2624C58.8373 47.2061 58.7934 47.1338 58.7695 47.0454L57.2867 42.4535L55.8158 47.0454C55.7839 47.1338 55.7361 47.2061 55.6723 47.2624C55.6165 47.3186 55.5328 47.3467 55.4212 47.3467H54.9548Z" fill="#222222"/>
<path d="M47.5824 48.2509C47.5186 48.2509 47.4668 48.2268 47.4269 48.1786C47.395 48.1304 47.3831 48.0701 47.3911 47.9978L47.6661 46.2743C47.682 46.1779 47.7139 46.0976 47.7618 46.0333C47.8176 45.961 47.8973 45.9248 48.0009 45.9248H48.8021C48.8579 45.9248 48.9018 45.9449 48.9337 45.9851C48.9735 46.0252 48.9935 46.0734 48.9935 46.1297C48.9935 46.194 48.9815 46.2583 48.9576 46.3225L48.3238 47.9737C48.2919 48.054 48.2481 48.1183 48.1923 48.1665C48.1444 48.2228 48.0727 48.2509 47.977 48.2509H47.5824Z" fill="#222222"/>
<path d="M40.6659 47.3471C40.5862 47.3471 40.5184 47.323 40.4626 47.2748C40.4148 47.2186 40.3909 47.1503 40.3909 47.0699V39.0672C40.3909 38.9869 40.4148 38.9226 40.4626 38.8744C40.5184 38.8182 40.5862 38.79 40.6659 38.79H41.2638C41.3515 38.79 41.4193 38.8182 41.4671 38.8744C41.5149 38.9226 41.5389 38.9869 41.5389 39.0672V41.8754C41.7541 41.6022 42.0172 41.3813 42.3281 41.2125C42.639 41.0438 43.0336 40.9594 43.512 40.9594C44.0302 40.9594 44.4686 41.076 44.8274 41.309C45.1941 41.5339 45.4691 41.8513 45.6525 42.2611C45.8438 42.6628 45.9395 43.1329 45.9395 43.6712V47.0699C45.9395 47.1503 45.9156 47.2186 45.8678 47.2748C45.8199 47.323 45.7522 47.3471 45.6645 47.3471H45.0665C44.9868 47.3471 44.9191 47.323 44.8633 47.2748C44.8154 47.2186 44.7915 47.1503 44.7915 47.0699V43.7315C44.7915 43.169 44.656 42.7311 44.3849 42.4178C44.1139 42.0964 43.7153 41.9357 43.1891 41.9357C42.6948 41.9357 42.2962 42.0964 41.9933 42.4178C41.6903 42.7311 41.5389 43.169 41.5389 43.7315V47.0699C41.5389 47.1503 41.5149 47.2186 41.4671 47.2748C41.4193 47.323 41.3515 47.3471 41.2638 47.3471H40.6659Z" fill="#222222"/>
<path d="M35.7928 49.9992C35.2507 49.9992 34.8043 49.9268 34.4535 49.7822C34.1107 49.6376 33.8397 49.4608 33.6404 49.2519C33.449 49.051 33.3095 48.8462 33.2218 48.6373C33.1421 48.4364 33.0983 48.2757 33.0903 48.1552C33.0823 48.0748 33.1062 48.0065 33.162 47.9503C33.2258 47.894 33.2936 47.8659 33.3653 47.8659H33.9393C34.0111 47.8659 34.0709 47.882 34.1187 47.9141C34.1665 47.9463 34.2064 48.0146 34.2383 48.119C34.2861 48.2395 34.3579 48.3721 34.4535 48.5167C34.5492 48.6694 34.6967 48.7979 34.896 48.9024C35.0953 49.0149 35.3743 49.0711 35.7331 49.0711C36.1078 49.0711 36.4227 49.0189 36.6778 48.9145C36.9329 48.81 37.1242 48.6332 37.2518 48.3842C37.3873 48.1351 37.455 47.7896 37.455 47.3477V46.5281C37.2637 46.7772 37.0126 46.9861 36.7017 47.1548C36.3908 47.3155 36.0001 47.3959 35.5298 47.3959C35.0833 47.3959 34.7007 47.3195 34.3818 47.1669C34.0629 47.0062 33.7998 46.7933 33.5925 46.5281C33.3932 46.2549 33.2418 45.9456 33.1381 45.6001C33.0424 45.2546 32.9866 44.893 32.9707 44.5154C32.9627 44.2904 32.9627 44.0694 32.9707 43.8525C32.9866 43.4749 33.0424 43.1133 33.1381 42.7678C33.2418 42.4223 33.3932 42.113 33.5925 41.8398C33.7998 41.5666 34.0629 41.3537 34.3818 41.201C34.7007 41.0403 35.0833 40.96 35.5298 40.96C36.0081 40.96 36.4027 41.0483 36.7136 41.2251C37.0325 41.4019 37.2916 41.6228 37.4909 41.888V41.3697C37.4909 41.2894 37.5148 41.2211 37.5627 41.1648C37.6185 41.1086 37.6862 41.0805 37.766 41.0805H38.316C38.3958 41.0805 38.4635 41.1086 38.5193 41.1648C38.5751 41.2211 38.603 41.2894 38.603 41.3697V47.2151C38.603 47.7534 38.5114 48.2315 38.328 48.6493C38.1526 49.0671 37.8576 49.3965 37.4431 49.6376C37.0365 49.8786 36.4864 49.9992 35.7928 49.9992ZM35.7689 46.4317C36.1675 46.4317 36.4864 46.3393 36.7256 46.1545C36.9727 45.9697 37.1521 45.7367 37.2637 45.4555C37.3833 45.1742 37.4471 44.889 37.455 44.5997C37.463 44.4873 37.467 44.3507 37.467 44.19C37.467 44.0212 37.463 43.8806 37.455 43.7681C37.4471 43.4789 37.3833 43.1936 37.2637 42.9124C37.1521 42.6312 36.9727 42.3982 36.7256 42.2134C36.4864 42.0286 36.1675 41.9362 35.7689 41.9362C35.3703 41.9362 35.0514 42.0286 34.8123 42.2134C34.5731 42.3902 34.4017 42.6272 34.2981 42.9245C34.1944 43.2137 34.1346 43.5271 34.1187 43.8646C34.1107 44.0735 34.1107 44.2864 34.1187 44.5033C34.1346 44.8408 34.1944 45.1582 34.2981 45.4555C34.4017 45.7447 34.5731 45.9817 34.8123 46.1665C35.0514 46.3433 35.3703 46.4317 35.7689 46.4317Z" fill="#222222"/>
<path d="M30.6233 47.3469C30.5435 47.3469 30.4758 47.3228 30.42 47.2746C30.3721 47.2183 30.3482 47.15 30.3482 47.0697V41.3569C30.3482 41.2766 30.3721 41.2123 30.42 41.1641C30.4758 41.1078 30.5435 41.0797 30.6233 41.0797H31.1973C31.277 41.0797 31.3408 41.1078 31.3886 41.1641C31.4444 41.2123 31.4723 41.2766 31.4723 41.3569V47.0697C31.4723 47.15 31.4444 47.2183 31.3886 47.2746C31.3408 47.3228 31.277 47.3469 31.1973 47.3469H30.6233ZM30.5276 39.9106C30.4479 39.9106 30.3801 39.8865 30.3243 39.8383C30.2765 39.7821 30.2526 39.7138 30.2526 39.6334V38.9826C30.2526 38.9023 30.2765 38.834 30.3243 38.7777C30.3801 38.7215 30.4479 38.6934 30.5276 38.6934H31.281C31.3607 38.6934 31.4285 38.7215 31.4843 38.7777C31.5401 38.834 31.568 38.9023 31.568 38.9826V39.6334C31.568 39.7138 31.5401 39.7821 31.4843 39.8383C31.4285 39.8865 31.3607 39.9106 31.281 39.9106H30.5276Z" fill="#222222"/>
<path d="M22.2413 47.3467C22.1537 47.3467 22.0859 47.3226 22.0381 47.2744C21.9902 47.2182 21.9663 47.1499 21.9663 47.0695V39.1994C21.9663 39.111 21.9902 39.0427 22.0381 38.9945C22.0859 38.9383 22.1537 38.9102 22.2413 38.9102H22.8512C22.9389 38.9102 23.0067 38.9383 23.0545 38.9945C23.1103 39.0427 23.1382 39.111 23.1382 39.1994V42.5258H27.2519V39.1994C27.2519 39.111 27.2758 39.0427 27.3236 38.9945C27.3794 38.9383 27.4472 38.9102 27.5269 38.9102H28.1368C28.2245 38.9102 28.2922 38.9383 28.3401 38.9945C28.3959 39.0427 28.4238 39.111 28.4238 39.1994V47.0695C28.4238 47.1499 28.3959 47.2182 28.3401 47.2744C28.2922 47.3226 28.2245 47.3467 28.1368 47.3467H27.5269C27.4472 47.3467 27.3794 47.3226 27.3236 47.2744C27.2758 47.2182 27.2519 47.1499 27.2519 47.0695V43.6105H23.1382V47.0695C23.1382 47.1499 23.1103 47.2182 23.0545 47.2744C23.0067 47.3226 22.9389 47.3467 22.8512 47.3467H22.2413Z" fill="#222222"/>
<path d="M14.0408 47.4677C13.6023 47.4677 13.2236 47.3913 12.9047 47.2387C12.5858 47.078 12.3228 46.8651 12.1155 46.5999C11.9162 46.3267 11.7647 46.0174 11.6611 45.6719C11.5654 45.3264 11.5096 44.9608 11.4936 44.5751C11.4857 44.4466 11.4817 44.326 11.4817 44.2136C11.4817 44.1011 11.4857 43.9805 11.4936 43.852C11.5096 43.4744 11.5654 43.1128 11.6611 42.7673C11.7647 42.4218 11.9162 42.1124 12.1155 41.8393C12.3228 41.5661 12.5858 41.3532 12.9047 41.2005C13.2236 41.0398 13.6023 40.9594 14.0408 40.9594C14.5111 40.9594 14.9018 41.0438 15.2127 41.2125C15.5236 41.3813 15.7787 41.5902 15.978 41.8393V39.0672C15.978 38.9869 16.0019 38.9226 16.0497 38.8744C16.1055 38.8182 16.1733 38.79 16.253 38.79H16.827C16.9068 38.79 16.9705 38.8182 17.0184 38.8744C17.0742 38.9226 17.1021 38.9869 17.1021 39.0672V47.0699C17.1021 47.1503 17.0742 47.2186 17.0184 47.2748C16.9705 47.323 16.9068 47.3471 16.827 47.3471H16.2889C16.2012 47.3471 16.1335 47.323 16.0856 47.2748C16.0378 47.2186 16.0139 47.1503 16.0139 47.0699V46.5637C15.8146 46.8209 15.5555 47.0378 15.2366 47.2146C14.9177 47.3833 14.5191 47.4677 14.0408 47.4677ZM14.2919 46.4914C14.6905 46.4914 15.0094 46.399 15.2485 46.2142C15.4877 46.0294 15.6671 45.7964 15.7867 45.5152C15.9062 45.2259 15.97 44.9327 15.978 44.6354C15.986 44.5068 15.99 44.3542 15.99 44.1774C15.99 43.9926 15.986 43.8359 15.978 43.7074C15.97 43.4261 15.9023 43.1489 15.7747 42.8758C15.6551 42.6026 15.4718 42.3776 15.2246 42.2008C14.9855 42.0241 14.6745 41.9357 14.2919 41.9357C13.8853 41.9357 13.5624 42.0281 13.3233 42.2129C13.0841 42.3896 12.9127 42.6267 12.8091 42.924C12.7054 43.2132 12.6456 43.5266 12.6297 43.864C12.6217 44.0971 12.6217 44.3301 12.6297 44.5631C12.6456 44.9005 12.7054 45.2179 12.8091 45.5152C12.9127 45.8045 13.0841 46.0415 13.3233 46.2263C13.5624 46.403 13.8853 46.4914 14.2919 46.4914Z" fill="#222222"/>
<path d="M9.14866 47.3469C9.06894 47.3469 9.00117 47.3228 8.94537 47.2746C8.89754 47.2183 8.87362 47.15 8.87362 47.0697V41.3569C8.87362 41.2766 8.89754 41.2123 8.94537 41.1641C9.00117 41.1078 9.06894 41.0797 9.14866 41.0797H9.72266C9.80238 41.0797 9.86615 41.1078 9.91399 41.1641C9.96979 41.2123 9.9977 41.2766 9.9977 41.3569V47.0697C9.9977 47.15 9.96979 47.2183 9.91399 47.2746C9.86615 47.3228 9.80238 47.3469 9.72266 47.3469H9.14866ZM9.05299 39.9106C8.97327 39.9106 8.90551 39.8865 8.8497 39.8383C8.80187 39.7821 8.77795 39.7138 8.77795 39.6334V38.9826C8.77795 38.9023 8.80187 38.834 8.8497 38.7777C8.90551 38.7215 8.97327 38.6934 9.05299 38.6934H9.80636C9.88609 38.6934 9.95385 38.7215 10.0097 38.7777C10.0655 38.834 10.0934 38.9023 10.0934 38.9826V39.6334C10.0934 39.7138 10.0655 39.7821 10.0097 39.8383C9.95385 39.8865 9.88609 39.9106 9.80636 39.9106H9.05299Z" fill="#222222"/>
<path d="M1.31569 47.3467C1.228 47.3467 1.16023 47.3226 1.1124 47.2744C1.06457 47.2182 1.04065 47.1499 1.04065 47.0695V39.1994C1.04065 39.111 1.06457 39.0427 1.1124 38.9945C1.16023 38.9383 1.228 38.9102 1.31569 38.9102H4.59225C5.19016 38.9102 5.67647 39.0106 6.05116 39.2115C6.43382 39.4043 6.71285 39.6694 6.88824 40.0069C7.0716 40.3444 7.16328 40.722 7.16328 41.1398C7.16328 41.4693 7.10747 41.7545 6.99586 41.9955C6.89222 42.2285 6.76068 42.4214 6.60124 42.574C6.44179 42.7187 6.28634 42.8312 6.13487 42.9115C6.44578 43.0642 6.72082 43.3133 6.95999 43.6587C7.20712 44.0042 7.33069 44.4221 7.33069 44.9122C7.33069 45.3541 7.23104 45.7599 7.03174 46.1295C6.83243 46.4991 6.53347 46.7964 6.13487 47.0213C5.74423 47.2383 5.26191 47.3467 4.68792 47.3467H1.31569ZM2.21256 46.3705H4.53246C5.04268 46.3705 5.4373 46.2299 5.71633 45.9487C5.99535 45.6675 6.13487 45.322 6.13487 44.9122C6.13487 44.4863 5.99535 44.1368 5.71633 43.8636C5.4373 43.5824 5.04268 43.4418 4.53246 43.4418H2.21256V46.3705ZM2.21256 42.4776H4.41288C4.9231 42.4776 5.30975 42.3611 5.57283 42.1281C5.83591 41.8871 5.96745 41.5617 5.96745 41.1519C5.96745 40.7421 5.83591 40.4287 5.57283 40.2118C5.30975 39.9949 4.9231 39.8864 4.41288 39.8864H2.21256V42.4776Z" fill="#222222"/>
</g>
<g clip-path="url(#clip0_457_1029)">
<path d="M89.5662 7.91047C88.7675 5.86285 87.6561 4.27025 86.2496 3.11518C84.8778 1.96012 83.315 1.15507 81.5785 0.68254C79.8595 0.227513 78.0883 0 76.2476 0C74.4244 0 72.6358 0.227513 70.882 0.68254C69.1629 1.12007 67.6001 1.90761 66.2109 3.06268C64.8218 4.21775 63.7278 5.82784 62.8943 7.87547C62.0956 9.92309 61.6962 12.5482 61.6962 15.7509C61.6962 18.9536 62.0956 21.5788 62.8943 23.6264C63.7278 25.674 64.8218 27.2666 66.2109 28.4217C67.6001 29.5767 69.1629 30.3818 70.882 30.8543C72.6358 31.2743 74.4244 31.5019 76.2476 31.5019C78.0883 31.5019 79.8595 31.2743 81.5785 30.8018C83.315 30.3468 84.8778 29.5417 86.2496 28.3867C87.6561 27.2316 88.7675 25.6215 89.5662 23.5739C90.3824 21.5263 90.7991 18.9186 90.7991 15.7509C90.7991 12.5657 90.3824 9.95809 89.5662 7.91047ZM81.0576 22.2438C79.9636 23.5039 78.3661 24.1339 76.2476 24.1339C74.1639 24.1339 72.5664 23.4864 71.4898 22.1913C70.3958 20.8962 69.8575 18.7436 69.8575 15.7509C69.8575 12.7408 70.3958 10.6056 71.4898 9.29305C72.5664 7.99797 74.1639 7.35043 76.2476 7.35043C78.3661 7.35043 79.9636 7.98047 81.0576 9.25805C82.1516 10.5181 82.6899 12.6883 82.6899 15.7509C82.6899 18.8136 82.1516 20.9662 81.0576 22.2438Z" fill="#222222"/>
<path d="M56.6778 26.269L52.4235 20.8962L51.9894 20.4237C53.5696 19.6711 54.8025 18.5511 55.688 17.046C56.5736 15.5234 57.0078 13.5283 57.0078 11.0781C57.0078 8.36547 56.5215 6.24784 55.5144 4.70775C54.542 3.15016 53.2049 2.0651 51.5206 1.41756C49.8536 0.752519 47.9782 0.4375 45.8945 0.4375H32.1591L31.2909 3.02765L32.1591 7.40291V31.0643H39.8863L40.3204 28.4217L39.8863 24.0989V21.8413H43.4461L49.4542 31.0643H59.1262V28.4742L56.6778 26.269ZM47.6483 14.2283C46.7627 14.7884 45.5819 15.0509 44.0885 15.0509H39.8863L39.4522 7.35041H43.9149C44.922 7.35041 45.7903 7.43792 46.5369 7.61293C47.3183 7.78794 47.9087 8.13796 48.3429 8.69799C48.777 9.20552 48.9853 10.0106 48.9853 11.0781C48.9853 12.6007 48.5512 13.6508 47.6483 14.2283Z" fill="#222222"/>
<path d="M24.2235 4.70775C23.2337 3.15016 21.914 2.0651 20.2297 1.41756C18.5627 0.752519 16.6873 0.4375 14.6036 0.4375H0.850862L0 3.02765L0.850862 7.40291V31.0643H8.59544L9.01219 28.4217L8.59544 24.0989V21.8413H13.3012C15.7149 21.8413 17.8507 21.5088 19.7087 20.8612C21.6015 20.1962 23.0775 19.0761 24.1367 17.5185C25.1959 15.9434 25.7169 13.7908 25.7169 11.0781C25.7169 8.36547 25.2133 6.24784 24.2235 4.70775ZM16.3574 14.2283C15.4718 14.7884 14.291 15.0509 12.7977 15.0509H8.59544L8.16133 7.35041H12.624C13.6312 7.35041 14.4994 7.43792 15.2461 7.61293C16.0101 7.78794 16.6179 8.13796 17.052 8.69799C17.4687 9.20552 17.6945 10.0106 17.6945 11.0781C17.6945 12.6007 17.243 13.6508 16.3574 14.2283Z" fill="#222222"/>
<path d="M93.9421 31.5017H93.0044V31.4844C93.317 31.5017 93.6295 31.5017 93.9421 31.5017Z" fill="#222222"/>
<path d="M93.9421 0C93.6295 0 93.317 0 93.0044 0.017326V0H93.9421Z" fill="#222222"/>
<path d="M93.0044 0V0.017501C93.317 0 93.6295 0 93.9421 0H93.0044ZM93.0044 31.4844V31.5019H93.9421C93.6295 31.5019 93.317 31.5019 93.0044 31.4844Z" fill="#222222"/>
<path d="M93.942 0C93.6295 0 93.3169 0 93.0044 0.017501V0H78.314C80.1546 0 81.9258 0.227513 83.6449 0.68254C85.3813 1.15507 86.9441 1.96012 88.3159 3.11518C89.7225 4.27025 90.8338 5.86285 91.6326 7.91047C92.4661 9.95809 92.8654 12.5657 92.8654 15.7509C92.8654 18.9186 92.4661 21.5263 91.6326 23.5739C90.8338 25.6215 89.7225 27.2316 88.3159 28.3867C86.9441 29.5417 85.3813 30.3468 83.6449 30.8018C81.9258 31.2743 80.1546 31.5019 78.314 31.5019H93.0044V31.4844C93.3169 31.5019 93.6295 31.5019 93.942 31.5019H165.832C168.594 31.5019 170.832 29.2633 170.832 26.5019V4.99999C170.832 2.23857 168.594 0 165.832 0H93.942ZM121.517 26.6366C120.076 27.8091 117.957 28.4042 115.161 28.4042H101.096V9.43306L100.402 5.98535L101.096 3.90273H112.765C115.353 3.90273 117.419 4.39276 118.982 5.35532C120.527 6.31787 121.309 7.89297 121.309 10.0631C121.309 11.1482 121.135 12.1282 120.77 13.0033C120.406 13.8783 119.867 14.5609 119.19 15.0509C120.735 15.5584 121.882 16.3285 122.611 17.361C123.358 18.4111 123.722 19.6362 123.722 21.0712C123.722 23.5739 122.993 25.4465 121.517 26.6366ZM134.037 28.4042H127.82V9.43306L127.473 5.98535L127.82 3.90273H134.037V28.4042ZM161.421 22.2438C160.709 23.8539 159.754 25.114 158.538 26.024C157.323 26.9166 155.951 27.5466 154.423 27.8791C152.912 28.2292 151.349 28.4042 149.752 28.4042H139.524V9.46806L138.829 6.02036L139.524 3.90273H149.752C151.401 3.90273 152.981 4.06024 154.492 4.39276C156.02 4.69028 157.375 5.26781 158.573 6.12536C159.788 6.96541 160.726 8.19048 161.421 9.78308C162.133 11.3757 162.48 13.4408 162.48 15.9784C162.48 18.5161 162.133 20.5987 161.421 22.2438Z" fill="#222222"/>
<path d="M156.003 15.978C156.003 18.4281 155.465 20.1957 154.388 21.2808C153.311 22.3309 151.766 22.8734 149.752 22.8734H145.758V9.43262H149.752C151.731 9.43262 153.277 9.92265 154.353 10.8852C155.447 11.8478 156.003 13.5279 156.003 15.978Z" fill="#222222"/>
<path d="M116.95 20.756C116.95 21.106 116.881 21.4385 116.742 21.7535C116.638 22.0861 116.377 22.3486 115.96 22.5586C115.561 22.7686 114.953 22.8736 114.137 22.8736H107.278V18.5684H114.484C115.283 18.5684 115.891 18.7959 116.308 19.2334C116.742 19.6534 116.95 20.161 116.95 20.756Z" fill="#222222"/>
<path d="M114.901 11.4102C114.901 12.0053 114.727 12.4953 114.38 12.8628C114.033 13.2303 113.477 13.4229 112.696 13.4229H107.278V9.43262H112.349C113.043 9.43262 113.633 9.57263 114.137 9.85264C114.641 10.1327 114.901 10.6577 114.901 11.4102Z" fill="#222222"/>
</g>
<defs>
<clipPath id="clip0_457_1029">
<rect width="170.832" height="31.5019" fill="white"/>
</clipPath>
</defs>
</svg>
