<svg width="140" height="128" viewBox="0 0 140 128" fill="none" xmlns="http://www.w3.org/2000/svg">
<g opacity="0.1">
<path d="M62.5857 76.0003C58.8265 76.1234 54.8942 79.9991 54.4933 83.9738C54.3356 85.5521 54.6191 87.0987 55.2907 88.3261C55.8773 89.4341 56.8233 90.3095 57.9734 90.8085C58.2658 90.9312 58.5679 91.0262 58.8788 91.0913C61.5269 91.6344 64.0274 89.8881 65.4846 88.0721C67.2328 85.8923 68.0428 83.2049 67.6536 80.8813C67.1265 77.7375 65.2338 75.9154 62.5857 76.0003ZM63.4681 86.456C62.5352 87.6193 60.9083 88.8689 59.4001 88.5574C58.6656 88.4062 57.9781 87.858 57.5587 87.0896C57.134 86.3115 56.9593 85.2982 57.0662 84.233C57.3584 81.3321 60.443 78.6573 62.6694 78.5843C63.1561 78.5643 64.6367 78.5184 65.1054 81.307C65.3747 82.9187 64.7619 84.8424 63.4681 86.456ZM32.8949 71.9002C31.2957 71.9393 30.1103 74.2076 31.2404 75.7096C32.2546 77.0601 34.5023 76.8428 35.2545 75.3085C36.0897 73.6164 34.5123 71.5773 32.8949 71.9002ZM45.0739 76.1698C43.4228 76.2301 42.2969 78.499 43.4101 79.979C43.6505 80.2966 43.9646 80.5368 44.3268 80.6888C44.6844 80.8389 45.0878 80.9016 45.5061 80.8623C46.3549 80.7812 47.0731 80.3033 47.4274 79.5792C48.261 77.8865 46.6957 75.8674 45.0739 76.1698ZM73.7808 88.3503C73.7045 88.3379 73.6274 88.3312 73.5501 88.3301C73.4759 88.3198 73.4009 88.3152 73.326 88.3164C72.5378 88.3333 71.8078 88.7726 71.3745 89.4934C70.9354 90.2192 70.8849 91.0744 71.2385 91.7815C71.4808 92.2633 71.8887 92.6415 72.3874 92.8467C72.6226 92.9453 72.8769 93.0072 73.1428 93.0328C73.9916 93.1031 74.782 92.7601 75.2595 92.1121C75.4962 91.7824 75.6441 91.3974 75.689 90.9941C75.7338 90.5908 75.6742 90.1827 75.5158 89.809C75.3748 89.4383 75.1412 89.1098 74.8374 88.8548C74.5337 88.5998 74.1704 88.4251 73.7808 88.3503ZM84.7349 94.7595C84.0166 94.6543 83.0838 95.0515 82.5571 95.9237C82.1202 96.6485 82.0697 97.5038 82.4233 98.2109C82.6648 98.6953 83.0726 99.0683 83.5731 99.2783C83.8067 99.3763 84.0611 99.4382 84.3282 99.4606C86.135 99.617 87.3771 97.9219 86.6981 96.2355C86.3863 95.4599 85.4724 94.77 84.7349 94.7595Z" fill="white"/>
<path d="M126.758 71.2609C126.19 69.2512 124.848 67.8884 122.996 67.4252C118.015 66.1891 112.711 71.6566 115.316 76.689C110.681 79.8984 105.536 82.2976 100.098 83.7844C97.8589 84.3958 95.3397 84.8149 93.3219 83.6693C91.5356 82.6581 90.43 80.3852 90.3143 78.6212C90.4406 76.6279 90.7014 75.0088 90.818 73.4395C90.8348 73.2099 90.79 72.9801 90.6882 72.7736C90.5864 72.5672 90.4313 72.3917 90.239 72.2653C90.0467 72.1389 89.8241 72.0661 89.5942 72.0545C89.3644 72.0429 89.1356 72.0929 88.9315 72.1993C87.2766 73.0615 85.1823 74.855 83.358 75.8536C78.6522 77.0613 74.6791 74.5589 74.921 66.9239C75.1653 59.2563 77.7457 51.8644 80.6315 44.7558C85.6986 44.7443 88.2259 38.7261 86.2023 34.958C83.7806 30.4417 78.1557 31.5553 75.7685 35.5076C74.0129 38.4131 74.7854 41.8673 77.1523 43.6192C73.3087 50.5968 66.4599 62.0018 62.437 65.363C59.5869 67.7419 57.234 68.6999 55.2481 68.2889C53.5648 67.9582 51.9829 66.4777 51.1265 64.4571C50.4467 62.8619 50.4088 60.8857 50.3724 58.9774C50.3532 57.9453 50.5015 57.004 49.5595 56.5994L49.5499 56.5954C49.3257 56.5011 49.0794 56.472 48.8394 56.5115C48.5994 56.5509 48.3754 56.6573 48.1931 56.8184C46.3499 58.4499 44.4455 60.1381 42.2221 61.1392C39.9601 62.1522 37.6086 62.2026 35.921 61.3169C34.2229 60.4026 33.0933 58.4897 32.299 56.9268C30.1829 52.7648 27.7849 47.3148 27.5013 41.6401C32.3465 41.2401 34.513 35.4536 32.5959 31.8816C28.7685 24.7479 18.1557 31.9143 22.0283 38.8557C23.0337 40.6549 24.5694 41.1367 24.7281 41.2351C23.8536 49.7763 22.9372 59.4865 22.8195 68.3397C19.6292 68.795 18.745 72.6566 20.8364 74.7133C20.0233 76.2147 17.6482 81.0466 17.4881 82.1137C16.9936 82.3304 16.6253 82.6337 16.4386 83.0562C13.9504 88.7544 45.9115 103.044 51.602 105.533C57.2107 107.976 89.506 121.728 91.9774 116.079C92.1874 115.6 92.2631 115.055 91.9941 114.364C92.8216 111.965 93.929 108.952 94.7402 106.631C97.4055 106.679 98.8614 103.646 97.6417 101.248C104.305 94.2169 111.065 86.1381 117.767 79.108C122.87 81.7238 128.135 76.1593 126.758 71.2609ZM83.9233 36.1806C84.817 37.8451 84.124 40.4807 82.4964 41.6029C80.9856 42.647 78.7651 42.2385 77.8893 40.6694C75.6608 36.6771 81.7642 32.152 83.9233 36.1806ZM24.3734 33.7702C25.7399 31.5069 28.8836 30.4323 30.3179 33.1065C31.6616 35.6045 29.5624 39.7878 26.2467 39.0188C23.9777 38.4853 23.1198 35.8492 24.3734 33.7702ZM52.6377 103.163C36.8214 96.2454 25.9674 89.9717 21.3518 86.3998C31.1325 86.9926 46.125 93.1698 55.6112 97.8978C66.5415 103.344 77.0258 109.657 88.0151 114.98C83.3111 114.647 70.3856 110.928 52.6377 103.163ZM95.0244 100.249C94.9037 100.375 94.8099 100.525 94.7486 100.688C94.6873 100.852 94.6598 101.026 94.6678 101.201C94.6758 101.375 94.7191 101.547 94.795 101.704C94.871 101.861 94.9781 102.001 95.1098 102.116C95.51 102.467 95.6217 103.194 95.3493 103.674C94.8251 104.585 94.2879 103.532 93.3079 104.01C92.6767 104.321 92.9009 104.045 90.1064 111.934C83.7832 106.036 65.2374 97.2822 56.8179 93.6016C53.6317 92.2123 30.0464 82.037 20.3984 81.7203C23.2931 74.6884 24.2699 74.8721 23.7491 73.7174C23.6644 73.5327 23.5378 73.3703 23.3793 73.2431C23.2208 73.116 23.0348 73.0275 22.8362 72.9849C22.4404 72.9216 21.7905 71.4865 22.8889 70.9888C22.9961 70.9329 23.1135 70.8993 23.234 70.8898C23.3546 70.8803 23.4758 70.8953 23.5904 70.9337L23.5999 70.9377C23.7961 71.0201 24.0095 71.0529 24.2213 71.033C24.4332 71.0132 24.6368 70.9414 24.8142 70.8239C24.9916 70.7064 25.1373 70.547 25.2383 70.3597C25.3393 70.1725 25.3925 69.9632 25.3931 69.7504C25.4164 63.3935 25.8935 56.4982 26.4897 49.8715C27.481 52.9111 28.7822 55.7108 29.995 58.0978C30.96 59.9977 32.3666 62.337 34.6987 63.5884C37.1128 64.8985 40.2478 64.8555 43.2822 63.4939C44.9641 62.7365 46.4639 61.6653 47.8274 60.5444C47.8967 62.2142 48.0768 63.8913 48.7484 65.4662C49.9489 68.2965 52.1904 70.2985 54.7252 70.8221C58.4665 71.5922 61.8652 69.2062 64.0948 67.3443C66.7486 65.126 70.1744 60.2529 73.1931 55.4593C71.4457 60.9283 70.5506 64.7181 70.5201 66.7815C70.4491 71.7916 71.7141 75.359 74.2815 77.3857C76.2924 78.9751 79.1828 79.5732 82.2078 79.0355C84.1639 78.6846 86.2561 77.1145 87.9667 75.8926C87.7119 78.2187 87.4824 80.7517 87.9458 82.6224C88.6511 85.4841 90.4654 88.0898 93.1454 89.0911C95.8409 90.1044 98.5184 89.0677 101.166 88.0855C103.957 87.0673 106.679 85.8643 109.311 84.4845C104.151 90.2335 99.6212 95.4487 95.0244 100.249ZM119.014 76.8542C116.938 75.8598 116.632 73.0983 118.322 71.324C120.126 69.4293 123.445 69.0335 124.27 71.9606C125.001 74.5657 122.268 78.3077 119.014 76.8542ZM99.5397 27.6624C99.4509 27.5175 99.3344 27.3917 99.1968 27.292C99.0593 27.1923 98.9034 27.1207 98.7381 27.0814C98.5728 27.0421 98.4014 27.0358 98.2337 27.0628C98.066 27.0899 97.9053 27.1498 97.7607 27.2392L90.8406 31.5019C90.5667 31.6899 90.3757 31.976 90.3069 32.301C90.2382 32.626 90.2971 32.965 90.4714 33.2477C90.6457 33.5305 90.9221 33.7354 91.2433 33.8201C91.5645 33.9047 91.906 33.8626 92.197 33.7024L99.1172 29.4397C99.4088 29.26 99.6171 28.9718 99.6963 28.6385C99.7756 28.3052 99.7192 27.9541 99.5397 27.6624ZM104.232 36.9212C104.224 36.5792 104.082 36.254 103.836 36.0164C103.59 35.7788 103.26 35.6479 102.918 35.6523C99.7394 35.7091 96.5669 35.9535 93.417 36.3839C93.2444 36.4015 93.0772 36.4536 92.9252 36.5372C92.7732 36.6208 92.6395 36.7341 92.5323 36.8704C92.425 37.0068 92.3462 37.1633 92.3007 37.3307C92.2552 37.4981 92.2439 37.6729 92.2674 37.8448C92.2909 38.0166 92.3488 38.182 92.4375 38.3311C92.5263 38.4801 92.6442 38.6097 92.7841 38.7122C92.9241 38.8147 93.0832 38.888 93.2521 38.9277C93.4209 38.9674 93.5961 38.9727 93.767 38.9433C96.8155 38.527 99.886 38.291 102.962 38.2366C103.132 38.2337 103.3 38.1973 103.456 38.1296C103.612 38.0618 103.753 37.9639 103.871 37.8416C103.989 37.7193 104.081 37.5748 104.143 37.4166C104.206 37.2584 104.235 37.0911 104.232 36.9212Z" fill="white"/>
<path d="M93.6689 41.425C93.5395 41.3151 93.3898 41.2318 93.2282 41.1798C93.0667 41.1278 92.8965 41.1082 92.7273 41.1219C92.5582 41.1357 92.3934 41.1827 92.2424 41.2602C92.0913 41.3376 91.9571 41.4441 91.8472 41.5734C91.7373 41.7028 91.654 41.8525 91.602 42.0141C91.55 42.1757 91.5304 42.3459 91.5442 42.515C91.5579 42.6842 91.6049 42.849 91.6824 43C91.7598 43.151 91.8663 43.2853 91.9957 43.3951L96.2521 47.0125C96.3814 47.1225 96.5311 47.2059 96.6927 47.258C96.8542 47.3102 97.0244 47.3299 97.1937 47.3163C97.3629 47.3026 97.5277 47.2557 97.6788 47.1783C97.8299 47.1009 97.9642 46.9945 98.0742 46.8652C98.1842 46.7359 98.2676 46.5862 98.3197 46.4246C98.3718 46.2631 98.3916 46.0928 98.3779 45.9236C98.3643 45.7544 98.3174 45.5896 98.24 45.4385C98.1626 45.2874 98.0562 45.153 97.9269 45.0431L93.6689 41.425Z" fill="white"/>
</g>
</svg>
