<svg width="225" height="225" viewBox="0 0 225 225" fill="none" xmlns="http://www.w3.org/2000/svg">
<path opacity="0.05" d="M0.666667 219C0.666667 221.946 3.05448 224.333 6 224.333C8.94552 224.333 11.3333 221.946 11.3333 219C11.3333 216.054 8.94552 213.667 6 213.667C3.05448 213.667 0.666667 216.054 0.666667 219ZM122.267 114.671L122.2 113.674L122.193 113.674L122.185 113.675L122.267 114.671ZM160.635 187.527L161.21 188.344L161.217 188.34L160.635 187.527ZM102.501 61.0501L101.678 60.4827L101.658 60.5114L101.64 60.5415L102.501 61.0501ZM224.466 10.6446C224.955 10.3871 225.142 9.78224 224.885 9.29369L220.687 1.33235C220.43 0.843799 219.825 0.65655 219.336 0.914114C218.848 1.17168 218.661 1.77652 218.918 2.26507L222.649 9.34182L215.572 13.0727C215.084 13.3303 214.896 13.9351 215.154 14.4237C215.412 14.9122 216.016 15.0995 216.505 14.8419L224.466 10.6446ZM6.9104 219.414C7.65959 217.765 8.48346 216.029 9.37999 214.218L7.58759 213.331C6.6818 215.161 5.84842 216.916 5.0896 218.586L6.9104 219.414ZM14.7989 203.989C16.6058 200.779 18.5835 197.438 20.7238 194.016L19.0281 192.955C16.8713 196.404 14.8779 199.771 13.056 203.008L14.7989 203.989ZM27.0749 184.346C29.219 181.234 31.4832 178.094 33.8616 174.959L32.2683 173.75C29.8706 176.911 27.5887 180.075 25.428 183.211L27.0749 184.346ZM41.0815 165.904C43.5412 162.97 46.0984 160.07 48.7484 157.232L47.2866 155.867C44.6109 158.733 42.0301 161.659 39.5489 164.619L41.0815 165.904ZM56.8857 149.013C59.6812 146.357 62.5621 143.789 65.5237 141.335L64.2479 139.795C61.249 142.279 58.3342 144.878 55.508 147.563L56.8857 149.013ZM74.6916 134.316C77.855 132.09 81.096 130.011 84.4096 128.107L83.4131 126.373C80.0428 128.31 76.7505 130.422 73.5407 132.68L74.6916 134.316ZM94.6775 122.896C98.202 121.343 101.797 120.001 105.456 118.9L104.88 116.985C101.137 118.111 97.4658 119.482 93.8711 121.065L94.6775 122.896ZM116.647 116.345C118.533 116.051 120.433 115.824 122.348 115.668L122.185 113.675C120.221 113.835 118.272 114.067 116.34 114.368L116.647 116.345ZM122.333 115.669C124.251 115.541 126.122 115.49 127.945 115.511L127.968 113.511C126.092 113.489 124.169 113.542 122.2 113.674L122.333 115.669ZM139.052 116.614C142.883 117.357 146.435 118.454 149.697 119.845L150.482 118.006C147.086 116.558 143.399 115.42 139.433 114.651L139.052 116.614ZM159.316 125.361C162.371 127.647 165.021 130.246 167.249 133.066L168.818 131.827C166.482 128.869 163.707 126.149 160.514 123.759L159.316 125.361ZM172.858 142.587C174.292 146.04 175.209 149.64 175.587 153.271L177.577 153.064C177.178 149.237 176.212 145.449 174.705 141.82L172.858 142.587ZM175.056 164.264C174.326 167.815 173.04 171.283 171.177 174.555L172.915 175.545C174.884 172.087 176.243 168.421 177.015 164.667L175.056 164.264ZM164.346 183.189C163.034 184.425 161.603 185.603 160.052 186.714L161.217 188.34C162.839 187.178 164.339 185.943 165.717 184.644L164.346 183.189ZM160.059 186.709C158.751 187.63 157.27 188.422 155.639 189.081L156.388 190.936C158.145 190.226 159.764 189.363 161.21 188.344L160.059 186.709ZM145.674 191.288C142.422 191.542 138.938 191.439 135.333 190.966L135.073 192.949C138.803 193.438 142.427 193.548 145.829 193.282L145.674 191.288ZM125.221 188.731C121.992 187.728 118.755 186.441 115.586 184.864L114.695 186.655C117.962 188.28 121.297 189.606 124.627 190.641L125.221 188.731ZM106.693 179.51C103.925 177.521 101.277 175.276 98.8087 172.774L97.3848 174.178C99.9356 176.764 102.67 179.081 105.525 181.134L106.693 179.51ZM92.2075 164.791C90.2962 162.012 88.5857 159.007 87.1227 155.774L85.3005 156.598C86.8132 159.942 88.5824 163.049 90.5596 165.924L92.2075 164.791ZM83.6813 146.003C82.8409 142.771 82.226 139.356 81.8693 135.756L79.879 135.953C80.2458 139.655 80.8786 143.172 81.7456 146.506L83.6813 146.003ZM81.5643 125.39C81.6862 122.051 82.0149 118.576 82.5706 114.963L80.5939 114.659C80.0269 118.345 79.6905 121.898 79.5656 125.318L81.5643 125.39ZM84.6601 104.783C85.4848 101.546 86.4817 98.2106 87.6626 94.7771L85.7713 94.1266C84.5734 97.6094 83.5607 100.997 82.722 104.289L84.6601 104.783ZM91.4194 85.0004C92.7329 81.8983 94.1899 78.7233 95.7977 75.4747L94.0052 74.5876C92.3807 77.8699 90.9072 81.0807 89.5777 84.2205L91.4194 85.0004ZM100.693 66.1986C101.55 64.6671 102.44 63.1204 103.362 61.5586L101.64 60.5415C100.71 62.1163 99.8128 63.6764 98.9477 65.2216L100.693 66.1986ZM103.325 61.6174C104.268 60.2478 105.42 58.7032 106.769 57.0236L105.21 55.7714C103.835 57.4831 102.653 59.067 101.678 60.4827L103.325 61.6174ZM114.472 48.3312C116.977 45.7373 119.777 43.0272 122.843 40.289L121.511 38.7972C118.407 41.5691 115.572 44.3134 113.034 46.9419L114.472 48.3312ZM131.781 32.8685C134.764 30.5689 137.92 28.3068 141.231 26.1354L140.134 24.463C136.778 26.664 133.581 28.9558 130.56 31.2844L131.781 32.8685ZM151.192 20.1734C154.553 18.352 158.033 16.655 161.621 15.1255L160.837 13.2857C157.187 14.8414 153.65 16.566 150.239 18.4151L151.192 20.1734ZM172.493 11.1427C176.155 10.0215 179.904 9.09703 183.727 8.40807L183.372 6.43977C179.467 7.14364 175.641 8.08739 171.908 9.23033L172.493 11.1427ZM195.198 7.0962C198.99 6.91529 202.839 6.9855 206.736 7.34112L206.918 5.34939C202.926 4.98508 198.984 4.91331 195.103 5.09847L195.198 7.0962ZM218.13 9.19639C219.98 9.63256 221.838 10.1377 223.704 10.7153L224.296 8.80478C222.386 8.21361 220.483 7.69643 218.589 7.24975L218.13 9.19639Z" fill="white"/>
</svg>
