<svg width="48" height="48" viewBox="0 0 48 48" fill="none" xmlns="http://www.w3.org/2000/svg">
<path d="M32.8448 19.6899L32.0449 19.6279C31.7857 19.6078 31.5252 19.644 31.2813 19.7342C31.0374 19.8243 30.816 19.9662 30.6321 20.15L24.0164 26.7658C23.5887 27.1935 23.0645 27.5122 22.4879 27.695L22.3406 27.7419C21.6329 27.9663 20.9663 27.2996 21.1908 26.592L21.2375 26.4446C21.4204 25.868 21.7391 25.3438 22.1668 24.9161L28.7826 18.3004C28.9664 18.1165 29.1083 17.8951 29.1984 17.6512C29.2885 17.4073 29.3248 17.1468 29.3047 16.8876L29.2427 16.0878C29.1737 15.1989 30.2481 14.7043 30.8786 15.3347L33.5978 18.054C34.2283 18.6844 33.7337 19.7589 32.8448 19.6899Z" fill="#99FEE8"/>
<path d="M28.2823 19.5774L27.6719 19.4111L22.1668 24.9162C21.7391 25.3439 21.4204 25.8681 21.2375 26.4447L21.1908 26.592C20.9663 27.2997 21.633 27.9664 22.3406 27.7418L22.4879 27.6951C23.0645 27.5122 23.5887 27.1935 24.0165 26.7658L30.2736 20.5087C29.668 20.0866 28.9944 19.7716 28.2823 19.5774Z" fill="#01AA85"/>
<path d="M28.1953 18.8877L28.7828 18.3002C28.9666 18.1164 29.1084 17.8949 29.1985 17.6511C29.2887 17.4072 29.3249 17.1468 29.3049 16.8876L29.2428 16.0877C29.1739 15.1988 30.2483 14.7042 30.8788 15.3347L33.598 18.0539C34.2283 18.6843 33.7338 19.7587 32.8449 19.6898L32.0451 19.6278C31.7858 19.6077 31.5254 19.6439 31.2815 19.7341C31.0376 19.8242 30.8161 19.966 30.6323 20.1499L28.939 21.8433" stroke="black" stroke-miterlimit="10" stroke-linecap="round" stroke-linejoin="round"/>
<path d="M3.9706 30.8074H8.02184L9.09511 33.7448C9.84839 35.8064 9.76126 38.0814 8.85252 40.0794L8.28605 41.4467H24.9056L24.3223 40.0794C23.4136 38.0814 23.3265 35.8064 24.0798 33.7448L25.1531 30.8074H29.2043C30.3131 30.8074 31.212 29.9086 31.212 28.7996V25.8346C31.212 23.7444 29.8127 21.9128 27.7959 21.3634L21.6692 19.6942C21.2055 19.5679 20.7962 19.2926 20.5044 18.9107C20.2126 18.5288 20.0546 18.0615 20.0546 17.5809V14.0431H13.1203V17.5809C13.1204 18.0615 12.9623 18.5288 12.6705 18.9107C12.3787 19.2926 11.9694 19.5679 11.5057 19.6942L5.37901 21.3634C3.36223 21.9128 1.96289 23.7444 1.96289 25.8346V28.7997C1.96289 29.9086 2.86179 30.8074 3.9706 30.8074Z" fill="#EFEFEF"/>
<path d="M20.0546 17.5811V14.0433H13.1203V17.5811C13.1203 18.0617 12.9622 18.5289 12.6705 18.9108C12.3787 19.2927 11.9694 19.5681 11.5057 19.6944L5.37901 21.3635C3.36223 21.9129 1.96289 23.7444 1.96289 25.8348V28.7998C1.96289 29.9086 2.86179 30.8076 3.9706 30.8076H5.9772C4.86839 30.8076 3.96949 29.9086 3.96949 28.7998V27.0913C3.96949 25.0011 5.36883 23.1695 7.38561 22.6201L13.5123 20.9509C13.976 20.8246 14.3853 20.5493 14.6771 20.1674C14.9689 19.7856 15.1269 19.3183 15.1269 18.8377C15.1269 18.5582 15.3552 18.3348 15.6346 18.3362L15.6764 18.3364H17.4985C18.3776 18.3369 19.2503 18.1853 20.0777 17.8883C20.0628 17.7866 20.0551 17.6839 20.0546 17.5811Z" fill="#AFAFAF"/>
<path d="M11.1013 33.7448L9.20521 28.5095C9.10315 28.2277 8.91675 27.9842 8.67137 27.812C8.42599 27.6399 8.13355 27.5476 7.83382 27.5476H6.75879L9.0947 33.7448C9.848 35.8064 9.76091 38.0814 8.85221 40.0794L8.2451 41.4005H10.2517L10.8588 40.0794C11.7675 38.0814 11.8546 35.8064 11.1013 33.7448Z" fill="#AFAFAF"/>
<path d="M27.0811 47H6.09329C5.07093 47 4.24219 46.1713 4.24219 45.1489V43.1943C4.24219 42.1719 5.07093 41.3432 6.09329 41.3432H27.0811C28.1035 41.3432 28.9322 42.1719 28.9322 43.1943V45.1489C28.9322 46.1713 28.1035 47 27.0811 47Z" fill="#EFEFEF"/>
<path d="M6.37466 45.1489V43.1943C6.37466 42.1719 7.2034 41.3432 8.22577 41.3432H6.09329C5.07093 41.3432 4.24219 42.1719 4.24219 43.1943V45.1489C4.24219 46.1713 5.07093 47 6.09329 47H8.22577C7.2034 47 6.37466 46.1713 6.37466 45.1489Z" fill="#AFAFAF"/>
<path d="M13.1203 15.9923V17.5809C13.1203 18.0615 12.9622 18.5287 12.6705 18.9106C12.3787 19.2925 11.9694 19.5678 11.5057 19.6942L5.37902 21.3632C3.36223 21.9127 1.96289 23.7443 1.96289 25.8346V28.7996C1.96289 29.9085 2.86179 30.8074 3.9706 30.8074H8.02184L9.09511 33.7446C9.84841 35.8062 9.76132 38.0813 8.85262 40.0792L8.27776 41.3431" stroke="black" stroke-miterlimit="10" stroke-linecap="round" stroke-linejoin="round"/>
<path d="M27.983 30.8076H29.2034C30.3123 30.8076 31.2112 29.9087 31.2112 28.7998V25.8348C31.2112 23.7445 29.8118 21.913 27.795 21.3635L21.6683 19.6944C21.2046 19.5681 20.7953 19.2928 20.5035 18.9109C20.2118 18.529 20.0537 18.0617 20.0537 17.5811V15.9925" stroke="black" stroke-miterlimit="10" stroke-linecap="round" stroke-linejoin="round"/>
<path d="M8.02152 30.8076L6.75879 27.5477" stroke="black" stroke-miterlimit="10" stroke-linecap="round" stroke-linejoin="round"/>
<path d="M26.4163 27.5474L24.0804 33.7446C23.3271 35.8062 23.4142 38.0813 24.3229 40.0792L24.8978 41.3431" stroke="black" stroke-miterlimit="10" stroke-linecap="round" stroke-linejoin="round"/>
<path d="M21.8716 31.6953H20.5796C20.0175 31.6953 19.4684 31.5259 19.0041 31.2091C18.5397 30.8924 18.1817 30.443 17.9766 29.9196" stroke="black" stroke-miterlimit="10" stroke-linecap="round" stroke-linejoin="round"/>
<path d="M11.3047 31.6953H12.5967C13.1588 31.6953 13.7078 31.5259 14.1722 31.2091C14.6365 30.8924 14.9946 30.443 15.1997 29.9196" stroke="black" stroke-miterlimit="10" stroke-linecap="round" stroke-linejoin="round"/>
<path d="M20.7407 22.729H18.5696C18.3854 22.729 18.2037 22.7721 18.0392 22.855C17.8747 22.9379 17.7319 23.0582 17.6222 23.2062L17.535 23.3239C17.0637 23.9602 16.1116 23.9602 15.6402 23.3239L15.553 23.2062C15.4434 23.0582 15.3006 22.9379 15.136 22.855C14.9715 22.7721 14.7899 22.729 14.6056 22.729H12.4346" stroke="black" stroke-miterlimit="10" stroke-linecap="round" stroke-linejoin="round"/>
<path d="M17.4988 16.4849H15.6767C12.4698 16.4849 9.87012 13.8852 9.87012 10.6783V6.80635C9.87012 3.59949 12.4698 0.9998 15.6767 0.9998H17.4988C20.7057 0.9998 23.3054 3.59949 23.3054 6.80635V10.6783C23.3054 13.8852 20.7057 16.4849 17.4988 16.4849Z" fill="#EFEFEF"/>
<path d="M11.8767 10.6783V6.80644C11.8767 3.63041 14.4269 1.05163 17.5911 1.00211C17.5603 1.00165 17.5297 0.9998 17.4988 0.9998H15.6767C12.4698 0.9998 9.87012 3.59949 9.87012 6.80644V10.6783C9.87012 13.8852 12.4698 16.4849 15.6767 16.4849H17.4988C17.5297 16.4849 17.5603 16.483 17.5911 16.4825C14.4269 16.4331 11.8767 13.8543 11.8767 10.6783Z" fill="#AFAFAF"/>
<path d="M21.8 2.90552C22.7355 3.9363 23.3054 5.30473 23.3054 6.80635V10.6783C23.3054 13.8852 20.7058 16.4849 17.4989 16.4849H15.6768C12.4698 16.4849 9.87012 13.8852 9.87012 10.6783V6.80635C9.87012 3.59949 12.4698 0.999801 15.6768 0.999801H17.4989C18.129 0.999141 18.7551 1.10118 19.3524 1.3019" stroke="black" stroke-miterlimit="10" stroke-linecap="round" stroke-linejoin="round"/>
<path d="M14.4959 41.3432H27.0811C28.1034 41.3432 28.9322 42.1719 28.9322 43.1943V45.1489C28.9322 46.1713 28.1034 47 27.0811 47H6.09329C5.07093 47 4.24219 46.1713 4.24219 45.1489V43.1943C4.24219 42.1719 5.07093 41.3432 6.09329 41.3432H11.7442" stroke="black" stroke-miterlimit="10" stroke-linecap="round" stroke-linejoin="round"/>
<path d="M13.1328 6.9808H14.6646C15.2182 6.9808 15.667 7.4296 15.667 7.98318V9.7047C15.667 10.2123 16.0785 10.6238 16.5861 10.6238H17.2386" stroke="black" stroke-miterlimit="10" stroke-linecap="round" stroke-linejoin="round"/>
<path d="M18.293 6.98083H20.0404" stroke="black" stroke-miterlimit="10" stroke-linecap="round" stroke-linejoin="round"/>
<path d="M15.6211 13.2118H17.5536" stroke="black" stroke-miterlimit="10" stroke-linecap="round" stroke-linejoin="round"/>
<path d="M16.3838 37.4132H16.791" stroke="black" stroke-miterlimit="10" stroke-linecap="round" stroke-linejoin="round"/>
<path d="M45.9588 18.1737L45.0417 19.0908C44.6188 19.5137 43.9331 19.5137 43.5101 19.0908L33.9275 9.50817C33.5046 9.08529 33.5046 8.39964 33.9275 7.97666L34.8446 7.05953C35.2675 6.63664 35.9532 6.63664 36.3761 7.05953L45.9588 16.6422C46.3817 17.0651 46.3817 17.7508 45.9588 18.1737Z" fill="#EFEFEF"/>
<path d="M44.5098 18.0914L34.9271 8.50882C34.5182 8.09982 34.506 7.44582 34.8881 7.02062C34.8735 7.03367 34.8586 7.04589 34.8447 7.05977L33.9275 7.9769C33.5046 8.39979 33.5046 9.08544 33.9275 9.50842L43.5102 19.091C43.9331 19.5139 44.6188 19.5139 45.0417 19.091L45.9589 18.1739C45.9728 18.1599 45.985 18.145 45.9979 18.1306C45.5728 18.5127 44.9188 18.5004 44.5098 18.0914Z" fill="#AFAFAF"/>
<path d="M45.9588 18.1737L45.0417 19.0908C44.6188 19.5137 43.9331 19.5137 43.5101 19.0908L33.9275 9.50817C33.5046 9.08529 33.5046 8.39964 33.9275 7.97666L34.8446 7.05953C35.2675 6.63664 35.9532 6.63664 36.3761 7.05953L45.9588 16.6422C46.3817 17.0651 46.3817 17.7508 45.9588 18.1737Z" stroke="black" stroke-miterlimit="10" stroke-linecap="round" stroke-linejoin="round"/>
<path d="M33.3447 12.0405L38.9077 6.47756C39.4064 5.97887 40.2148 5.97887 40.7135 6.47756L42.4581 8.22223C42.9568 8.72092 42.9568 9.52939 42.4581 10.0281L36.8952 15.591C36.3965 16.0896 35.588 16.0896 35.0894 15.591L33.3447 13.8464C32.846 13.3477 32.846 12.5392 33.3447 12.0405Z" fill="#99FEE8"/>
<path d="M36.2888 14.3914L34.5442 12.6468C34.0456 12.1482 34.0456 11.3397 34.5442 10.841L33.3446 12.0404C32.8461 12.5391 32.8461 13.3477 33.3446 13.8463L35.0893 15.5909C35.588 16.0896 36.3965 16.0896 36.8952 15.5909L38.0946 14.3914C37.596 14.8901 36.7875 14.8901 36.2888 14.3914Z" fill="#01AA85"/>
<path d="M33.3447 12.0405L38.9077 6.47756C39.4064 5.97887 40.2148 5.97887 40.7135 6.47756L42.4581 8.22223C42.9568 8.72092 42.9568 9.52939 42.4581 10.0281L36.8952 15.591C36.3965 16.0896 35.588 16.0896 35.0894 15.591L33.3447 13.8464C32.846 13.3477 32.846 12.5392 33.3447 12.0405Z" stroke="black" stroke-miterlimit="10" stroke-linecap="round" stroke-linejoin="round"/>
</svg>
