<svg width="48" height="48" viewBox="0 0 48 48" fill="none" xmlns="http://www.w3.org/2000/svg">
<path d="M30.7421 2.48283C25.9067 3.66523 21.8975 5.40931 18.4928 7.43831L12.5299 0C12.5299 0 5.08143 0.647163 2.60064 7.35894L8.61438 15.8616C2.2445 23.6113 1.03564 31.4546 1.03564 31.4546C3.78507 25.4693 6.71766 20.87 9.63397 17.2984L11.1399 19.423C5.78762 25.915 5.17505 32.0285 5.17505 32.0285C2.50703 55.0496 24.942 46.4126 24.942 46.4126C44.0802 37.5477 46.9354 19.6815 46.9354 19.6815C47.7576 -0.824219 30.7421 2.48283 30.7421 2.48283ZM16.6795 8.5393L17.6095 9.7217L19.5368 12.1618L19.8482 12.5627L26.4602 20.9473C26.4602 20.9473 23.4076 21.7919 20.9268 20.6909L16.7853 15.5055L16.1544 14.7158L14.2923 12.3857L13.2727 11.1137L12.5706 10.2325C12.5706 10.2325 14.1336 8.5393 16.478 8.27677L16.6795 8.5393ZM27.9153 29.6169C26.3808 29.1916 26.332 30.8115 26.332 30.8115L19.5185 27.3152C20.7986 25.3859 20.6256 21.8896 20.6256 21.8896C24.0303 22.4391 27.1583 21.1549 27.1583 21.1549V21.8896L27.9153 29.6169ZM3.97841 7.45052C6.36966 2.39125 12.1616 1.47138 12.1616 1.47138L12.9899 2.94683C6.64033 4.41821 4.98985 8.83236 4.98985 8.83236L3.97841 7.45052ZM5.72656 10.0249C8.57571 5.24447 13.6329 4.04986 13.6329 4.04986L15.3791 6.25591C9.58716 7.7273 7.47675 12.5078 7.47675 12.5078L5.72656 10.0249ZM10.0674 15.9532L9.3348 14.9926L8.48617 13.8896C9.31242 11.6795 11.3333 10.5785 11.3333 10.5785L12.5096 12.1292L13.3541 13.2384L15.029 15.4505L15.4116 15.9532L19.4371 21.2485C19.895 23.9125 18.3279 26.6762 18.3279 26.6762L12.6703 19.3254L11.9845 18.4319L10.0674 15.9532ZM44.998 18.6253C43.4371 36.2412 26.4623 43.8708 26.4623 43.8708C14.0888 50.1267 9.404 42.8614 9.404 42.8614C3.61005 34.4014 7.47879 27.6835 11.0606 21.5864C11.3007 21.1753 11.5571 20.7825 11.8339 20.4019L17.3185 28.1455L29.8181 33.8458L28.4404 19.8647L22.3228 12.2249C31.1003 6.41669 37.462 11.132 37.462 11.132C48.3111 19.7731 29.8161 33.8458 29.8161 33.8458C40.3946 28.9718 41.6889 21.1549 41.6889 21.1549C45.2707 3.21954 27.5266 8.27677 27.5266 8.27677C25.4172 9.05648 23.3684 9.9911 21.3969 11.073L19.4106 8.59425C25.6869 4.83745 30.3717 5.15289 30.3717 5.15289C47.5215 3.28466 44.998 18.6253 44.998 18.6253Z" fill="black"/>
</svg>
