<svg width="48" height="48" viewBox="0 0 48 48" fill="none" xmlns="http://www.w3.org/2000/svg">
<path d="M42.663 30.8175L39.0159 28.2616L42.2309 26.1597C44.3255 24.7975 44.3768 21.7436 42.3261 20.3081L39.2795 18.1696L41.9746 16.4045C44.157 14.9837 44.0985 11.776 41.8721 10.4211L27.1442 1.48628C25.1009 0.248591 22.567 0.255903 20.531 1.50831L5.78845 10.5676C3.56207 11.9371 3.54004 15.1522 5.72985 16.5583L8.38101 18.2574L5.31238 20.4545C3.27642 21.9046 3.34963 24.9586 5.45882 26.3061L8.9962 28.5765L5.64932 30.964C3.61335 32.4214 3.68657 35.468 5.79576 36.8229L20.7946 46.4388C22.8599 47.7571 25.5624 47.7937 27.6862 46.4022L42.5679 36.6764C44.6623 35.3069 44.7136 32.253 42.663 30.8175ZM6.52082 15.328C5.23185 14.5005 5.25379 12.6182 6.55738 11.82L21.2999 2.75331C22.8599 1.79387 24.808 1.78665 26.3826 2.73868L41.1178 11.6735C42.4214 12.4645 42.4507 14.3466 41.1764 15.1816L26.5437 24.7388C24.9398 25.7934 22.8599 25.8007 21.2487 24.7608L6.52082 15.328ZM41.7696 35.4534L26.8806 45.1792C25.2767 46.2265 23.1968 46.2338 21.5856 45.2012L6.58673 35.5925C5.35635 34.8016 5.29776 33.0146 6.49888 32.1577L10.3292 29.426L20.4578 35.9222C22.5524 37.2624 25.2548 37.2551 27.3494 35.8928L37.6977 29.1257L41.8282 32.0186C43.0219 32.8608 43.0073 34.6478 41.7696 35.4534Z" fill="black"/>
</svg>
