<svg width="48" height="48" viewBox="0 0 48 48" fill="none" xmlns="http://www.w3.org/2000/svg">
<path d="M10.9105 15.3534C9.21732 16.1333 6.88373 17.209 5.26948 18.8765L5.24713 18.8851C2.22444 21.3114 2.19617 25.9463 5.21031 28.4035C7.52351 30.2906 10.9335 30.2998 13.3052 32.112C15.4816 33.7756 16.0833 36.1677 18.9843 37.6761C18.2956 39.4494 17.6325 41.2326 16.9953 43.0251C16.7928 43.6103 17.4293 44.1344 18.0276 44.2974C18.3275 44.4789 18.7719 44.4677 19.0843 44.2685C19.7984 43.8141 19.8273 43.1218 21.913 38.6492C25.5965 39.3409 32.2521 38.6078 36.6516 36.67C41.3293 34.6087 45.1614 30.6944 45.0279 25.3789C45.0852 24.2157 44.807 22.9631 44.4454 22.1754C43.0014 18.1289 37.3841 15.5474 33.2489 14.3336C33.2469 14.1475 33.1851 13.9575 33.0687 13.7662C35.5542 12.4143 36.1262 8.02259 35.6245 5.19388C35.5246 4.62906 34.6941 4.66588 34.6481 5.23925C34.5843 6.01514 33.6769 6.51223 32.9188 6.70226C31.9706 6.94029 30.841 6.96791 29.8777 7.54654C28.51 8.36845 27.6947 10.18 28.7717 12.1512L28.7652 12.1532C28.3246 12.3051 28.0386 12.6707 28.005 13.177C25.4755 12.866 23.1781 12.962 20.546 13.2099C17.5082 13.4966 14.0068 13.9207 10.9105 15.3534ZM19.8858 38.0778C20.0587 38.1455 20.2323 38.2093 20.4086 38.2672C19.7201 39.9472 19.0665 41.739 18.2196 43.3282C18.135 43.2935 18.0552 43.248 17.9823 43.1928C18.5931 41.4791 19.2277 39.7739 19.8858 38.0778ZM30.3853 8.39212C31.6235 7.64911 33.3975 8.05415 34.8092 6.84232C34.8684 8.55256 34.4515 11.0453 33.3541 12.2933C32.5328 13.225 31.5551 13.1862 31.6208 13.1691C29.9125 13.1691 27.9899 9.83081 30.3853 8.39212ZM32.0778 14.1127C32.1179 14.1534 32.158 14.2054 32.1995 14.233C32.2481 14.2988 32.2599 14.3316 32.2626 14.3316C32.2146 14.4908 32.0232 14.5802 31.8713 14.6275C30.8699 14.9366 28.8349 14.2185 29.013 13.131C29.0781 13.0488 29.3168 13.0554 29.4155 13.0593C29.499 13.0955 30.4215 14.3875 32.0778 14.1127ZM22.3003 32.0035C23.8422 28.2819 28.6179 17.017 29.3924 15.1969C29.6995 15.3567 30.0316 15.4711 30.3702 15.554C28.0991 21.0194 26.4421 25.5788 23.305 32.1324C22.9644 32.11 22.6297 32.0666 22.3003 32.0035ZM22.6166 28.6909C22.1878 29.7133 21.7578 30.7358 21.333 31.7609C20.4519 31.4604 19.801 31.0225 19.4985 30.5352C20.2525 29.5317 21.3739 28.8684 22.6166 28.6909ZM26.1988 29.1768C26.8057 29.4398 27.525 29.6489 27.7216 30.3998C27.7927 30.6714 27.7447 30.9659 27.6132 31.2118C26.9786 31.6412 26.0436 31.9838 24.9041 32.112C25.1836 31.5064 25.6747 30.3847 26.1988 29.1768ZM28.2852 14.2014C28.3772 14.3625 28.4758 14.5 28.5712 14.6065C26.8964 18.5405 25.4972 21.8722 23.447 26.7097C17.5844 26.9675 16.5074 31.4972 21.4876 32.8419C24.77 33.7157 29.5036 32.5933 29.5036 29.9211C29.5036 28.8151 28.5567 27.8196 27.0358 27.2384C29.7955 20.8241 30.9718 18.3761 32.0561 15.5928C32.3336 15.5205 32.5525 15.4343 32.7945 15.2278C37.9601 16.706 44.2659 19.9095 44.0515 25.2526C43.7721 32.5933 29.7436 38.064 21.6723 36.1841C17.5726 35.2767 17.1419 32.4796 14.5328 30.4826C11.6758 28.2911 7.11058 28.4463 5.12746 25.5919C4.28976 24.384 4.16088 22.679 4.80132 21.2495C5.92702 18.7325 9.17392 17.2386 11.3241 16.2497C14.2797 14.882 17.6818 14.4704 20.6387 14.1922C25.9239 13.6925 27.5533 14.16 28.2852 14.2014Z" fill="#0B0C0C"/>
<path d="M7.50684 21.694C7.50684 22.8401 8.93237 23.7035 10.8234 23.7035C12.7145 23.7035 14.14 22.8401 14.14 21.694C14.14 20.548 12.7145 19.6853 10.8234 19.6853C8.93237 19.6853 7.50684 20.5486 7.50684 21.694ZM13.1537 21.694C13.1537 22.1116 12.2463 22.7172 10.8234 22.7172C9.40053 22.7172 8.49314 22.1122 8.49314 21.694C8.49314 21.2758 9.40119 20.6716 10.8234 20.6716C12.2457 20.6716 13.1537 21.2765 13.1537 21.694ZM22.7301 20.0706C24.6205 20.0706 26.046 19.2066 26.046 18.0612C26.046 16.9157 24.6205 16.0517 22.7301 16.0517C20.839 16.0517 19.4135 16.9157 19.4135 18.0612C19.4135 19.2066 20.839 20.0706 22.7301 20.0706ZM22.7301 17.038C24.1523 17.038 25.0597 17.6436 25.0597 18.0612C25.0597 18.4787 24.1523 19.0843 22.7301 19.0843C21.3078 19.0843 20.3998 18.4787 20.3998 18.0612C20.3998 17.6436 21.3072 17.038 22.7301 17.038ZM34.7235 22.347C36.6146 22.347 38.0401 21.483 38.0401 20.3375C38.0401 19.1921 36.6146 18.3281 34.7235 18.3281C32.8324 18.3281 31.4069 19.1921 31.4069 20.3375C31.4069 21.483 32.8324 22.347 34.7235 22.347ZM34.7235 19.3144C36.1457 19.3144 37.0538 19.92 37.0538 20.3375C37.0538 20.7551 36.1464 21.3607 34.7235 21.3607C33.3006 21.3607 32.3932 20.7551 32.3932 20.3375C32.3932 19.92 33.3006 19.3144 34.7235 19.3144ZM33.0264 29.0479C33.0264 30.1933 34.4519 31.0573 36.343 31.0573C38.2341 31.0573 39.6596 30.1933 39.6596 29.0479C39.6596 27.9031 38.2341 27.0391 36.343 27.0391C34.4519 27.0391 33.0264 27.9031 33.0264 29.0479ZM38.6733 29.0479C38.6733 29.4654 37.7652 30.071 36.343 30.071C34.9208 30.071 34.0127 29.4654 34.0127 29.0479C34.0127 28.631 34.9201 28.0254 36.343 28.0254C37.7659 28.0254 38.6733 28.631 38.6733 29.0479ZM24.9986 8.36187C24.2609 7.61446 23.5891 6.80489 22.9905 5.94214C22.6209 5.40428 21.8075 5.96713 22.1804 6.50302C22.8112 7.41331 23.5196 8.26734 24.2976 9.05557C24.7553 9.51979 25.4575 8.82543 24.9986 8.36187ZM27.2703 6.98434C26.9948 6.47775 26.7952 5.93341 26.6779 5.36877C26.5477 4.73162 25.5792 4.92823 25.7113 5.56932C25.8484 6.2289 26.0817 6.86475 26.4037 7.45645C26.7167 8.0285 27.5807 7.55902 27.2703 6.98434ZM28.9497 3.88143C28.6282 4.67099 28.5363 5.53531 28.6847 6.3748C28.8011 7.0159 29.7716 6.84165 29.6559 6.19858C29.54 5.54473 29.6111 4.87144 29.861 4.25623C30.1096 3.65458 29.1976 3.27453 28.9497 3.88143Z" fill="#0B0C0C"/>
</svg>
