<svg width="48" height="48" viewBox="0 0 48 48" fill="none" xmlns="http://www.w3.org/2000/svg">
<g clip-path="url(#clip0_2779_88)">
<path d="M37.9458 11.5567C38.1299 11.5567 38.3108 11.4813 38.4411 11.351C38.572 11.2193 38.6455 11.0413 38.6457 10.8556C38.6457 10.6715 38.5714 10.4917 38.4411 10.3614C38.3108 10.2311 38.1299 10.1567 37.9458 10.1567C37.7616 10.1567 37.5807 10.2311 37.4515 10.3614C37.3205 10.4926 37.2466 10.6702 37.2458 10.8556C37.2458 11.0409 37.3212 11.2207 37.4515 11.351C37.5827 11.482 37.7604 11.5559 37.9458 11.5567ZM35.469 13.2797C35.6531 13.2797 35.834 13.2043 35.9643 13.074C36.095 12.9426 36.1685 12.765 36.1689 12.5797C36.1689 12.3956 36.0946 12.2146 35.9643 12.0843C35.834 11.954 35.6531 11.8797 35.469 11.8797C35.2848 11.8797 35.1039 11.954 34.9747 12.0843C34.8437 12.216 34.7698 12.394 34.769 12.5797C34.7696 12.7652 34.8435 12.9429 34.9747 13.074C35.1058 13.2052 35.2835 13.2791 35.469 13.2797ZM32.8845 14.6796C33.0686 14.6796 33.2496 14.6042 33.3799 14.4739C33.5105 14.3425 33.5841 14.1649 33.5845 13.9796C33.5845 13.7944 33.5102 13.6146 33.3799 13.4843C33.2496 13.354 33.0686 13.2797 32.8845 13.2797C32.7004 13.2797 32.5194 13.354 32.3902 13.4843C32.259 13.6158 32.1851 13.7938 32.1845 13.9796C32.1851 14.1651 32.259 14.3428 32.3902 14.4739C32.5213 14.6051 32.699 14.679 32.8845 14.6796ZM26.854 38.1553C26.6699 38.1553 26.489 38.2296 26.3587 38.3599C26.2278 38.4915 26.1543 38.6696 26.1541 38.8552C26.1541 39.0394 26.2284 39.2192 26.3587 39.3495C26.489 39.4798 26.6699 39.5541 26.854 39.5541C27.0382 39.5541 27.218 39.4798 27.3483 39.3495C27.4797 39.2185 27.5537 39.0407 27.554 38.8552C27.554 38.6711 27.4797 38.4902 27.3483 38.3599C27.217 38.2292 27.0393 38.1557 26.854 38.1553ZM24.0004 7.67995C24.1845 7.67995 24.3654 7.60457 24.4957 7.47427C24.6266 7.34261 24.7001 7.16456 24.7003 6.97891C24.7003 6.79477 24.626 6.61493 24.4957 6.48463C24.3654 6.35433 24.1845 6.28003 24.0004 6.28003C23.8162 6.28003 23.6364 6.35433 23.5061 6.48463C23.3751 6.61588 23.3012 6.7935 23.3004 6.97891C23.3007 7.16457 23.3745 7.34255 23.5057 7.47393C23.6368 7.60531 23.8147 7.67939 24.0004 7.67995ZM24.0004 10.1061C24.1845 10.1061 24.3654 10.0318 24.4957 9.90153C24.6264 9.76975 24.6999 9.59177 24.7003 9.40617C24.7003 9.22203 24.626 9.04111 24.4957 8.91189C24.3654 8.78159 24.1845 8.70621 24.0004 8.70621C23.8162 8.70621 23.6364 8.78159 23.5061 8.91081C23.3751 9.04248 23.3012 9.22044 23.3004 9.40617C23.3004 9.59031 23.3758 9.77123 23.5061 9.90153C23.6353 10.0318 23.8162 10.1061 24.0004 10.1061ZM24.0004 15.4905C23.8162 15.4905 23.6364 15.5658 23.5061 15.6951C23.3751 15.8267 23.3012 16.0047 23.3004 16.1904C23.3004 16.3756 23.3758 16.5555 23.5061 16.6858C23.6364 16.8161 23.8162 16.8904 24.0004 16.8904C24.1845 16.8904 24.3654 16.8161 24.4957 16.6858C24.6264 16.554 24.6999 16.376 24.7003 16.1904C24.7003 16.0063 24.626 15.8254 24.4957 15.6951C24.3637 15.5648 24.1859 15.4914 24.0004 15.4905ZM21.6409 38.3599C21.5117 38.2296 21.3308 38.1553 21.1467 38.1553C20.9625 38.1553 20.7816 38.2296 20.6513 38.3599C20.5206 38.4912 20.4471 38.6689 20.4467 38.8541C20.4467 39.0394 20.521 39.2192 20.6513 39.3495C20.7816 39.4798 20.9625 39.5552 21.1467 39.5552C21.3308 39.5552 21.5106 39.4798 21.6409 39.3495C21.7721 39.2179 21.846 39.0399 21.8466 38.8541C21.8466 38.67 21.7712 38.4902 21.6409 38.3599ZM15.1162 14.6796C15.3004 14.6796 15.4813 14.6042 15.6116 14.4739C15.7424 14.3422 15.816 14.1642 15.8162 13.9785C15.8162 13.7944 15.7419 13.6146 15.6116 13.4843C15.4813 13.354 15.3004 13.2786 15.1162 13.2786C14.9321 13.2786 14.7522 13.354 14.6209 13.4843C14.4902 13.6156 14.4167 13.7933 14.4162 13.9785C14.4162 14.1638 14.4906 14.3436 14.6209 14.4739C14.7526 14.6047 14.9305 14.6786 15.1162 14.6796ZM12.5317 13.2797C12.7159 13.2797 12.8968 13.2043 13.0271 13.074C13.1578 12.9426 13.2313 12.765 13.2317 12.5797C13.2317 12.3945 13.1574 12.2146 13.0271 12.0843C12.8968 11.954 12.7159 11.8797 12.5317 11.8797C12.3476 11.8797 12.1678 11.954 12.0375 12.0843C11.9063 12.2159 11.8324 12.3939 11.8318 12.5797C11.8318 12.7638 11.9072 12.9437 12.0375 13.074C12.1687 13.2049 12.3463 13.2789 12.5317 13.2797ZM10.0549 11.5556C10.2391 11.5556 10.42 11.4813 10.5503 11.351C10.681 11.2196 10.7545 11.042 10.7549 10.8567C10.7549 10.6715 10.6806 10.4917 10.5503 10.3614C10.42 10.2311 10.2391 10.1567 10.0549 10.1567C9.8708 10.1567 9.69096 10.2311 9.56066 10.3614C9.42949 10.4929 9.35557 10.6709 9.35498 10.8567C9.35498 11.0409 9.43036 11.2207 9.56066 11.351C9.68989 11.4813 9.8708 11.5556 10.0549 11.5556ZM24.0004 14.798C25.103 14.798 26.0001 13.9009 26.0001 12.7983C26.0001 11.6957 25.103 10.7986 24.0004 10.7986C22.8976 10.7986 22.0006 11.6956 22.0006 12.7983C22.0006 13.901 22.8978 14.798 24.0004 14.798ZM24.0004 11.6601C24.628 11.6601 25.1386 12.1707 25.1386 12.7983C25.1386 13.4259 24.628 13.9365 24.0004 13.9365C23.3727 13.9365 22.8621 13.4259 22.8621 12.7983C22.8621 12.1707 23.3728 11.6601 24.0004 11.6601Z" fill="black"/>
<path d="M43.1703 14.8772C44.9879 13.2028 46.1965 9.90649 46.1965 7.78119C46.1965 4.78556 43.7589 2.3484 40.7627 2.3484C38.9011 2.3484 37.1766 3.31079 36.1861 4.8519C34.6964 3.90535 33.0134 3.30485 31.2609 3.09456C31.5698 2.25805 31.9747 1.58673 32.4506 1.12853C32.5404 1.04202 32.6033 0.931351 32.6317 0.809879C32.66 0.688407 32.6526 0.561326 32.6103 0.443977C32.568 0.326629 32.4927 0.224029 32.3934 0.148566C32.294 0.0731029 32.175 0.0280017 32.0506 0.0187076C30.2245 -0.117516 28.229 0.528388 26.2782 1.88685C25.2286 2.61729 24.4525 3.36905 24.0849 3.75037C24.0634 3.77255 24.0345 3.78483 23.9972 3.78483C23.9666 3.78483 23.9375 3.77288 23.9179 3.75252C23.5318 3.35118 22.7183 2.56485 21.6075 1.80792C19.6658 0.484667 17.7622 -0.117193 15.9486 0.0188153C15.8242 0.0281658 15.7052 0.0733156 15.6059 0.148815C15.5066 0.224314 15.4313 0.326935 15.3891 0.44429C15.3468 0.561646 15.3394 0.68872 15.3678 0.810173C15.3962 0.931627 15.4592 1.04227 15.549 1.12874C16.0247 1.58609 16.4296 2.2574 16.7384 3.09445C14.9863 3.30455 13.3036 3.90475 11.814 4.85093C10.8234 3.31036 9.09894 2.34829 7.23758 2.34829C4.2413 2.34829 1.80371 4.78545 1.80371 7.78108C1.80371 9.90423 3.0126 13.2006 4.83003 14.8769C4.57373 15.5951 4.35944 16.3285 4.19521 17.059C3.76554 18.9562 3.6305 20.9082 3.79484 22.8464C3.83457 23.3322 3.89703 23.8351 3.98038 24.3413C4.08225 25.1314 4.46034 27.892 5.14178 31.0315C6.05044 35.2169 7.10631 38.3059 8.28009 40.2126C8.35521 40.3347 8.46877 40.4283 8.60292 40.4787C8.73707 40.5292 8.88418 40.5336 9.02111 40.4913C9.15804 40.449 9.27702 40.3623 9.35932 40.245C9.44162 40.1277 9.48257 39.9863 9.47573 39.8431C9.38581 37.9534 9.77456 36.8091 10.1556 36.2253C10.4551 36.6881 10.8616 37.3549 11.3062 38.0844C13.0357 40.9219 15.6494 45.21 17.7842 47.2114C17.8868 47.3078 18.0181 47.368 18.1581 47.3829C18.2981 47.3978 18.4391 47.3665 18.5597 47.2939C18.6803 47.2212 18.7738 47.1112 18.8261 46.9805C18.8784 46.8498 18.8865 46.7056 18.8493 46.5698C18.5549 45.4918 18.5314 44.0594 18.5629 43.0542C19.0528 43.5316 19.5628 44.1287 20.0624 44.7137C21.2324 46.0837 22.4423 47.5002 23.7895 47.9646C23.9261 48.0119 24.0745 48.0118 24.211 47.9645C25.4286 47.5441 26.5409 46.3369 27.5762 45.1358C27.6941 44.9989 27.8116 44.8611 27.9287 44.7239C28.4314 44.1348 28.9448 43.5332 29.4377 43.0533C29.4698 44.0612 29.446 45.4875 29.1508 46.5701C29.1138 46.7059 29.122 46.85 29.1744 46.9806C29.2267 47.1112 29.3203 47.2212 29.4408 47.2937C29.5614 47.3663 29.7023 47.3975 29.8423 47.3827C29.9822 47.3678 30.1134 47.3077 30.2161 47.2114C32.3507 45.2102 34.9637 40.9223 36.6929 38.0849C37.1372 37.3558 37.5434 36.6893 37.8429 36.2264C38.2268 36.8128 38.6143 37.9562 38.5244 39.8431C38.5176 39.9863 38.5586 40.1276 38.6409 40.2449C38.7232 40.3623 38.8422 40.4489 38.9791 40.4912C39.116 40.5335 39.2631 40.5291 39.3972 40.4786C39.5314 40.4282 39.6449 40.3346 39.72 40.2125C42.495 35.7033 43.864 25.5471 44.0187 24.3412C44.1 23.8485 44.1619 23.3527 44.204 22.855C44.3699 20.9155 44.2357 18.962 43.806 17.0633C43.6377 16.3227 43.4254 15.5926 43.1703 14.8772ZM24.0002 43.0776C23.1748 43.0776 22.5033 42.4061 22.5033 41.5808C22.5033 40.7555 23.1749 40.0839 24.0002 40.0839C24.8255 40.0839 25.497 40.7555 25.497 41.5808C25.497 42.4061 24.8256 43.0776 24.0002 43.0776ZM24.0002 36.9912C19.6025 36.9912 15.432 35.5887 11.9396 32.9353C9.10992 30.7854 6.88576 27.8809 5.53796 24.6162C5.29211 24.0208 5.1364 23.3908 5.08341 22.7488L5.08266 22.7392C4.98012 21.5286 5.00282 20.3107 5.15039 19.1048C7.34731 23.7864 11.2313 27.5165 16.0463 29.5093C16.7744 30.881 18.2201 31.7598 19.7799 31.7598C19.831 31.7598 19.8828 31.7587 19.9351 31.7566C20.4427 33.5582 22.0942 34.8288 24.0003 34.8288C25.9053 34.8288 27.5566 33.5584 28.0651 31.7567C29.6883 31.8194 31.2016 30.9267 31.9527 29.5099C36.7688 27.5176 40.6536 23.7888 42.8508 19.109C42.998 20.3158 43.0201 21.5345 42.9167 22.7459L42.9159 22.7557C42.8605 23.4061 42.7006 24.0442 42.4504 24.6472C41.101 27.9003 38.8808 30.7939 36.0588 32.9372C32.5666 35.5893 28.3968 36.9912 24.0002 36.9912ZM6.61429 11.1619C5.9771 10.0739 5.53085 8.61134 5.53085 7.78119C5.53085 6.84065 6.2965 6.07543 7.23768 6.07543C7.90265 6.07543 8.51291 6.46676 8.79699 7.08176L8.95475 7.40245C8.56563 7.88254 8.21451 8.39222 7.90459 8.92687L6.61429 11.1619ZM7.61728 12.0093L9.02366 9.57352C9.24672 9.18799 9.49377 8.81686 9.76336 8.46231C12.4977 11.0282 15.8463 12.7983 19.4987 13.6048L23.5695 20.6565V24.9358H22.1007C21.8786 24.936 21.6598 24.9893 21.4625 25.0913C21.2652 25.1932 21.0952 25.3409 20.9666 25.522C20.8383 25.7033 20.7552 25.9127 20.7242 26.1326C20.6932 26.3526 20.7153 26.5768 20.7886 26.7865L21.1203 27.7308C21.404 28.5393 22.0082 29.1702 22.7594 29.5056L20.1442 30.8766C20.0234 30.8904 19.9018 30.8977 19.7802 30.8985C18.4928 30.8985 17.3011 30.1478 16.7444 28.9864C16.5273 28.5324 16.4171 28.0442 16.4171 27.5354C16.4171 26.8742 16.6084 26.2354 16.9737 25.6829C17.0135 25.621 17.0523 25.5652 17.0948 25.5098C17.9205 24.4155 18.6272 23.2696 19.1944 22.1051C19.4888 21.5055 19.7502 20.8903 19.9774 20.2622C20.0683 20.012 20.1536 19.7599 20.2332 19.506C20.3976 18.9813 20.3045 18.4251 19.9775 17.9801C19.6469 17.5301 19.1374 17.2719 18.5795 17.2719C18.4652 17.2719 18.3556 17.3173 18.2749 17.3981C18.1941 17.4789 18.1487 17.5884 18.1487 17.7027C18.1487 17.8169 18.1941 17.9265 18.2749 18.0073C18.3556 18.088 18.4652 18.1334 18.5795 18.1334C18.7166 18.1328 18.852 18.1648 18.9743 18.2268C19.0967 18.2889 19.2026 18.3791 19.2832 18.4901C19.446 18.7118 19.4926 18.9881 19.4109 19.2491C19.3498 19.444 19.2851 19.6378 19.2167 19.8303L17.7621 18.7871C17.2786 18.4414 16.6056 18.5512 16.2588 19.0348C15.9131 19.5183 16.023 20.1913 16.5065 20.5381C16.5065 20.5381 18.2903 21.8045 18.3658 21.8355C17.8427 22.8916 17.2004 23.9306 16.4559 24.9249C15.679 24.6072 14.923 24.2407 14.1923 23.8277C14.6552 23.0751 14.8987 22.216 14.8987 21.3157C14.8987 18.6585 12.7369 16.4967 10.0797 16.4967C9.08551 16.4968 8.11565 16.8044 7.30316 17.3775C6.8501 16.6874 6.44035 15.9698 6.07628 15.2289C6.07984 15.2192 6.19237 14.9131 6.24341 14.7825C6.48975 14.1552 6.77199 13.5426 7.08875 12.9477C7.1721 12.7902 7.61728 12.0093 7.61728 12.0093ZM28.5018 13.6047C32.156 12.7978 35.5048 11.0278 38.2377 8.46274C38.5068 8.81695 38.7531 9.18781 38.9754 9.57309L40.4378 12.1059C40.4378 12.1059 40.7382 12.6301 40.7796 12.7052C41.1496 13.3755 41.476 14.0689 41.7568 14.7812C41.8135 14.929 41.8691 15.0772 41.9236 15.2258C41.5591 15.9673 41.1491 16.6857 40.696 17.3767C39.8839 16.8039 38.9145 16.4963 37.9207 16.4962C35.2635 16.4962 33.1017 18.658 33.1017 21.3151C33.1017 22.2144 33.3453 23.0734 33.8085 23.827C33.0777 24.2401 32.3216 24.6066 31.5447 24.9245C30.7994 23.9289 30.1579 22.8909 29.6348 21.8351C29.7103 21.8041 31.4941 20.5377 31.4941 20.5377C31.9776 20.191 32.0874 19.5179 31.7418 19.0344C31.395 18.5509 30.722 18.4411 30.2385 18.7868L28.7838 19.83C28.7154 19.6373 28.6506 19.4433 28.5895 19.2481C28.5079 18.9879 28.5546 18.7116 28.7174 18.4899C28.798 18.3789 28.9039 18.2886 29.0262 18.2266C29.1486 18.1646 29.2839 18.1326 29.4211 18.1332C29.5354 18.1332 29.6449 18.0878 29.7257 18.007C29.8065 17.9263 29.8519 17.8167 29.8519 17.7025C29.8519 17.5882 29.8065 17.4787 29.7257 17.3979C29.6449 17.3171 29.5354 17.2717 29.4211 17.2717C28.8632 17.2717 28.3536 17.5298 28.0231 17.9799C27.6962 18.425 27.6029 18.9811 27.7673 19.5051C27.8469 19.7594 27.9323 20.0118 28.0232 20.2622C28.2504 20.8898 28.5116 21.5046 28.8057 22.1038C29.3735 23.2695 30.0802 24.4154 30.9079 25.5123C30.9483 25.565 30.9873 25.6208 31.0305 25.6881C31.3923 26.2353 31.5837 26.8741 31.5837 27.5353C31.5837 28.0352 31.4774 28.5152 31.2678 28.9623C31.2635 28.9701 31.2593 28.9781 31.2555 28.9862C30.6997 30.1478 29.5085 30.8984 28.2206 30.8984C28.1025 30.8984 27.9819 30.8901 27.8566 30.8765L25.2427 29.5061C25.4262 29.4249 25.6014 29.3257 25.7655 29.2101C26.2821 28.8449 26.6719 28.3276 26.8803 27.7302L27.2107 26.786C27.284 26.5764 27.3061 26.3523 27.2751 26.1324C27.2441 25.9124 27.161 25.7031 27.0326 25.5219C26.9041 25.3408 26.734 25.1931 26.5368 25.0912C26.3395 24.9892 26.1207 24.9359 25.8986 24.9357H24.4308V20.6564L28.5018 13.6047ZM41.3859 11.1635L40.0948 8.9274C39.7876 8.39435 39.4339 7.88338 39.0459 7.4031L39.2079 7.07229C39.4874 6.46677 40.0977 6.07543 40.7627 6.07543C41.7044 6.07543 42.4706 6.84065 42.4706 7.78119C42.4706 8.61102 42.0237 10.0747 41.3859 11.1635ZM36.7799 21.7711C36.6967 21.6033 36.6534 21.4185 36.6534 21.2312C36.6534 20.5585 37.2007 20.0112 37.8734 20.0112C38.0883 20.0112 38.2973 20.0686 38.4807 20.1737C37.945 20.7385 37.3772 21.2719 36.7799 21.7711ZM39.0652 19.527C38.7159 19.2822 38.2999 19.1505 37.8734 19.1497C36.7257 19.1497 35.7919 20.0834 35.7919 21.2312C35.7919 21.6188 35.8994 21.9899 36.0969 22.3134C35.5974 22.6942 35.0804 23.0517 34.5478 23.3846C34.1648 22.7645 33.9633 22.0566 33.9633 21.3152C33.9633 19.1331 35.7387 17.3578 37.9208 17.3578C38.7396 17.3578 39.5382 17.612 40.2064 18.0854C39.8483 18.5832 39.4675 19.0642 39.0652 19.527ZM34.6463 24.3374C35.4535 23.855 36.2347 23.3143 36.9683 22.7299C37.8478 22.0278 38.6694 21.2562 39.4253 20.4225C40.5399 19.1943 41.5037 17.8373 42.2961 16.3803C42.3885 16.7006 42.4717 17.0235 42.5457 17.3485C42.5605 17.4136 42.5741 17.4791 42.5881 17.5444C40.7089 22.3427 37.0305 26.2362 32.3571 28.3934C32.4146 28.1136 32.445 27.8273 32.445 27.5353C32.4452 26.8867 32.2953 26.2468 32.0071 25.6658C32.9172 25.286 33.7991 24.8421 34.6463 24.3374ZM25.8987 25.7972C26.0723 25.7972 26.2294 25.8785 26.33 26.0203C26.3794 26.089 26.4114 26.1686 26.4232 26.2524C26.435 26.3362 26.4262 26.4216 26.3977 26.5013L26.0673 27.4453C25.9177 27.874 25.638 28.2453 25.2672 28.5073C24.8972 28.7703 24.4543 28.9113 24.0003 28.9104H24.0001C23.0711 28.9104 22.2405 28.3216 21.933 27.4453L21.6015 26.5011C21.573 26.4214 21.5643 26.336 21.5762 26.2523C21.588 26.1685 21.6199 26.0889 21.6693 26.0202C21.7178 25.9509 21.7824 25.8944 21.8575 25.8555C21.9326 25.8167 22.016 25.7967 22.1006 25.7972H25.8987ZM27.2354 31.5236C26.8302 32.9568 25.5162 33.9673 24.0002 33.9673C22.4832 33.9673 21.1692 32.9568 20.7647 31.5237L24.0002 29.8275L27.2354 31.5236ZM11.2205 21.7711C10.6228 21.2719 10.0546 20.7385 9.5187 20.1737C9.70344 20.0675 9.91275 20.0114 10.1258 20.0112C10.7992 20.0112 11.347 20.5585 11.347 21.2312C11.347 21.4214 11.3025 21.6048 11.2205 21.7711ZM10.1258 19.1497C9.69649 19.1497 9.28136 19.2848 8.93407 19.5271C8.53156 19.0644 8.15069 18.5834 7.7927 18.0855C8.46126 17.612 9.2603 17.3578 10.0795 17.3578C12.2617 17.3578 14.037 19.1331 14.037 21.3152C14.037 22.0577 13.8356 22.7657 13.4529 23.3849C12.9202 23.0519 12.4032 22.6944 11.9035 22.3135C12.1031 21.9878 12.2087 21.6133 12.2086 21.2313C12.2085 20.0834 11.2742 19.1497 10.1258 19.1497ZM5.4559 17.3434C5.52909 17.0206 5.61158 16.7 5.70326 16.382C6.05199 17.0226 6.43416 17.6443 6.84818 18.2448C7.37385 19.0084 7.95027 19.7358 8.57353 20.4221C9.32993 21.2561 10.1521 22.0279 11.0322 22.7301C11.7696 23.317 12.5454 23.854 13.3543 24.3376C14.2014 24.8423 15.0832 25.2862 15.9932 25.6659C15.7049 26.2469 15.555 26.8867 15.5552 27.5353C15.5552 27.8273 15.5855 28.1135 15.6431 28.3933C10.9703 26.2357 7.29228 22.3406 5.41315 17.5403C5.42747 17.4746 5.44115 17.4089 5.4559 17.3434ZM40.7627 3.64064C43.0464 3.64064 44.9043 5.49812 44.9043 7.78119C44.9043 9.44398 43.9665 12.0776 42.6465 13.5658C42.4109 13.0355 42.1514 12.5161 41.8686 12.0094C42.6784 10.8231 43.3321 8.98243 43.3321 7.78119C43.3321 6.36554 42.1794 5.21394 40.7627 5.21394C39.7642 5.21394 38.8481 5.80018 38.4317 6.69894C38.0601 6.30766 37.6622 5.94235 37.2406 5.6056C37.9896 4.39843 39.3215 3.64064 40.7627 3.64064ZM29.8769 4.04899C29.9336 4.12724 30.0072 4.19176 30.0922 4.23779C30.1772 4.28383 30.2715 4.3102 30.368 4.31497C32.4118 4.4163 34.3701 5.10518 36.0314 6.30707C36.6344 6.7432 37.1895 7.24394 37.6868 7.79788C35.2551 10.0922 32.3121 11.7279 29.0963 12.5747L30.3089 10.4743C30.3468 10.4089 30.3667 10.3346 30.3668 10.2589C30.3668 10.1833 30.3469 10.109 30.3091 10.0435C30.2713 9.97797 30.2169 9.92358 30.1513 9.88579C30.0858 9.848 30.0115 9.82814 29.9359 9.8282H27.2329V2.80058C28.1294 2.20442 29.3292 1.57984 30.6449 1.36813C30.29 1.97042 29.9996 2.68287 29.7767 3.49957C29.7512 3.59281 29.747 3.69057 29.7643 3.78566C29.7817 3.88074 29.8201 3.97073 29.8769 4.04899ZM22.9868 4.64901C23.2492 4.92114 23.6172 5.07718 24.0034 5.07718C24.3812 5.07718 24.7487 4.92168 25.0135 4.64901C25.2692 4.38378 25.7394 3.92439 26.3713 3.42613V10.2591C26.3713 10.3733 26.4167 10.4829 26.4975 10.5636C26.5783 10.6444 26.6878 10.6898 26.8021 10.6898H29.1897L24.0002 19.6794L18.8105 10.6898H21.1992C21.3135 10.6898 21.4231 10.6444 21.5038 10.5636C21.5846 10.4829 21.63 10.3733 21.63 10.2591V3.42774C22.2952 3.95282 22.7761 4.42998 22.9868 4.64901ZM18.2226 3.49957C17.9997 2.68255 17.7092 1.9701 17.3546 1.36802C18.6813 1.58178 19.8868 2.21465 20.7685 2.80144V9.8282H18.0645C17.9889 9.82814 17.9145 9.848 17.849 9.88579C17.7835 9.92358 17.7291 9.97797 17.6913 10.0435C17.6535 10.109 17.6336 10.1833 17.6336 10.2589C17.6336 10.3346 17.6536 10.4089 17.6915 10.4743L18.904 12.5747C15.6896 11.7279 12.7464 10.0918 10.3134 7.79659C10.8107 7.24218 11.3657 6.74248 11.9691 6.30599C13.6292 5.10485 15.5872 4.41641 17.6313 4.31497C17.7278 4.31012 17.822 4.2837 17.9069 4.23764C17.9919 4.19159 18.0654 4.12707 18.1222 4.04884C18.1789 3.97062 18.2173 3.88066 18.2347 3.78561C18.2521 3.69055 18.248 3.59281 18.2226 3.49957ZM3.09606 7.78119C3.09606 5.49812 4.95397 3.64064 7.23768 3.64064C8.67864 3.64064 10.0104 4.39811 10.7597 5.60463C10.3378 5.94132 9.93963 6.3067 9.56802 6.69818C9.14535 5.79631 8.2326 5.21405 7.23768 5.21405C5.8215 5.21405 4.66936 6.36576 4.66936 7.7813C4.66936 8.98308 5.32237 10.8228 6.13163 12.0083C5.84844 12.5149 5.58878 13.0343 5.35349 13.5648C4.03379 12.0749 3.09606 9.44204 3.09606 7.78119ZM21.0451 43.8745C20.1202 42.7915 19.2465 41.7685 18.3263 41.2154C18.2333 41.1595 18.1278 41.1279 18.0195 41.1236C17.9112 41.1192 17.8035 41.1422 17.7063 41.1904C17.6092 41.2386 17.5257 41.3104 17.4637 41.3993C17.4016 41.4882 17.3629 41.5913 17.3512 41.6991C17.3489 41.7201 17.1965 43.155 17.2853 44.739C15.5824 42.6174 13.7319 39.5815 12.4097 37.412C11.5105 35.9367 11.0276 35.1509 10.7335 34.8085C10.6367 34.6958 10.504 34.6199 10.3578 34.5936C10.2116 34.5673 10.0607 34.5922 9.93071 34.6641C9.7807 34.747 8.75542 35.382 8.34233 37.4239C7.03265 34.1962 6.1479 29.7565 5.67063 26.8976C7.08057 29.5053 9.0452 31.8181 11.4186 33.6213C14.9479 36.3027 19.1407 37.7597 23.5695 37.8485V39.2627C22.4743 39.4658 21.6419 40.4277 21.6419 41.5809C21.6419 42.7341 22.4743 43.6961 23.5695 43.8991V46.4118C22.7436 45.8615 21.8831 44.8556 21.0451 43.8745ZM39.6594 37.4227C39.2459 35.3704 38.2146 34.7429 38.0638 34.6613C37.934 34.591 37.7841 34.5672 37.6389 34.594C37.4938 34.6207 37.3622 34.6964 37.266 34.8084C36.9718 35.1508 36.4888 35.9368 35.5896 37.4124C34.2674 39.5821 32.4173 42.6182 30.7144 44.7398C30.7922 43.3465 30.684 42.0583 30.6506 41.711C30.6407 41.602 30.6033 41.4973 30.5419 41.4068C30.4805 41.3162 30.3971 41.2427 30.2996 41.1932C30.202 41.1436 30.0935 41.1197 29.9841 41.1235C29.8748 41.1274 29.7682 41.159 29.6744 41.2153C28.7511 41.7697 27.8742 42.7972 26.9459 43.8851C26.8299 44.021 26.7136 44.1574 26.5973 44.2925C25.9195 45.0789 25.1614 45.92 24.4311 46.4094V43.8989C25.5264 43.6958 26.3587 42.734 26.3587 41.5808C26.3587 40.4276 25.5264 39.4657 24.4311 39.2626V37.8484C28.8589 37.7596 33.0509 36.3034 36.5798 33.6234C38.9545 31.8198 40.9202 29.5062 42.3308 26.8975C41.8553 29.7542 40.9726 34.1907 39.6594 37.4227Z" fill="black"/>
</g>
<defs>
<clipPath id="clip0_2779_88">
<rect width="48" height="48" fill="white"/>
</clipPath>
</defs>
</svg>
