<svg width="48" height="48" viewBox="0 0 48 48" fill="none" xmlns="http://www.w3.org/2000/svg">
<path d="M47.0552 16.376C47.1171 16.2603 47.1495 16.1312 47.1496 16C47.2544 8.35919 39.0088 5.15679 32.5736 7.23759C26.2944 9.29599 23.944 16.3752 19.54 20.6008C19.0067 21.1172 18.4159 21.5705 17.7792 21.952C16.6512 22.644 15.0112 22.2472 14.3824 21.0768C14.0256 20.4784 14.0616 19.7568 14.1112 19.0728C14.1808 17.6272 14.9144 16.3856 16.3424 15.9824C17.02 15.7664 17.7416 15.7328 18.508 15.708C20.252 15.7536 21.9592 14.6072 22.7064 13.0592C23.1872 12.0736 23.5984 11.0312 23.592 9.94239C23.496 9.27759 22.88 8.75839 22.2016 8.79759C21.2368 9.00879 20.428 9.37839 19.42 9.24239C16.2576 8.28319 13.4096 8.23279 12.0144 10.9632C10.7352 8.47039 7.94638 8.06239 5.02798 9.08399C4.34078 9.22959 3.63918 9.17759 2.94958 8.99999C2.27278 8.78399 1.50318 8.43839 0.859978 8.96719C0.415978 9.28719 0.184778 9.87359 0.280778 10.4168C0.301578 10.5936 0.400778 10.9768 0.428778 11.1488C1.04958 13.9896 2.95358 16.0712 6.05118 15.9464C8.47598 15.9864 9.78718 17.3648 9.63118 19.8232C9.26318 28.888 14.6704 33.9952 22.7976 36.6536C22.6896 37.908 22.4784 39.1472 22.1248 40.3448C22.0008 40.7496 21.7832 41.2512 21.8136 41.684C21.7944 43.084 23.3328 44.1384 24.628 43.6112L25.216 43.3808C28.2576 42.228 30.3488 40.3152 31.6784 37.9856C32.6722 37.8757 33.6557 37.6876 34.62 37.4232C34.4317 38.1059 34.197 38.7749 33.9176 39.4256C33.3888 40.7472 34.3968 42.3624 35.8552 42.4448C36.2048 42.4872 36.5944 42.3968 36.868 42.3048C37.5776 42.0552 38.336 41.744 38.9992 41.3904C43.7304 39.0544 46.0104 33.608 45.3408 28.5192C46.6368 25.872 47.3792 22.9368 47.6712 20.0208C47.704 18.956 48.0696 17.7776 47.4272 16.7952C47.3243 16.6383 47.1989 16.4974 47.0552 16.3768V16.376ZM24.8512 42.484L24.3008 42.7048C23.6072 42.9856 22.7952 42.4112 22.8144 41.6704C22.7896 41.408 23.0256 40.896 23.0936 40.648C24.0936 37.412 24.236 34.0528 24.1584 30.7312C24.1096 29.7 22.5704 29.8112 22.6632 30.8344C22.8294 32.2419 22.9013 33.6589 22.8784 35.076C19.2384 33.7064 15.5856 31.8088 13.4072 28.5344C12.2592 26.8728 11.6248 24.9168 11.3504 22.9176C10.9448 19.3056 11.916 15.3352 6.99758 14.5768C6.48638 14.4872 5.85678 14.4904 5.33438 14.4624C3.10718 14.4472 1.93038 12.1672 1.61838 10.1856C1.60478 10.096 1.66798 9.98239 1.78638 10.0264C2.62158 10.3368 3.49438 10.5104 4.40078 10.4736C4.97998 10.4544 5.57038 10.3024 6.11838 10.116C7.41198 9.72079 9.08798 9.60799 10.128 10.5016C10.8096 11.0544 11.208 11.9576 11.4104 12.9184C11.4359 13.0563 11.5088 13.1808 11.6166 13.2705C11.7244 13.3602 11.8602 13.4093 12.0004 13.4093C12.1406 13.4093 12.2764 13.3602 12.3841 13.2705C12.4919 13.1808 12.5649 13.0563 12.5904 12.9184C12.8608 11.5104 13.6128 10.2408 14.9328 9.91439C16.3832 9.44159 17.8544 10.1416 19.3128 10.3624C20.2976 10.4504 21.248 10.2632 22.1392 9.92959C22.328 9.82319 22.5624 9.99039 22.5112 10.2248C22.1792 12.4408 20.8992 14.7048 18.4872 14.6808C17.6992 14.7128 16.8472 14.7544 16.032 15.0232C14.3088 15.4664 13.1552 17.2912 13.1448 19.0008C12.6232 22.0264 15.5304 24.3104 18.2736 22.8024C22.9952 19.7576 25.0216 14.1248 29.0816 10.4976C34.2928 5.54159 45.76 7.51679 45.6496 15.7776C45.2016 15.6984 44.7352 15.6696 44.304 15.6288C42.2848 15.4624 40.0144 15.9464 38.4184 17.2504C36.2736 18.8888 33.356 20.5592 30.9952 20.7408L29.6 20.8512L29.516 20.8576C28.5584 20.948 28.6472 22.368 29.6 22.3488L30.5616 22.3184C32.8528 29.8384 33.516 38.9888 24.8512 42.484ZM32.1096 22.1656C34.8344 21.6792 37.1888 20.1144 39.3112 18.4496C41.1608 16.892 43.7872 16.648 46.0688 17.2184C46.548 17.532 46.5968 17.7896 46.5624 18.5112C46.5384 19.5027 46.4631 20.4923 46.3368 21.476C46.0536 21.3016 45.7 21.116 45.316 20.9384C44.744 20.6744 44.1216 20.4312 43.6296 20.2832C43.1376 20.1352 42.7768 20.0808 42.728 20.1944C42.6948 20.2395 42.6809 20.2959 42.6893 20.3513C42.6977 20.4066 42.7277 20.4564 42.7728 20.4896C43.6617 21.0903 44.6289 21.5662 45.6472 21.904C45.844 21.9688 46.0472 22.0184 46.2488 22.0728C46.216 22.288 46.1848 22.504 46.1464 22.7184C46.0856 23.0928 46.0072 23.4584 45.9288 23.824C45.8552 23.7712 45.7904 23.72 45.7056 23.6656C45.3302 23.4293 44.9445 23.2099 44.5496 23.008C44.4032 22.9312 44.2768 22.8632 44.1864 22.8176C43.7995 22.6264 43.407 22.4466 43.0096 22.2784C42.8924 22.2281 42.7742 22.1801 42.6552 22.1344C42.3256 22.0088 42.032 21.912 41.8096 21.8776C41.7304 21.8656 41.6664 21.8904 41.6336 21.9384C41.6082 21.9724 41.5941 22.0135 41.5931 22.0559C41.5921 22.0983 41.6043 22.14 41.628 22.1752C41.652 22.2088 41.6816 22.24 41.7176 22.2664C42.378 22.742 43.0761 23.1631 43.8048 23.5256L43.844 23.5456C44.2128 23.7304 44.588 23.9 44.9696 24.0552C45.2448 24.168 45.528 24.2632 45.8096 24.3608C45.67 24.9253 45.5058 25.4834 45.3176 26.0336C45.2336 25.972 45.1584 25.9128 45.064 25.8496C44.6464 25.5777 44.2197 25.3199 43.7848 25.0768C43.6016 24.972 43.4608 24.8864 43.3896 24.8448C42.9624 24.5992 42.5176 24.3848 42.0872 24.176C41.9512 24.1104 41.816 24.0448 41.6808 23.9848C41.3773 23.8439 41.0652 23.7223 40.7464 23.6208C40.7095 23.6084 40.6698 23.6076 40.6324 23.6184C40.5951 23.6293 40.562 23.6514 40.5376 23.6816C40.5072 23.7197 40.4917 23.7676 40.4939 23.8162C40.4961 23.8649 40.5159 23.9112 40.5496 23.9464C40.5832 23.98 40.62 24.012 40.6592 24.0416C41.4022 24.5941 42.1819 25.0955 42.9928 25.5424L43.0368 25.5664C43.4472 25.7928 43.8656 26.0056 44.2904 26.2048C44.5656 26.3336 44.8488 26.4472 45.1296 26.5648C44.9396 27.0801 44.7269 27.5867 44.492 28.0832L44.4216 28.0336C43.6704 27.5192 42.7256 26.9832 42.592 26.872C42.1176 26.6032 41.6456 26.3312 41.164 26.0736C40.6824 25.816 40.1928 25.5744 39.6832 25.364C39.637 25.3446 39.5853 25.3425 39.5377 25.3582C39.4901 25.3738 39.4498 25.4061 39.4241 25.4491C39.3984 25.4921 39.3891 25.543 39.3979 25.5923C39.4067 25.6416 39.433 25.6861 39.472 25.7176C40.7702 26.719 42.1558 27.6017 43.612 28.3552C43.8064 28.456 44.008 28.544 44.2048 28.64C43.9888 29.0528 43.7576 29.4536 43.512 29.8424L43.5088 29.84C43.4412 29.7833 43.3723 29.7281 43.3024 29.6744C42.9475 29.4101 42.5818 29.1605 42.2064 28.9264C42.0869 28.8508 41.9685 28.7734 41.8512 28.6944C41.4872 28.448 41.0896 28.2512 40.7064 28.0504C40.6417 28.016 40.5767 27.9824 40.5112 27.9496C40.1874 27.7835 39.8525 27.6402 39.5088 27.5208C39.477 27.5103 39.4428 27.5094 39.4105 27.5182C39.3782 27.5271 39.3492 27.5452 39.3272 27.5704C39.2672 27.6384 39.2656 27.7368 39.32 27.7976C39.412 27.9 39.5176 28.0056 39.6368 28.104C40.2478 28.6053 40.8967 29.0587 41.5776 29.46C41.914 29.6594 42.2574 29.8468 42.6072 30.0216C42.8064 30.1208 43.0128 30.2072 43.2168 30.2984C42.9425 30.704 42.6499 31.0969 42.34 31.476C42.3328 31.468 42.3288 31.4608 42.3208 31.4528C42.2765 31.4053 42.2306 31.3594 42.1832 31.3152C41.9297 31.0907 41.6608 30.8843 41.3784 30.6976L41.1104 30.5168C40.8331 30.3365 40.5454 30.1728 40.2488 30.0264C40.2008 30.0018 40.1526 29.9777 40.104 29.9544C39.8208 29.8176 39.5536 29.7176 39.3344 29.6768C39.3126 29.6729 39.2902 29.6743 39.269 29.6809C39.2479 29.6874 39.2286 29.6989 39.2128 29.7144C39.1648 29.7616 39.1496 29.8264 39.168 29.876C39.2041 29.974 39.2612 30.063 39.3352 30.1368C39.7552 30.5461 40.2206 30.906 40.7224 31.2096C40.9472 31.348 41.1792 31.476 41.4176 31.5936L41.4872 31.6272C41.66 31.7104 41.8408 31.7784 42.02 31.8496C41.7 32.2144 41.3624 32.5608 41.0112 32.892C40.8736 32.7344 40.719 32.5925 40.5504 32.4688C40.2852 32.2685 39.9989 32.0976 39.6968 31.9592C39.4256 31.84 39.1968 31.788 39.0984 31.8592C39.0487 31.8919 39.0141 31.9429 39.0019 32.001C38.9898 32.0592 39.0012 32.1198 39.0336 32.1696C39.3787 32.633 39.8378 32.9993 40.3664 33.2328C40.428 33.26 40.4968 33.276 40.5608 33.3C38.3328 35.2352 35.5256 36.5072 32.236 36.8904C34.2008 32.5176 33.8168 26.972 32.112 22.1616L32.1096 22.1656ZM40.4864 38.4192C39.188 39.5464 37.6048 40.5776 35.936 41.0272C35.3912 41.0616 34.8688 40.4208 35.0608 39.8024C35.3096 38.9512 35.5056 38.0344 35.5984 37.1344C37.964 36.3448 40.1832 35.0776 41.9752 33.328C42.8699 32.4219 43.6617 31.4195 44.336 30.3392C43.9576 33.4032 42.832 36.3512 40.4864 38.4192Z" fill="black"/>
<path d="M31.1999 17.6C31.6417 17.6 31.9999 17.2418 31.9999 16.8C31.9999 16.3582 31.6417 16 31.1999 16C30.7581 16 30.3999 16.3582 30.3999 16.8C30.3999 17.2418 30.7581 17.6 31.1999 17.6Z" fill="black"/>
<path d="M5.60381 32C5.68381 34.9304 9.77101 34.7376 9.80781 32C9.75741 29.2968 5.73741 29.148 5.60381 32ZM7.19661 32C7.13901 30.5576 9.33421 30.4184 9.39261 32C9.31901 33.556 7.23261 33.3832 7.19661 32ZM6.60781 2.39998C6.55741 -0.30322 2.53741 -0.45202 2.40381 2.39998C2.48381 5.33038 6.57101 5.13758 6.60781 2.39998ZM6.19181 2.39998C6.11821 3.95598 4.03181 3.78318 3.99581 2.39998C3.93821 0.95758 6.13341 0.81838 6.19181 2.39998ZM14.4038 41.6C14.4838 44.5304 18.571 44.3376 18.6078 41.6C18.5574 38.8968 14.5374 38.748 14.4038 41.6ZM15.9966 41.6C15.939 40.1576 18.1342 40.0184 18.1926 41.6C18.119 43.156 16.0326 42.9832 15.9966 41.6Z" fill="black"/>
<path d="M8.8 5.6C9.24183 5.6 9.6 5.24183 9.6 4.8C9.6 4.35817 9.24183 4 8.8 4C8.35817 4 8 4.35817 8 4.8C8 5.24183 8.35817 5.6 8.8 5.6Z" fill="black"/>
<path d="M12.8 46.3999C13.2418 46.3999 13.6 46.0418 13.6 45.5999C13.6 45.1581 13.2418 44.7999 12.8 44.7999C12.3582 44.7999 12 45.1581 12 45.5999C12 46.0418 12.3582 46.3999 12.8 46.3999Z" fill="black"/>
<path d="M4.8 27.2C5.24183 27.2 5.6 26.8418 5.6 26.4C5.6 25.9581 5.24183 25.6 4.8 25.6C4.35817 25.6 4 25.9581 4 26.4C4 26.8418 4.35817 27.2 4.8 27.2Z" fill="black"/>
<path d="M43.1962 3.20002C43.0634 0.348821 39.0426 0.49602 38.9922 3.20002C39.0282 5.93682 43.1162 6.13122 43.1962 3.20002ZM41.6034 3.20002C41.5682 4.58322 39.4818 4.75602 39.4074 3.20002C39.4658 1.61922 41.6602 1.75682 41.6034 3.20002Z" fill="black"/>
<path d="M45.5998 2.39993C46.0416 2.39993 46.3998 2.04175 46.3998 1.59993C46.3998 1.1581 46.0416 0.799927 45.5998 0.799927C45.158 0.799927 44.7998 1.1581 44.7998 1.59993C44.7998 2.04175 45.158 2.39993 45.5998 2.39993Z" fill="black"/>
</svg>
