<svg width="48" height="48" viewBox="0 0 48 48" fill="none" xmlns="http://www.w3.org/2000/svg">
<path d="M40.0873 7.27196C40.1259 7.04049 40.1645 6.78973 40.1645 6.55826C40.1645 4.43646 38.4477 2.71972 36.3259 2.71972C35.6122 2.71972 34.9564 2.91261 34.3777 3.25982C33.9919 3.49129 33.4904 3.39484 33.2011 3.02835C32.3331 1.89029 30.9635 1.17659 29.4204 1.17659C29.2661 1.17659 29.1118 1.17659 28.9575 1.19588C27.5108 1.3309 26.0448 1.09943 24.6367 0.694358C24.1352 0.559334 23.6144 0.482178 23.055 0.482178C22.1484 0.482178 21.2804 0.694358 20.5088 1.08014C19.0043 1.83242 17.3647 2.14105 15.6865 2.06389H15.4551C13.3911 2.06389 11.6551 3.45271 11.115 5.32376C10.8257 6.32679 10.1698 7.15623 9.34039 7.77348C8.41451 8.48718 7.77797 9.54808 7.60436 10.7247C7.46934 11.9592 7.14142 13.1937 6.65919 14.3511C5.67545 16.7044 5.90692 19.5206 7.50792 21.7581C8.22162 22.7612 8.16375 24.0921 7.41147 25.0566C5.92621 26.9469 6.17697 29.7053 8.0673 31.287C8.68456 31.8078 8.9546 32.4057 9.07034 33.158C9.26323 34.4697 10.4013 35.4727 11.7322 35.5113C13.2947 35.5499 14.5485 34.2961 14.5485 32.7529C14.5485 32.155 14.3556 31.5956 14.0277 31.1519C14.915 30.3225 15.4743 29.1459 15.4743 27.8342C15.4743 26.7347 15.0693 25.7124 14.4134 24.9408C18.3291 24.5936 21.4154 21.3145 21.4154 17.3023C21.4154 14.4282 19.8337 11.9014 17.4804 10.5897C17.8855 10.3775 18.2713 10.1268 18.5992 9.79884C20.7789 12.5186 24.8489 12.6729 27.2407 10.146C29.2661 11.207 31.793 10.6669 33.2204 8.79581L33.394 9.02728C33.3554 9.25875 33.3168 9.50951 33.3168 9.74098C33.3168 11.9978 35.2843 13.811 37.599 13.5409C39.3157 13.348 40.7238 11.9785 40.9553 10.2618C41.1096 9.14301 40.7624 8.06282 40.0873 7.27196Z" fill="#AFAFAF"/>
<path d="M3.28369 47.5091H45.0447V41.2594L35.1494 40.5457C31.5809 40.295 28.8032 37.3244 28.8032 33.7367V21.3723H11.6938V32.7915C11.6938 38.829 8.49176 44.4422 3.28369 47.5091Z" fill="#EFEFEF"/>
<path d="M29.2858 36.283H26.566C21.5123 36.283 17.2301 32.9652 15.7834 28.3937C15.6484 28.8759 15.4169 29.3389 15.1083 29.7246C15.9956 32.0586 14.086 34.4891 11.6362 34.1997C11.6748 33.7368 11.6941 33.2546 11.6941 32.7723V21.3531H28.8036V33.7175C28.8036 34.6434 28.9772 35.4921 29.2858 36.283Z" fill="#AFAFAF"/>
<path d="M14.6063 27.275C14.6063 26.7734 14.452 26.2912 14.2205 25.8861C14.5291 25.4425 14.7027 24.9024 14.6834 24.3237C14.6449 22.9928 13.5454 21.874 12.1951 21.8354C10.7292 21.7776 9.51394 22.9542 9.51394 24.4202C9.51394 24.8638 9.62968 25.2882 9.82257 25.6547C9.47536 26.0983 9.26318 26.677 9.26318 27.2943C9.26318 28.278 9.78399 29.1267 10.5748 29.5897C10.2084 29.9947 9.99617 30.5348 10.054 31.1521C10.1505 32.0587 10.8835 32.7917 11.7901 32.9074C12.986 33.0424 13.989 32.1165 13.989 30.9399C13.989 30.612 13.9119 30.3226 13.7768 30.0526C13.6225 29.744 13.6804 29.3582 13.9312 29.0881C14.3362 28.5866 14.6063 27.9501 14.6063 27.275Z" fill="#AFAFAF"/>
<path d="M37.3294 16.2993L36.6736 9.16235H16.6128V16.4537H15.8991C13.5459 16.4537 11.6362 18.3633 11.6362 20.7166C11.6362 23.0698 13.5459 24.9795 15.8991 24.9795H16.6128C16.6128 30.4769 21.0686 34.9327 26.566 34.9327H32.0442C32.5457 34.9327 32.97 34.5662 33.0279 34.0647L34.0117 26.3683H35.8634C36.4807 26.3683 36.9436 25.8089 36.8472 25.2109L35.6705 18.1897C35.5934 17.7846 35.9213 17.3988 36.3264 17.3988C36.9243 17.3795 37.3873 16.878 37.3294 16.2993Z" fill="#EFEFEF"/>
<path d="M36.9436 11.9979C35.6319 12.538 34.0888 12.4801 32.8157 11.805C32.5263 12.1522 32.1984 12.4801 31.8319 12.7501C31.5812 12.943 31.369 13.0973 31.2147 13.2709C30.1731 14.4283 28.7071 15.0841 27.164 15.1034C26.4888 16.3572 25.3508 17.3024 23.9812 17.746C23.499 17.9003 23.1132 18.2668 22.9782 18.7105L21.7823 22.5683C21.0879 24.7866 19.0625 26.2911 16.7478 26.3297L16.6514 9.16235H36.7121L36.9436 11.9979Z" fill="#AFAFAF"/>
<path d="M16.6127 24.9793C18.368 24.9793 19.9304 23.8413 20.4512 22.1631L21.6472 18.3053C21.9172 17.418 22.6309 16.7236 23.5375 16.4535C24.8685 16.0291 25.8908 14.9682 26.2766 13.6566C27.7425 13.9459 29.2278 13.4444 30.1923 12.3642C30.4237 12.0942 30.7131 11.882 31.0024 11.6505C31.4075 11.3419 31.7547 10.9754 32.0247 10.551C32.2369 10.2038 32.6806 10.1267 33.0085 10.3581C33.5872 10.7632 34.3202 11.014 35.0917 11.014C37.1749 11.014 38.7759 9.1815 38.6795 7.09827L15.166 8.93074V16.4535H16.6127V24.9793Z" fill="#AFAFAF"/>
<path d="M43.7529 18.8454C43.0392 18.6139 42.4799 18.4596 42.0941 16.8393C41.9783 16.3185 41.2261 16.3185 41.091 16.8393C40.7245 18.421 40.2037 18.5946 39.4322 18.8454C38.9692 18.9997 38.9692 19.6556 39.4322 19.8292C40.7245 20.2535 40.8596 20.8901 41.091 21.8352C41.2068 22.356 41.959 22.356 42.0941 21.8352C42.4606 20.2535 43.0007 20.0799 43.7529 19.8292C44.2159 19.6748 44.2159 18.9997 43.7529 18.8454Z" fill="black"/>
<path d="M42.3632 19.347C42.0739 19.5399 41.8231 19.81 41.6109 20.1957C41.4373 19.8871 41.1866 19.5978 40.8008 19.347C41.0901 19.1348 41.3602 18.8648 41.5916 18.4597C41.8231 18.8648 42.0932 19.1541 42.3632 19.347Z" fill="#01AA85"/>
<path d="M7.14161 4.26289C6.42791 4.03142 5.86852 3.87711 5.48274 2.25682C5.36701 1.73601 4.61473 1.73601 4.4797 2.25682C4.11321 3.83853 3.5924 4.01213 2.82084 4.26289C2.3579 4.4172 2.3579 5.07303 2.82084 5.24664C4.11321 5.671 4.24823 6.30754 4.4797 7.25271C4.59544 7.77352 5.34772 7.77352 5.48274 7.25271C5.84924 5.671 6.38933 5.4974 7.14161 5.24664C7.60455 5.09232 7.60455 4.4172 7.14161 4.26289Z" fill="black"/>
<path d="M5.75285 4.76438C5.46351 4.95727 5.21276 5.22732 5.00057 5.6131C4.82697 5.30447 4.57621 5.01514 4.19043 4.76438C4.47977 4.5522 4.74982 4.28215 4.98129 3.87708C5.21276 4.28215 5.4828 4.57148 5.75285 4.76438Z" fill="#01AA85"/>
<path d="M8.26015 15.547C8.0094 15.4506 7.89366 15.1612 8.00939 14.9105C8.08655 14.7369 8.14442 14.5633 8.22158 14.3897C8.31802 14.1389 8.58807 14.0039 8.83883 14.1003C9.08959 14.1968 9.22461 14.4668 9.12817 14.7176C9.05101 14.9105 8.99314 15.0841 8.91599 15.277C8.78096 15.5277 8.51091 15.6435 8.26015 15.547ZM9.10888 13.1745C8.85812 13.1166 8.68452 12.8465 8.76167 12.5958C8.8967 12.0557 8.99314 11.477 9.08959 10.9176C9.20532 10.1268 9.62968 9.39378 10.2662 8.91155C11.4043 8.04354 12.1951 6.92477 12.5423 5.70955C12.9088 4.39789 14.1241 3.4913 15.4936 3.4913H15.6672C17.5768 3.56846 19.4093 3.24054 21.1839 2.35324C21.4154 2.23751 21.7047 2.33395 21.8397 2.56542C21.9555 2.79689 21.859 3.08623 21.6275 3.22125C19.7179 4.16642 17.7311 4.53292 15.6286 4.45576H15.4936C14.5677 4.45576 13.7383 5.07301 13.4682 5.9796C13.0632 7.407 12.1566 8.68008 10.8449 9.68312C10.4013 10.011 10.1119 10.5126 10.0348 11.0527C9.9576 11.6506 9.84186 12.2486 9.68755 12.8273C9.62968 13.0973 9.35964 13.2516 9.10888 13.1745ZM8.33731 45.9467C8.14442 45.7731 8.12513 45.4645 8.29873 45.2716C8.43376 45.1366 8.54949 44.9823 8.66523 44.8473C8.83883 44.6351 9.14746 44.6158 9.34035 44.7894C9.55253 44.963 9.57182 45.2716 9.39821 45.4645C9.26319 45.6188 9.14746 45.7538 9.01243 45.9082C8.83883 46.1011 8.5302 46.1203 8.33731 45.9467ZM9.9576 44.0178C9.74542 43.8635 9.68755 43.5742 9.84186 43.3427C11.3464 41.163 12.388 38.6362 12.8703 36.0514C12.9088 35.7814 13.1596 35.6077 13.4296 35.6656C13.6997 35.7042 13.8733 35.955 13.8154 36.225C13.3139 38.9641 12.2144 41.6067 10.6327 43.9021C10.4591 44.1143 10.1698 44.1721 9.9576 44.0178ZM31.2335 33.4859H30.6549C30.3848 33.4859 30.1726 33.2738 30.1726 33.0037C30.1726 32.7337 30.3848 32.5215 30.6549 32.5215H31.2335C31.5036 32.5215 31.7158 32.7337 31.7158 33.0037C31.7158 33.2738 31.5036 33.4859 31.2335 33.4859ZM28.726 33.4859H26.5656C23.0549 33.4859 19.8722 31.287 18.6184 28.0078C18.522 27.7571 18.657 27.487 18.8885 27.3906C19.1392 27.2941 19.4093 27.4291 19.5057 27.6606C20.6245 30.5733 23.46 32.5215 26.5656 32.5215H28.726C28.996 32.5215 29.2082 32.7337 29.2082 33.0037C29.2082 33.2738 28.996 33.4859 28.726 33.4859Z" fill="white"/>
<path d="M28.8035 19.7329H31.2725C31.5426 19.7329 31.7548 19.5207 31.7548 19.2506C31.7548 18.9806 31.5426 18.7684 31.2725 18.7684H28.8035C28.5335 18.7684 28.3213 18.9806 28.3213 19.2506C28.3213 19.5207 28.5335 19.7329 28.8035 19.7329ZM28.8035 16.5116H30.906C31.4654 16.5116 31.9669 16.8395 32.1984 17.341L32.4877 17.9583C32.6035 18.209 32.8928 18.3055 33.1243 18.1897C33.3751 18.074 33.4715 17.7847 33.3558 17.5532L33.0664 16.9359C32.6806 16.1065 31.8319 15.5664 30.906 15.5664H28.8035C28.5335 15.5664 28.3213 15.7786 28.3213 16.0486C28.3213 16.3187 28.5335 16.5116 28.8035 16.5116Z" fill="black"/>
<path d="M8.12557 10.7826C8.27988 9.74103 8.83927 8.79586 9.6687 8.15932C10.6332 7.42633 11.3083 6.48116 11.6169 5.45883C12.1184 3.7421 13.7001 2.54617 15.494 2.54617H15.7062C17.4808 2.62333 19.2168 2.27612 20.76 1.50455C21.493 1.13806 22.2838 0.964458 23.094 0.964458C23.5762 0.964458 24.0584 1.04161 24.5406 1.15735C24.965 1.27308 25.3508 1.36953 25.833 1.46598C26.1224 1.52384 26.3538 1.33095 26.3924 1.08019C26.4503 0.810145 26.2767 0.559386 26.0066 0.520807C25.4858 0.424362 25.1386 0.308627 24.7914 0.23147C24.232 0.0771567 23.6533 0 23.094 0C22.1295 0 21.2036 0.212181 20.3356 0.636542C18.9468 1.33095 17.3651 1.65887 15.7641 1.56242H15.5133C13.2951 1.56242 11.3276 3.04769 10.7103 5.1695C10.4788 5.99893 9.91946 6.7705 9.10932 7.36846C8.08699 8.15932 7.37329 9.33595 7.19969 10.6283C7.0068 11.9014 6.69817 13.0973 6.25452 14.1582C5.17433 16.743 5.52153 19.7521 7.14182 22.0282C7.7205 22.8384 7.70121 23.9378 7.06467 24.748C5.38651 26.8698 5.71443 29.8982 7.77837 31.6535C8.33775 32.1357 8.51135 32.618 8.62709 33.2352C8.81998 34.5083 9.74586 35.5306 10.9611 35.8778C10.8453 36.5144 10.691 37.1509 10.4788 37.7682C10.4017 38.0189 10.5367 38.289 10.7875 38.3661C11.0768 38.4433 11.3083 38.289 11.3854 38.0575C11.8677 36.5337 12.1377 34.952 12.1763 33.351C13.488 33.2545 14.4717 32.1743 14.4717 30.9012C14.4717 30.5155 14.3753 30.1297 14.2017 29.8018C14.1438 29.6667 14.1631 29.5124 14.2788 29.3774C14.7996 28.7987 15.089 28.0464 15.089 27.2749C15.089 26.7926 14.9732 26.3297 14.7803 25.9053C14.8768 25.7317 14.9539 25.5581 15.0118 25.3845C15.3011 25.4424 15.6098 25.4617 15.9184 25.4617H16.1499C16.4006 30.9977 20.9914 35.4149 26.5853 35.4149H28.5335C29.2472 38.4819 31.8898 40.7966 35.1304 41.028L36.1141 41.1052C36.4228 41.1052 36.6157 40.893 36.6349 40.6615C36.6542 40.3915 36.4613 40.16 36.1913 40.1407L35.2075 40.0636C32.4878 39.8707 30.2309 37.9804 29.5365 35.4149H32.0827C32.835 35.4149 33.4522 34.8555 33.5487 34.1225L34.4746 26.8505H35.902C36.8085 26.8505 37.5222 26.0211 37.3679 25.1145L36.1527 18.0932C36.1334 17.9775 36.2106 17.8811 36.3456 17.8811C37.1558 17.8811 37.8887 17.2059 37.8116 16.2608L37.6187 14.0618H37.6766C39.6055 13.8496 41.1872 12.2872 41.4572 10.3583C41.6115 9.20093 41.3029 8.06287 40.6085 7.15628C40.6278 6.96339 40.6471 6.7705 40.6471 6.5776C40.6471 4.20504 38.7182 2.25683 36.3263 2.25683C35.5548 2.25683 34.8025 2.46901 34.1274 2.8548C33.7609 3.06698 33.5101 2.6619 33.5873 2.73906C32.6614 1.54313 31.2726 0.810145 29.768 0.713699C29.498 0.69441 29.2665 0.906591 29.2665 1.15735C29.2472 1.4274 29.4401 1.65887 29.7101 1.67816C30.9446 1.75531 32.0634 2.35328 32.8157 3.33702C33.2401 3.89641 34.0116 4.05072 34.6096 3.68423C35.1304 3.3756 35.7091 3.22129 36.307 3.22129C38.1588 3.22129 39.6633 4.72584 39.6633 6.5776C39.6633 6.78979 39.6441 7.00197 39.6055 7.21415C39.5862 7.34917 39.6248 7.50348 39.7212 7.61922C40.3385 8.35221 40.6278 9.27809 40.4928 10.2425C40.2999 11.7278 39.0654 12.943 37.5608 13.1166H37.5222L37.3101 10.8019C37.638 10.5897 37.9273 10.3197 38.1781 10.0304C38.3517 9.81818 38.3131 9.52885 38.1202 9.35524C37.908 9.18164 37.6187 9.22022 37.4451 9.41311C36.8664 10.1075 35.9984 10.5126 35.1111 10.5319H35.0918C34.4553 10.5319 33.838 10.339 33.2979 9.9725C32.7385 9.58671 31.9863 9.72174 31.6198 10.3004C31.369 10.6862 31.0797 11.0141 30.7132 11.2842C30.4045 11.5156 30.0959 11.7471 29.8259 12.0557C28.9386 13.0395 27.6462 13.4638 26.3538 13.1938C26.1031 13.1359 25.8716 13.2902 25.7944 13.5217C25.4472 14.6983 24.5406 15.6242 23.3833 15.9907C22.3224 16.3186 21.493 17.1288 21.1843 18.1704L19.9884 22.0282C19.564 23.3592 18.4453 24.3043 17.095 24.4779V16.4729C17.095 16.2029 16.8828 15.9907 16.6128 15.9907H15.9955C13.3722 15.9907 11.1925 18.0932 11.154 20.6587C11.1154 22.7033 12.3692 24.4008 14.0666 25.1145C14.0088 25.2881 13.9123 25.4617 13.8159 25.6353C13.7001 25.7896 13.7001 26.0018 13.7966 26.1561C14.0088 26.5033 14.1245 26.8891 14.1245 27.2942C14.1245 27.8343 13.9316 28.3551 13.5651 28.7601C13.1793 29.1845 13.1022 29.7632 13.3529 30.2647C13.4494 30.4769 13.5072 30.6891 13.5072 30.9398C13.5072 31.8271 12.7357 32.5215 11.8484 32.4251C11.4047 32.3672 11.2118 32.6565 11.2118 32.9073C11.2118 33.6017 11.154 34.2768 11.0768 34.9712C10.286 34.7012 9.6687 33.9875 9.55297 33.1388C9.41794 32.2901 9.12861 31.5956 8.37633 30.9591C6.69817 29.551 6.44741 27.1013 7.79765 25.3845C8.70425 24.2272 8.74282 22.6841 7.91339 21.5074C6.48599 19.5013 6.17737 16.8394 7.12253 14.5633C7.58547 13.406 7.93268 12.1329 8.12557 10.7826ZM20.9143 22.2983L22.1102 18.4404C22.3417 17.7074 22.9204 17.1481 23.6726 16.8973C25.0036 16.4729 26.0645 15.4699 26.5853 14.1775C28.0513 14.3318 29.5365 13.7725 30.5396 12.673C30.7325 12.4415 30.9832 12.2486 31.2726 12.0364C31.7355 11.6892 32.1213 11.2842 32.4106 10.8019C32.4878 10.6862 32.6035 10.6669 32.7192 10.7441C33.4137 11.2263 34.2238 11.4771 35.0532 11.4771H35.0725C35.5162 11.4771 35.9405 11.3999 36.3649 11.2649L36.8278 16.3186C36.8471 16.6658 36.5964 16.8973 36.307 16.8973C35.5933 16.8973 35.0532 17.5338 35.169 18.2475L36.3456 25.2688C36.4035 25.5774 36.1527 25.8668 35.8441 25.8668H32.8543C32.3335 25.8668 31.9863 25.3074 32.2563 24.8444C32.372 24.6323 32.6035 24.4972 32.8543 24.4972H32.9507C33.2208 24.4972 33.4329 24.2851 33.4329 24.015C33.4329 23.745 33.2208 23.5328 32.9507 23.5328H32.8736C32.2756 23.5328 31.7355 23.8414 31.4269 24.3815C30.8096 25.5003 31.6198 26.8505 32.8736 26.8505H33.4715L33.1822 29.1459H30.3467C30.0766 29.1459 29.8645 29.3581 29.8645 29.6281C29.8645 29.8982 30.0766 30.1104 30.3467 30.1104H33.0665L32.5649 34.0068C32.5264 34.2575 32.3142 34.4504 32.0441 34.4504H26.566C21.493 34.4504 17.3458 30.4383 17.095 25.4231C18.8889 25.2495 20.3742 24.0343 20.9143 22.2983ZM12.1184 20.6587C12.157 18.614 13.893 16.9359 15.9955 16.9359H16.1306V24.4972H15.8991C13.7773 24.4972 12.0991 22.7612 12.1184 20.6587Z" fill="black"/>
<path d="M27.8006 1.71666C28.0706 1.71666 28.2828 1.50447 28.2828 1.25372C28.2828 0.983667 28.0899 0.771486 27.8199 0.752197C27.5498 0.752197 27.3376 0.945089 27.3184 1.21514C27.3184 1.48519 27.5498 1.71666 27.8006 1.71666ZM2.87899 47.7599C3.01402 47.9913 3.30335 48.0685 3.53482 47.9335C6.10028 46.4096 8.26067 44.2492 9.76522 41.6838C9.90025 41.4523 9.82309 41.163 9.59162 41.028C9.36015 40.8929 9.05152 40.9701 8.93579 41.2016C7.50839 43.632 5.46374 45.6766 3.0526 47.104C2.80184 47.2391 2.74397 47.5284 2.87899 47.7599ZM10.6718 39.9092C10.7875 39.6584 10.6718 39.3884 10.4211 39.2726C10.1896 39.1762 9.88096 39.2919 9.78451 39.5234C9.66878 39.7742 9.78451 40.0442 10.0353 40.1599C10.2667 40.2564 10.5561 40.1599 10.6718 39.9092ZM38.0817 40.2757C37.8117 40.2564 37.5802 40.4493 37.5609 40.7193C37.5416 40.9701 37.7345 41.2208 38.0046 41.2401C38.3132 41.2401 38.5061 41.028 38.5254 40.7965C38.5639 40.5264 38.3518 40.295 38.0817 40.2757ZM45.0065 41.7417C45.3151 41.7417 45.508 41.5295 45.5273 41.298C45.5466 41.028 45.3537 40.7965 45.0837 40.7772L40.0299 40.4107C39.7599 40.3914 39.5284 40.5843 39.5091 40.8544C39.4898 41.1244 39.6827 41.3559 39.9528 41.3752L45.0065 41.7417ZM16.8829 37.4402C16.6129 37.4402 16.4007 37.6524 16.4007 37.9224V39.8706C16.4007 41.0665 16.8636 42.2046 17.7124 43.0533L20.0078 45.3487C20.2007 45.5416 20.5093 45.5416 20.6829 45.3487C20.8758 45.1558 20.8758 44.8472 20.6829 44.6736L18.4068 42.3589C17.7316 41.6838 17.3652 40.8158 17.3652 39.8706V37.9224C17.3652 37.6524 17.153 37.4402 16.8829 37.4402ZM26.6047 37.9224C26.6047 37.6524 26.3925 37.4402 26.1224 37.4402C25.8524 37.4402 25.6402 37.6524 25.6402 37.9224V39.4462C25.6402 41.4137 24.8686 43.2655 23.4798 44.6543C23.2869 44.8472 23.2869 45.1558 23.4798 45.3294C23.6727 45.5223 23.9813 45.5223 24.1549 45.3294C25.7366 43.7477 26.6047 41.6645 26.6047 39.427V37.9224Z" fill="black"/>
</svg>
