<svg width="48" height="48" viewBox="0 0 48 48" fill="none" xmlns="http://www.w3.org/2000/svg">
<g clip-path="url(#clip0_1022_766)">
<path d="M43.4095 18.6252C42.7196 17.5561 41.5324 16.9119 40.26 16.9119H38.514V14.7656C38.514 13.2124 37.2549 11.9531 35.7015 11.9531H30.4991L26.0256 5.6554H13.8242V39.8307L32.18 47.2969H33.4121C35.7119 47.2969 37.9142 46.3783 39.5391 44.7506C41.1227 43.164 42.5568 41.662 43.7641 39.9115V32.8187H46.8133C46.9444 32.2443 47.0575 31.6659 47.1524 31.0844C47.2562 30.4507 47.3243 29.8258 47.3243 29.1806C47.3242 25.5817 45.5765 21.9835 43.4095 18.6252Z" fill="#EFEFEF"/>
<path d="M23.5633 36.1875L22.2818 35.1249V31.9688C20.8391 25.1726 22.1546 17.9134 26.0257 11.9531L19.6471 5.6554H13.8243L9.56566 11.848C5.63388 17.0704 -0.0214964 23.6089 0.779785 30.0966C0.897535 31.0498 1.05682 31.9486 1.25341 32.8033H4.29241V39.91C5.43016 41.6251 6.79994 43.1938 8.36922 44.7617C9.99222 46.3832 12.1906 47.2969 14.4847 47.2969H32.1801C28.1036 44.257 25.2506 40.3959 23.5633 36.1875Z" fill="#AFAFAF"/>
<path d="M31.8254 8.75222L28.7832 5.71012L30.5894 3.90394C31.7706 2.72278 30.9341 0.703125 29.2637 0.703125H26.0261L19.6475 5.65538L26.0261 11.9531H30.4996C32.17 11.9531 33.0066 9.93347 31.8254 8.75222Z" fill="#EFEFEF"/>
<path d="M26.0261 0.703125H8.77051C5.66391 0.703125 3.14551 3.22144 3.14551 6.32812C3.14551 9.43472 5.66391 11.9531 8.77051 11.9531H26.026C22.9195 8.84653 22.9195 3.80972 26.0261 0.703125Z" fill="#AFAFAF"/>
<path d="M45.1216 31.9688H36.6841C35.5192 31.9688 34.5747 32.913 34.5747 34.0781V36.1875H30.356V34.0781C30.356 32.913 29.4115 31.9688 28.2466 31.9688H22.2822V35.1248L23.5637 36.1875H26.1372V38.2969C26.1372 39.462 27.0817 40.4062 28.2466 40.4062H36.6841C37.849 40.4062 38.7935 39.462 38.7935 38.2969V36.1875H43.0122V38.2969C43.0122 38.945 43.3047 39.5245 43.7646 39.9114C45.0879 37.9927 46.1383 35.7743 46.8138 32.8187C46.4292 32.3028 45.8145 31.9688 45.1216 31.9688Z" fill="#EFEFEF"/>
<path d="M19.8083 31.9688C18.6434 31.9688 17.6989 32.913 17.6989 34.0781V36.1875H13.4802V34.0781C13.4802 32.913 12.5357 31.9688 11.3708 31.9688H2.9333C2.24743 31.9688 1.63815 32.2963 1.25293 32.8033C1.8863 35.5575 2.91943 37.8411 4.29193 39.91C4.75084 39.523 5.04268 38.9442 5.04268 38.2969V36.1875H9.26143V38.2969C9.26143 39.462 10.2059 40.4062 11.3708 40.4062H19.8083C20.9732 40.4062 21.9177 39.462 21.9177 38.2969V36.1875H23.5629C23.0154 34.8207 22.5866 33.4092 22.2814 31.9688H19.8083Z" fill="#AFAFAF"/>
<path d="M38.5144 16.9119L34.2524 20.3873L35.104 23.4873M35.104 23.4873H30.672L28.13 26.0825M35.104 23.4873L36.8966 25.0354M28.13 26.0825L23.625 25.0293M28.13 26.0825V28.9331" stroke="black" stroke-miterlimit="10" stroke-linecap="round" stroke-linejoin="round"/>
<path d="M31.8254 8.75222L28.7832 5.71013L30.5894 3.90394C31.7707 2.72278 30.9341 0.703125 29.2637 0.703125H8.77051C5.66391 0.703125 3.14551 3.22144 3.14551 6.32812C3.14551 9.43472 5.66391 11.9531 8.77051 11.9531H30.4996C32.17 11.9531 33.0066 9.93347 31.8254 8.75222Z" stroke="black" stroke-miterlimit="10" stroke-linecap="round" stroke-linejoin="round"/>
<path d="M9.48626 11.9531C5.55823 17.1581 -0.0161464 23.6523 0.779791 30.0966C1.55454 36.3705 4.05542 40.452 8.36923 44.7617C9.99223 46.3832 12.1906 47.2969 14.4847 47.2969H33.4122C35.7121 47.2969 37.9144 46.3783 39.5392 44.7506C43.8311 40.4506 46.1291 37.3325 47.1526 31.0844C47.8446 26.8592 45.9591 22.576 43.4097 18.6253C42.7198 17.5562 41.5326 16.9119 40.2603 16.9119H38.5143V14.7656C38.5143 13.2124 37.2551 11.9531 35.7018 11.9531H30.4993" stroke="black" stroke-miterlimit="10" stroke-linecap="round" stroke-linejoin="round"/>
<path d="M17.2686 16.7051V17.8301M30.8623 16.7051V17.8301M22.4282 17.7948C22.8035 18.2255 23.3556 18.498 23.9717 18.498C24.5878 18.498 25.1399 18.2255 25.5152 17.7948" stroke="black" stroke-miterlimit="10" stroke-linecap="round" stroke-linejoin="round"/>
<path d="M46.813 32.8186C46.4284 32.3028 45.8136 31.9688 45.1208 31.9688H36.6833C35.5184 31.9688 34.5739 32.913 34.5739 34.0781V36.1875H30.3552V34.0781C30.3552 32.913 29.4107 31.9688 28.2458 31.9688H19.8083C18.6434 31.9688 17.6989 32.913 17.6989 34.0781V36.1875H13.4802V34.0781C13.4802 32.913 12.5357 31.9688 11.3708 31.9688H2.9333C2.24743 31.9688 1.63815 32.2963 1.25293 32.8033M4.29193 39.91C4.75084 39.523 5.04268 38.9442 5.04268 38.2969V36.1875H9.26143V38.2969C9.26143 39.462 10.2059 40.4062 11.3708 40.4062H19.8083C20.9732 40.4062 21.9177 39.462 21.9177 38.2969V36.1875H26.1364V38.2969C26.1364 39.462 27.0809 40.4062 28.2458 40.4062H36.6833C37.8482 40.4062 38.7927 39.462 38.7927 38.2969V36.1875H43.0114V38.2969C43.0114 38.945 43.3039 39.5245 43.7638 39.9114" stroke="black" stroke-miterlimit="10" stroke-linejoin="round"/>
<path d="M28.7827 5.71008H28.0605" stroke="black" stroke-miterlimit="10" stroke-linecap="round" stroke-linejoin="round"/>
</g>
<defs>
<clipPath id="clip0_1022_766">
<rect width="48" height="48" fill="white"/>
</clipPath>
</defs>
</svg>
