<svg width="48" height="48" viewBox="0 0 48 48" fill="none" xmlns="http://www.w3.org/2000/svg">
<g clip-path="url(#clip0_1021_637)">
<path d="M20.3493 2.1353C20.3493 2.1353 17.7556 0.6428 15.2923 3.05677C13.3613 4.94902 14.2152 7.95193 14.2152 7.95193C14.2152 7.95193 12.4474 14.1386 18.3529 14.1386L27.0632 10.9673C27.0632 10.9673 29.3525 10.5783 29.5013 7.52808C29.6747 3.97861 26.7024 3.23771 26.7024 3.23771C24.3266 -1.72936 20.3493 2.1353 20.3493 2.1353L21.6734 4.16489L20.3493 2.1353Z" fill="#AFAFAF"/>
<path d="M24.7519 14.7015L25.8329 17.506C25.8329 17.506 29.8813 18.4915 35.2256 19.2939L36.9541 22.5137C36.9541 25.9453 35.8774 31.9244 34.9126 37.776C34.6331 39.4711 34.8417 41.2096 35.506 42.794C36.0716 44.1431 36.3455 45.3808 36.4772 46.2157C36.5668 46.7839 36.1258 47.2967 35.5507 47.2967H16.3675C15.6802 47.2967 15.2276 46.5827 15.5188 45.9603C16.0881 44.744 16.8432 43.3806 17.845 41.8928C18.6897 40.6391 19.1943 39.1874 19.3092 37.68C19.3976 36.5152 19.4136 35.0734 19.2074 33.5586L18.3521 33.4125L17.2996 33.7043L12.7806 34.0492C12.7806 34.0492 10.2295 27.5174 11.3139 25.3704C12.2449 23.527 17.7226 20.342 19.4854 18.6605C19.4854 18.6605 17.7299 12.0328 17.4158 9.68576C17.0785 7.16604 21.0298 6.41182 21.6732 4.16492C23.9024 5.81032 25.6848 5.01467 26.346 6.43639C27.3004 8.48839 27.377 11.5519 26.3469 13.9343C26.2533 14.1506 26.1077 14.3552 25.9273 14.5376C25.2301 15.2426 24.1596 15.4285 23.2387 15.059L22.0472 14.5811L24.7519 14.7015Z" fill="#EFEFEF"/>
<path d="M35.5059 42.7941C34.8416 41.2097 34.6331 39.4712 34.9126 37.7761C35.8774 31.9245 36.9541 25.9453 36.9541 22.5138L35.2255 19.294C29.8812 18.4916 25.8328 17.5061 25.8328 17.5061L24.9201 15.1381C25.2943 15.0259 25.6422 14.826 25.9274 14.5377C26.1078 14.3554 26.2535 14.1508 26.3469 13.9344C27.3771 11.552 27.3005 8.48851 26.3461 6.43651C25.6848 5.01479 23.9024 5.81045 21.6732 4.16504C21.5397 4.63126 21.2635 5.03298 20.9131 5.39982C21.6873 5.57813 22.2744 5.7452 22.596 6.4366C23.5504 8.4886 23.627 11.5521 22.5968 13.9345C22.5033 14.1508 22.3577 14.3554 22.1773 14.5378C21.892 14.8263 21.5443 15.0269 21.1705 15.1397L22.0827 17.5063C22.0827 17.5063 26.4054 18.4771 30.9307 19.2661C32.4573 19.5323 33.0654 20.7402 33.204 22.5141C33.204 25.9457 32.1273 31.9249 31.1625 37.7765C30.883 39.4716 31.0916 41.21 31.7558 42.7943C32.3215 44.1435 32.5954 45.3813 32.7271 46.2161C32.8167 46.7843 32.3757 47.2971 31.8006 47.2971H35.5506C36.1257 47.2971 36.5667 46.7843 36.4771 46.2161C36.3455 45.381 36.0716 44.1432 35.5059 42.7941Z" fill="#EFEFEF"/>
<path d="M36.7521 25.7042C35.0402 26.6465 34.0228 23.9951 33.853 22.5994C33.5934 20.4648 34.2735 19.2808 35.2382 19.29C36.2029 19.2992 36.9712 20.7425 36.9542 22.5138L36.7521 25.7042Z" fill="#AFAFAF"/>
<path d="M15.8625 34.5205C17.2843 34.017 18.2154 32.9832 17.9421 32.2115C17.6688 31.4397 16.2947 31.2223 14.8728 31.7258C13.451 32.2293 12.5199 33.2631 12.7932 34.0348C13.0665 34.8065 14.4406 35.024 15.8625 34.5205Z" fill="#AFAFAF"/>
<path d="M35.9629 35.745C36.8334 30.5246 37.6557 25.5934 37.6573 22.5224C37.6827 21.087 37.0915 18.6175 35.2568 18.5875C30.9383 17.9362 27.4481 17.1595 26.3555 16.9066L25.8165 15.5081C27.1615 14.706 27.5345 12.9427 27.7142 11.4994C29.3282 10.853 30.1225 9.22607 30.2038 7.5622C30.3499 4.57007 28.4554 3.11207 27.1976 2.65542C26.4126 1.15185 25.3839 0.27726 24.1366 0.0544164C22.4623 -0.244927 20.9256 0.760541 20.2374 1.30579C19.0026 0.819229 16.7698 0.62451 14.8004 2.55454C12.8749 4.44126 13.3207 7.19095 13.4906 7.94892C13.3184 8.67717 12.832 11.2934 14.2027 13.1107C14.98 14.1413 16.1853 14.7145 17.7879 14.8217C18.0809 16.0251 18.3838 17.2261 18.6967 18.4244C18.0344 18.9907 17.0207 19.7115 15.9566 20.4684C13.69 22.0804 11.3461 23.7473 10.6865 25.0534C10.1494 26.1167 10.2392 27.9619 10.961 30.6944C11.4676 32.6125 12.0992 34.2368 12.1259 34.3049C12.1275 34.3093 12.1301 34.313 12.1319 34.3173C12.4256 35.087 13.2819 35.5111 14.3664 35.511C14.8988 35.511 15.4859 35.4089 16.0876 35.1956C17.0896 34.8404 17.9081 34.2442 18.3418 33.5672C18.3846 33.5955 18.4258 33.6248 18.4702 33.6522C18.4844 33.6609 18.4994 33.6689 18.5139 33.6775C18.6809 34.919 18.713 36.2474 18.6084 37.6268C18.5036 39.0081 18.038 40.3475 17.2619 41.5002C16.3221 42.8963 15.5215 44.2965 14.8823 45.6622C14.7644 45.9123 14.7118 46.1883 14.7296 46.4642C14.7473 46.7402 14.8348 47.0071 14.9837 47.2401C15.1313 47.4735 15.3357 47.6656 15.5778 47.7984C15.8198 47.9313 16.0916 48.0006 16.3678 47.9999H35.551C36.0319 47.9999 36.4869 47.7902 36.7994 47.4246C36.9532 47.2449 37.0661 47.0339 37.1305 46.8063C37.1948 46.5787 37.209 46.3398 37.1721 46.1062C37.0384 45.2593 36.7535 43.9501 36.1547 42.5222C35.5388 41.0531 35.3492 39.4514 35.6067 37.8905C35.7243 37.1756 35.8438 36.4589 35.9629 35.745ZM36.0795 25.1983C35.1012 25.2593 34.6308 23.1707 34.551 22.5146C34.3555 20.9074 34.7691 20.303 34.9005 20.156C35.2665 19.7467 35.6632 20.2326 35.8437 20.5715C36.1074 21.067 36.2557 21.7649 36.2513 22.4887L36.0795 25.1983ZM23.8941 1.43967C24.7433 1.5936 25.4747 2.30057 26.0681 3.54107C26.289 4.00326 27.333 4.25779 27.7048 4.58179C28.4918 5.26785 28.8599 6.24754 28.799 7.49376C28.7367 8.77064 28.2548 9.46804 27.796 9.84567C27.7624 8.52398 27.4916 7.23192 26.9836 6.13992C26.4985 5.09685 25.5771 4.88676 24.6861 4.6836C23.9483 4.51532 23.1151 4.32398 22.1893 3.66914L21.2817 2.27779C21.8489 1.8606 22.8783 1.25573 23.8941 1.43967ZM15.3281 12.2676C14.7392 11.4899 14.6302 10.4534 14.6833 9.50948C14.7111 9.01504 15.0284 8.25117 14.8919 7.76151C14.8847 7.73535 14.1829 5.12817 15.7844 3.55898C17.5487 1.82995 19.3571 2.45123 19.8647 2.67942L20.8893 4.25001C20.5752 4.89267 19.8583 5.43079 19.1046 5.99648C17.8727 6.92104 16.4766 7.96898 16.7189 9.7791C16.8313 10.6178 17.1175 11.968 17.4434 13.373C16.4909 13.2348 15.7807 12.8654 15.3281 12.2676ZM15.6176 33.8702C14.3751 34.3107 13.519 34.0265 13.4429 33.8131C13.2245 33.2001 14.739 32.528 15.0922 32.4029C15.4053 32.2919 17.6028 31.8935 17.221 32.6971C17.0488 33.0591 16.4863 33.5623 15.6176 33.8702ZM34.8576 43.0659C35.4021 44.3644 35.6612 45.5551 35.7828 46.3254C35.7882 46.4856 35.7107 46.5749 35.5507 46.5936H16.3675C16.1957 46.5936 16.0833 46.4131 16.1557 46.2583C16.7641 44.9581 17.5288 43.6215 18.4282 42.2855C20.0494 39.8775 20.2567 36.9597 19.9816 34.142C22.2457 34.4442 24.8431 33.5388 26.0996 31.5585C26.5079 31.8261 27.0747 32.1421 27.7597 32.3827C29.0994 32.853 31.161 33.1204 33.3757 31.7229C34.1428 31.2389 33.3922 30.0494 32.6253 30.5336C29.3126 32.6238 26.4493 30.0883 26.3307 29.9808C25.974 29.6534 25.3823 29.7882 25.2025 30.2377C24.1565 32.8518 20.1583 33.7202 18.3205 31.515C17.9076 30.6563 18.3545 29.6576 18.0241 28.8604L17.2276 26.9355C16.8809 26.0973 15.5815 26.6353 15.9284 27.4732L16.6585 29.2378C16.6111 29.8037 16.6157 30.3138 16.6718 30.776C15.3326 30.6637 13.825 31.1992 12.8507 32.1281C12.6789 31.5989 12.4913 30.9821 12.3205 30.3353C11.4754 27.1362 11.774 26.0191 11.9415 25.6874C12.4444 24.6916 14.8437 22.9853 16.7714 21.6143C18.0574 20.6998 19.272 19.8359 19.9709 19.1693C20.0619 19.0824 20.128 18.9726 20.1622 18.8514C20.1964 18.7303 20.1974 18.6021 20.1652 18.4804C20.1554 18.443 18.24 10.5432 18.1127 9.59235C18.0299 8.97426 18.1123 8.49942 19.9488 7.12101C20.7062 6.55251 21.483 5.96939 21.971 5.1952C22.686 5.59973 23.4396 5.81901 24.2296 6.02123C24.7274 6.14864 25.4582 6.19457 25.7086 6.73289C26.6198 8.69189 26.6169 11.5385 25.7016 13.6554C25.0665 15.1245 23.3513 14.3465 22.309 13.9285C21.4673 13.5906 20.9437 14.8961 21.7855 15.2337C22.6528 15.5816 23.5109 16.0183 24.4745 15.9368L25.1768 17.7588C25.2176 17.8648 25.2835 17.9593 25.3688 18.0342C25.4541 18.1091 25.5563 18.1623 25.6666 18.1891C25.7031 18.198 28.9977 18.9954 33.5044 19.7351C33.1332 20.4609 33.0086 21.4804 33.155 22.6844C33.3358 24.1705 34.1585 26.4976 35.9431 26.6025C35.6285 29.1994 35.1114 32.301 34.5757 35.5138C34.1404 38.1234 33.7998 40.5427 34.8576 43.0659Z" fill="black"/>
<path d="M30.73 27.8997C29.8251 27.8997 29.8236 29.3059 30.73 29.3059C31.6349 29.3059 31.6364 27.8997 30.73 27.8997ZM20.2529 29.682C19.3481 29.682 19.3466 31.0883 20.2529 31.0883C21.1577 31.0883 21.1592 29.682 20.2529 29.682Z" fill="black"/>
<path d="M26.0604 43.2006C26.4713 43.2006 26.8044 42.8675 26.8044 42.4566C26.8044 42.0457 26.4713 41.7126 26.0604 41.7126C25.6495 41.7126 25.3164 42.0457 25.3164 42.4566C25.3164 42.8675 25.6495 43.2006 26.0604 43.2006Z" fill="black"/>
</g>
<defs>
<clipPath id="clip0_1021_637">
<rect width="48" height="48" fill="white"/>
</clipPath>
</defs>
</svg>
