<svg width="48" height="48" viewBox="0 0 48 48" fill="none" xmlns="http://www.w3.org/2000/svg">
<g clip-path="url(#clip0_2415_259)">
<path d="M37.9218 6.83427L28.6815 28.341L21.7241 25.4613L30.9644 3.95455C31.7746 2.06886 33.9888 1.1848 35.91 1.97999C37.8313 2.77527 38.732 4.94858 37.9218 6.83427Z" fill="#AFAFAF"/>
<path d="M46.7368 31.53C46.8255 33.8486 45.1032 35.791 42.8463 36.0965L40.5086 43.919C40.0835 45.3345 38.7629 46.3104 37.26 46.3104H10.7475C9.23714 46.3104 7.91639 45.3345 7.49142 43.919L5.16108 36.0965C2.95992 35.7985 1.25977 33.9435 1.25977 31.7011C1.25977 30.4718 1.76836 29.3693 2.58802 28.5647C3.40017 27.7601 4.53867 27.261 5.78348 27.261H42.0099C44.4765 27.261 46.6442 29.1107 46.7368 31.53Z" fill="white"/>
<path d="M41.8516 22.5129V27.2585H37.3733V31.9296C37.3733 33.5611 36.0223 34.8872 34.36 34.8872C33.5327 34.8872 32.7737 34.5595 32.2272 34.0231C31.6807 33.4867 31.3467 32.7417 31.3467 31.9296V27.2585H6.14746V22.5129C6.14746 20.2928 7.9843 18.49 10.2462 18.49H37.753C40.0147 18.49 41.8516 20.2929 41.8516 22.5129Z" fill="#EFEFEF"/>
<path d="M42.549 26.5899V22.5129C42.549 19.9102 40.3976 17.7926 37.753 17.7926H33.9723L38.5622 7.10954C39.5255 4.86807 38.4614 2.28114 36.1766 1.33614C33.9066 0.397419 31.2824 1.44873 30.324 3.6797L24.2603 17.7926H10.2463C7.60172 17.7926 5.45034 19.9102 5.45034 22.5129V26.5802C2.736 26.7547 0.5625 28.9636 0.5625 31.7013C0.5625 34.1007 2.27513 36.1774 4.61513 36.7058L6.82369 44.1197C7.34203 45.8469 8.919 47.0076 10.7474 47.0076H37.2599C39.0552 47.0076 40.6657 45.8201 41.1766 44.1188L43.3917 36.7066C45.8186 36.1646 47.5292 34.003 47.4337 31.5033C47.3359 28.9512 45.1932 26.8449 42.549 26.5899ZM31.6052 4.22982C32.2639 2.69598 34.0762 1.97561 35.6433 2.62426C37.2091 3.27254 37.9372 5.03204 37.2813 6.55933H37.2811L32.4547 17.7925H25.778L31.6052 4.22982ZM6.84478 22.5129C6.84478 20.6791 8.37066 19.1871 10.2462 19.1871H37.7531C39.6288 19.1871 41.1546 20.6791 41.1546 22.5129V26.5611H37.3734C37.1885 26.5611 37.0112 26.6345 36.8804 26.7653C36.7497 26.896 36.6762 27.0734 36.6762 27.2583V31.9296C36.6762 33.1761 35.6374 34.1901 34.3603 34.1901C33.0779 34.1901 32.0441 33.1866 32.0441 31.9296V27.2583C32.0441 27.0734 31.9707 26.896 31.8399 26.7653C31.7092 26.6345 31.5318 26.5611 31.3469 26.5611H6.84478V22.5129ZM42.7528 35.4057C42.62 35.4237 42.4951 35.4795 42.3932 35.5667C42.2913 35.6538 42.2168 35.7684 42.1784 35.8969L39.8409 43.7184C39.506 44.8342 38.4444 45.6131 37.2599 45.6131H10.7474C9.55838 45.6131 8.49413 44.8342 8.15963 43.7199L6.09647 36.7939H24.7551C24.94 36.7939 25.1173 36.7204 25.2481 36.5897C25.3788 36.4589 25.4523 36.2816 25.4523 36.0967C25.4523 35.9118 25.3788 35.7344 25.2481 35.6037C25.1173 35.4729 24.94 35.3995 24.7551 35.3995H5.21981C3.35756 35.1297 1.95694 33.5467 1.95694 31.7013C1.95694 29.6129 3.7095 27.9582 5.78353 27.9582H30.6497V31.9296C30.6497 33.9798 32.3318 35.5846 34.3603 35.5846C36.4061 35.5846 38.0707 33.945 38.0707 31.9296V27.9582H42.01C44.1564 27.9582 45.9644 29.5724 46.0402 31.5569C46.1141 33.4874 44.7008 35.142 42.7528 35.4057Z" fill="black"/>
</g>
<defs>
<clipPath id="clip0_2415_259">
<rect width="48" height="48" fill="white"/>
</clipPath>
</defs>
</svg>
