<svg width="48" height="48" viewBox="0 0 48 48" fill="none" xmlns="http://www.w3.org/2000/svg">
<g clip-path="url(#clip0_1021_700)">
<path d="M23.6403 47.6689C10.6066 47.6689 0 37.0623 0 24.0286C0 10.9949 10.6066 0.388306 23.6403 0.388306C36.6819 0.388306 47.2964 10.9949 47.2964 24.0286C47.2964 37.0623 36.6819 47.6689 23.6403 47.6689Z" fill="#ECF0F1"/>
<path d="M5.05859 38.6144C9.39265 44.1226 16.1065 47.6686 23.6399 47.6686C31.1811 47.6686 37.895 44.1226 42.2369 38.6144H5.05859Z" fill="#BFC2C7"/>
<path d="M42.2371 38.6226C37.9031 44.1229 31.1814 47.6689 23.648 47.6689C19.6447 47.6736 15.7064 46.6565 12.2061 44.7139C15.9333 44.509 19.771 44.7454 23.4746 44.2411C28.9907 43.4925 34.1206 41.1127 39.1087 38.6226H42.2371Z" fill="black" fill-opacity="0.0627451"/>
<path d="M43.0406 39.0085H4.25469C4.03404 39.0085 3.86068 38.8352 3.86068 38.6145C3.86068 38.3939 4.03404 38.2205 4.25469 38.2205H43.0406C43.2612 38.2205 43.4346 38.3939 43.4346 38.6145C43.4346 38.8352 43.2612 39.0085 43.0406 39.0085ZM10.8582 20.8922H9.81016C9.58952 20.8922 9.41616 20.7188 9.41616 20.4982C9.41616 20.2775 9.58952 20.1042 9.81016 20.1042H10.8582C11.0789 20.1042 11.2522 20.2775 11.2522 20.4982C11.2522 20.7188 11.071 20.8922 10.8582 20.8922ZM10.3854 9.08778H9.33736C9.11671 9.08778 8.94335 8.91441 8.94335 8.69377C8.94335 8.47313 9.11671 8.29977 9.33736 8.29977H10.3854C10.6061 8.29977 10.7794 8.47313 10.7794 8.69377C10.7794 8.91441 10.6061 9.08778 10.3854 9.08778ZM32.7019 26.4713H31.6538C31.4332 26.4713 31.2598 26.2979 31.2598 26.0773C31.2598 25.8566 31.4332 25.6833 31.6538 25.6833H32.7019C32.9225 25.6833 33.0959 25.8566 33.0959 26.0773C33.0959 26.2979 32.9225 26.4713 32.7019 26.4713ZM41.4094 35.163H40.3613C40.1407 35.163 39.9673 34.9897 39.9673 34.769C39.9673 34.5484 40.1407 34.375 40.3613 34.375H41.4094C41.63 34.375 41.8034 34.5484 41.8034 34.769C41.8034 34.9897 41.63 35.163 41.4094 35.163ZM5.16878 35.6516H4.12073C3.90008 35.6516 3.72672 35.4782 3.72672 35.2576C3.72672 35.037 3.90008 34.8636 4.12073 34.8636H5.16878C5.38942 34.8636 5.56278 35.037 5.56278 35.2576C5.56278 35.4782 5.38154 35.6516 5.16878 35.6516ZM31.4095 13.9498H30.3615C30.1408 13.9498 29.9675 13.7764 29.9675 13.5558C29.9675 13.3352 30.1408 13.1618 30.3615 13.1618H31.4095C31.6302 13.1618 31.8035 13.3352 31.8035 13.5558C31.8035 13.7764 31.6223 13.9498 31.4095 13.9498ZM35.6254 3.5717H32.8831C32.6625 3.5717 32.4891 3.39834 32.4891 3.1777C32.4891 2.95705 32.6625 2.78369 32.8831 2.78369H35.6254C35.846 2.78369 36.0194 2.95705 36.0194 3.1777C36.0194 3.39834 35.846 3.5717 35.6254 3.5717ZM47.5559 24.4225H44.8136C44.5929 24.4225 44.4196 24.2491 44.4196 24.0285C44.4196 23.8078 44.5929 23.6345 44.8136 23.6345H47.5559C47.7765 23.6345 47.9499 23.8078 47.9499 24.0285C47.9499 24.2491 47.7765 24.4225 47.5559 24.4225ZM4.12073 16.109H1.37057C1.14992 16.109 0.976562 15.9356 0.976562 15.7149C0.976562 15.4943 1.14992 15.3209 1.37057 15.3209H4.12073C4.34137 15.3209 4.51473 15.4943 4.51473 15.7149C4.51473 15.9356 4.34137 16.109 4.12073 16.109Z" fill="black"/>
<path d="M26.3196 17.5746C26.3196 17.5746 24.5781 17.3775 24.4047 16.7471C24.2235 16.1167 24.2235 14.3201 24.2235 14.3201L21.0321 14.9111C21.0321 14.9111 21.2133 16.7077 21.0321 17.3381C20.8508 17.9686 19.1172 18.1656 19.1172 18.1656C21.5127 19.8598 23.9162 19.6628 26.3196 17.5746Z" fill="#EFEFEF"/>
<path d="M22.3395 19.7024C21.1811 19.7024 20.0306 19.2927 18.8801 18.481C18.7462 18.3865 18.6831 18.221 18.7225 18.0634C18.7619 17.9058 18.8959 17.7876 19.0614 17.7718C19.8573 17.6851 20.598 17.4015 20.6453 17.2281C20.7635 16.8262 20.7004 15.6127 20.6295 14.9507C20.6059 14.7459 20.7477 14.5646 20.9526 14.5252L24.1441 13.9342C24.201 13.9241 24.2594 13.9266 24.3152 13.9416C24.3711 13.9565 24.4229 13.9836 24.4671 14.0209C24.5538 14.0918 24.609 14.21 24.609 14.3203C24.609 14.8089 24.6405 16.1643 24.7745 16.6371C24.8217 16.8026 25.5625 17.0862 26.3584 17.1808C26.4345 17.1902 26.5063 17.2213 26.5651 17.2706C26.6239 17.3199 26.6672 17.3852 26.6897 17.4585C26.7122 17.5319 26.713 17.6102 26.6919 17.6839C26.6709 17.7577 26.6289 17.8238 26.5711 17.8743C25.1763 19.0957 23.7579 19.7024 22.3395 19.7024ZM20.1725 18.3549C21.9219 19.2533 23.6397 19.072 25.397 17.8033C24.8139 17.6457 24.1677 17.3621 24.018 16.8577C23.884 16.3849 23.8367 15.392 23.8288 14.7931L21.4491 15.2344C21.4963 15.8176 21.5515 16.9286 21.4018 17.4487C21.2757 17.9137 20.7162 18.1895 20.1725 18.3549Z" fill="black"/>
<path d="M17.8578 23.4452C17.8578 23.4452 15.021 27.7477 13.8784 27.9368C12.7357 28.1259 6.80202 26.6839 5.99825 27.1094C4.06762 28.1259 4.72955 30.3639 4.90291 30.6161C5.0684 30.8682 2.74376 30.9076 3.80758 27.1724C2.92501 26.9518 2.23944 27.9447 1.87695 27.0779C3.16141 26.3608 3.90214 25.5255 4.83987 25.2418C5.88005 24.9266 11.0021 24.9897 13.2164 25.5728L15.3913 21.0732L17.6293 21.7746L17.8578 23.4452Z" fill="#EFEFEF"/>
<path d="M4.72839 31.097C4.51563 31.097 4.27135 31.0261 4.08222 30.9158C3.55426 30.6164 2.78989 29.7968 3.29421 27.5589C3.17601 27.5904 3.05781 27.6298 2.93173 27.6771C2.56136 27.811 1.86791 28.0711 1.51331 27.2279C1.43451 27.0467 1.50543 26.826 1.68667 26.7315C2.21464 26.4399 2.64016 26.1247 3.04993 25.8252C3.62518 25.3997 4.1295 25.0372 4.72839 24.856C5.77645 24.5408 10.5912 24.5802 13.0025 25.1082L15.0435 20.8923C15.1301 20.7189 15.3271 20.6323 15.5163 20.6874L17.7542 21.3887C17.9039 21.436 18.0064 21.5621 18.03 21.7118L18.2585 23.3824C18.2743 23.477 18.2507 23.5715 18.1955 23.6503C17.5099 24.6905 15.1695 28.1105 13.9481 28.3075C13.4123 28.3942 12.1987 28.205 10.2602 27.8898C8.78665 27.6456 6.56446 27.2831 6.17833 27.4407C5.65037 27.7165 5.30364 28.1262 5.14604 28.6621C4.91752 29.4343 5.14604 30.2381 5.23272 30.3878C5.31152 30.5376 5.30364 30.7897 5.18544 30.9158C5.07512 31.0419 4.90964 31.097 4.72839 31.097ZM3.53062 26.7393C3.64882 26.7393 3.76702 26.7551 3.8931 26.7866C3.99554 26.8103 4.08222 26.8812 4.13738 26.9679C4.19255 27.0624 4.20831 27.1727 4.17679 27.2752C3.67246 29.0482 4.00342 29.7811 4.24771 30.0569C4.27923 30.0884 4.30287 30.1199 4.33439 30.1435C4.24771 29.7101 4.21619 29.1349 4.35803 28.5675C4.55503 27.7795 5.05936 27.157 5.81585 26.7551C6.32017 26.4872 7.65979 26.6763 10.3863 27.1255C11.7811 27.354 13.365 27.6219 13.8142 27.5431C14.4052 27.4485 16.1388 25.313 17.4469 23.3509L17.2735 22.0743L15.5951 21.5463L13.562 25.7386C13.4832 25.904 13.2862 25.9907 13.1049 25.9513C10.8355 25.3603 5.83949 25.3446 4.94116 25.6125C4.46835 25.7543 4.0113 26.0853 3.49122 26.4635C3.33361 26.5739 3.17601 26.6921 3.00265 26.8181C3.16813 26.7709 3.34149 26.7393 3.53062 26.7393Z" fill="black"/>
<path d="M7.64428 24.8953C7.92797 25.699 7.95161 26.4792 7.73096 27.2514L6.22586 27.1726C6.31254 26.4319 6.22586 25.6833 5.96582 24.9425L7.64428 24.8953Z" fill="white"/>
<path d="M7.73174 27.6454H7.7081L6.203 27.5666C6.14946 27.5646 6.09701 27.5508 6.04935 27.5263C6.0017 27.5018 5.96 27.4672 5.9272 27.4248C5.89226 27.3839 5.86645 27.3361 5.8515 27.2844C5.83655 27.2328 5.83281 27.1786 5.84052 27.1254C5.91932 26.4398 5.84052 25.7463 5.60412 25.0686C5.56471 24.9504 5.58047 24.8165 5.6514 24.714C5.72232 24.6116 5.84052 24.5486 5.9666 24.5486L7.64506 24.5092C7.81054 24.5249 7.96815 24.6116 8.02331 24.7692C8.33063 25.636 8.36215 26.5107 8.11787 27.3618C8.06271 27.5272 7.91299 27.6454 7.73174 27.6454ZM6.65217 26.7944L7.4323 26.8338C7.53474 26.3216 7.5111 25.8173 7.36138 25.2893L6.49457 25.305C6.61277 25.8094 6.66793 26.3058 6.65217 26.7944Z" fill="black"/>
<path d="M29.2044 21.8063C29.2044 21.8063 29.5354 20.2933 30.3628 20.2224C31.1902 20.1515 35.5637 21.1917 37.5337 21.0104C39.5037 20.8292 43.4832 16.7079 43.4832 16.7079C43.4832 16.7079 47.1474 15.2737 43.7826 11.0736C43.5068 10.9002 43.4595 11.2942 43.5068 11.57C43.9245 14.0444 42.5849 14.2966 42.183 15.4471L37.2027 18.8119L31.6552 17.5432L28.8577 17.6062L27.1162 19.7969L28.0776 21.8063H29.2044Z" fill="#EFEFEF"/>
<path d="M29.2043 22.2006H28.0775C28.0036 22.2007 27.9312 22.1801 27.8685 22.1411C27.8058 22.1021 27.7554 22.0462 27.7229 21.9799L26.7615 19.9705C26.7301 19.9033 26.7178 19.8287 26.7262 19.755C26.7345 19.6813 26.7631 19.6113 26.8088 19.5528L28.5503 17.3622C28.6212 17.2676 28.7315 17.2203 28.8497 17.2124L31.6472 17.1494C31.6787 17.1494 31.7102 17.1494 31.7417 17.1573L37.1238 18.3866L41.8598 15.1873C42.0095 14.8169 42.238 14.5411 42.4587 14.2653C42.9236 13.69 43.3728 13.1384 43.1127 11.6333C43.0891 11.4757 43.026 10.9478 43.3728 10.7192C43.4594 10.6641 43.688 10.5459 43.9874 10.735C44.0268 10.7586 44.0583 10.7902 44.0898 10.8217C45.3507 12.3977 45.8235 13.8004 45.5004 15.0139C45.1615 16.2905 44.0347 16.8894 43.7116 17.0391C43.097 17.6774 39.5509 21.2234 37.5651 21.4047C36.3122 21.515 34.2161 21.1761 32.5297 20.9003C31.5684 20.7427 30.6621 20.593 30.3942 20.6167C30.0317 20.6482 29.7008 21.3968 29.5905 21.8932C29.5511 22.0745 29.3934 22.2006 29.2043 22.2006ZM28.3296 21.4125H28.9049C29.0704 20.8846 29.488 19.9074 30.3312 19.8286C30.6858 19.7971 31.4108 19.9153 32.6637 20.1202C34.2161 20.3724 36.3516 20.727 37.5021 20.6245C38.9993 20.4906 42.1277 17.5592 43.2073 16.4402C43.2467 16.4008 43.294 16.3693 43.3491 16.3456C43.357 16.3378 44.4681 15.8886 44.7518 14.809C44.9645 14.0131 44.6966 13.0596 43.9638 11.9722C44.1056 13.5009 43.5461 14.1944 43.0812 14.7696C42.8606 15.0454 42.6714 15.2739 42.5611 15.5813C42.5296 15.6601 42.4823 15.731 42.4114 15.7783L37.4312 19.1431C37.3445 19.2061 37.2263 19.2298 37.1238 19.1982L31.6235 17.9453L29.0625 18.0005L27.5889 19.8523L28.3296 21.4125Z" fill="black"/>
<path d="M27.8558 28.6619C28.6832 26.1875 29.2112 23.721 29.2191 21.2624C29.093 20.1041 30.2277 18.8354 31.6619 17.5509C30.1095 16.9678 27.9819 16.8732 25.2711 17.283C23.8448 18.5832 22.2373 18.6305 20.4879 17.6534C18.1554 18.1577 16.1775 19.45 14.499 21.4043C17.525 24.312 17.2019 26.9204 19.2113 29.1268L20.9528 31.3411H27.1781L27.8558 28.6619Z" fill="#EFEFEF"/>
<path d="M25.4221 30.2457C24.5237 27.07 24.3583 23.5397 24.6419 19.7966H22.6719C22.3882 23.5476 22.5458 27.0778 23.4521 30.2457H25.4221Z" fill="#AFAFAF"/>
<path d="M31.6625 17.5514C30.2284 18.8358 29.0936 20.1045 29.2197 21.2629C29.2039 23.7215 28.6839 26.188 27.8565 28.6623L27.1788 31.3337H20.9535L19.212 29.1194C18.8889 28.7648 18.6288 28.4023 18.4082 28.0319C21.2135 27.307 23.8297 25.8334 25.8785 23.7767C27.7236 21.9143 29.0891 19.6321 29.858 17.1259C30.5278 17.2047 31.1346 17.3465 31.6625 17.5514Z" fill="black" fill-opacity="0.0627451"/>
<path d="M25.4209 30.6399H23.4509C23.2775 30.6399 23.1199 30.5217 23.0727 30.3562C22.2295 27.3775 21.9694 23.9103 22.2846 19.7653C22.3004 19.5604 22.4738 19.4028 22.6787 19.4028H24.6487C24.759 19.4028 24.8614 19.4501 24.9402 19.5289C25.019 19.6077 25.0506 19.718 25.0427 19.8284C24.7354 23.8787 24.9875 27.2514 25.8071 30.1434C25.8386 30.2616 25.8149 30.3877 25.744 30.4901C25.6573 30.5847 25.5391 30.6399 25.4209 30.6399ZM23.7425 29.8519H24.9008C24.1916 27.0938 23.9631 23.9181 24.2153 20.1908H23.0333C22.7811 23.9497 23.0096 27.1175 23.7425 29.8519Z" fill="black"/>
<path d="M27.1799 31.7273H20.9546C20.8364 31.7273 20.7182 31.6721 20.6473 31.5776L18.9058 29.3632C17.9995 28.3704 17.5504 27.2987 17.0776 26.156C16.4866 24.7297 15.8719 23.264 14.225 21.6801C14.1517 21.6101 14.1083 21.5144 14.1039 21.413C14.0995 21.3117 14.1344 21.2126 14.2013 21.1364C15.9822 19.0718 18.0705 17.7637 20.403 17.2594C20.4975 17.2358 20.5921 17.2515 20.6788 17.2988C22.3415 18.2208 23.752 18.1183 25.005 16.9836C25.0601 16.9291 25.1326 16.8956 25.2098 16.889C27.96 16.4714 30.1743 16.5738 31.7976 17.1806C31.9237 17.2279 32.0183 17.3382 32.0498 17.48C32.0813 17.6219 32.0261 17.7559 31.9237 17.8425C30.789 18.8669 29.4966 20.175 29.6069 21.2231C29.5991 23.5871 29.142 26.0457 28.2279 28.7801L27.5581 31.4357C27.5187 31.6012 27.3611 31.7273 27.1799 31.7273ZM21.1437 30.9393H26.8725L27.4714 28.5674C27.4714 28.5595 27.4793 28.5516 27.4793 28.5358C28.3698 25.8724 28.811 23.4926 28.8268 21.2625C28.6928 20.0805 29.6857 18.8669 30.8993 17.7243C29.4887 17.354 27.6606 17.3303 25.4462 17.6613C23.9884 18.93 22.3021 19.0718 20.4266 18.0711C18.4251 18.536 16.6126 19.6471 15.0366 21.3807C16.6048 22.9804 17.2352 24.5012 17.8025 25.8566C18.2517 26.9283 18.6694 27.9448 19.5046 28.851L21.1437 30.9393Z" fill="black"/>
<path d="M28.9038 17.0464C27.6193 21.3095 20.0544 22.0345 17.4697 18.8588C18.4075 18.2915 19.3925 17.8817 20.4799 17.6532C22.2372 18.6224 23.8369 18.5751 25.271 17.2749C26.6264 17.07 27.8399 16.9912 28.9038 17.0464Z" fill="#AFAFAF"/>
<path d="M22.443 21.223C20.2524 21.223 18.2587 20.4586 17.1634 19.1112C17.1277 19.0677 17.1021 19.0169 17.0885 18.9624C17.0748 18.9079 17.0735 18.851 17.0846 18.7959C17.1003 18.6856 17.1712 18.5832 17.2658 18.528C18.2744 17.9134 19.2989 17.5036 20.3942 17.2751C20.4888 17.2593 20.5833 17.2672 20.6621 17.3145C22.3248 18.2365 23.7432 18.1261 25.0041 16.9914C25.0592 16.9369 25.1317 16.9034 25.2089 16.8968C26.6195 16.6841 27.8409 16.6053 28.9205 16.6683C29.0387 16.6762 29.149 16.7392 29.2199 16.8338C29.2908 16.9362 29.3066 17.0544 29.2751 17.1726C28.6919 19.0954 26.8322 20.5453 24.2948 21.0497C23.6802 21.16 23.0577 21.223 22.443 21.223ZM18.1011 18.9535C19.4092 20.1907 21.8126 20.7266 24.153 20.2695C26.1703 19.8755 27.6912 18.8275 28.3452 17.4327C27.4863 17.4169 26.5249 17.4957 25.4532 17.6533C23.9954 18.922 22.3012 19.0639 20.4257 18.071C19.6141 18.2522 18.8497 18.5438 18.1011 18.9535Z" fill="black"/>
<path d="M27.8566 44.5244C26.5406 47.3297 23.3334 46.9593 19.3303 45.2651C15.1854 46.3289 12.5692 45.5882 10.9931 43.6103C10.1894 42.5938 10.1106 41.1517 10.8434 40.08C12.7583 37.2668 16.5565 34.7137 18.6211 31.1519C18.9205 30.6318 19.22 29.1188 19.22 29.1188C22.5375 29.8595 25.3665 29.6074 27.8644 28.6617C29.3695 30.2378 30.394 33.0904 29.4562 37.3614C28.8101 40.2455 27.5177 43.1139 27.8566 44.5244Z" fill="#AFAFAF"/>
<path d="M29.448 37.3618C28.8176 40.2459 27.5174 43.1143 27.8562 44.5248C26.5402 47.3301 23.3251 46.9677 19.3299 45.2656C15.185 46.3294 12.5609 45.5886 10.9928 43.6107C10.6396 43.1658 10.4185 42.6307 10.3545 42.0662C13.4593 42.4681 16.6192 42.539 19.4718 41.3491C22.4347 40.1198 24.7436 37.6376 26.3038 34.8323C27.2494 33.1381 27.935 31.3256 28.4945 29.4659C29.6292 31.1286 30.2439 33.737 29.448 37.3618Z" fill="black" fill-opacity="0.0627451"/>
<path d="M24.4133 46.991C22.7427 46.991 20.8672 46.3448 19.2912 45.6829C15.2724 46.6836 12.4513 46.0926 10.6783 43.8547C9.76416 42.7042 9.69324 41.0572 10.5128 39.8595C11.3717 38.5987 12.5774 37.4166 13.8461 36.1558C15.4615 34.564 17.1321 32.9092 18.2668 30.9471C18.4638 30.6082 18.7081 29.5996 18.8184 29.0401C18.842 28.9376 18.8972 28.8431 18.9918 28.7879C19.0784 28.7328 19.1888 28.7091 19.2912 28.7328C22.3566 29.4183 25.1067 29.2765 27.7072 28.2915C27.8569 28.2363 28.0224 28.2757 28.1327 28.386C29.2517 29.5602 30.9538 32.2946 29.8269 37.4403C29.5984 38.4883 29.2911 39.5127 28.9916 40.4978C28.503 42.1053 28.046 43.6262 28.2351 44.4299C28.2588 44.5166 28.243 44.6112 28.2115 44.69C27.4077 46.4078 25.9972 46.991 24.4133 46.991ZM19.3227 44.8712C19.3779 44.8712 19.4252 44.8791 19.4803 44.9027C23.8223 46.7467 26.3597 46.6127 27.4392 44.4693C27.2738 43.4607 27.7229 41.9792 28.2351 40.2692C28.5267 39.2921 28.834 38.2913 29.0547 37.2669C30.0476 32.7437 28.7316 30.2694 27.7308 29.111C25.1698 30.0251 22.4669 30.1748 19.504 29.5759C19.3936 30.0803 19.1809 30.9313 18.9445 31.3411C17.7546 33.3978 16.0446 35.0841 14.3898 36.7153C13.1447 37.9446 11.9706 39.103 11.1511 40.3008C10.5285 41.2149 10.5837 42.4757 11.285 43.3582C12.861 45.344 15.4615 45.8405 19.2124 44.8791C19.2597 44.8712 19.2912 44.8712 19.3227 44.8712Z" fill="black"/>
<path d="M20.0708 45.9035C20.4727 38.9927 24.6728 37.2196 23.7035 30.2142L21.836 30.3718C21.0007 38.2125 16.9109 38.4095 16.0283 45.9035C17.4625 46.2818 18.8258 46.3448 20.0708 45.9035Z" fill="#EFEFEF"/>
<path d="M21.4183 40.3009C20.7643 41.8533 20.2048 43.5948 20.0708 45.9115C18.8336 46.3449 17.4704 46.2898 16.0283 45.9115C16.2096 44.3749 16.5248 43.1377 16.9267 42.0897C17.7935 41.9321 18.6445 41.6957 19.4719 41.349C20.1575 41.0653 20.8037 40.7107 21.4183 40.3009Z" fill="black" fill-opacity="0.0627451"/>
<path d="M18.2036 46.6048C17.5022 46.6048 16.7457 46.5024 15.9341 46.2896C15.842 46.2664 15.7616 46.2103 15.7079 46.1319C15.6543 46.0536 15.631 45.9584 15.6425 45.8641C16.0838 42.0974 17.3446 40.0959 18.5582 38.1652C19.8348 36.1401 21.0325 34.2331 21.4502 30.3403C21.4606 30.2506 21.5015 30.1673 21.5661 30.1041C21.6306 30.041 21.7149 30.002 21.8048 29.9936L23.6724 29.836C23.8851 29.8123 24.0664 29.9699 24.0979 30.1748C24.6495 34.1543 23.5857 36.4789 22.4588 38.9454C21.5684 40.8918 20.6464 42.9091 20.473 45.935C20.4652 46.0926 20.3627 46.2345 20.213 46.2817C19.5747 46.4945 18.9128 46.6048 18.2036 46.6048ZM16.4621 45.6041C17.6914 45.8799 18.7552 45.8877 19.6929 45.6119C19.9136 42.586 20.8355 40.5687 21.7339 38.6065C22.774 36.3292 23.759 34.17 23.3572 30.6397L22.1909 30.7422C21.726 34.6034 20.4494 36.6286 19.2201 38.5829C18.0381 40.4584 16.9191 42.2393 16.4621 45.6041Z" fill="black"/>
<path d="M42.2145 18.0869C41.9072 17.2201 41.4659 16.5818 40.8906 16.172L42.0096 15.4155C42.7897 15.6598 43.2547 16.1641 43.4832 16.8497L42.2145 18.0869Z" fill="white"/>
<path d="M42.2149 18.4806C42.1834 18.4806 42.1519 18.4806 42.1283 18.4728C42.0637 18.4576 42.004 18.4266 41.9545 18.3826C41.9049 18.3386 41.8672 18.2829 41.8446 18.2206C41.5688 17.4326 41.1669 16.8573 40.6626 16.4949C40.5601 16.416 40.4971 16.2978 40.4971 16.1718C40.4971 16.0457 40.5601 15.9196 40.6704 15.8487L41.7894 15.0922C41.8918 15.0213 42.0179 15.0055 42.1283 15.0449C42.9951 15.3207 43.5782 15.8881 43.8619 16.7313C43.9092 16.8731 43.8698 17.0307 43.7594 17.141L42.4829 18.3782C42.4119 18.4412 42.3174 18.4806 42.2149 18.4806ZM41.5372 16.2112C41.8603 16.5343 42.1283 16.9283 42.3568 17.4011L43.0266 16.747C42.8296 16.3294 42.5144 16.0299 42.0652 15.8487L41.5372 16.2112Z" fill="black"/>
<path d="M28.8884 29.6626C25.8624 31.1756 22.5291 31.3804 18.9043 30.3403L19.2116 29.0637C22.6079 29.8202 25.5078 29.5601 28.0689 28.5988L28.8884 29.6626Z" fill="white"/>
<path d="M23.2458 31.381C21.8195 31.381 20.3302 31.1604 18.8014 30.7269C18.7034 30.6989 18.6199 30.634 18.5685 30.5459C18.5171 30.4579 18.5018 30.3533 18.5256 30.2541L18.8329 28.9776C18.8573 28.8781 18.9195 28.792 19.0063 28.7375C19.0931 28.6831 19.1977 28.6646 19.2979 28.686C22.442 29.3873 25.2631 29.2376 27.9345 28.2368C28.0999 28.1738 28.2812 28.229 28.3836 28.3629L29.1953 29.4267C29.2662 29.5213 29.2898 29.6395 29.2662 29.7577C29.2426 29.8759 29.1638 29.9705 29.0613 30.0177C27.2489 30.9239 25.3025 31.381 23.2458 31.381ZM19.3845 30.065C22.6154 30.9161 25.6019 30.7348 28.2891 29.5134L27.9502 29.0642C25.3261 29.9941 22.5602 30.1438 19.5185 29.5292L19.3845 30.065Z" fill="black"/>
<path d="M21.2925 29.2686C20.3863 30.2851 20.142 32.4915 20.0711 35.021C18.763 35.4702 17.6598 35.2417 16.6826 34.5955C18.7236 33.0668 17.7464 30.9234 19.2121 29.111C19.8268 28.6303 20.5281 28.7091 21.2925 29.2686Z" fill="#EFEFEF"/>
<path d="M18.7553 35.6438C17.9594 35.6438 17.1872 35.4074 16.4622 34.9267C16.4105 34.8916 16.368 34.8448 16.338 34.79C16.3081 34.7352 16.2917 34.674 16.2902 34.6116C16.2886 34.5492 16.302 34.4873 16.3292 34.4311C16.3564 34.3749 16.3966 34.326 16.4464 34.2884C17.4551 33.5319 17.6363 32.6257 17.8412 31.5698C18.0146 30.6714 18.1958 29.7495 18.9129 28.8669C18.9287 28.8432 18.9523 28.8275 18.9759 28.8038C19.496 28.3941 20.355 28.0868 21.537 28.9536C21.6237 29.0166 21.6867 29.119 21.6946 29.2294C21.7025 29.3397 21.6709 29.45 21.6 29.5288C20.7096 30.5217 20.5362 32.9882 20.481 35.0291C20.4732 35.1946 20.3707 35.3364 20.2131 35.3916C19.7088 35.565 19.2202 35.6438 18.7553 35.6438ZM17.3605 34.5327C18.0934 34.8873 18.8656 34.9503 19.6852 34.7297C19.7482 32.7203 19.9452 30.6005 20.7253 29.3791C20.1186 29.056 19.7403 29.2215 19.4882 29.4027C18.9208 30.1198 18.7711 30.8999 18.6056 31.7195C18.4243 32.6809 18.2273 33.6737 17.3605 34.5327Z" fill="black"/>
<path d="M17.2982 12.4292C15.935 8.60734 17.1879 6.47971 20.0484 5.66806C23.9884 4.55697 26.3919 6.59792 25.722 10.5774L24.8158 12.9808L20.4739 14.0919L17.905 13.3354L17.2982 12.4292Z" fill="#465D70"/>
<path d="M20.4734 14.4778C20.4362 14.477 20.3991 14.4717 20.3631 14.4621L17.7942 13.7056C17.7057 13.6822 17.6296 13.6258 17.5814 13.548L16.9668 12.6418C16.951 12.6181 16.9353 12.5866 16.9195 12.5551C16.1945 10.5141 16.1551 8.83567 16.8092 7.56697C17.3687 6.47952 18.4246 5.71514 19.9376 5.28174C22.0179 4.69861 23.7831 4.93501 24.9178 5.95943C26.021 6.95232 26.4466 8.61502 26.1077 10.6402L25.1779 13.1146C25.1306 13.2328 25.0281 13.3273 24.9099 13.3588L20.568 14.4699C20.5444 14.4778 20.505 14.4778 20.4734 14.4778ZM18.1567 12.9885L20.4813 13.6741L24.5238 12.6418L25.3591 10.4353C25.6349 8.75687 25.304 7.34633 24.4056 6.54256C23.4758 5.70726 21.9707 5.52602 20.1582 6.03823C18.8659 6.40071 17.9755 7.039 17.5184 7.92157C16.9747 8.98539 17.0141 10.4353 17.6524 12.2399L18.1567 12.9885Z" fill="black"/>
<path d="M16.7854 12.8623C15.5797 12.3658 16.021 10.6401 15.8477 8.67004C16.943 9.46593 17.6916 10.7189 17.7231 12.9017L16.7854 12.8623Z" fill="#01AA85"/>
<path d="M16.7838 12.8624C16.7838 12.8624 16.1612 15.5101 17.7215 15.6993C19.2817 15.8884 17.7215 12.9018 17.7215 12.9018L16.7838 12.8624Z" fill="#01AA85"/>
<path d="M17.7217 13.2958H17.7059L16.7682 13.2564C16.7209 13.2564 16.6815 13.2485 16.6342 13.2249C15.5073 12.7678 15.5073 11.5228 15.4995 10.2068C15.4995 9.72611 15.4995 9.22178 15.4522 8.70169C15.4364 8.54409 15.5152 8.40225 15.6492 8.32345C15.7832 8.24465 15.9486 8.26041 16.0747 8.34709C17.4143 9.32422 18.0841 10.8136 18.1157 12.886C18.1169 12.9924 18.0763 13.095 18.0026 13.1716C17.9289 13.2483 17.828 13.2929 17.7217 13.2958ZM16.8706 12.4763L17.3119 12.492C17.2331 11.2706 16.9021 10.325 16.2875 9.60791C16.2875 9.81279 16.2954 10.0177 16.2954 10.2068C16.2875 11.4676 16.319 12.2005 16.8706 12.4763Z" fill="black"/>
<path d="M17.856 16.1086C17.8009 16.1086 17.7378 16.1086 17.6748 16.0928C17.2414 16.0377 16.8868 15.8328 16.6504 15.4861C16.0042 14.5641 16.3588 12.9565 16.4061 12.7753C16.4455 12.5941 16.611 12.4601 16.808 12.468L17.7457 12.5074C17.8875 12.5153 18.0136 12.5941 18.0767 12.7201C18.3446 13.2324 19.172 14.9581 18.6283 15.7382C18.5022 15.9116 18.2737 16.1086 17.856 16.1086ZM17.1074 13.2718C17.0286 13.784 16.9892 14.6035 17.2965 15.0369C17.4068 15.1945 17.5566 15.2812 17.7693 15.3127C17.8718 15.3285 17.9585 15.3127 17.9821 15.2891C18.1476 15.0527 17.856 14.0913 17.4778 13.2875L17.1074 13.2718Z" fill="black"/>
<path d="M21.5915 16.1249C20.2913 15.8018 19.4166 14.864 18.5656 13.9027C17.0368 14.5488 16.1149 10.7112 18.4001 12.2636C18.6286 10.4985 19.7712 9.15096 21.7019 8.17383C23.5458 8.66239 24.9091 9.45041 25.7207 10.5773C25.8626 12.5867 25.6971 14.4622 23.9635 15.6678C23.27 16.1485 22.4111 16.3376 21.5915 16.1249Z" fill="#EFEFEF"/>
<path d="M23.971 15.6677C23.2696 16.1563 22.4107 16.3375 21.5912 16.1326C21.008 15.9829 20.5116 15.715 20.0703 15.3761C21.9694 13.7528 23.4903 11.6961 24.5068 9.41089C24.9954 9.74185 25.4051 10.1359 25.7282 10.585C25.8701 12.5866 25.7046 14.4699 23.971 15.6677Z" fill="black" fill-opacity="0.0627451"/>
<path d="M22.2617 16.6054C22.0017 16.6054 21.7416 16.5739 21.4895 16.5108C20.205 16.1878 19.3303 15.3525 18.432 14.3596C17.8961 14.4541 17.376 14.202 17.0057 13.6504C16.6038 13.0594 16.4541 12.1768 16.8954 11.7355C17.1081 11.5227 17.4785 11.373 18.1089 11.6488C18.495 10.057 19.6455 8.77258 21.521 7.81908C21.6056 7.774 21.7042 7.76273 21.7968 7.78756C23.7668 8.31553 25.1931 9.17446 26.0363 10.3407C26.0757 10.4038 26.1072 10.4747 26.1072 10.5456C26.249 12.5787 26.1151 14.6511 24.1844 15.9829C23.6241 16.3858 22.9519 16.6034 22.2617 16.6054ZM21.6865 15.7465C22.3799 15.9198 23.1285 15.7701 23.7432 15.3446C25.2325 14.3123 25.4689 12.752 25.3428 10.719C24.6257 9.77335 23.4122 9.05626 21.7495 8.59133C19.9607 9.52906 18.9915 10.7505 18.7866 12.3107C18.7772 12.3774 18.7511 12.4406 18.7107 12.4944C18.6702 12.5482 18.6168 12.5908 18.5554 12.6184C18.494 12.6459 18.4266 12.6575 18.3596 12.6519C18.2925 12.6463 18.2279 12.6238 18.1719 12.5865C17.6991 12.2713 17.4785 12.2713 17.447 12.2871C17.376 12.3501 17.3839 12.7757 17.644 13.1776C17.77 13.3746 18.0458 13.6898 18.4083 13.54C18.5659 13.477 18.7472 13.5164 18.8575 13.6425C19.7558 14.659 20.536 15.4549 21.6865 15.7465Z" fill="black"/>
<path d="M16.6191 6.10124L17.9982 2.61035L20.4095 5.56539L16.6191 6.10124Z" fill="#01AA85"/>
<path d="M16.6193 6.49535C16.501 6.49535 16.3828 6.44019 16.3119 6.34562C16.2689 6.29215 16.2411 6.22807 16.2314 6.16013C16.2217 6.09219 16.2304 6.02288 16.2568 5.9595L17.6358 2.47649C17.6831 2.34253 17.8013 2.25585 17.9431 2.23221C18.085 2.20857 18.2189 2.26373 18.3056 2.37405L20.7248 5.32121C20.8115 5.43153 20.8351 5.58125 20.7878 5.71522C20.7327 5.84918 20.6145 5.94374 20.4726 5.9595L16.6823 6.49535C16.6508 6.48747 16.635 6.49535 16.6193 6.49535ZM18.1165 3.3827L17.2339 5.61277L19.661 5.27393L18.1165 3.3827Z" fill="black"/>
<path d="M21.5039 5.55723L22.8829 2.07422L25.3021 5.02138L21.5039 5.55723Z" fill="#01AA85"/>
<path d="M21.505 5.95104C21.3868 5.95104 21.2686 5.89587 21.1977 5.80131C21.1547 5.74783 21.1268 5.68376 21.1171 5.61582C21.1074 5.54787 21.1162 5.47857 21.1425 5.41519L22.5215 1.93218C22.5688 1.79822 22.687 1.71154 22.8289 1.6879C22.9707 1.66426 23.1047 1.71942 23.1913 1.82974L25.6105 4.7769C25.6972 4.88722 25.7209 5.03694 25.6736 5.1709C25.6184 5.30487 25.5002 5.39943 25.3584 5.41519L21.568 5.95104H21.505ZM23.0022 2.83839L22.1196 5.06846L24.5467 4.72174L23.0022 2.83839Z" fill="black"/>
<path d="M18.6377 5.96742L20.2925 0.388306L23.1215 5.44733L18.6377 5.96742Z" fill="#01AA85"/>
<path d="M18.6363 6.36124C18.5181 6.36124 18.4078 6.31396 18.3369 6.2194C18.2957 6.16969 18.2671 6.11082 18.2533 6.04775C18.2396 5.98467 18.2413 5.91923 18.2581 5.85691L19.9129 0.277797C19.9602 0.128075 20.0863 0.0177537 20.2439 0.00199344C20.4093 -0.0137668 20.5512 0.0650343 20.63 0.198996L23.4668 5.25802C23.5299 5.37623 23.5377 5.51019 23.4747 5.62839C23.4117 5.74659 23.3013 5.82539 23.1674 5.84115L18.6757 6.35336C18.66 6.36124 18.6442 6.36124 18.6363 6.36124ZM20.4015 1.39677L19.1801 5.51019L22.4897 5.13194L20.4015 1.39677Z" fill="black"/>
<path d="M25.3269 5.03723L16.5879 6.07741L16.8873 8.6936L25.6343 7.65343L25.3269 5.03723Z" fill="#01AA85"/>
<path d="M25.6336 7.65343L19.3926 8.39416C20.2042 7.4643 20.9528 6.48717 21.6384 5.47852L25.3342 5.03723L25.6336 7.65343Z" fill="black" fill-opacity="0.0627451"/>
<path d="M16.8863 9.08773C16.79 9.08675 16.6972 9.0512 16.6249 8.98756C16.5526 8.92392 16.5055 8.83642 16.4923 8.741L16.1929 6.12481C16.1692 5.91204 16.319 5.71504 16.5396 5.6914L25.2865 4.65123C25.3899 4.6378 25.4945 4.66593 25.5772 4.72945C25.6599 4.79297 25.7141 4.88669 25.7278 4.99007L26.0273 7.60627C26.0509 7.81903 25.9012 8.01603 25.6805 8.03967L16.9336 9.07985C16.9178 9.08773 16.9021 9.08773 16.8863 9.08773ZM17.0203 6.41637L17.2331 8.25244L25.1998 7.30682L24.9871 5.47076L17.0203 6.41637Z" fill="black"/>
</g>
<defs>
<clipPath id="clip0_1021_700">
<rect width="48" height="48" fill="white"/>
</clipPath>
</defs>
</svg>
