<svg width="287" height="339" viewBox="0 0 287 339" fill="none" xmlns="http://www.w3.org/2000/svg">
<g opacity="0.15" clip-path="url(#clip0_2225_41717)">
<path d="M264.082 12.0355C264.082 17.944 259.289 22.7337 253.379 22.7337C247.466 22.7337 242.674 17.944 242.674 12.0355C242.674 6.12704 247.466 1.33728 253.379 1.33728C259.289 1.33728 264.082 6.12704 264.082 12.0355ZM114.944 204.549L113.114 203.727L113.13 203.691L113.148 203.655L114.944 204.549ZM0 328.97L18.4077 314.899L21.397 337.867L0 328.97ZM255.115 11.029C270.187 36.9995 286.663 78.8723 286.994 120.13C287.161 140.786 283.281 161.366 273.073 179.716C262.856 198.089 246.36 214.106 221.506 225.704L219.808 222.069C243.952 210.8 259.787 195.348 269.565 177.767C279.357 160.164 283.143 140.308 282.982 120.163C282.657 79.819 266.495 38.6328 251.643 13.042L255.115 11.029ZM221.506 225.704C196.898 237.188 177.119 243.4 161.45 245.805C145.795 248.208 134.104 246.83 125.799 242.959C117.431 239.059 112.636 232.684 110.782 225.497C108.944 218.372 110.026 210.579 113.114 203.727L116.774 205.374C113.989 211.552 113.098 218.408 114.669 224.496C116.223 230.524 120.216 235.93 127.495 239.322C134.837 242.744 145.652 244.172 160.841 241.839C176.016 239.511 195.418 233.451 219.808 222.069L221.506 225.704ZM113.148 203.655C116.324 197.289 123.813 190.44 133.271 189.635C142.947 188.812 153.847 194.35 163.66 211.103L160.196 213.131C150.818 197.12 141.162 192.99 133.612 193.633C125.843 194.293 119.436 200.042 116.74 205.446L113.148 203.655ZM163.66 211.103C175.871 231.948 165.869 257.441 140.255 279.298C114.519 301.261 72.4169 320.235 18.2314 328.623L17.617 324.658C71.2747 316.351 112.62 297.604 137.649 276.247C162.799 254.786 170.878 231.364 160.196 213.131L163.66 211.103Z" fill="url(#paint0_linear_2225_41717)"/>
<g clip-path="url(#clip1_2225_41717)">
<mask id="mask0_2225_41717" style="mask-type:luminance" maskUnits="userSpaceOnUse" x="-261" y="109" width="2286" height="407">
<path d="M-260.801 109.432H2024.48V515.042H-260.801V109.432Z" fill="white"/>
</mask>
<g mask="url(#mask0_2225_41717)">
<path opacity="0.5" d="M80.9795 287.853H82.1704V289.042H80.9795V287.853Z" fill="white"/>
<path opacity="0.5" d="M80.9795 273.579H82.1704V274.768H80.9795V273.579Z" fill="white"/>
<path opacity="0.5" d="M52.3984 287.853H53.5893V289.042H52.3984V287.853Z" fill="white"/>
<path opacity="0.5" d="M52.3984 273.579H53.5893V274.768H52.3984V273.579Z" fill="white"/>
<path opacity="0.5" d="M9.52734 287.853H10.7182V289.042H9.52734V287.853Z" fill="white"/>
<path opacity="0.5" d="M9.52734 273.579H10.7182V274.768H9.52734V273.579Z" fill="white"/>
<path opacity="0.5" d="M66.6885 287.853H67.8793V289.042H66.6885V287.853Z" fill="white"/>
<path opacity="0.5" d="M66.6885 273.579H67.8793V274.768H66.6885V273.579Z" fill="white"/>
<path opacity="0.5" d="M38.1084 287.853H39.2993V289.042H38.1084V287.853Z" fill="white"/>
<path opacity="0.5" d="M38.1084 273.579H39.2993V274.768H38.1084V273.579Z" fill="white"/>
<path opacity="0.5" d="M23.8174 287.853H25.0083V289.042H23.8174V287.853Z" fill="white"/>
<path opacity="0.5" d="M23.8174 273.579H25.0083V274.768H23.8174V273.579Z" fill="white"/>
<path opacity="0.5" d="M80.9795 302.126H82.1704V303.316H80.9795V302.126Z" fill="white"/>
<path opacity="0.5" d="M80.9795 316.4H82.1704V317.589H80.9795V316.4Z" fill="white"/>
<path opacity="0.5" d="M80.9795 330.674H82.1704V331.863H80.9795V330.674Z" fill="white"/>
<path opacity="0.5" d="M52.3984 302.126H53.5893V303.316H52.3984V302.126Z" fill="white"/>
<path opacity="0.5" d="M52.3984 316.4H53.5893V317.589H52.3984V316.4Z" fill="white"/>
<path opacity="0.5" d="M52.3984 330.674H53.5893V331.863H52.3984V330.674Z" fill="white"/>
<path opacity="0.5" d="M9.52734 302.126H10.7182V303.316H9.52734V302.126Z" fill="white"/>
<path opacity="0.5" d="M9.52734 316.4H10.7182V317.589H9.52734V316.4Z" fill="white"/>
<path opacity="0.5" d="M9.52734 330.674H10.7182V331.863H9.52734V330.674Z" fill="white"/>
<path opacity="0.5" d="M66.6885 302.126H67.8793V303.316H66.6885V302.126Z" fill="white"/>
<path opacity="0.5" d="M66.6885 316.4H67.8793V317.589H66.6885V316.4Z" fill="white"/>
<path opacity="0.5" d="M66.6885 330.674H67.8793V331.863H66.6885V330.674Z" fill="white"/>
<path opacity="0.5" d="M38.1084 302.126H39.2993V303.316H38.1084V302.126Z" fill="white"/>
<path opacity="0.5" d="M38.1084 316.4H39.2993V317.589H38.1084V316.4Z" fill="white"/>
<path opacity="0.5" d="M38.1084 330.674H39.2993V331.863H38.1084V330.674Z" fill="white"/>
<path opacity="0.5" d="M23.8174 302.126H25.0083V303.316H23.8174V302.126Z" fill="white"/>
<path opacity="0.5" d="M23.8174 316.4H25.0083V317.589H23.8174V316.4Z" fill="white"/>
<path opacity="0.5" d="M23.8174 330.674H25.0083V331.863H23.8174V330.674Z" fill="white"/>
</g>
</g>
</g>
<defs>
<linearGradient id="paint0_linear_2225_41717" x1="106.554" y1="277.689" x2="273.97" y2="31.6808" gradientUnits="userSpaceOnUse">
<stop stop-color="white"/>
<stop offset="0.69" stop-color="white" stop-opacity="0"/>
</linearGradient>
<clipPath id="clip0_2225_41717">
<rect width="287" height="339" fill="white"/>
</clipPath>
<clipPath id="clip1_2225_41717">
<rect width="119.087" height="118.947" fill="white" transform="translate(-27.3896 267.632)"/>
</clipPath>
</defs>
</svg>
