<svg width="46" height="46" viewBox="0 0 46 46" fill="none" xmlns="http://www.w3.org/2000/svg">
<mask id="mask0_2768_10" style="mask-type:alpha" maskUnits="userSpaceOnUse" x="0" y="0" width="46" height="46">
<rect width="46" height="46" fill="#D9D9D9"/>
</mask>
<g mask="url(#mask0_2768_10)">
<g clip-path="url(#clip0_2768_10)">
<path fill-rule="evenodd" clip-rule="evenodd" d="M37.9513 15.0001C36.1298 14.9971 34.3638 15.6265 32.9547 16.7807C31.536 15.6264 29.7623 14.9974 27.9333 15.0001C26.1113 14.9929 24.3441 15.6228 22.9373 16.7807C21.5647 15.6707 19.83 15.0001 17.94 15.0001C16.1187 14.9973 14.3529 15.6266 12.944 16.7807C11.572 15.6707 9.83733 15.0001 7.94667 15.0001C3.54667 15.0001 0 18.5354 0 22.9227C0 27.3094 3.54667 30.8454 7.94733 30.8454C9.83733 30.8454 11.5973 30.1741 12.944 29.0647C14.316 30.1741 16.0507 30.8447 17.94 30.8447C19.83 30.8447 21.59 30.1741 22.9367 29.0647C24.3556 30.219 26.1296 30.8478 27.9587 30.8447C29.8747 30.8447 31.6087 30.1741 32.9807 29.0647C34.3527 30.1741 36.0873 30.8447 37.9773 30.8447C42.378 30.8447 45.9247 27.3101 45.9247 22.9227C45.8987 18.5614 42.352 15.0001 37.9513 15.0001ZM32.9547 26.4841C32.2107 25.4459 31.8123 24.1999 31.816 22.9227C31.816 21.6067 32.23 20.3681 32.9547 19.3614C33.6989 20.3995 34.0975 21.6455 34.094 22.9227C34.094 24.2647 33.654 25.4774 32.9547 26.4841ZM22.9367 26.4841C22.1925 25.446 21.7939 24.2 21.7973 22.9227C21.7973 21.6067 22.2113 20.3681 22.9367 19.3614C23.6806 20.3996 24.079 21.6455 24.0753 22.9227C24.0753 24.2647 23.6353 25.4774 22.9367 26.4841ZM12.918 26.4841C12.1738 25.446 11.7752 24.2 11.7787 22.9227C11.7787 21.6067 12.1933 20.3681 12.918 19.3614C13.662 20.3996 14.0603 21.6455 14.0567 22.9227C14.0567 24.2647 13.6167 25.4774 12.918 26.4841ZM1.73467 22.9227C1.73467 19.5421 4.47867 16.7807 7.896 16.7807C9.25238 16.7766 10.572 17.2213 11.6493 18.0454C10.588 19.3874 9.96667 21.0647 9.96667 22.9227C9.96667 24.7547 10.588 26.4581 11.6493 27.8001C10.614 28.6001 9.31933 29.0647 7.896 29.0647C4.50467 29.0647 1.73467 26.3294 1.73467 22.9227ZM14.16 27.8001C15.2213 26.4581 15.8427 24.7807 15.8427 22.9227C15.8427 21.0901 15.2213 19.3874 14.16 18.0454C15.1953 17.2454 16.49 16.7807 17.9133 16.7807C19.3373 16.7807 20.632 17.2454 21.6667 18.0454C20.606 19.3874 19.9847 21.0647 19.9847 22.9227C19.9847 24.7547 20.606 26.4581 21.6673 27.8001C20.632 28.6001 19.3373 29.0647 17.914 29.0647C16.49 29.0647 15.1953 28.6001 14.16 27.8001ZM24.1787 27.8001C25.24 26.4581 25.8613 24.7807 25.8613 22.9227C25.8613 21.0901 25.24 19.3874 24.1787 18.0454C25.214 17.2454 26.508 16.7807 27.932 16.7807C29.2884 16.7766 30.608 17.2213 31.6853 18.0454C30.6247 19.3874 30.0033 21.0647 30.0033 22.9227C30.0033 24.7547 30.6247 26.4581 31.686 27.8001C30.65 28.6001 29.356 29.0647 27.9327 29.0647C26.5761 29.069 25.2562 28.6243 24.1787 27.8001ZM37.9507 29.0647C36.5943 29.0688 35.2746 28.6242 34.1973 27.8001C35.258 26.4581 35.8793 24.7807 35.8793 22.9227C35.8793 21.0901 35.258 19.3874 34.1967 18.0454C35.2327 17.2454 36.5267 16.7807 37.95 16.7807C41.342 16.7807 44.112 19.5161 44.112 22.9227C44.112 26.3294 41.342 29.0647 37.9507 29.0647Z" fill="black"/>
</g>
</g>
<defs>
<clipPath id="clip0_2768_10">
<rect width="46" height="16" fill="white" transform="translate(0 15)"/>
</clipPath>
</defs>
</svg>
