<svg width="46" height="46" viewBox="0 0 46 46" fill="none" xmlns="http://www.w3.org/2000/svg">
<mask id="mask0_2768_103" style="mask-type:alpha" maskUnits="userSpaceOnUse" x="0" y="0" width="46" height="46">
<rect width="46" height="46" fill="#D9D9D9"/>
</mask>
<g mask="url(#mask0_2768_103)">
<g clip-path="url(#clip0_2768_103)">
<path d="M20.776 28.3784L20.6963 28.5732L20.7495 28.9264L20.9307 29.717L21.2442 30.7597L21.5049 31.3826L21.8538 32.1779L22.1013 32.6461L22.4812 33.3353L22.9361 34.1036L23.2941 34.5988L23.5943 35.0007L23.6077 35.2217L23.5681 35.4028L23.4003 35.469L22.8965 35.4954L22.013 35.4427L21.2841 35.3496L20.6435 35.2348L19.8658 35.0141L19.4727 34.8418L19.2121 34.727L18.9159 34.6737L18.5758 34.6871L18.3949 34.7666H18.1474L17.5598 34.6737L17.224 34.5589L16.8575 34.5325L16.2742 34.5196L15.8324 34.4795H15.426L15.0241 34.506L14.7501 34.6205L14.5556 34.6737L14.4893 34.7666L14.5026 34.948L14.6881 35.248L15.0372 35.7298L15.2449 35.8179L15.5718 36.0522L15.9472 36.2601L16.3537 36.3923L16.9369 36.4057L17.4582 36.3525L17.8999 36.2513L18.2756 36.1319L18.4345 36.2114L18.5097 36.3658L18.6422 36.4057L18.9646 36.3923L19.371 36.4191L19.5789 36.4852L19.8261 36.4191L20.6302 36.52L21.1779 36.5997L22.0748 36.7945L22.7285 36.9885L23.3738 37.2097L23.943 37.4703L24.1642 37.6293L24.7521 37.6558L25.0654 37.5763L25.2332 37.236L25.4141 36.821L25.3621 36.4852L25.1411 36.0654L24.8451 35.4556L24.6103 34.8196L24.438 34.1036L24.3633 33.4898V32.8934L24.4251 32.191L24.5048 31.8373L24.4117 31.5373L24.2177 31.3826L23.8289 31.0955L23.5542 30.901L23.5022 30.5254L23.3738 30.1235L23.1304 29.7302L22.87 29.3946L22.5433 29.0813L22.1278 28.7672L21.6595 28.418L21.412 28.2989L21.1648 28.224L20.9571 28.2591L20.776 28.3784Z" fill="black" stroke="black" stroke-miterlimit="2.613"/>
<path d="M19.2649 2.03528L19.2607 2.20759L19.0795 2.24745L18.8454 2.21666L18.4919 2.2916L18.227 2.37561L18.0149 2.38897L17.9485 2.48181L18.0237 2.60997L18.1829 2.64529L18.333 2.60114L18.5053 2.52596L18.6821 2.51713L19.0576 2.53479L19.3447 2.62309L19.6847 2.7071L20.184 2.9324L20.2284 3.0386L20.1754 3.12237L19.9413 3.20638L19.8 3.27272L19.5482 3.4405L19.164 3.64384L18.6957 3.97533L18.1612 4.21829L17.7371 4.4968L17.3528 4.66482L16.9905 4.75312L16.6724 4.76195L16.2349 4.77078L16.0669 4.81493L15.9698 5.01827L15.8946 5.23927L15.8106 5.38939L15.5984 5.70752L15.3951 6.06073L15.2581 6.23304L15.2447 6.43185L15.2581 6.71012V7.00606L15.4393 7.16954L15.5984 7.25355L15.7884 7.24018L16.0977 7.15617L16.4466 7.05021L16.9194 6.86024L17.1094 6.86907L17.1535 6.9884L17.1094 7.10319L16.9502 7.1872L16.4686 7.36834L16.1063 7.47431L16.0357 7.59364L16.0223 7.7218L16.1416 7.82776L16.3934 7.85855H16.5967L16.8528 7.84972L17.1313 7.78337L17.5335 7.5712L17.7986 7.51822L18.0239 7.47383L18.1962 7.53135L18.448 7.51822L18.6955 7.54925L18.8988 7.66857L19.217 7.69936L19.6322 7.82752L19.8575 7.85831L20.2065 7.7965L20.6527 7.82752L20.847 7.90246L20.9532 8.0836L20.931 8.31773L20.878 8.60483L20.7721 8.93609L20.622 9.35136L20.4718 9.80648L20.3127 10.2217L20.2067 10.5088L19.8444 11.0745L19.407 11.6265L19.0139 12.1699L18.5146 12.6689L18.0552 13.0577L17.7635 13.3668L17.6091 13.8749L17.3927 14.1312L17.1187 14.3255L16.7874 14.5992L16.2793 14.9085L15.8509 15.125L15.5772 15.4386L15.3827 15.6906L15.1884 15.8099L14.9147 15.9469L14.7381 15.9071L14.3892 15.7479L14.0004 15.4961L13.4305 15.2443L12.7899 14.9085L12.4586 14.6567L12.0477 14.3255L11.5971 13.9544L11.1112 13.7778L10.6828 13.7026L10.1351 13.8174L9.74629 14.0338L9.4105 14.268L9.23819 14.6964L9.11886 15.0278L8.98187 15.5357L8.82746 15.8448L8.67281 16.3176L8.65085 16.8832L8.51386 17.2144L8.35921 17.7402L8.22222 18.266L7.97043 18.7564L7.83344 19.2423L7.75397 19.8476L7.53751 20.3557L7.40052 20.6473L7.38286 20.9389L7.3652 21.4294V22.2864L7.26782 22.6396L7.32534 22.9489L7.30291 23.457L7.47975 23.8635L7.61674 23.9606L7.86853 23.8809L8.10241 23.6687L8.4382 23.2623L8.72984 22.794L8.84464 22.4053L8.7697 22.0917L8.67233 21.7029L8.553 21.2346L8.4382 20.7444L8.37639 20.3731V20.0242L8.45586 19.6311L8.65013 19.0302L8.8444 18.7166L9.02125 18.5576L9.158 18.3454L9.41002 18.3232L9.52935 18.2483L9.70596 18.0891L9.90023 17.9168L10.0768 17.6827L10.1518 17.4092L10.2138 17.1751L10.2315 16.8615L10.289 16.5877L10.426 16.4154L10.563 16.3756L10.7396 16.4331L10.9916 16.5701L11.2654 16.8837L11.557 17.312L11.8883 17.7008L12.2417 18.0144L12.5553 18.2662L12.8636 18.403L12.9608 18.5975L12.8636 18.6948L12.5322 18.6197L12.0639 18.5798L11.4587 18.4605L10.8756 18.3457L10.1733 18.3235L9.76252 18.3457L9.44916 18.5399L9.1179 18.8316L8.84392 19.2998L8.63176 19.8299L8.6098 20.2187L8.72913 20.921L9.00287 21.8179L9.13986 22.5203L9.31217 23.205L9.4315 23.6869L9.48902 24.1374L9.64343 24.6455L9.76276 25.4231L9.87755 25.6968L10.1735 25.931L10.4475 26.2045L10.7565 26.673L10.973 27.2207L11.3043 27.7066L11.7904 28.1748L12.1436 28.3913L12.3775 28.409L12.5718 28.3514L12.6911 28.0779L12.8236 27.8438L12.903 27.5126V26.7524L12.8059 26.536C12.7882 26.536 12.7882 26.3992 12.7882 26.3816L12.7484 26.2448L12.5892 26.0109L12.2976 25.719L11.7541 25.4852L11.5553 25.4231L11.52 25.0918L11.5377 24.8797L11.1665 24.451L10.9324 23.9031L10.7379 23.1253L10.579 22.4053L10.3095 21.8396L10.2124 21.1549L10.3668 20.7442L10.6408 20.5895H10.8527L11.1663 20.8635L11.6169 21.1375L12.0851 21.3098L13.2159 21.8575L13.7639 22.1711V22.4628L14.2674 22.7542L14.9125 22.9706H16.26L16.1629 23.2227L16.1056 23.3594L16.2779 23.6864L16.6092 24.1768L17.1395 24.7023L17.78 25.405L18.3277 25.8906L19.3528 26.677L20.1833 27.1231L20.8062 27.4546L21.6059 27.998L22.3436 28.5237L22.9799 29.0626L23.6424 29.9595L23.6732 30.3347L23.8233 30.7237L24.2298 31.0153L24.6011 31.1612L24.8309 31.1299L25.0126 30.9535L25.2732 30.6753L25.3352 30.2998L25.6443 29.7653L25.7104 29.3543L25.7593 28.8994L25.7901 28.5414L25.8918 28.3166L26.0992 28.2149H26.2982L26.3113 28.365L26.166 28.524L26.0378 28.8684L25.9405 29.0805V29.3412L25.9054 29.8934L25.8261 30.1717L25.583 30.5912L25.2558 31.1306L24.9293 31.718L24.7352 32.4824L24.6379 33.2821L24.7352 34.1745L24.8634 34.6959L25.1725 35.3807L25.5655 36.1935L25.8746 36.8295L26.2985 37.4968L26.8018 38.1154L26.8992 38.3274V38.4732L26.833 38.6543L26.6564 38.946L26.3782 39.3347L25.808 40.0684L25.2379 40.6865L24.7166 41.2569L24.4916 41.3894L24.0319 41.566L23.7579 41.8268L23.6121 42.1228L23.2854 42.5289L22.9148 42.9351L22.4596 43.4079L22.1811 43.8938L22.0176 44.3843L21.9205 44.7905L21.9382 45.1174L22.1324 45.3251H22.8484L23.1572 45.2943L23.4804 45.1003L23.9042 44.9057L23.9701 44.7423H24.1159L24.341 44.6449L24.5531 44.4463L24.6682 43.6688L24.6016 43.5048L24.5708 43.3413L24.6858 43.3721L24.8135 43.4075L24.9465 43.3101L25.1586 43.1776L25.3837 42.886L25.662 42.4929L25.8078 42.1352L25.8386 41.8433L26.0199 41.7106L26.2806 41.565L26.4927 41.4368L26.6693 41.0791L27.045 40.6863L27.7469 40.0366L28.2812 39.6789L28.8208 39.383L28.9483 39.2548L28.9972 39.1221L29.1115 38.9765L29.0318 38.7825L29.0149 38.4245L28.9437 38.0892L28.8597 37.8949L28.6743 37.5768L28.3786 37.2054L28.233 36.9272L28.202 36.6353V36.2424L28.2679 36.0174L28.4445 35.4122L28.6254 35.1205L28.8201 35.0057L29.1776 34.7804L29.6017 34.4181L30.1719 33.9325L30.5607 33.526L30.9535 33.0709L31.3599 32.6115L31.6518 32.0946L31.8948 31.6526L32.1246 31.1492L32.2881 30.5922L32.337 30.0757L32.3678 29.6827L32.5005 29.5545L32.6461 29.5194L32.7742 29.6037L32.889 29.8774L32.9198 30.2526L32.9733 30.6103L32.9382 30.8538L32.9069 31.2292V32.0289L33.004 32.6607L33.1184 32.8241L33.2157 32.8108L33.2642 32.696L33.1981 32.4354V31.9931L33.3308 31.622L33.3928 31.0831L33.4587 30.7075L33.5432 30.5309H33.6403L33.7195 30.6103L33.7993 30.9196L33.8651 31.2156L33.8343 31.6838L33.737 32.3201L33.4413 32.9389L33.1678 33.5263L33.0038 34.0298L32.973 34.3391L33.0038 34.6969L33.1181 35.0413H33.3305L33.441 34.8912L33.3787 34.7277L33.3305 34.4358L33.5246 34.1749L33.7501 33.8656L33.9002 33.5742L34.2577 33.0039L34.5496 32.4824L34.6778 31.9122L34.7923 31.1614V30.4146L34.647 29.8932L34.3551 29.4867L34.3198 29.2927L34.4527 29.2266L34.6164 29.3058L34.8286 29.5667L35.0892 30.0392L35.1997 30.591L35.2658 31.3244L35.4295 31.8325L35.4472 31.8459L35.6722 32.3494L35.8178 32.4024L35.8837 32.27L35.8663 32.1903L35.7555 31.8151L35.7381 31.4397L35.7555 30.8877L35.8529 30.2691V29.9598L35.8178 29.6991L35.557 29.1774L35.3317 28.802L35.4114 28.6564L35.7212 28.5903L36.1446 28.3963L36.5997 28.1529L37.0061 27.7951L37.5276 27.093L37.8233 26.5099L38.0665 25.9534L38.1462 25.0611L38.1638 24.2613L38.0357 23.2718L37.8856 22.5561L37.7574 21.8227L37.6777 21.0585L37.74 20.5726L37.8724 19.9674L38.1462 19.3664L38.539 18.7481L38.6848 18.355L38.7156 18.1607L38.5879 17.9841L38.4075 17.8994V18.1779L38.2617 18.3414L38.0011 18.7302L37.8553 18.8273L37.4488 19.3177L37.2856 19.5784L37.0913 20.0158L36.8791 20.0511L36.6849 19.9363L36.5698 19.4149L36.6011 18.8142L36.7338 18.2574L37.0567 17.7359L37.7099 16.7596L38.0994 15.9643L38.1476 15.4076L38.0856 15.2309L37.9712 15.3457L37.777 15.8317L37.481 16.3221L37.0433 16.6801L36.54 17.166L35.7892 18.0452L35.6436 18.0318L35.5952 17.8817L35.5775 17.5237L35.6259 16.8567L35.8558 16.1102L36.2622 15.2796L36.8011 14.6126L37.4681 14.0427L37.5302 13.9102L37.4505 13.8484L37.1106 14.025L36.8319 14.2061L36.3593 14.6126L35.772 15.1341L35.352 15.704L34.9412 16.4505L34.7162 17.0557L34.6501 17.6567L34.6188 18.4695L34.8131 19.3177L35.0073 20.0511L35.3828 21.2043L35.6259 22.5871L35.7718 23.6427V24.2131L35.7095 24.8138L35.6128 25.3047L35.4312 25.8565L34.7465 26.7178L34.0482 27.3538L33.1515 27.8574L32.29 27.9059L32.1757 27.4861L31.8666 26.8808L31.4425 26.2978L31.1642 25.9536L30.7931 25.4501L29.9929 24.6861L29.1803 24.0191L28.8227 23.7403L27.7003 22.9804L26.088 21.6284L25.2085 20.5373L24.2458 18.9602L23.9849 18.0149L24.0508 17.4273L24.1835 17.3125L24.524 17.5421L25.0629 17.8027L25.5006 17.7851L26.0037 18.0149L26.5428 18.3419L26.8211 18.5672L27.1791 18.8146L27.5502 18.8633L27.6342 18.6998L27.5369 18.6822L27.4223 18.7309L27.2414 18.6161L27.082 18.3731L26.8526 17.9975L26.4106 17.5913L25.9734 17.4278L25.73 17.3791L25.7789 17.251H26.1187L26.5118 17.3791L27.0817 17.7545L27.3428 17.8693L27.4397 17.7366L27.2758 17.5113L26.834 17.118L26.1493 16.7603L25.3228 16.4378L25.1596 16.3054L25.3228 16.1906L25.6942 16.3717L26.3794 16.4865L27.1123 16.7782L27.5011 16.9724L28.1858 17.0696L28.6764 17.0035L28.95 16.8753L29.3256 16.6455L29.4893 16.4865L29.507 16.3717L29.355 16.3841L29.2098 16.5343L28.7237 16.6934L28.2996 16.7596L27.9416 16.7109L27.5972 16.4371L27.2882 16.0748L26.9171 15.8011L26.3605 15.6863L25.8259 15.5052L25.5961 15.3593L25.6137 15.2314L25.8259 15.2622H26.2985L26.7708 15.2314H27.2569L27.5178 15.1827L27.7299 15.3593L28.0698 15.4434H28.3481L28.4762 15.3462L28.2512 15.2799L27.9729 15.0987L27.681 14.825L27.2085 14.5775L26.8197 14.5288L26.4622 14.4801L26.3292 14.4007L26.5903 14.2548H27.014L27.3412 14.352L27.6638 14.5157L28.1851 14.741L28.7063 14.7586L28.9846 14.6262L29.0643 14.4493L28.8521 14.3522L28.4149 14.3345L28.0392 14.2064L27.7127 13.9281L27.3548 13.747L26.8825 13.6675L26.476 13.5217L26.2994 13.2921L26.3302 13.1773L26.5913 13.2303L26.918 13.3274L27.1123 13.4732L27.3906 13.504L27.4213 13.3582L27.1299 13.1286L27.0455 12.921L27.4383 12.9828L27.8094 13.1771L28.2819 13.23L28.4633 13.5701L28.949 13.8618L28.9755 13.8572L29.0817 13.8131L29.2098 13.7336L29.1476 13.6365L28.9662 13.6496L28.8027 13.4243L28.4755 12.9207L27.9058 12.4129L27.3228 12.1523L27.1591 11.958L26.8011 11.5339L26.4743 11.3573L26.4259 11.1938L26.5712 11.0967L26.9161 11.1761L27.5963 11.3704L27.9235 11.4852L28.1356 11.7811L28.4755 11.958H28.7364L29.081 12.0551L29.4561 11.9888L29.602 11.8606L29.3898 11.6795L29.0807 11.6L28.7227 11.5513L28.5103 11.3702L28.2321 10.9637L28.1662 10.7031L27.8082 10.3805L27.4194 10.133L26.9772 9.85898L26.4915 9.4041L26.4607 9.2714H26.5708L27.207 9.77497L27.8567 10.1504L28.2013 10.411L28.639 10.8172L29.0318 11.0291L29.2573 11.0955L29.3719 10.9143L29.2087 10.8525L28.8681 10.5432L28.771 10.1988L28.4134 9.81006L28.1175 9.56257L27.9717 9.19145L27.4684 8.44063L26.7836 7.83969L26.7524 7.64542L26.9953 7.67621L27.3402 7.85306L27.892 8.08265L28.4621 8.11367L28.8862 8.31248L29.3411 8.39195L29.7299 8.27715L29.6991 8.11367L29.2571 8.0163L28.8681 7.83969L28.0862 7.46428L27.6626 7.23469L27.4371 6.96071L27.5168 6.86334L27.6314 6.94281L27.808 7.00916L28.0378 7.02682H28.4134L28.7356 6.9915L29.2266 6.96071L29.6017 7.10653L29.9905 7.38481L30.1542 7.4335L30.1719 7.28768L30.0389 7.15522L29.6502 6.79723L29.0452 6.48793L28.608 6.43924L27.7774 6.39056L27.5834 6.16097L27.1595 5.73687L26.687 5.41444L26.5104 5.25096L26.6562 5.13617L26.8813 5.2333L27.2875 5.44547L27.7469 5.60895L28.3655 5.75477H28.9001L29.3421 6.24521L29.7001 6.45714L29.8282 6.32469L29.3421 5.60895L28.5776 5.05693L27.9414 4.90682L27.4025 4.3412L26.9299 4.06292L26.2806 3.89944L26.6385 3.59038L27.2743 3.37821L27.7469 3.23239L27.8574 3.08681L27.7956 2.97201L27.5345 2.9059L27.2875 2.85722L25.4498 2.89254L25.1231 2.53026L24.7517 2.2873L24.2794 2.07513L23.6606 1.97776H23.126L22.9804 1.78349L22.4768 1.2446L21.8716 0.692108L21.5005 1.31071L21.4828 1.50498L21.6596 1.73457L21.6773 1.92884L21.5494 2.04363L21.1384 2.07442L20.3917 1.86225L19.6583 1.70402L19.3179 1.71715L18.7614 1.83194L18.8275 2.02645L19.1368 2.01308L19.2649 2.03528Z" fill="black" stroke="black" stroke-miterlimit="2.613"/>
<path d="M21.2398 1.83194L21.2042 1.45653L20.6696 0.80714L20.5061 0.758453L20.3913 0.921934L20.409 1.11644L20.2279 1.27968L20.2102 1.50522L20.4224 1.62001L20.7183 1.83194H21.2398Z" fill="black" stroke="black" stroke-miterlimit="2.613"/>
<path d="M20.1973 1.40783L20.2104 1.37704" stroke="black" stroke-miterlimit="2.613"/>
<path d="M25.7774 22.3924L25.0614 21.4645L24.4425 20.5545L23.9831 19.839L23.8068 19.3485L23.7096 18.8757L23.5944 18.5533L23.4134 18.4696L23.2364 18.518L23.1748 18.8273L23.3032 19.3662L23.6123 20.1483L24.0008 20.7798L24.4425 21.3366L24.9287 21.8225L25.2201 22.1007L25.7774 22.3924ZM16.027 5.77721L15.8547 6.01563L15.7838 6.25859L15.8148 6.4309L15.8988 6.48388L16.1418 6.4309L16.3229 6.32947L16.4511 6.20107L16.5217 5.96265L16.4511 5.84786L16.2964 5.7197L16.1683 5.70657L16.027 5.77721ZM20.6655 5.13642H20.8643L21.05 5.06601L21.0631 4.88033L20.9925 4.66841L20.9085 4.4696L20.7407 4.35457L20.5242 4.31471L20.2281 4.32808L20.0426 4.48273L19.9586 4.65504L20.0161 4.80969L20.2149 4.92449L20.4269 5.03928L20.6655 5.13642ZM36.5915 22.4454L36.4767 22.5602L36.4993 22.7678L36.5339 23.1389L36.574 23.5325L36.6003 23.8721L36.5829 24.2611L36.5652 24.694L36.4855 25.0828L36.3924 25.4229L36.2335 25.7544L36.0263 26.0945L35.8139 26.4262L35.5886 26.7307L35.3812 27.0045L35.2664 27.2121L35.1822 27.4021L35.1996 27.5436L35.3065 27.592L35.5051 27.5436L35.8934 27.1722L36.2335 26.7746L36.4592 26.4563L36.6583 26.0856L36.79 25.7455L36.9058 25.3568L36.9891 24.9016L36.9979 24.694V23.8635L36.9315 23.4527L36.8385 23.0241L36.7242 22.6664L36.6671 22.4852L36.5915 22.4454ZM19.4417 25.1181L19.6672 25.3701L20.4092 26.015L20.8202 26.3816L21.1868 26.7133L21.4827 26.9913L21.5402 27.0837L21.5801 27.1503L21.465 27.1417L21.1691 26.9558L20.6698 26.6248L19.8968 26.1033L19.5832 25.8909L19.252 25.631L18.8897 25.2992L18.6245 25.0918L18.3064 24.7825L18.0988 24.5663L17.9706 24.3673L17.9222 24.1286L17.931 23.9079L18.0148 23.8236L18.1606 23.8324L18.3904 23.9697L18.6377 24.2083L18.819 24.4286L19.0133 24.6234L19.2033 24.8575L19.4417 25.1181ZM17.7675 15.103L17.7763 14.9837L17.8558 14.8954L18.1341 14.7806L18.7128 14.5995L19.2916 14.5286H19.645L19.9367 14.5906L20.2104 14.7276L20.4269 14.9398L20.4402 15.0589L20.4138 15.1429L20.3209 15.1606L20.1796 15.1429L19.9632 15.0808L19.7598 15.0193L19.508 14.9925H19.1944L18.9293 14.9882L18.6952 15.0104L18.4346 15.0543L18.2269 15.1119L18.0238 15.156L17.8911 15.1648L17.7985 15.1517L17.7675 15.103ZM25.1893 25.0739L25.1051 25.3081L25.07 25.4933L24.9996 25.8295L24.9769 26.0988L25.0392 26.1742L25.1674 26.1916L25.2332 26.1384L25.264 25.9973L25.3621 25.794L25.4588 25.6835L25.565 25.5863L25.6311 25.4319L25.6132 25.1711L25.521 25.0343L25.4676 24.9852H25.3437L25.2516 25.0035L25.1893 25.0739ZM25.3709 33.1189H25.2867L25.2201 32.9201L25.2156 32.6946L25.264 32.3853L25.3745 31.9614L25.5561 31.7005L25.7196 31.4977L25.8652 31.4798L25.9048 31.6122L25.8167 31.8953L25.6924 32.2397L25.6311 32.4074L25.516 32.6683L25.428 32.9731L25.4017 33.0611L25.3709 33.1189ZM31.0648 29.2223L30.9594 29.3548L30.9768 29.5669L31.162 29.823L31.1892 30.1013L31.2324 30.181L31.3169 30.2032L31.409 30.15L31.4362 30.0261L31.4799 29.8894L31.498 29.7435V29.549L31.471 29.4035L31.3694 29.2753L31.2813 29.1958L31.1753 29.187L31.0648 29.2223ZM22.9407 43.9471L22.7595 44.1277L22.6932 44.2604L22.6712 44.3755L22.6889 44.4681L22.7464 44.5122H22.7994L22.923 44.4857L23.0509 44.4019L23.1304 44.2824L23.1967 44.1545L23.2364 43.991L23.224 43.8984L23.1748 43.8585L23.0777 43.8628L22.9407 43.9471ZM24.2702 42.0118L24.1196 42.1046L24.0449 42.1977L24.0361 42.2769L24.08 42.3566L24.1554 42.3784L24.2573 42.3433L24.3406 42.2946L24.4079 42.2018L24.4476 42.1046L24.4337 42.0251L24.3807 41.9941L24.2702 42.0118ZM26.7623 39.5331L26.1523 40.1476L25.6492 40.6908L25.2912 41.0884L25.2731 41.1989L25.3127 41.265L25.3967 41.2696L25.5249 41.1855L25.7547 40.9779L26.0468 40.713L26.3602 40.386L26.6559 40.0992L26.9165 39.7939L27.1115 39.5068L27.1635 39.3787L27.1115 39.3128L27.0492 39.2992L26.8764 39.4097L26.7623 39.5331ZM28.2375 38.6369L28.1489 38.7293L28.1227 38.8044L28.1365 38.8796L28.1974 38.9152H28.2508L28.3305 38.8266L28.4186 38.7472L28.458 38.6854L28.4544 38.6369L28.4098 38.6145L28.3131 38.6099L28.2375 38.6369ZM26.0988 35.2747H26.0287L25.9979 35.3145L25.9891 35.4465V35.6678L26.033 35.9064L26.1084 36.0787L26.2673 36.3393L26.3733 36.494L26.4306 36.52L26.4618 36.5162L26.4788 36.4763L26.4392 36.273L26.3995 36.1716L26.3955 36.0964L26.391 35.8842L26.3425 35.6193L26.2716 35.4205L26.1747 35.306L26.0988 35.2747ZM16.0048 34.9785L15.8458 35.0093L15.7088 35.0537L15.669 35.1112L15.6647 35.1907L15.7353 35.279L15.7838 35.3188L15.89 35.3496L16.0093 35.3456L16.0666 35.3277L16.1372 35.2437L16.1771 35.1508L16.1947 35.0759L16.1814 35.0093L16.1241 34.9742L16.0048 34.9785ZM20.5285 35.4823L20.1398 35.3585L20.0823 35.3807L20.0691 35.4735L20.1133 35.5573L20.4092 35.6546L20.8245 35.7828L21.3502 35.915L21.5801 35.9329L21.8185 35.946L22.0483 35.9859L22.3089 36.03L22.4591 36.0215L22.5077 35.9594V35.8754L22.4681 35.8224L22.3311 35.7871L22.0882 35.7341L21.7877 35.7122L21.4696 35.6635L21.1028 35.6238L20.882 35.5928L20.7009 35.553L20.5285 35.4823ZM24.0939 35.6105L23.9745 35.6988L23.9519 35.7828L23.9745 35.8577L24.0449 35.8888L24.1731 35.8577L24.2614 35.7871L24.3099 35.6988V35.6281L24.2791 35.5883H24.1817L24.0939 35.6105ZM12.1834 27.199L12.0552 27.1722L12.0022 27.1856L11.98 27.2653L12.0068 27.4021L12.0729 27.4639L12.1657 27.4813L12.2409 27.4243L12.254 27.336L12.2409 27.261L12.1834 27.199ZM9.58581 21.6635L9.53713 22.0081L9.54596 22.3571L9.59894 22.6575L9.70061 22.9757L9.80228 23.1788L9.87292 23.3334L9.91707 23.4172L9.97435 23.4659H10.0054L10.0319 23.426L10.0541 23.3069L9.99225 22.8962L9.9481 22.6442L9.84643 22.3571L9.76242 22.0876L9.75812 21.8754L9.70944 21.6678L9.66075 21.6237H9.6123L9.58581 21.6635ZM13.2791 21.2349L13.301 21.1642L13.2833 21.0759L13.1774 20.9786L12.9743 20.886L12.6915 20.7623L12.4485 20.643L12.1834 20.5767L12.0287 20.5194L11.8874 20.5237L11.9934 20.6032L12.3027 20.7886L12.5767 20.9919L12.855 21.1642L12.9743 21.2172L13.1464 21.2437L13.2791 21.2349ZM9.40467 19.0304L9.27198 19.2602L9.26768 19.4192L9.32066 19.4633L9.40014 19.4325L9.47961 19.322L9.53259 19.1984L9.57245 19.1056V18.9731L9.51063 18.9333L9.44429 18.9643L9.40467 19.0304ZM22.0526 9.46592L21.898 9.49241L21.6949 9.68692L21.3016 10.3141L20.8863 11.1182L20.6524 11.5821L20.3916 12.121L20.0737 12.6114L19.9942 12.7971L20.0073 12.8632L20.0913 12.8678L20.3519 12.7661L20.7273 12.373L21.2221 11.6792L21.5314 11.105L21.8097 10.6454L22.0173 10.1022L22.1101 9.76186L22.119 9.57188L22.0526 9.46592ZM14.7015 16.9054L14.7898 16.9409L14.8165 17.0469L14.7501 17.4269L14.5645 17.9481L14.401 18.4474L14.1139 18.8051L13.9681 18.9156L13.8134 18.9731L13.7251 18.9111L13.7163 18.7963L13.8401 18.6638L13.9681 18.4517L14.1315 18.0939L14.2289 17.7538L14.3172 17.418L14.4893 17.0956L14.6043 16.9321L14.7015 16.9054ZM9.42687 15.8011L9.24119 16.1235L9.15718 16.5653L9.13499 16.7997V16.9717L9.17484 17.06L9.28964 17.0292L9.5018 16.7023L9.6209 16.3135L9.71373 15.9689L9.71827 15.7259L9.66529 15.6465L9.524 15.6863L9.42687 15.8011ZM11.7681 16.4682L11.7815 16.5653L11.8342 16.6316L11.9535 16.751L12.0819 16.8569L12.2318 16.9409L12.338 17.0071L12.3822 17.0028L12.4044 16.9629L12.3998 16.888L12.3423 16.804L12.2497 16.6935L12.0951 16.6006L11.9977 16.5123L11.9139 16.4374L11.8387 16.424L11.7946 16.4195L11.7681 16.4682ZM10.4471 14.4183L10.2264 14.4448L10.1202 14.52L10.0848 14.6391L10.1159 14.7276L10.2395 14.7761L10.4426 14.7541L10.6548 14.6744L10.7166 14.573L10.7123 14.4978L10.6416 14.4317L10.5619 14.4095L10.4471 14.4183ZM21.4784 16.4283L21.6242 16.4682L21.6684 16.5476L21.686 16.7242L21.708 16.9099L21.6641 17.0424L21.5712 17.0956L21.346 17.0999L21.1958 17.0646L21.1116 16.9541L21.0412 16.8658V16.7242L21.1514 16.583L21.3195 16.4505L21.4784 16.4283ZM17.6525 5.03045L17.8558 4.85814L18.2315 4.67724L18.6069 4.50922L18.9646 4.34121L19.1281 4.26173L19.252 4.24407L19.3534 4.26627L19.4329 4.39443L19.3799 4.48703L19.2785 4.51376L19.1546 4.54454L19.0176 4.65934L18.7128 4.84501L18.2933 4.95981L18.0327 5.02616L17.7806 5.04382L17.6525 5.03045ZM16.9017 5.78151L16.8353 5.88747L16.8265 5.96695L16.884 6.03329L16.9546 6.06862L17.0429 6.06432L17.0871 6.04212L17.1181 5.94069L17.1093 5.82566L17.0871 5.75955L17.0253 5.74619H16.9546L16.9017 5.78151ZM17.7675 6.55452L17.7057 6.55906L17.657 6.61204L17.6482 6.70035L17.6747 6.77123L17.7234 6.79748H17.8074L17.8735 6.76669L17.8868 6.70035L17.8646 6.62087L17.8336 6.57242L17.7675 6.55452ZM20.3474 6.939L20.7892 6.62541L21.0586 6.45739L21.2221 6.35596H21.2796L21.2884 6.47505L21.1779 6.56335L21.125 6.74474L20.988 6.95666L20.7407 7.07575L20.4889 7.13351H20.2634L20.2238 7.05833L20.2811 6.97862L20.3474 6.939ZM21.8362 7.09365L21.982 6.90798L22.15 6.74903L22.3001 6.6476L22.4106 6.63853L22.4855 6.68722V6.82421L22.4459 6.97432L22.2779 7.13351L22.0791 7.25714L21.876 7.31012L21.7786 7.27909L21.7655 7.19962L21.8362 7.09365ZM21.8626 7.87096L21.9202 7.76954L22.0572 7.70772L22.2956 7.59269L22.5696 7.42491L22.6977 7.33231L22.892 7.23924L23.0158 7.27026V7.40296L22.9672 7.52228L22.7948 7.72538L22.5564 7.84018L22.3178 7.93731L22.0703 7.94185H21.9159L21.8626 7.87096ZM21.3856 3.61688L21.2443 3.66532L21.2133 3.7627L21.2708 3.86866L21.4254 3.85983L21.5536 3.81114L21.6462 3.70518L21.6066 3.61688L21.4827 3.57272L21.3856 3.61688ZM23.8772 2.8083L23.7979 2.75078L23.8552 2.64506L24.0762 2.62286L24.1955 2.66248L24.2886 2.71117L24.2924 2.79064L24.2132 2.82596L24.0896 2.83479L23.9702 2.82596L23.8772 2.8083ZM24.239 3.31187L24.3678 3.30758L24.4652 3.32977L24.5134 3.36056L24.496 3.40924L24.4251 3.49325L24.3282 3.50184L24.2132 3.48442L24.1468 3.4534L24.0984 3.39588L24.1554 3.34719L24.239 3.31187ZM24.2132 5.58271L24.4476 5.48557L24.6504 5.37961L24.8628 5.26028L25.0253 5.20276L25.1234 5.17627L25.2201 5.03045L25.1497 4.9641L25.0129 4.97293L24.849 5.00849L24.6678 5.07914L24.5397 5.08797L24.5223 4.99083L24.5397 4.80516L24.4652 4.72998H24.3583L24.2886 4.81828L24.2213 4.90683L24.1158 5.02162L24.0404 5.21159V5.37961L24.0762 5.47221L24.0676 5.56934L24.1335 5.59154L24.2132 5.58271ZM24.1247 14.6789L24.239 14.6701L24.3371 14.7496L24.3406 14.8159L24.3099 14.8558L24.2213 14.882L24.1072 14.8732L24.0316 14.7983L24.05 14.7322L24.1247 14.6789ZM24.3099 14.4229H24.4425L24.5311 14.3255L24.5223 14.2548L24.4337 14.1973H24.3406L24.2702 14.2195L24.239 14.2856V14.383L24.3099 14.4229ZM24.4564 13.5878L24.553 13.5701H24.6461L24.7034 13.6186L24.7163 13.6938L24.6862 13.7558L24.597 13.7997L24.5048 13.8131L24.4079 13.7909L24.3767 13.7248V13.6453L24.4564 13.5878ZM24.5573 13.2255L24.69 13.23L24.8094 13.1945L24.8576 13.1195L24.8227 13.0267L24.7258 12.9783L24.6103 12.9957L24.5048 13.0444L24.4826 13.1238L24.4872 13.1768L24.5573 13.2255ZM24.8227 12.289L24.9595 12.2492H25.0654L25.1139 12.3064L25.0962 12.4081L25.0304 12.4964L24.9683 12.5761L24.8452 12.6026H24.7213L24.6153 12.5496L24.6065 12.4656L24.6812 12.3861L24.7382 12.3198L24.8227 12.289ZM24.9595 11.5909L25.0962 11.5733L25.2201 11.5998L25.2731 11.6749V11.7499L25.2156 11.8427L25.1139 11.8604L25.0079 11.8871L24.8752 11.8826L24.818 11.8162L24.8268 11.7191L24.8714 11.6527L24.9595 11.5909ZM25.0838 11.3568H25.2156L25.322 11.3215L25.4588 11.264L25.4764 11.1492L25.428 11.0563L25.3127 11.0167L25.1936 11.021L25.1096 11.0563L25.0344 11.0962L24.9461 11.1757L24.9287 11.2597L24.9645 11.3258L25.0304 11.348L25.0838 11.3568ZM7.93787 22.5735L8.05291 22.5869L8.08369 22.7017L8.00422 22.7988L7.87153 22.7678L7.80542 22.6396L7.93787 22.5735ZM24.9907 10.5351L25.2027 10.4246L25.3036 10.4024L25.428 10.4158L25.4764 10.4599V10.5086L25.428 10.5881L25.3437 10.6587L25.2201 10.7031L25.0743 10.716L24.9549 10.6986L24.9244 10.6277L24.9421 10.5704L24.9907 10.5351ZM25.1807 10.1817L25.3349 10.1153L25.3967 10.0447L25.428 9.97402V9.90768L25.4017 9.86806L25.3349 9.86352L25.2428 9.87236L25.1497 9.89455L25.07 9.943L25.0304 9.99168L25.0165 10.0757L25.0344 10.1506L25.1051 10.1728L25.1807 10.1817ZM25.2156 9.57188L25.3483 9.52344L25.4456 9.45709L25.4676 9.39981L25.4814 9.30268L25.4588 9.24063L25.3967 9.22297L25.3036 9.2275L25.1936 9.24946L25.1184 9.30268L25.0654 9.35542L25.0566 9.44372L25.07 9.51461L25.1411 9.55422L25.2156 9.57188ZM25.2156 7.99483L25.3263 7.99029L25.3924 8.01249L25.4105 8.06977L25.3745 8.12728L25.3175 8.1891L25.2244 8.21129H25.1273L25.0654 8.15401V8.08767L25.1234 8.03015L25.2156 7.99483ZM25.2244 8.94469L25.3621 8.87834L25.4676 8.7855L25.4764 8.64875L25.4676 8.56475L25.3967 8.52489L25.3175 8.50293L25.2516 8.50723L25.2156 8.55162L25.1981 8.61319L25.1807 8.6929L25.1411 8.7194H25.0654L25.0437 8.76355L25.0526 8.84302L25.1096 8.9139L25.1674 8.93562L25.2244 8.94469ZM25.2428 7.51775L25.3394 7.4514L25.4413 7.45594L25.5027 7.53088L25.4898 7.60605L25.4413 7.67216L25.3621 7.70319L25.2867 7.72109L25.2201 7.72992L25.1323 7.72109L25.1096 7.66787L25.1323 7.59722L25.1848 7.54878L25.2428 7.51775ZM25.2604 7.1643L25.3394 7.13351L25.423 7.05833L25.428 6.98745L25.4194 6.91251L25.3659 6.88149L25.2824 6.89485L25.2289 6.92588L25.1719 6.98745L25.1674 7.06263V7.13351L25.207 7.15547L25.2604 7.1643ZM25.07 6.45739L25.1234 6.4309L25.1936 6.4266L25.2516 6.46193L25.264 6.51491L25.2428 6.59438L25.1848 6.63853L25.1323 6.66956L25.0614 6.67839L25.0041 6.64307L24.9907 6.58102L25.0165 6.52827L25.07 6.45739Z" fill="white" stroke="black" stroke-miterlimit="2.613"/>
</g>
</g>
<defs>
<clipPath id="clip0_2768_103">
<rect width="46" height="46" fill="white"/>
</clipPath>
</defs>
</svg>
