<svg width="46" height="46" viewBox="0 0 46 46" fill="none" xmlns="http://www.w3.org/2000/svg">
<mask id="mask0_2768_351" style="mask-type:alpha" maskUnits="userSpaceOnUse" x="0" y="0" width="46" height="46">
<rect width="46" height="46" fill="#D9D9D9"/>
</mask>
<g mask="url(#mask0_2768_351)">
<g clip-path="url(#clip0_2768_351)">
<path d="M22.9991 14.875C10.2389 14.875 0.010498 18.7017 0.010498 23.4995C0.010498 28.269 10.3234 32.125 22.9993 32.125C35.6759 32.125 45.9897 28.2557 45.9897 23.4995C45.9894 18.7443 35.6759 14.875 22.9991 14.875ZM45.849 22.8336C45.8572 22.8757 45.8629 22.9183 45.8702 22.9591C45.8642 22.9184 45.8558 22.8761 45.849 22.8336Z" fill="#C9C9CA"/>
<path d="M23 15.2194C10.4936 15.2194 0.362793 18.918 0.362793 23.4951C0.362793 28.0699 10.4936 31.771 23 31.771C35.5079 31.771 45.6362 28.0699 45.6362 23.4951C45.6362 18.9183 35.5078 15.2194 23 15.2194Z" fill="url(#paint0_radial_2768_351)"/>
<path d="M23.1027 16.9547C33.7355 16.9547 42.515 19.5538 43.8563 22.9178V22.9171C42.9604 19.3782 33.9652 16.598 22.998 16.598C11.4379 16.598 2.06738 19.6863 2.06738 23.4976C2.06738 23.8083 2.13012 24.1134 2.24987 24.4132C2.19796 24.2177 2.17154 24.0163 2.17125 23.814C2.17157 20.0262 11.5424 16.9547 23.1027 16.9547Z" fill="url(#paint1_linear_2768_351)"/>
<path d="M44.5511 22.6345C44.6427 22.9131 44.6895 23.2045 44.6898 23.4978C44.6898 27.6703 34.9784 31.0522 22.9979 31.0522C12.3362 31.0522 3.47216 28.373 1.64844 24.8451C3.03223 28.5118 12.0965 31.3445 23.0845 31.3566H23.2172C35.1665 31.3448 44.843 27.997 44.843 23.8661C44.8434 23.4471 44.7435 23.0346 44.5511 22.6345Z" fill="url(#paint2_linear_2768_351)"/>
<path d="M27.1723 24.6605C27.1245 24.5391 27.1156 24.4027 27.143 24.2672C27.1527 24.219 27.0906 24.1758 27.0398 24.2281C26.554 24.7349 26.5178 25.3903 26.836 25.6846C26.9496 25.7905 27.0805 25.838 27.2198 25.8469C27.0125 25.5837 26.9145 25.0678 27.1723 24.6605Z" fill="url(#paint3_linear_2768_351)"/>
<path d="M32.0936 25.6362H32.0943C32.1191 25.5882 32.1438 25.5375 32.1704 25.4831C32.1905 25.4413 32.1805 25.4296 32.1632 25.4226C32.1133 25.4046 32.0617 25.3663 32.0546 25.3268C32.0512 25.3196 32.0509 25.3128 32.0503 25.3047L32.0509 25.309C32.0573 25.3854 32.0775 25.5294 32.0936 25.6362Z" fill="url(#paint4_linear_2768_351)"/>
<path d="M32.6455 23.6516C32.8077 23.8071 32.9066 23.9958 32.925 24.1693C32.9322 24.2514 32.9948 24.2605 33.0459 24.1888C33.0592 24.1693 33.0745 24.145 33.0924 24.1176C33.0785 24.0978 33.063 24.0787 33.0488 24.06C32.9232 23.9154 32.7885 23.779 32.6455 23.6516Z" fill="url(#paint5_linear_2768_351)"/>
<path d="M25.9165 23.3324C26.0467 23.5105 26.1076 23.7649 26.0985 24.0905C26.0963 24.1749 26.1578 24.1693 26.1978 24.1118C26.2206 24.0799 26.2408 24.0516 26.2619 24.0225V24.0199C26.167 23.728 26.0212 23.4414 25.9165 23.3324Z" fill="url(#paint6_linear_2768_351)"/>
<path d="M31.9656 24.1936C31.565 24.0012 30.9539 24.3541 30.4009 25.035C29.9476 25.5918 29.7034 26.158 29.6949 26.71C29.6914 26.9067 29.7659 27.1499 29.939 27.2385C29.9928 27.2684 30.0514 27.2887 30.1122 27.2984C30.0927 27.2261 30.0826 27.1515 30.082 27.0766C30.0752 26.5069 30.2521 25.9381 30.7065 25.3805C31.2555 24.7029 31.8331 24.3652 32.2341 24.5518C32.2135 24.4027 32.136 24.2742 31.9656 24.1936Z" fill="url(#paint7_linear_2768_351)"/>
<path d="M19.9849 25.3221C20.407 24.7495 20.8825 24.5329 21.4247 24.2985C21.4962 24.2672 21.5048 24.2268 21.4911 24.1636C21.4679 24.0555 21.3927 23.7873 21.3696 23.7228C21.3868 23.7817 21.3715 23.8269 21.301 23.8531C20.6858 24.0868 20.0689 24.4498 19.6421 25.0217C19.1581 25.6706 19.0283 26.4512 19.3517 26.9009C19.4287 27.0061 19.5205 27.0841 19.6218 27.1349C19.4476 26.5978 19.5748 25.8777 19.9849 25.3221Z" fill="url(#paint8_linear_2768_351)"/>
<path d="M23.0824 28.7189C23.4983 28.7189 24.0095 28.7189 24.3554 28.7168C24.4069 28.714 24.4436 28.6849 24.4706 28.6464C24.9876 27.836 25.5394 26.9568 26.0677 26.1457C26.1835 26.5549 26.243 26.7453 26.4585 26.938C26.6779 27.134 26.8807 27.1855 27.1791 27.188C27.4502 27.1913 27.7173 27.083 28.0353 26.9509C28.1425 26.9051 28.2455 26.8499 28.3429 26.7858C28.3429 26.6355 28.3582 26.4844 28.3849 26.3401C28.3871 26.3245 28.3718 26.2246 28.2865 26.2838C28.1097 26.4125 27.9162 26.5165 27.7115 26.5932C27.4186 26.7025 27.2822 26.7435 27.0111 26.741C26.6701 26.7383 26.3628 26.5932 26.1468 26.2557C26.0259 26.0734 25.9759 25.7955 25.9644 25.5915C25.9629 25.5691 25.9336 25.5294 25.9016 25.5808C25.3284 26.4574 24.7932 27.3043 24.2243 28.1943C24.1946 28.2363 24.1688 28.2636 24.1099 28.2655C23.7584 28.2655 23.3735 28.2646 22.9864 28.2668C22.9459 28.2668 22.9169 28.2482 22.9084 28.2199C22.9388 28.3558 22.9885 28.6019 23.0015 28.6594C23.0101 28.6984 23.0392 28.7189 23.0824 28.7189Z" fill="url(#paint9_linear_2768_351)"/>
<path d="M28.6476 28.2341C28.7435 28.4184 28.9587 28.6253 29.0892 28.6903C29.8347 29.0578 30.8991 28.6412 31.5829 27.9836C31.5897 27.9746 31.5913 27.974 31.601 27.9633C31.6323 28.0814 31.6707 28.2249 31.6762 28.2447C31.7228 28.3974 31.796 28.5362 31.86 28.6097C32.3277 29.1386 33.3207 28.8978 34.3543 28.0976C34.932 27.6507 35.3602 27.202 35.885 26.5913C35.9061 26.5659 35.9042 26.5284 35.8924 26.4712C35.8624 26.3384 35.8152 26.0981 35.7889 25.9773C35.788 25.9975 35.781 26.0169 35.7687 26.0329C35.2209 26.7011 34.6154 27.3328 34.0363 27.7796C33.1358 28.4777 32.2369 28.6549 31.7927 28.2074C31.6264 28.041 31.5355 27.8033 31.5246 27.6016C31.5192 27.4923 31.4637 27.4872 31.4113 27.5386C30.8806 28.0647 29.958 28.6472 29.117 28.2322C28.6835 28.018 28.4573 27.6161 28.376 27.1739C28.3766 27.1785 28.3782 27.184 28.3793 27.189C28.4312 27.5023 28.4994 27.9547 28.6476 28.2341Z" fill="url(#paint10_linear_2768_351)"/>
<path d="M28.2765 25.3805C28.5531 25.2306 28.7961 24.9128 28.766 24.3972C28.7499 24.1405 28.6757 23.8761 28.5557 23.6629C28.6373 23.8184 28.6715 23.9996 28.6425 24.1904C28.5895 24.5232 28.4092 24.8165 28.1029 24.9684C27.8432 25.0957 27.5399 25.0733 27.3274 24.8837C27.2636 24.825 27.2129 24.7534 27.1787 24.6737C27.2333 24.925 27.2811 25.1099 27.3466 25.2089C27.5469 25.5111 27.8937 25.5874 28.2765 25.3805Z" fill="url(#paint11_linear_2768_351)"/>
<path d="M36.5052 21.026C36.3308 21.3281 32.9633 26.4577 32.7505 26.9883C32.6832 27.1562 32.6753 27.2846 32.7437 27.3771C32.8133 27.4702 32.9146 27.5057 33.0297 27.5037C33.0415 27.4389 33.0661 27.366 33.0968 27.2889C33.3096 26.7564 36.4633 21.9615 36.6364 21.658C36.6507 21.6321 36.6456 21.603 36.641 21.5836C36.6308 21.5355 36.525 21.0257 36.5147 20.9779C36.5175 20.9946 36.5141 21.0117 36.5052 21.026Z" fill="url(#paint12_linear_2768_351)"/>
<path d="M22.5291 23.4132C22.5389 23.4239 22.5467 23.4345 22.5553 23.4452C22.7579 23.7469 22.8684 24.1717 22.8796 24.6104C22.8916 24.7029 22.9312 24.7051 22.976 24.6576C23.0169 24.616 23.057 24.5716 23.0964 24.5289C23.0371 24.2932 22.9453 24.0813 22.8508 23.8768C22.8156 23.803 22.6618 23.5386 22.5291 23.4132Z" fill="url(#paint13_linear_2768_351)"/>
<path d="M17.0945 28.2077C17.1558 28.2387 17.2192 28.2105 17.2497 28.1934C17.455 28.0882 17.8549 27.7805 18.0272 27.5659C18.0795 27.5171 18.1297 27.5503 18.1464 27.6023C18.2183 27.8304 18.3238 28.0064 18.4419 28.1935C18.5706 28.402 18.8291 28.6181 19.1641 28.71C19.5975 28.8315 20.0652 28.853 20.68 28.6181C21.173 28.4294 21.6896 28.0448 22.0868 27.6127C22.5636 27.0949 22.7361 26.7631 22.9167 26.5368C23.2259 26.1538 23.7073 25.4755 24.3819 24.8996C24.6179 24.6976 24.8763 24.5667 25.0385 24.6303C25.136 24.3789 25.0898 24.2402 24.9861 24.1734C24.8282 24.0706 24.5125 24.2249 24.246 24.4283C23.5195 24.9788 22.9092 25.8362 22.6001 26.2198C22.4178 26.4454 22.246 26.7783 21.7698 27.2957C21.0213 28.1087 20.0288 28.576 19.0715 28.2533C18.549 28.0775 18.1708 27.6571 18.0269 27.1406C17.998 27.041 17.9423 27.013 17.888 27.0788C17.7334 27.2722 17.4172 27.5562 17.1531 27.7349C17.1242 27.7558 17.0527 27.798 16.9914 27.7675C16.9362 27.7424 16.74 27.4653 16.7016 27.3855C16.6967 27.3773 16.6935 27.3682 16.6919 27.3588V27.3623C16.7608 27.7033 16.7694 27.743 16.8626 27.9007C16.9682 28.0745 17.0712 28.1978 17.0945 28.2077Z" fill="url(#paint14_linear_2768_351)"/>
<path d="M11.3215 25.1443C11.5633 24.6567 11.9035 24.4239 12.2379 24.2122C12.3818 24.121 12.4457 24.0326 12.3601 23.7951C12.3358 23.7272 12.3221 23.6052 12.2951 23.4971C12.3037 23.6026 12.2516 23.6934 12.1584 23.742C11.7499 23.9505 11.2582 24.3079 11.0155 24.7954C10.8182 25.1926 10.7782 25.6733 11.0787 26.13C11.104 26.1664 11.1313 26.2033 11.1615 26.2371H11.1618C11.0652 25.858 11.1691 25.4496 11.3215 25.1443Z" fill="url(#paint15_linear_2768_351)"/>
<path d="M15.504 19.2224C16.9891 18.7324 18.6446 19.0423 19.9744 19.327C20.1604 19.2108 20.3232 19.1306 20.4863 19.0411C20.5674 18.9986 20.4766 18.9479 20.4513 18.9479C18.7347 18.6254 16.9506 18.2072 15.2464 18.8387C14.0651 19.2798 13.5475 20.2169 13.7973 20.8425C13.8449 20.9618 13.921 21.0546 14.0203 21.1206C13.9369 20.5436 14.3692 19.5981 15.504 19.2224Z" fill="url(#paint16_linear_2768_351)"/>
<path d="M10.6732 28.2034C11.1599 28.5466 11.6393 28.6604 12.1985 28.6703C13.3343 28.6901 14.3719 28.2209 15.4722 27.1038C16.5285 26.0312 17.4428 24.5323 18.3445 23.0468C18.3743 22.9945 18.4062 22.9712 18.5573 22.9515C19.123 22.8817 19.6298 22.8493 20.1294 22.8024C20.2784 22.7884 20.3916 22.7748 20.4463 22.8288C20.6267 23.0095 20.8366 23.1746 20.9755 23.2553C21.0677 23.2564 21.1452 23.2767 21.1994 23.3252C21.2577 23.3176 21.3109 23.2852 21.3453 23.2516C21.4101 23.1882 21.4127 23.114 21.402 23.0511C21.3797 22.9276 21.3463 22.6844 21.3068 22.6138C21.3341 22.6675 21.3164 22.7435 21.2626 22.8043C21.2231 22.8495 21.1613 22.8922 21.0827 22.8912C21.0177 22.8897 20.9793 22.8674 20.8976 22.8226C20.7291 22.7325 20.5211 22.5833 20.3812 22.4071C20.334 22.348 20.3097 22.3464 20.1906 22.353C19.6563 22.3842 18.8227 22.4643 18.2574 22.5353C18.1212 22.5523 18.1008 22.5779 18.0724 22.6246C17.1717 24.111 16.2102 25.7132 15.1544 26.786C14.0222 27.9365 13.0804 28.2385 12.0814 28.2463C10.9285 28.2544 9.90272 27.6008 9.64258 26.4524V26.4531C9.78313 27.0947 10.1962 27.8667 10.6732 28.2034Z" fill="url(#paint17_linear_2768_351)"/>
<path d="M14.9323 23.2101C14.9071 23.1717 14.8932 23.1269 14.8923 23.081C14.8806 23.2735 14.9582 23.5567 15.0205 23.6513C15.0889 23.7568 15.2816 23.8086 15.434 23.6948C15.7787 23.4409 16.0898 23.2929 16.4379 23.227C16.5273 23.1045 16.6239 22.9688 16.7344 22.8162C16.7441 22.8043 16.7467 22.7884 16.7425 22.7805C16.7364 22.7666 16.7252 22.7627 16.7028 22.7617C16.1926 22.7759 15.7466 22.9286 15.3146 23.2516C15.1902 23.3425 15.0108 23.3296 14.9323 23.2101Z" fill="url(#paint18_linear_2768_351)"/>
<path d="M28.8227 19.7293C28.1088 20.1214 27.3628 20.2397 26.5827 20.2466C24.6967 20.262 22.9397 19.5267 21.1222 19.1317C21.1247 19.211 21.1454 19.3062 21.0786 19.3564C20.0721 20.0991 19.1619 20.8541 18.552 21.9135C18.5318 21.9383 18.5429 21.9612 18.5784 21.9586C18.7391 21.9513 18.8946 21.944 19.0478 21.9356C19.6032 21.0651 20.1974 20.5661 21.1045 19.8962C21.1725 19.8447 21.2403 19.809 21.2181 19.6153C23.0413 20.0203 24.4278 20.6912 26.7823 20.6974C27.4849 20.6998 28.4757 20.4654 29.0087 20.1446C29.6212 19.7759 29.7842 19.5048 29.8061 19.2183C29.8132 19.1289 29.7896 18.996 29.7751 18.9275C29.7543 18.8304 29.7407 18.7065 29.713 18.6143C29.7224 18.6518 29.7267 18.6942 29.7232 18.7408C29.7046 19.0704 29.4499 19.3871 28.8227 19.7293Z" fill="url(#paint19_linear_2768_351)"/>
<path d="M20.9449 20.9591C20.9225 20.9804 20.8973 21.0022 20.8723 21.0251C20.6924 21.2115 20.6376 21.4582 20.664 21.645C20.6787 21.7209 20.708 21.7357 20.7426 21.7292C20.7782 21.7213 20.8131 21.7103 20.8469 21.6964C20.8596 21.5936 20.9027 21.4938 21.0065 21.4023C21.0817 21.3359 21.1758 21.3051 21.2564 21.3184C21.3258 21.1808 21.3456 21.0152 21.261 20.9413C21.1796 20.8711 21.0499 20.8843 20.9449 20.9591Z" fill="url(#paint20_linear_2768_351)"/>
<path d="M21.6701 21.6049C21.4972 21.9359 21.2119 22.1123 20.9383 22.1979C20.9383 22.1979 20.881 22.211 20.8895 22.2634C20.8962 22.3222 21.0903 22.4452 21.2115 22.5315C21.2291 22.5267 21.2555 22.517 21.2555 22.517C21.3959 22.4612 21.63 22.3184 21.7653 22.022C21.852 21.8309 21.8992 21.6809 21.8615 21.3527C21.8342 21.1239 21.788 20.917 21.7267 20.8101C21.845 21.0498 21.7978 21.3576 21.6701 21.6049Z" fill="url(#paint21_linear_2768_351)"/>
<path d="M16.6033 20.423C16.1046 21.596 15.1517 22.5264 13.9911 22.5649C13.342 22.5866 12.8452 22.2804 12.5811 21.8134C12.774 22.162 13.1006 22.4678 13.3915 22.651C13.6429 22.8077 13.9531 22.8949 14.3079 22.883C15.5173 22.8417 16.4337 21.8444 16.7377 21.0019C16.8188 20.7746 16.7555 20.5312 16.718 20.3666C16.7027 20.3036 16.6819 20.1602 16.6359 20.058H16.6354C16.6697 20.1424 16.6697 20.2666 16.6033 20.423Z" fill="url(#paint22_linear_2768_351)"/>
<path d="M22.9991 14.875C10.2389 14.875 0.010498 18.7017 0.010498 23.4995C0.010498 28.269 10.3234 32.125 22.9993 32.125C35.6759 32.125 45.9897 28.2557 45.9897 23.4995C45.9894 18.7443 35.6759 14.875 22.9991 14.875ZM0.168047 23.5947C0.163441 22.5853 0.608135 21.5825 1.54311 20.6385C4.83416 17.3169 13.4574 15.0719 22.961 15.0331C35.5506 14.9807 45.8097 18.7365 45.8317 23.4055C45.8361 24.4151 45.365 25.4046 44.4299 26.3479C41.1384 29.6701 32.5416 31.9292 23.0388 31.9671C10.4494 32.0196 0.189329 28.2643 0.168047 23.5947ZM45.849 22.8336C45.8572 22.8757 45.8629 22.9183 45.8702 22.9591C45.8642 22.9184 45.8558 22.8761 45.849 22.8336Z" fill="#4B4B4B"/>
<path d="M0.079834 23.4995C0.079834 23.7249 0.106357 23.9486 0.152414 24.169C0.116882 23.9798 0.0982268 23.7878 0.0966688 23.5954C0.0922219 22.5725 0.549304 21.5399 1.49206 20.5883C4.80153 17.2482 13.4335 15.0009 22.9608 14.9608C24.2809 14.9549 25.5745 14.9918 26.8352 15.0673C25.5582 14.9871 24.2789 14.9469 22.9994 14.9468C10.2902 14.9468 0.079834 18.7599 0.079834 23.4995Z" fill="url(#paint23_linear_2768_351)"/>
<path d="M44.4809 26.4009C41.1827 29.7282 32.5531 31.9991 23.0388 32.0387C21.7223 32.0455 20.4058 32.0096 19.0916 31.9313C20.3612 32.0123 21.6678 32.0533 22.9991 32.0533C35.6361 32.0533 45.9174 28.1931 45.9174 23.5024C45.9174 23.3231 45.9009 23.1456 45.8722 22.9689C45.893 23.114 45.902 23.2604 45.9034 23.4073C45.909 24.4304 45.4237 25.4493 44.4809 26.4009Z" fill="url(#paint24_linear_2768_351)"/>
<path d="M22.998 15.9433C11.0168 15.9433 1.3042 19.3246 1.3042 23.4978C1.3042 27.6703 11.0168 31.0522 22.998 31.0522C34.9782 31.0522 44.6895 27.6703 44.6895 23.4978C44.6895 19.3246 34.978 15.9433 22.998 15.9433ZM22.998 30.3979C11.4378 30.3979 2.06733 27.3094 2.06733 23.4976C2.06733 19.686 11.4377 16.5978 22.998 16.5978C34.5589 16.5978 43.9283 19.6861 43.9283 23.4976C43.9283 27.3096 34.5589 30.3979 22.998 30.3979Z" fill="white"/>
<path d="M36.5053 21.026C36.5353 20.9734 36.5043 20.935 36.4379 20.935C36.0904 20.935 35.6364 20.9361 35.2759 20.9361C35.1896 20.9361 35.1459 20.9456 35.1053 21.026C34.9719 21.2817 33.3481 23.7159 33.0459 24.1884C32.9947 24.2604 32.9322 24.2511 32.925 24.1688C32.8952 23.8879 32.6523 23.5642 32.2705 23.4107C31.9792 23.2923 31.6948 23.271 31.3997 23.3106C30.8656 23.3822 30.3901 23.6648 29.9716 23.9821C29.3409 24.462 28.797 25.0832 28.0953 25.5422C27.7122 25.7919 27.187 26.01 26.8362 25.6846C26.5179 25.39 26.5546 24.7348 27.04 24.2281C27.0908 24.1758 27.1529 24.219 27.1432 24.2672C27.097 24.4971 27.153 24.7247 27.3269 24.8839C27.5396 25.0735 27.8428 25.096 28.1026 24.9686C28.4095 24.8168 28.5894 24.5229 28.6421 24.1906C28.7234 23.6729 28.3254 23.2171 27.8275 23.1808C27.4237 23.1522 27.036 23.2929 26.6585 23.6049C26.4698 23.7622 26.3615 23.8774 26.1981 24.1115C26.1577 24.1688 26.0964 24.1747 26.0988 24.0902C26.1174 23.4287 25.8441 23.056 25.2969 23.0443C24.8726 23.0333 24.4194 23.2647 24.0657 23.5459C23.6785 23.8566 23.3399 24.2699 22.9761 24.6573C22.9313 24.7048 22.8918 24.7026 22.8797 24.6101C22.8686 24.1712 22.758 23.7465 22.5554 23.4449C22.4828 23.3401 22.3326 23.2882 22.2057 23.3591C22.1471 23.3908 21.9434 23.4849 21.7942 23.6047C21.7213 23.6656 21.6928 23.7531 21.7246 23.8656C21.9199 24.5216 21.8772 25.2657 21.6117 25.8955C21.3684 26.4706 20.8944 26.9913 20.337 27.1664C19.9706 27.2826 19.5883 27.2257 19.3521 26.9001C19.0288 26.4504 19.1585 25.6698 19.6426 25.0209C20.0694 24.449 20.6862 24.086 21.3015 23.8523C21.3741 23.8238 21.3892 23.7776 21.3684 23.7161C21.335 23.615 21.2818 23.4774 21.2599 23.4148C21.2037 23.265 21.045 23.2397 20.8519 23.261C20.4048 23.3131 20.0016 23.4662 19.6031 23.6797C18.56 24.2387 18.037 25.3204 17.8073 25.8996C17.6972 26.1782 17.6026 26.3511 17.48 26.5054C17.3153 26.7122 17.1095 26.9004 16.7315 27.2322C16.6975 27.2628 16.6727 27.3259 16.7011 27.3852C16.7396 27.465 16.9359 27.7421 16.991 27.7672C17.0523 27.7977 17.1238 27.7555 17.1528 27.7346C17.4169 27.5559 17.7331 27.2719 17.8877 27.0785C17.9418 27.0127 17.9976 27.0407 18.0266 27.1403C18.1705 27.6568 18.5487 28.0772 19.0712 28.253C20.0284 28.5751 21.0207 28.1084 21.7695 27.2954C22.2455 26.778 22.4174 26.4451 22.5998 26.2195C22.9091 25.8359 23.5194 24.9781 24.2455 24.428C24.5123 24.2249 24.8279 24.0701 24.9859 24.1731C25.1132 24.2557 25.1545 24.4466 24.9497 24.8186C24.2093 26.1724 23.1192 27.7628 22.9186 28.1473C22.8825 28.2144 22.9148 28.2674 22.9847 28.2674C23.3719 28.2655 23.7567 28.2665 24.1082 28.2665C24.1671 28.2638 24.1928 28.2366 24.2223 28.1953C24.7912 27.3048 25.3263 26.4577 25.8998 25.5816C25.9317 25.5306 25.9613 25.5704 25.9627 25.5921C25.9741 25.7963 26.0246 26.0738 26.1449 26.2565C26.361 26.594 26.6683 26.7391 27.0093 26.7416C27.2804 26.7448 27.4168 26.7035 27.7097 26.594C27.9144 26.5171 28.1078 26.4131 28.2848 26.2848C28.3701 26.2255 28.3853 26.3255 28.3831 26.341C28.2519 27.0477 28.4134 27.8856 29.1159 28.232C29.957 28.6467 30.8796 28.0642 31.4102 27.5384C31.4624 27.4877 31.5179 27.4925 31.5234 27.6016C31.5341 27.8036 31.6256 28.0415 31.7915 28.2074C32.2361 28.6544 33.1347 28.4774 34.0352 27.7798C34.6142 27.3328 35.2198 26.7013 35.7676 26.0329C35.7868 26.0069 35.8027 25.9648 35.7636 25.9234C35.6808 25.8362 35.5601 25.7366 35.4772 25.6593C35.4394 25.6279 35.3845 25.6369 35.3519 25.6611C34.7915 26.1941 34.2874 26.8033 33.5574 27.3058C33.3114 27.4783 32.9196 27.6167 32.7432 27.3784C32.6746 27.2859 32.6825 27.157 32.75 26.9895C32.9634 26.4577 36.3311 21.3283 36.5053 21.026ZM32.055 25.3272C32.0621 25.3666 32.113 25.4045 32.1636 25.4229C32.1806 25.4299 32.1909 25.4416 32.1705 25.4833C32.028 25.7906 31.8962 25.9671 31.7167 26.2344C31.5522 26.4807 31.3656 26.6735 31.141 26.8583C30.8013 27.1394 30.3297 27.4448 29.9398 27.239C29.7667 27.1497 29.6918 26.9072 29.6957 26.7105C29.7046 26.1583 29.9487 25.592 30.4017 25.0352C30.9542 24.3543 31.5655 24.0013 31.9664 24.1938C32.3807 24.3918 32.2486 24.8725 32.0631 25.25C32.0488 25.2786 32.0472 25.3037 32.055 25.3272Z" fill="white"/>
<path d="M12.0822 28.2471C10.8268 28.2562 9.72139 27.479 9.59418 26.1359C9.52382 25.3914 9.7341 24.7272 10.1553 24.1804C10.5288 23.6932 11.1619 23.2887 11.6962 23.1895C11.8713 23.1579 12.1051 23.1785 12.2023 23.2936C12.3538 23.4705 12.3097 23.665 12.1588 23.742C11.7503 23.9505 11.2586 24.3079 11.0159 24.7954C10.8187 25.1927 10.7787 25.6733 11.0791 26.13C11.584 26.8912 12.9889 26.9126 14.2956 25.6977C14.6194 25.4 14.9088 25.1145 15.2038 24.7768C15.7791 24.1178 15.9701 23.8774 16.7353 22.8161C16.745 22.8042 16.7476 22.7883 16.7434 22.7803C16.7372 22.7665 16.7261 22.7625 16.7037 22.7616C16.1934 22.7757 15.7478 22.9284 15.3155 23.2515C15.1908 23.3422 15.0114 23.3293 14.9329 23.2099C14.8457 23.0745 14.9081 22.8982 15.052 22.7991C15.7478 22.3151 16.5085 22.2267 17.2853 22.0953C17.2849 22.0953 17.3396 22.0975 17.3836 22.0387C17.7024 21.6297 17.943 21.2604 18.2833 20.846C18.6259 20.4262 19.0679 20.0413 19.406 19.7507C19.8779 19.3445 20.1804 19.208 20.4879 19.0407C20.5691 18.9981 20.4781 18.9474 20.4528 18.9474C18.7361 18.625 16.9521 18.2068 15.2477 18.8382C14.0665 19.2794 13.5488 20.2164 13.7986 20.842C13.9749 21.286 14.5589 21.358 15.1052 21.0907C15.5825 20.855 15.9873 20.4948 16.277 20.0481C16.4433 19.7918 16.7939 19.9766 16.6045 20.4222C16.1058 21.5952 15.1529 22.5256 13.9922 22.5641C13.0039 22.5968 12.3662 21.8698 12.3688 20.9725C12.3721 19.2026 14.3419 18.0369 16.4109 17.8624C18.9029 17.6568 21.2633 18.321 23.737 18.6212C25.633 18.8505 27.4509 18.8552 29.3561 18.4176C29.581 18.3687 29.7398 18.5122 29.7242 18.7399C29.7056 19.069 29.4507 19.3857 28.8237 19.7283C28.1097 20.1203 27.3637 20.2387 26.5837 20.2455C24.6977 20.2609 22.9407 19.5257 21.1232 19.1306C21.1257 19.2099 21.1464 19.3051 21.0797 19.3553C20.0731 20.098 19.1629 20.853 18.553 21.9124C18.5329 21.9372 18.544 21.9601 18.5794 21.9575C19.1086 21.9297 19.585 21.9164 20.0786 21.8768C20.1647 21.8697 20.1679 21.8484 20.1608 21.7851C20.1174 21.4198 20.2236 21.003 20.5448 20.7162C20.8732 20.4217 21.2849 20.3884 21.5574 20.6C21.8676 20.842 21.8403 21.2773 21.671 21.6037C21.498 21.9346 21.2128 22.111 20.9391 22.1967C20.9391 22.1967 20.8818 22.2097 20.8904 22.2621C20.901 22.3451 21.2741 22.5523 21.306 22.6074C21.3368 22.6594 21.3214 22.7408 21.2639 22.8029C21.2244 22.848 21.1626 22.8908 21.084 22.8897C21.019 22.8882 20.9806 22.866 20.8989 22.8212C20.7306 22.7309 20.5224 22.5819 20.3825 22.4056C20.3353 22.3465 20.311 22.3449 20.1919 22.3516C19.6576 22.3828 18.824 22.4628 18.2587 22.5339C18.1225 22.5509 18.1021 22.5765 18.0737 22.6232C17.173 24.1096 16.2116 25.7118 15.1557 26.7846C14.023 27.9369 13.0812 28.2389 12.0822 28.2471ZM20.6641 21.645C20.6788 21.7209 20.708 21.7357 20.7427 21.7292C20.914 21.6949 21.1014 21.5534 21.2129 21.3904C21.3146 21.2418 21.3617 21.0275 21.2611 20.9413C21.1713 20.8646 21.0254 20.8868 20.9169 20.9823C20.702 21.1729 20.6367 21.4428 20.6641 21.645Z" fill="white"/>
</g>
</g>
<defs>
<radialGradient id="paint0_radial_2768_351" cx="0" cy="0" r="1" gradientUnits="userSpaceOnUse" gradientTransform="translate(22.8477 43.3334) scale(99.058 50.3384)">
<stop stop-color="#00082E"/>
<stop offset="0.155" stop-color="#000A30"/>
<stop offset="0.242" stop-color="#010F39"/>
<stop offset="0.312" stop-color="#011946"/>
<stop offset="0.373" stop-color="#02275A"/>
<stop offset="0.414" stop-color="#03346C"/>
<stop offset="0.439" stop-color="#0B4F87"/>
<stop offset="0.48" stop-color="#1676AF"/>
<stop offset="0.513" stop-color="#1C8EC7"/>
<stop offset="0.533" stop-color="#1F97D0"/>
<stop offset="1" stop-color="#1F97D0"/>
</radialGradient>
<linearGradient id="paint1_linear_2768_351" x1="22.9578" y1="32.3148" x2="22.9578" y2="14.7937" gradientUnits="userSpaceOnUse">
<stop stop-color="#00082E"/>
<stop offset="0.321" stop-color="#010A30"/>
<stop offset="0.501" stop-color="#030F39"/>
<stop offset="0.647" stop-color="#071846"/>
<stop offset="0.773" stop-color="#0D245A"/>
<stop offset="0.809" stop-color="#0F2961"/>
<stop offset="0.839" stop-color="#0B386E"/>
<stop offset="0.896" stop-color="#054E83"/>
<stop offset="0.951" stop-color="#015B90"/>
<stop offset="1" stop-color="#006094"/>
</linearGradient>
<linearGradient id="paint2_linear_2768_351" x1="4180.23" y1="32.3189" x2="4180.23" y2="14.7818" gradientUnits="userSpaceOnUse">
<stop stop-color="#00082E"/>
<stop offset="0.321" stop-color="#010A30"/>
<stop offset="0.501" stop-color="#030F39"/>
<stop offset="0.647" stop-color="#071846"/>
<stop offset="0.773" stop-color="#0D245A"/>
<stop offset="0.809" stop-color="#0F2961"/>
<stop offset="0.839" stop-color="#0B386E"/>
<stop offset="0.896" stop-color="#054E83"/>
<stop offset="0.951" stop-color="#015B90"/>
<stop offset="1" stop-color="#006094"/>
</linearGradient>
<linearGradient id="paint3_linear_2768_351" x1="26.9253" y1="29.3442" x2="26.9253" y2="17.0335" gradientUnits="userSpaceOnUse">
<stop stop-color="#00082E"/>
<stop offset="0.321" stop-color="#010A30"/>
<stop offset="0.501" stop-color="#030F39"/>
<stop offset="0.647" stop-color="#071846"/>
<stop offset="0.773" stop-color="#0D245A"/>
<stop offset="0.809" stop-color="#0F2961"/>
<stop offset="0.839" stop-color="#0B386E"/>
<stop offset="0.896" stop-color="#054E83"/>
<stop offset="0.951" stop-color="#015B90"/>
<stop offset="1" stop-color="#006094"/>
</linearGradient>
<linearGradient id="paint4_linear_2768_351" x1="32.1189" y1="29.3251" x2="32.1189" y2="17.0952" gradientUnits="userSpaceOnUse">
<stop stop-color="#00082E"/>
<stop offset="0.321" stop-color="#010A30"/>
<stop offset="0.501" stop-color="#030F39"/>
<stop offset="0.647" stop-color="#071846"/>
<stop offset="0.773" stop-color="#0D245A"/>
<stop offset="0.809" stop-color="#0F2961"/>
<stop offset="0.839" stop-color="#0B386E"/>
<stop offset="0.896" stop-color="#054E83"/>
<stop offset="0.951" stop-color="#015B90"/>
<stop offset="1" stop-color="#006094"/>
</linearGradient>
<linearGradient id="paint5_linear_2768_351" x1="32.872" y1="29.2897" x2="32.872" y2="17.1202" gradientUnits="userSpaceOnUse">
<stop stop-color="#00082E"/>
<stop offset="0.321" stop-color="#010A30"/>
<stop offset="0.501" stop-color="#030F39"/>
<stop offset="0.647" stop-color="#071846"/>
<stop offset="0.773" stop-color="#0D245A"/>
<stop offset="0.809" stop-color="#0F2961"/>
<stop offset="0.839" stop-color="#0B386E"/>
<stop offset="0.896" stop-color="#054E83"/>
<stop offset="0.951" stop-color="#015B90"/>
<stop offset="1" stop-color="#006094"/>
</linearGradient>
<linearGradient id="paint6_linear_2768_351" x1="26.0877" y1="29.3708" x2="26.0877" y2="17.0315" gradientUnits="userSpaceOnUse">
<stop stop-color="#00082E"/>
<stop offset="0.321" stop-color="#010A30"/>
<stop offset="0.501" stop-color="#030F39"/>
<stop offset="0.647" stop-color="#071846"/>
<stop offset="0.773" stop-color="#0D245A"/>
<stop offset="0.809" stop-color="#0F2961"/>
<stop offset="0.839" stop-color="#0B386E"/>
<stop offset="0.896" stop-color="#054E83"/>
<stop offset="0.951" stop-color="#015B90"/>
<stop offset="1" stop-color="#006094"/>
</linearGradient>
<linearGradient id="paint7_linear_2768_351" x1="30.9663" y1="29.3423" x2="30.9663" y2="17.0511" gradientUnits="userSpaceOnUse">
<stop stop-color="#00082E"/>
<stop offset="0.321" stop-color="#010A30"/>
<stop offset="0.501" stop-color="#030F39"/>
<stop offset="0.647" stop-color="#071846"/>
<stop offset="0.773" stop-color="#0D245A"/>
<stop offset="0.809" stop-color="#0F2961"/>
<stop offset="0.839" stop-color="#0B386E"/>
<stop offset="0.896" stop-color="#054E83"/>
<stop offset="0.951" stop-color="#015B90"/>
<stop offset="1" stop-color="#006094"/>
</linearGradient>
<linearGradient id="paint8_linear_2768_351" x1="20.3415" y1="29.3334" x2="20.3415" y2="17.0551" gradientUnits="userSpaceOnUse">
<stop stop-color="#00082E"/>
<stop offset="0.321" stop-color="#010A30"/>
<stop offset="0.501" stop-color="#030F39"/>
<stop offset="0.647" stop-color="#071846"/>
<stop offset="0.773" stop-color="#0D245A"/>
<stop offset="0.809" stop-color="#0F2961"/>
<stop offset="0.839" stop-color="#0B386E"/>
<stop offset="0.896" stop-color="#054E83"/>
<stop offset="0.951" stop-color="#015B90"/>
<stop offset="1" stop-color="#006094"/>
</linearGradient>
<linearGradient id="paint9_linear_2768_351" x1="25.6442" y1="29.3425" x2="25.6442" y2="17.0421" gradientUnits="userSpaceOnUse">
<stop stop-color="#00082E"/>
<stop offset="0.321" stop-color="#010A30"/>
<stop offset="0.501" stop-color="#030F39"/>
<stop offset="0.647" stop-color="#071846"/>
<stop offset="0.773" stop-color="#0D245A"/>
<stop offset="0.809" stop-color="#0F2961"/>
<stop offset="0.839" stop-color="#0B386E"/>
<stop offset="0.896" stop-color="#054E83"/>
<stop offset="0.951" stop-color="#015B90"/>
<stop offset="1" stop-color="#006094"/>
</linearGradient>
<linearGradient id="paint10_linear_2768_351" x1="32.1457" y1="29.3717" x2="32.1457" y2="16.9784" gradientUnits="userSpaceOnUse">
<stop stop-color="#00082E"/>
<stop offset="0.321" stop-color="#010A30"/>
<stop offset="0.501" stop-color="#030F39"/>
<stop offset="0.647" stop-color="#071846"/>
<stop offset="0.773" stop-color="#0D245A"/>
<stop offset="0.809" stop-color="#0F2961"/>
<stop offset="0.839" stop-color="#0B386E"/>
<stop offset="0.896" stop-color="#054E83"/>
<stop offset="0.951" stop-color="#015B90"/>
<stop offset="1" stop-color="#006094"/>
</linearGradient>
<linearGradient id="paint11_linear_2768_351" x1="27.9705" y1="29.3828" x2="27.9705" y2="17.0207" gradientUnits="userSpaceOnUse">
<stop stop-color="#00082E"/>
<stop offset="0.321" stop-color="#010A30"/>
<stop offset="0.501" stop-color="#030F39"/>
<stop offset="0.647" stop-color="#071846"/>
<stop offset="0.773" stop-color="#0D245A"/>
<stop offset="0.809" stop-color="#0F2961"/>
<stop offset="0.839" stop-color="#0B386E"/>
<stop offset="0.896" stop-color="#054E83"/>
<stop offset="0.951" stop-color="#015B90"/>
<stop offset="1" stop-color="#006094"/>
</linearGradient>
<linearGradient id="paint12_linear_2768_351" x1="34.6676" y1="29.3463" x2="34.6676" y2="17.0649" gradientUnits="userSpaceOnUse">
<stop stop-color="#00082E"/>
<stop offset="0.321" stop-color="#010A30"/>
<stop offset="0.501" stop-color="#030F39"/>
<stop offset="0.647" stop-color="#071846"/>
<stop offset="0.773" stop-color="#0D245A"/>
<stop offset="0.809" stop-color="#0F2961"/>
<stop offset="0.839" stop-color="#0B386E"/>
<stop offset="0.896" stop-color="#054E83"/>
<stop offset="0.951" stop-color="#015B90"/>
<stop offset="1" stop-color="#006094"/>
</linearGradient>
<linearGradient id="paint13_linear_2768_351" x1="22.814" y1="29.3535" x2="22.814" y2="17.0394" gradientUnits="userSpaceOnUse">
<stop stop-color="#00082E"/>
<stop offset="0.321" stop-color="#010A30"/>
<stop offset="0.501" stop-color="#030F39"/>
<stop offset="0.647" stop-color="#071846"/>
<stop offset="0.773" stop-color="#0D245A"/>
<stop offset="0.809" stop-color="#0F2961"/>
<stop offset="0.839" stop-color="#0B386E"/>
<stop offset="0.896" stop-color="#054E83"/>
<stop offset="0.951" stop-color="#015B90"/>
<stop offset="1" stop-color="#006094"/>
</linearGradient>
<linearGradient id="paint14_linear_2768_351" x1="20.8974" y1="29.3443" x2="20.8974" y2="17.0612" gradientUnits="userSpaceOnUse">
<stop stop-color="#00082E"/>
<stop offset="0.321" stop-color="#010A30"/>
<stop offset="0.501" stop-color="#030F39"/>
<stop offset="0.647" stop-color="#071846"/>
<stop offset="0.773" stop-color="#0D245A"/>
<stop offset="0.809" stop-color="#0F2961"/>
<stop offset="0.839" stop-color="#0B386E"/>
<stop offset="0.896" stop-color="#054E83"/>
<stop offset="0.951" stop-color="#015B90"/>
<stop offset="1" stop-color="#006094"/>
</linearGradient>
<linearGradient id="paint15_linear_2768_351" x1="11.6277" y1="29.3482" x2="11.6277" y2="17.0564" gradientUnits="userSpaceOnUse">
<stop stop-color="#00082E"/>
<stop offset="0.321" stop-color="#010A30"/>
<stop offset="0.501" stop-color="#030F39"/>
<stop offset="0.647" stop-color="#071846"/>
<stop offset="0.773" stop-color="#0D245A"/>
<stop offset="0.809" stop-color="#0F2961"/>
<stop offset="0.839" stop-color="#0B386E"/>
<stop offset="0.896" stop-color="#054E83"/>
<stop offset="0.951" stop-color="#015B90"/>
<stop offset="1" stop-color="#006094"/>
</linearGradient>
<linearGradient id="paint16_linear_2768_351" x1="17.1275" y1="29.4179" x2="17.1275" y2="17.0097" gradientUnits="userSpaceOnUse">
<stop stop-color="#00082E"/>
<stop offset="0.321" stop-color="#010A30"/>
<stop offset="0.501" stop-color="#030F39"/>
<stop offset="0.647" stop-color="#071846"/>
<stop offset="0.773" stop-color="#0D245A"/>
<stop offset="0.809" stop-color="#0F2961"/>
<stop offset="0.839" stop-color="#0B386E"/>
<stop offset="0.896" stop-color="#054E83"/>
<stop offset="0.951" stop-color="#015B90"/>
<stop offset="1" stop-color="#006094"/>
</linearGradient>
<linearGradient id="paint17_linear_2768_351" x1="15.5245" y1="29.3459" x2="15.5245" y2="17.0511" gradientUnits="userSpaceOnUse">
<stop stop-color="#00082E"/>
<stop offset="0.321" stop-color="#010A30"/>
<stop offset="0.501" stop-color="#030F39"/>
<stop offset="0.647" stop-color="#071846"/>
<stop offset="0.773" stop-color="#0D245A"/>
<stop offset="0.809" stop-color="#0F2961"/>
<stop offset="0.839" stop-color="#0B386E"/>
<stop offset="0.896" stop-color="#054E83"/>
<stop offset="0.951" stop-color="#015B90"/>
<stop offset="1" stop-color="#006094"/>
</linearGradient>
<linearGradient id="paint18_linear_2768_351" x1="15.8185" y1="29.3747" x2="15.8185" y2="17.0371" gradientUnits="userSpaceOnUse">
<stop stop-color="#00082E"/>
<stop offset="0.321" stop-color="#010A30"/>
<stop offset="0.501" stop-color="#030F39"/>
<stop offset="0.647" stop-color="#071846"/>
<stop offset="0.773" stop-color="#0D245A"/>
<stop offset="0.809" stop-color="#0F2961"/>
<stop offset="0.839" stop-color="#0B386E"/>
<stop offset="0.896" stop-color="#054E83"/>
<stop offset="0.951" stop-color="#015B90"/>
<stop offset="1" stop-color="#006094"/>
</linearGradient>
<linearGradient id="paint19_linear_2768_351" x1="24.1772" y1="29.3536" x2="24.1772" y2="17.0503" gradientUnits="userSpaceOnUse">
<stop stop-color="#00082E"/>
<stop offset="0.321" stop-color="#010A30"/>
<stop offset="0.501" stop-color="#030F39"/>
<stop offset="0.647" stop-color="#071846"/>
<stop offset="0.773" stop-color="#0D245A"/>
<stop offset="0.809" stop-color="#0F2961"/>
<stop offset="0.839" stop-color="#0B386E"/>
<stop offset="0.896" stop-color="#054E83"/>
<stop offset="0.951" stop-color="#015B90"/>
<stop offset="1" stop-color="#006094"/>
</linearGradient>
<linearGradient id="paint20_linear_2768_351" x1="20.9829" y1="29.3567" x2="20.9829" y2="17.0481" gradientUnits="userSpaceOnUse">
<stop stop-color="#00082E"/>
<stop offset="0.321" stop-color="#010A30"/>
<stop offset="0.501" stop-color="#030F39"/>
<stop offset="0.647" stop-color="#071846"/>
<stop offset="0.773" stop-color="#0D245A"/>
<stop offset="0.809" stop-color="#0F2961"/>
<stop offset="0.839" stop-color="#0B386E"/>
<stop offset="0.896" stop-color="#054E83"/>
<stop offset="0.951" stop-color="#015B90"/>
<stop offset="1" stop-color="#006094"/>
</linearGradient>
<linearGradient id="paint21_linear_2768_351" x1="21.3872" y1="29.3466" x2="21.3872" y2="17.0569" gradientUnits="userSpaceOnUse">
<stop stop-color="#00082E"/>
<stop offset="0.321" stop-color="#010A30"/>
<stop offset="0.501" stop-color="#030F39"/>
<stop offset="0.647" stop-color="#071846"/>
<stop offset="0.773" stop-color="#0D245A"/>
<stop offset="0.809" stop-color="#0F2961"/>
<stop offset="0.839" stop-color="#0B386E"/>
<stop offset="0.896" stop-color="#054E83"/>
<stop offset="0.951" stop-color="#015B90"/>
<stop offset="1" stop-color="#006094"/>
</linearGradient>
<linearGradient id="paint22_linear_2768_351" x1="14.6816" y1="29.3711" x2="14.6816" y2="17.0522" gradientUnits="userSpaceOnUse">
<stop stop-color="#00082E"/>
<stop offset="0.321" stop-color="#010A30"/>
<stop offset="0.501" stop-color="#030F39"/>
<stop offset="0.647" stop-color="#071846"/>
<stop offset="0.773" stop-color="#0D245A"/>
<stop offset="0.809" stop-color="#0F2961"/>
<stop offset="0.839" stop-color="#0B386E"/>
<stop offset="0.896" stop-color="#054E83"/>
<stop offset="0.951" stop-color="#015B90"/>
<stop offset="1" stop-color="#006094"/>
</linearGradient>
<linearGradient id="paint23_linear_2768_351" x1="17.9631" y1="36.2532" x2="12.6447" y2="16.415" gradientUnits="userSpaceOnUse">
<stop stop-color="#A5A5A6"/>
<stop offset="0.35" stop-color="#D7D7D7"/>
<stop offset="0.65" stop-color="#D7D7D7"/>
<stop offset="1" stop-color="#A5A5A6"/>
</linearGradient>
<linearGradient id="paint24_linear_2768_351" x1="31.9018" y1="25.2838" x2="26.5949" y2="5.4893" gradientUnits="userSpaceOnUse">
<stop stop-color="#A5A5A6"/>
<stop offset="0.35" stop-color="#D7D7D7"/>
<stop offset="0.65" stop-color="#D7D7D7"/>
<stop offset="1" stop-color="#A5A5A6"/>
</linearGradient>
<clipPath id="clip0_2768_351">
<rect width="46" height="17.25" fill="white" transform="translate(0 14.875)"/>
</clipPath>
</defs>
</svg>
