<svg width="46" height="46" viewBox="0 0 46 46" fill="none" xmlns="http://www.w3.org/2000/svg">
<mask id="mask0_2309_86" style="mask-type:alpha" maskUnits="userSpaceOnUse" x="0" y="0" width="46" height="46">
<rect width="46" height="46" fill="#D9D9D9"/>
</mask>
<g mask="url(#mask0_2309_86)">
<path fill-rule="evenodd" clip-rule="evenodd" d="M5.51774 36.5446L6.20743 36.6174C6.53423 36.654 6.53423 36.9081 6.53423 37.0896V37.9246H3.33926V37.0896C3.33926 36.9083 3.37564 36.654 3.70244 36.6174L4.39213 36.5446V35.8549H0.253418V36.5446L0.94339 36.6174C1.23382 36.654 1.26991 36.9081 1.26991 37.0896V39.7762C1.26991 39.9581 1.23382 40.2124 0.94339 40.2485L0.253418 40.3213V41.011H4.39241V40.3213L3.70272 40.2485C3.37592 40.2124 3.33954 39.9584 3.33954 39.7762V38.9777H6.53451V39.7762C6.53451 39.9581 6.53451 40.2124 6.20771 40.2485L5.51802 40.3213V41.011H9.65673V40.3213L8.96704 40.2485C8.67661 40.2124 8.64024 39.9584 8.64024 39.7762V37.0896C8.64024 36.9083 8.67661 36.654 8.96704 36.6174L9.65673 36.5446V35.8549H5.51774V36.5446ZM33.2199 35.8549H28.1005V36.5446L28.718 36.6174C28.9354 36.654 29.0809 36.7268 29.0809 37.0536V39.776C29.0809 39.9578 29.0448 40.2121 28.718 40.2482L28.0277 40.321V41.0107H33.2199C35.0713 41.0107 36.5964 40.2849 36.5964 38.4329C36.5967 36.5813 35.0713 35.8549 33.2199 35.8549ZM32.857 40.03H31.1141V36.8353H32.857C33.8735 36.8353 34.2003 37.3076 34.2003 38.4327C34.2003 39.5583 33.8735 40.03 32.857 40.03Z" fill="#C23C40"/>
<path fill-rule="evenodd" clip-rule="evenodd" d="M45.3467 40.248C45.0199 40.2119 44.9104 39.994 44.8019 39.8485L42.4057 36.1818C42.2244 35.9277 42.115 35.855 41.861 35.855H37.9399V36.5447L38.8476 36.6541C38.9931 36.6541 39.1744 36.8354 39.0289 37.0897L37.2503 39.9581C37.1775 40.067 37.1048 40.2122 36.8868 40.2483L36.1971 40.321V41.0107H39.5012V40.321L38.9564 40.2849C38.7024 40.2483 38.5569 40.067 38.7024 39.8854L38.9564 39.4492H42.1517L42.3696 39.8126C42.587 40.1028 42.333 40.2483 42.0789 40.2483L41.4981 40.321V41.0107H46V40.321L45.3467 40.248ZM39.5009 38.5055L40.4813 36.9442L41.5339 38.5055H39.5009ZM24.361 36.5447L25.0873 36.6174C25.3775 36.6541 25.4141 36.9081 25.4141 37.0897V39.6674L22.6909 36.0732C22.5457 35.8913 22.4369 35.8552 22.1464 35.8552H18.5883V36.5449L19.278 36.6177C19.6048 36.6543 19.6412 36.9084 19.6412 37.09V39.7766C19.6412 39.9584 19.6048 40.2127 19.278 40.2488L18.5883 40.3216V41.0113H21.8921V40.3216L21.2021 40.2488C20.9117 40.2127 20.8753 39.9587 20.8753 39.7766V37.1988L23.5986 40.7936C23.744 40.9749 23.8526 41.011 24.1428 41.011H26.6483V37.09C26.6483 36.9087 26.6844 36.6543 27.0112 36.6177L27.7009 36.5449V35.8552H24.3607V36.5447H24.361ZM14.1225 35.6737C10.7459 35.6737 9.87467 37.1622 9.87467 38.4327C9.87467 39.7399 10.7459 41.1923 14.1225 41.1923C17.499 41.1923 18.3706 39.7399 18.3706 38.4327C18.3703 37.1622 17.499 35.6737 14.1225 35.6737ZM14.1225 40.2119C12.8156 40.2119 12.2708 39.6672 12.2708 38.4327C12.2708 37.1983 12.8153 36.6541 14.1225 36.6541C15.4297 36.6541 15.9742 37.1983 15.9742 38.4327C15.9742 39.6672 15.4297 40.2119 14.1225 40.2119ZM12.3072 34.8746L9.80192 32.5509L22.4368 31.099L28.5366 34.8746H12.3072ZM33.5827 24.9626L7.00622 29.937L9.29353 32.0786L21.5653 30.554C21.3473 30.4451 21.3112 30.336 21.3112 30.1911C21.3112 30.0456 21.4201 29.9004 21.6378 29.8643C21.7469 29.8643 28.4272 28.8839 28.8992 28.8112C29.1166 28.7745 29.6617 28.6657 30.2425 28.3755C30.8234 28.1215 31.1863 27.8308 31.4042 27.6125C31.5856 27.4676 32.0939 26.9228 32.4574 26.5233C32.6635 26.3168 32.8574 26.0986 33.0382 25.8697C33.1837 25.6884 33.5105 25.2888 33.6552 25.1072C33.6921 25.0353 33.6555 24.9626 33.5827 24.9626ZM37.7584 19.1538L4.5376 27.6858L6.53449 29.5378L16.773 27.577C16.5917 27.4681 16.4826 27.3957 16.4826 27.2141C16.484 27.1339 16.514 27.0569 16.5673 26.9969C16.6206 26.937 16.6935 26.8981 16.773 26.8873L33.4014 23.6559C33.6194 23.6196 34.2002 23.5105 34.7447 23.1476C35.2895 22.8208 35.5802 22.4579 35.7618 22.276C35.9792 22.022 36.3787 21.5136 36.6694 21.1507C36.8868 20.8602 37.0689 20.5698 37.2136 20.3521C37.3591 20.1345 37.6859 19.5533 37.8672 19.2993C37.9036 19.2263 37.8311 19.1174 37.7584 19.1538Z" fill="#C23C40"/>
<path fill-rule="evenodd" clip-rule="evenodd" d="M33.3653 9.49612C33.801 9.31453 36.0158 8.37051 36.4873 8.11617C36.9959 7.89849 38.4481 7.2449 38.9928 6.99084C39.6098 6.73679 41.3526 5.90161 41.6066 5.79277C42.8411 5.21191 44.3663 4.48585 44.6564 4.30426C44.7291 4.26789 44.8744 4.34064 44.8377 4.44948C44.5778 5.2875 44.2749 6.11157 43.9301 6.91838C43.7127 7.42676 43.3859 8.15283 43.0951 8.62484C42.7323 9.20597 42.3694 9.60496 42.0787 9.85929C41.4617 10.4404 40.953 10.7308 40.4086 10.9488C40.0818 11.0576 39.3921 11.3481 38.9201 11.5297C38.8112 11.566 36.9593 12.2557 36.5597 12.3646L3.81125 23.9464C3.04881 24.2004 2.17753 24.7085 2.17753 25.6889C2.17753 26.1251 2.43187 26.706 2.93997 27.1774L11.218 34.8745H7.36939C7.29692 34.6571 7.1878 34.3303 7.04259 34.1121C6.89738 33.8939 6.82491 33.6765 6.38899 33.2772C6.06247 32.9137 5.73567 32.5875 5.62655 32.4784L1.2696 28.122C0.434698 27.3232 -0.0012207 26.27 -0.0012207 25.3263C-0.0012207 24.0191 0.724844 22.7486 2.90332 21.877L33.3653 9.49612Z" fill="#C23C40"/>
<path fill-rule="evenodd" clip-rule="evenodd" d="M36.9592 13.8892C37.3949 13.744 38.2304 13.4535 38.4478 13.3811C38.6657 13.3086 39.537 12.9818 39.6822 12.9454C40.2631 12.6914 40.8439 12.4734 41.4614 12.2194C41.5336 12.183 41.6427 12.2557 41.6063 12.3646C41.5336 12.5462 41.1346 13.3447 41.0255 13.5263C40.7714 14.0347 40.5174 14.5067 40.2631 14.9059C40.009 15.3055 39.6822 15.85 39.4645 16.1043C39.1011 16.5399 38.7743 16.8304 38.2662 17.1935C37.6126 17.6292 37.0317 17.7744 36.7777 17.8835L12.634 24.3456C12.4527 24.3817 12.3799 24.5997 12.3799 24.6724C12.3799 24.8179 12.4888 24.9626 12.634 25.0353L4.06556 27.2502L3.37587 26.5966C3.12182 26.3792 3.0127 26.0524 3.0127 25.798C3.0127 25.1805 3.48471 24.8904 4.24743 24.6363L36.9592 13.8892Z" fill="#C23C40"/>
</g>
</svg>
