<svg width="46" height="46" viewBox="0 0 46 46" fill="none" xmlns="http://www.w3.org/2000/svg">
<mask id="mask0_305_3085" style="mask-type:alpha" maskUnits="userSpaceOnUse" x="0" y="0" width="46" height="46">
<rect width="46" height="46" fill="#D9D9D9"/>
</mask>
<g mask="url(#mask0_305_3085)">
<path fill-rule="evenodd" clip-rule="evenodd" d="M23.2053 11.4008C10.5029 11.4008 0.205078 16.4852 0.205078 22.7552C0.205078 29.0257 10.5029 34.1106 23.2053 34.1106C35.9068 34.1106 46.2051 29.0262 46.2051 22.7552C46.2046 16.4856 35.9063 11.4008 23.2053 11.4008ZM21.0232 13.9279C23.6484 12.9998 31.4478 13.9279 34.4773 15.383C35.4468 16.3129 30.1541 19.3004 23.8521 20.5955C14.842 22.4124 19.1242 15.4632 21.0232 13.9279ZM5.54978 27.382C3.56916 25.9698 -0.309108 21.9283 6.11547 17.7269C9.50919 15.7476 11.4078 15.3018 13.7508 14.8177C14.8826 14.5743 15.6904 14.8578 14.6802 15.7066C12.5391 17.9288 8.09472 25.2806 7.69131 26.8979C7.36721 27.9896 6.72128 28.2709 5.54978 27.382ZM24.0527 32.0698C20.2556 32.4728 11.8121 31.2211 11.6498 30.1316C11.8121 27.5037 25.0633 23.1404 27.4464 25.5646C28.4575 27.4631 26.5183 31.9481 24.0527 32.0698ZM43.3657 24.4318C42.3952 26.6545 39.1232 29.1607 32.2555 30.8578C31.2039 31.0984 30.8406 30.453 31.5271 29.8467C32.6594 29.1602 38.1135 20.0298 38.8 18.2105C39.2043 17.2806 39.9715 17.6457 40.457 18.0086C42.6391 19.4221 44.2951 21.7255 43.3657 24.4318Z" fill="#295BA7"/>
</g>
</svg>
