<svg width="46" height="46" viewBox="0 0 46 46" fill="none" xmlns="http://www.w3.org/2000/svg">
<mask id="mask0_2309_172" style="mask-type:alpha" maskUnits="userSpaceOnUse" x="0" y="0" width="46" height="46">
<rect width="46" height="46" fill="#D9D9D9"/>
</mask>
<g mask="url(#mask0_2309_172)">
<g clip-path="url(#clip0_2309_172)">
<path d="M23 11.1328C10.2944 11.1328 0 16.4426 0 23C0 29.5477 10.2944 34.8672 23 34.8672C35.6958 34.8672 46 29.5574 46 23C46 16.4426 35.6958 11.1328 23 11.1328Z" fill="#58595B"/>
<path d="M23 11.1328C10.2944 11.1328 0 16.4426 0 23C0 29.5477 10.2944 34.8575 22.9902 34.8575C35.6859 34.8575 45.9902 29.5477 45.9902 23C45.9902 16.4426 35.6958 11.1328 23 11.1328Z" fill="#595A5C"/>
<path d="M22.9999 11.1425C10.3042 11.1425 0.00976562 16.4523 0.00976562 23C0.00976562 29.5478 10.3042 34.8575 22.9999 34.8575C35.6957 34.8575 45.9901 29.5478 45.9901 23C45.9901 16.4523 35.6957 11.1425 22.9999 11.1425Z" fill="#5A5B5D"/>
<path d="M22.9999 11.1425C10.3042 11.1425 0.00976562 16.4523 0.00976562 23C0.00976562 29.5478 10.3042 34.8575 22.9999 34.8575C35.6957 34.8575 45.9901 29.5478 45.9901 23C45.9901 16.4523 35.6957 11.1425 22.9999 11.1425Z" fill="#5B5C5E"/>
<path d="M22.9999 11.1425C10.3042 11.1425 0.00976562 16.4523 0.00976562 23C0.00976562 29.5478 10.3042 34.8575 22.9999 34.8575C35.6957 34.8575 45.9901 29.5478 45.9901 23C45.9901 16.4523 35.6957 11.1425 22.9999 11.1425Z" fill="#5C5C5F"/>
<path d="M22.9999 11.1425C10.3042 11.1425 0.00976562 16.4523 0.00976562 23C0.00976562 29.5478 10.3042 34.8575 22.9901 34.8575C35.6858 34.8575 45.9802 29.5478 45.9802 23C45.9802 16.4523 35.6957 11.1425 22.9999 11.1425Z" fill="#5C5D60"/>
<path d="M23.0001 11.1425C10.3043 11.1425 0.0197754 16.4523 0.0197754 23C0.0197754 29.5478 10.3142 34.8478 23.0001 34.8478C35.6959 34.8478 45.9804 29.5381 45.9804 23C45.9804 16.4523 35.6959 11.1425 23.0001 11.1425Z" fill="#5D5E60"/>
<path d="M23.0001 11.1522C10.3043 11.1522 0.0197754 16.4523 0.0197754 23C0.0197754 29.5477 10.3043 34.8478 23.0001 34.8478C35.6959 34.8478 45.9804 29.5381 45.9804 23C45.9804 16.4523 35.686 11.1522 23.0001 11.1522Z" fill="#5E5F61"/>
<path d="M23.0001 11.1522C10.3142 11.1522 0.0197754 16.4523 0.0197754 23C0.0197754 29.5381 10.3043 34.8478 23.0001 34.8478C35.686 34.8478 45.9804 29.5477 45.9804 23C45.9804 16.4523 35.686 11.1522 23.0001 11.1522Z" fill="#5F6062"/>
<path d="M23 11.1522C10.3141 11.1522 0.029541 16.4619 0.029541 23C0.029541 29.5381 10.3141 34.8478 23 34.8478C35.6859 34.8478 45.9803 29.5477 45.9803 23C45.9803 16.4619 35.6859 11.1522 23 11.1522Z" fill="#606163"/>
<path d="M23 11.1619C10.3141 11.1619 0.029541 16.462 0.029541 23C0.029541 29.5381 10.3141 34.8382 23 34.8382C35.6859 34.8382 45.9705 29.5381 45.9705 23C45.9705 16.462 35.6859 11.1619 23 11.1619Z" fill="#616264"/>
<path d="M23 11.1619C10.3141 11.1619 0.029541 16.462 0.029541 23C0.029541 29.5381 10.3141 34.8382 23 34.8382C35.6859 34.8382 45.9705 29.5381 45.9705 23C45.9705 16.462 35.6859 11.1619 23 11.1619Z" fill="#616265"/>
<path d="M23 11.1619C10.3141 11.1619 0.029541 16.462 0.029541 23C0.029541 29.5381 10.3141 34.8382 23 34.8382C35.6859 34.8382 45.9705 29.5381 45.9705 23C45.9705 16.462 35.6859 11.1619 23 11.1619Z" fill="#626366"/>
<path d="M22.9999 11.1619C10.314 11.1619 0.0393066 16.462 0.0393066 23C0.0393066 29.5381 10.3239 34.8382 22.9999 34.8382C35.6859 34.8382 45.9704 29.5381 45.9704 23C45.9704 16.462 35.6859 11.1619 22.9999 11.1619Z" fill="#636467"/>
<path d="M22.9999 11.1619C10.3239 11.1619 0.0393066 16.462 0.0393066 23C0.0393066 29.5381 10.3239 34.8285 22.9999 34.8285C35.6859 34.8285 45.9606 29.5381 45.9606 23C45.9606 16.462 35.6859 11.1619 22.9999 11.1619Z" fill="#646567"/>
<path d="M22.9999 11.1715C10.3239 11.1715 0.0393066 16.4619 0.0393066 23C0.0393066 29.5381 10.3239 34.8285 22.9999 34.8285C35.676 34.8285 45.9606 29.5381 45.9606 23C45.9606 16.4619 35.676 11.1715 22.9999 11.1715Z" fill="#656668"/>
<path d="M22.9999 11.1715C10.3239 11.1715 0.0393066 16.4716 0.0393066 23C0.0393066 29.5284 10.3239 34.8285 22.9999 34.8285C35.676 34.8285 45.9606 29.5284 45.9606 23C45.9606 16.4716 35.676 11.1715 22.9999 11.1715Z" fill="#656769"/>
<path d="M23.0001 11.1715C10.324 11.1715 0.0493164 16.4716 0.0493164 23C0.0493164 29.5284 10.324 34.8285 23.0001 34.8285C35.6762 34.8285 45.9607 29.5284 45.9607 23C45.9607 16.4716 35.6762 11.1715 23.0001 11.1715Z" fill="#66686A"/>
<path d="M23.0001 11.1715C10.324 11.1715 0.0493164 16.4716 0.0493164 23C0.0493164 29.5284 10.324 34.8285 23.0001 34.8285C35.6762 34.8285 45.9607 29.5284 45.9607 23C45.9607 16.4716 35.6762 11.1715 23.0001 11.1715Z" fill="#67686B"/>
<path d="M23.0001 11.1812C10.324 11.1812 0.0493164 16.4716 0.0493164 23C0.0493164 29.5284 10.324 34.8188 23.0001 34.8188C35.6762 34.8188 45.9509 29.5284 45.9509 23C45.9509 16.4716 35.6762 11.1812 23.0001 11.1812Z" fill="#68696C"/>
<path d="M23 11.1812C10.3338 11.1812 0.059082 16.4716 0.059082 23C0.059082 29.5284 10.3338 34.8188 23.0099 34.8188C35.686 34.8188 45.9607 29.5284 45.9607 23C45.9508 16.4716 35.6761 11.1812 23 11.1812Z" fill="#696A6C"/>
<path d="M23 11.1812C10.3338 11.1812 0.059082 16.4716 0.059082 23C0.059082 29.5284 10.3338 34.8188 23 34.8188C35.6761 34.8188 45.9508 29.5284 45.9508 23C45.9508 16.4716 35.6761 11.1812 23 11.1812Z" fill="#696B6D"/>
<path d="M23 11.1812C10.3338 11.1812 0.059082 16.4716 0.059082 23C0.059082 29.5284 10.3338 34.8091 23 34.8091C35.6663 34.8091 45.941 29.5187 45.941 23C45.9508 16.4716 35.6761 11.1812 23 11.1812Z" fill="#6A6C6E"/>
<path d="M23 11.1909C10.3338 11.1909 0.059082 16.4813 0.059082 23C0.059082 29.5187 10.3338 34.8091 23 34.8091C35.6663 34.8091 45.941 29.5187 45.941 23C45.941 16.4813 35.6761 11.1909 23 11.1909Z" fill="#6B6C6F"/>
<path d="M23 11.1909C10.3337 11.1909 0.0688477 16.4813 0.0688477 23C0.0688477 29.5187 10.3436 34.8091 23.0098 34.8091C35.676 34.8091 45.9507 29.5187 45.9507 23C45.9409 16.4813 35.6662 11.1909 23 11.1909Z" fill="#6C6D70"/>
<path d="M23 11.1909C10.3337 11.1909 0.0688477 16.4813 0.0688477 23C0.0688477 29.5187 10.3337 34.8091 23 34.8091C35.6662 34.8091 45.9409 29.5187 45.9409 23C45.9409 16.4813 35.6662 11.1909 23 11.1909Z" fill="#6D6E70"/>
<path d="M23 11.1909C10.3337 11.1909 0.0688477 16.4716 0.0688477 23C0.0688477 29.5187 10.3337 34.8091 23 34.8091C35.6662 34.8091 45.9311 29.5187 45.9311 23C45.9409 16.4813 35.6662 11.1909 23 11.1909Z" fill="#6D6F71"/>
<path d="M23 11.2005C10.3337 11.2005 0.0688477 16.4812 0.0688477 23C0.0688477 29.5187 10.3337 34.7994 23 34.7994C35.6662 34.7994 45.9311 29.5187 45.9311 23C45.9311 16.4812 35.6662 11.2005 23 11.2005Z" fill="#6E7072"/>
<path d="M23 11.2005C10.3337 11.2005 0.0688477 16.4812 0.0688477 23C0.0688477 29.5187 10.3337 34.7994 23 34.7994C35.6662 34.7994 45.9311 29.5187 45.9311 23C45.9311 16.4812 35.6662 11.2005 23 11.2005Z" fill="#6F7073"/>
<path d="M22.9999 11.2005C10.3435 11.2005 0.0786133 16.4812 0.0786133 23C0.0786133 29.5187 10.3435 34.7994 22.9999 34.7994C35.6563 34.7994 45.931 29.5187 45.931 23C45.931 16.4812 35.6661 11.2005 22.9999 11.2005Z" fill="#707174"/>
<path d="M22.9999 11.2005C10.3435 11.2005 0.0786133 16.4909 0.0786133 23C0.0786133 29.509 10.3435 34.7994 22.9999 34.7994C35.6563 34.7994 45.9212 29.5187 45.9212 23C45.931 16.4909 35.6661 11.2005 22.9999 11.2005Z" fill="#707274"/>
<path d="M23.0099 11.2102C10.3437 11.2102 0.088623 16.491 0.088623 23C0.088623 29.5091 10.3535 34.7898 23.0099 34.7898C35.6663 34.7898 45.9312 29.5091 45.9312 23C45.9312 16.491 35.6663 11.2102 23.0099 11.2102Z" fill="#717375"/>
<path d="M23.0099 11.2102C10.3535 11.2102 0.088623 16.491 0.088623 23C0.088623 29.5091 10.3535 34.7898 23.0099 34.7898C35.6663 34.7898 45.9312 29.5091 45.9312 23C45.9213 16.491 35.6663 11.2102 23.0099 11.2102Z" fill="#727476"/>
<path d="M23.0099 11.2102C10.3535 11.2102 0.088623 16.491 0.088623 23C0.088623 29.5091 10.3437 34.7898 23 34.7898C35.6564 34.7898 45.9213 29.5091 45.9213 23C45.9213 16.491 35.6564 11.2102 23.0099 11.2102Z" fill="#737477"/>
<path d="M23.0099 11.2102C10.3535 11.2102 0.088623 16.491 0.088623 23C0.088623 29.5091 10.3436 34.7898 23 34.7898C35.6564 34.7898 45.9115 29.5091 45.9115 23C45.9213 16.491 35.6564 11.2102 23.0099 11.2102Z" fill="#747578"/>
<path d="M23.0098 11.2198C10.3534 11.2198 0.0983887 16.4909 0.0983887 23C0.0983887 29.509 10.3534 34.7898 23.0098 34.7898C35.6662 34.7898 45.9212 29.509 45.9212 23.0096C45.9212 16.4909 35.6564 11.2198 23.0098 11.2198Z" fill="#747678"/>
<path d="M23.0098 11.2198C10.3534 11.2198 0.0983887 16.4909 0.0983887 23C0.0983887 29.509 10.3534 34.7801 23.0098 34.7801C35.6564 34.7801 45.9212 29.509 45.9212 23C45.9114 16.4909 35.6564 11.2198 23.0098 11.2198Z" fill="#757779"/>
<path d="M23.0098 11.2198C10.3534 11.2198 0.0983887 16.5006 0.0983887 23C0.0983887 29.509 10.3534 34.7801 23.0098 34.7801C35.6564 34.7801 45.9212 29.509 45.9212 23C45.9114 16.5006 35.6564 11.2198 23.0098 11.2198Z" fill="#76777A"/>
<path d="M23.0097 11.2198C10.3632 11.2198 0.108154 16.5006 0.108154 23C0.108154 29.4994 10.3632 34.7801 23.0097 34.7801C35.6563 34.7801 45.9113 29.509 45.9113 23C45.9113 16.5006 35.6563 11.2198 23.0097 11.2198Z" fill="#77787B"/>
<path d="M23.0097 11.2296C10.3632 11.2296 0.108154 16.5006 0.108154 23C0.108154 29.4994 10.3632 34.7705 23.0097 34.7705C35.6563 34.7705 45.9113 29.4994 45.9113 23C45.9113 16.5006 35.6563 11.2296 23.0097 11.2296Z" fill="#77797B"/>
<path d="M23.0097 11.2296C10.3632 11.2296 0.108154 16.5006 0.108154 23C0.108154 29.4994 10.3632 34.7705 23.0097 34.7705C35.6563 34.7705 45.9113 29.4994 45.9113 23C45.9113 16.5006 35.6563 11.2296 23.0097 11.2296Z" fill="#787A7C"/>
<path d="M23.0097 11.2296C10.3632 11.2296 0.108154 16.5006 0.108154 23C0.108154 29.4994 10.3632 34.7705 22.9999 34.7705C35.6465 34.7705 45.9015 29.4994 45.9015 23C45.9015 16.5006 35.6563 11.2296 23.0097 11.2296Z" fill="#797A7D"/>
<path d="M23.0099 11.2296C10.3634 11.2296 0.118164 16.5006 0.118164 23C0.118164 29.4994 10.3634 34.7705 23.0099 34.7705C35.6565 34.7705 45.9016 29.4994 45.9016 23C45.9016 16.5006 35.6466 11.2296 23.0099 11.2296Z" fill="#7A7B7E"/>
<path d="M23.0099 11.2392C10.3634 11.2392 0.118164 16.5006 0.118164 23C0.118164 29.4994 10.3634 34.7608 23.0099 34.7608C35.6466 34.7608 45.9016 29.4897 45.9016 23C45.9016 16.5006 35.6466 11.2392 23.0099 11.2392Z" fill="#7A7C7F"/>
<path d="M23.0099 11.2392C10.3732 11.2392 0.118164 16.5006 0.118164 23C0.118164 29.4994 10.3634 34.7608 23.0099 34.7608C35.6466 34.7608 45.9016 29.4897 45.9016 23C45.9016 16.5006 35.6466 11.2392 23.0099 11.2392Z" fill="#7B7D7F"/>
<path d="M23.0098 11.2392C10.3731 11.2392 0.12793 16.5103 0.12793 23C0.12793 29.4994 10.3731 34.7608 23.0098 34.7608C35.6465 34.7608 45.8917 29.4994 45.8917 23C45.8917 16.5103 35.6465 11.2392 23.0098 11.2392Z" fill="#7C7D80"/>
<path d="M23.0098 11.2392C10.3731 11.2392 0.12793 16.5103 0.12793 23C0.12793 29.4897 10.3731 34.7608 23.0098 34.7608C35.6465 34.7608 45.8917 29.4994 45.8917 23C45.8917 16.5103 35.6465 11.2392 23.0098 11.2392Z" fill="#7C7E81"/>
<path d="M23.0098 11.2489C10.3731 11.2489 0.12793 16.5103 0.12793 23C0.12793 29.4897 10.3731 34.7608 23.0098 34.7608C35.6465 34.7608 45.8917 29.4994 45.8917 23C45.8917 16.5103 35.6465 11.2489 23.0098 11.2489Z" fill="#7D7F82"/>
<path d="M23.0098 11.2489C10.3731 11.2489 0.12793 16.5103 0.12793 23C0.12793 29.4897 10.3731 34.7511 23.0098 34.7511C35.6465 34.7511 45.8917 29.4897 45.8917 23C45.8917 16.5103 35.6465 11.2489 23.0098 11.2489Z" fill="#7E8082"/>
<path d="M23.0098 11.2489C10.373 11.2489 0.137695 16.5103 0.137695 23C0.137695 29.4897 10.3829 34.7511 23.0098 34.7511C35.6465 34.7511 45.8917 29.4897 45.8917 23C45.8818 16.5103 35.6465 11.2489 23.0098 11.2489Z" fill="#7F8083"/>
<path d="M23.0098 11.2489C10.3829 11.2489 0.137695 16.5103 0.137695 23C0.137695 29.4897 10.3829 34.7511 23.0098 34.7511C35.6465 34.7511 45.8818 29.4897 45.8818 23C45.8818 16.5103 35.6366 11.2489 23.0098 11.2489Z" fill="#7F8184"/>
<path d="M23.0098 11.2585C10.3829 11.2585 0.137695 16.5103 0.137695 23C0.137695 29.4897 10.373 34.7511 23.0098 34.7511C35.6366 34.7511 45.8818 29.4897 45.8818 23C45.8818 16.5103 35.6366 11.2585 23.0098 11.2585Z" fill="#808285"/>
<path d="M23.0099 11.2585C10.383 11.2585 0.147705 16.5199 0.147705 23C0.147705 29.4897 10.383 34.7414 23.0198 34.7414C35.6466 34.7414 45.8918 29.48 45.8918 23C45.882 16.5199 35.6368 11.2585 23.0099 11.2585Z" fill="#818385"/>
<path d="M23.0099 11.2585C10.383 11.2585 0.147705 16.5199 0.147705 23C0.147705 29.48 10.383 34.7414 23.0099 34.7414C35.6368 34.7414 45.8721 29.48 45.8721 23C45.882 16.5199 35.6368 11.2585 23.0099 11.2585Z" fill="#828386"/>
<path d="M23.0099 11.2585C10.3831 11.2585 0.147705 16.5199 0.147705 23C0.147705 29.48 10.3831 34.7414 23.0099 34.7414C35.6368 34.7414 45.8721 29.48 45.8721 23C45.8721 16.5199 35.6368 11.2585 23.0099 11.2585Z" fill="#828487"/>
<path d="M23.0099 11.2682C10.3831 11.2682 0.147705 16.52 0.147705 23C0.147705 29.4801 10.3831 34.7415 23.0099 34.7415C35.6368 34.7415 45.8721 29.4897 45.8721 23C45.8721 16.52 35.6368 11.2682 23.0099 11.2682Z" fill="#838588"/>
<path d="M23.0098 11.2682C10.3928 11.2682 0.157471 16.52 0.157471 23C0.157471 29.4801 10.3928 34.7318 23.0098 34.7318C35.6367 34.7318 45.8721 29.4801 45.8721 23C45.8721 16.52 35.6367 11.2682 23.0098 11.2682Z" fill="#848688"/>
<path d="M23.0098 11.2682C10.3928 11.2682 0.157471 16.52 0.157471 23C0.157471 29.4801 10.3928 34.7318 23.0098 34.7318C35.6367 34.7318 45.8622 29.4801 45.8622 23C45.8721 16.52 35.6367 11.2682 23.0098 11.2682Z" fill="#858689"/>
<path d="M23.0098 11.2682C10.3928 11.2682 0.157471 16.52 0.157471 23C0.157471 29.4801 10.3928 34.7318 23.0098 34.7318C35.6367 34.7318 45.8622 29.4801 45.8622 23C45.8622 16.52 35.6367 11.2682 23.0098 11.2682Z" fill="#85878A"/>
<path d="M23.0098 11.2779C10.3928 11.2779 0.157471 16.5296 0.157471 23C0.157471 29.48 10.3928 34.7318 23.0098 34.7318C35.6269 34.7318 45.8622 29.48 45.8622 23C45.8622 16.5296 35.6269 11.2779 23.0098 11.2779Z" fill="#86888B"/>
<path d="M23.0098 11.2779C10.3927 11.2779 0.167236 16.5296 0.167236 23C0.167236 29.48 10.3927 34.7221 23.0098 34.7221C35.6268 34.7318 45.8621 29.48 45.8621 23C45.8621 16.5296 35.6268 11.2779 23.0098 11.2779Z" fill="#87898B"/>
<path d="M23.0098 11.2779C10.3927 11.2779 0.167236 16.5296 0.167236 23C0.167236 29.48 10.3927 34.7318 23.0098 34.7318C35.6268 34.7318 45.8621 29.48 45.8621 23C45.8621 16.5296 35.6268 11.2779 23.0098 11.2779Z" fill="#88898C"/>
<path d="M23.0098 11.2779C10.3927 11.2779 0.167236 16.5296 0.167236 23.0097C0.167236 29.48 10.3927 34.7318 23.0098 34.7318C35.6268 34.7318 45.8523 29.48 45.8523 23.0097C45.8523 16.5296 35.6268 11.2779 23.0098 11.2779Z" fill="#888A8D"/>
<path d="M23.0099 11.2876C10.4027 11.2876 0.177246 16.5297 0.177246 23.0097C0.177246 29.4801 10.4027 34.7318 23.0198 34.7318C35.6368 34.7318 45.8623 29.4801 45.8623 23.0097C45.8525 16.5297 35.627 11.2876 23.0099 11.2876Z" fill="#898B8E"/>
<path d="M23.0099 11.2876C10.4027 11.2876 0.177246 16.5297 0.177246 23.0097C0.177246 29.4801 10.4027 34.7221 23.0099 34.7221C35.627 34.7221 45.8525 29.4801 45.8525 23.0097C45.8525 16.5297 35.627 11.2876 23.0099 11.2876Z" fill="#8A8C8E"/>
<path d="M23.0099 11.2876C10.4027 11.2876 0.177246 16.5297 0.177246 23C0.177246 29.4704 10.4027 34.7124 23.0099 34.7124C35.6171 34.7124 45.8426 29.4704 45.8426 23C45.8525 16.5297 35.627 11.2876 23.0099 11.2876Z" fill="#8A8C8F"/>
<path d="M23.0099 11.2876C10.4027 11.2876 0.177246 16.5297 0.177246 23C0.177246 29.4704 10.4027 34.7124 23.0099 34.7124C35.6171 34.7124 45.8426 29.4704 45.8426 23C45.8525 16.5393 35.627 11.2876 23.0099 11.2876Z" fill="#8B8D90"/>
<path d="M23.0099 11.2972C10.4027 11.2972 0.177246 16.5393 0.177246 23.0097C0.177246 29.48 10.4027 34.7221 23.0099 34.7221C35.6171 34.7221 45.8426 29.48 45.8426 23.0097C45.8426 16.5393 35.627 11.2972 23.0099 11.2972Z" fill="#8C8E91"/>
<path d="M23.0099 11.2972C10.4027 11.2972 0.187012 16.5393 0.187012 23.0097C0.187012 29.4704 10.4125 34.7124 23.0099 34.7124C35.6171 34.7124 45.8426 29.4704 45.8426 23.0097C45.8426 16.5393 35.6171 11.2972 23.0099 11.2972Z" fill="#8D8F91"/>
<path d="M23.0099 11.2972C10.4125 11.2972 0.187012 16.5393 0.187012 23.0097C0.187012 29.4704 10.4027 34.7124 23.0099 34.7124C35.6171 34.7124 45.8327 29.4704 45.8327 23.0097C45.8426 16.5393 35.6171 11.2972 23.0099 11.2972Z" fill="#8D8F92"/>
<path d="M23.0098 11.2972C10.4124 11.2972 0.196777 16.5393 0.196777 23.0097C0.196777 29.4704 10.4124 34.7124 23.0196 34.7124C35.6268 34.7124 45.8425 29.4704 45.8425 23.0097C45.8425 16.5393 35.617 11.2972 23.0098 11.2972Z" fill="#8E9093"/>
<path d="M23.0098 11.3069C10.4124 11.3069 0.196777 16.5393 0.196777 23.0096C0.196777 29.4703 10.4124 34.7124 23.0196 34.7124C35.6268 34.7124 45.8425 29.4703 45.8425 23.0096C45.8326 16.5393 35.617 11.3069 23.0098 11.3069Z" fill="#8F9194"/>
<path d="M23.0196 11.3069C10.4124 11.3069 0.196777 16.5393 0.196777 23.0096C0.196777 29.4703 10.4124 34.7124 23.0098 34.7124C35.6071 34.7124 45.8326 29.4703 45.8326 23.0096C45.8326 16.5393 35.617 11.3069 23.0196 11.3069Z" fill="#909294"/>
<path d="M23.0196 11.3069C10.4124 11.3069 0.196777 16.5489 0.196777 23.0096C0.196777 29.4703 10.4124 34.7027 23.0098 34.7027C35.6071 34.7027 45.8228 29.4703 45.8228 23.0096C45.8326 16.5489 35.617 11.3069 23.0196 11.3069Z" fill="#909395"/>
<path d="M23.0198 11.3069C10.4126 11.3069 0.206787 16.5489 0.206787 23.0096C0.206787 29.4703 10.4224 34.7027 23.0198 34.7027C35.6171 34.7027 45.8328 29.4703 45.8328 23.0096C45.8328 16.5489 35.6171 11.3069 23.0198 11.3069Z" fill="#919396"/>
<path d="M23.0198 11.3166C10.4224 11.3166 0.206787 16.549 0.206787 23.0097C0.206787 29.4704 10.4224 34.7028 23.0198 34.7028C35.6171 34.7028 45.8328 29.4704 45.8328 23.0097C45.8328 16.549 35.6171 11.3166 23.0198 11.3166Z" fill="#929497"/>
<path d="M23.0198 11.3166C10.4224 11.3166 0.206787 16.549 0.206787 23.0097C0.206787 29.4607 10.4224 34.7028 23.01 34.7028C35.6073 34.7028 45.823 29.4704 45.823 23.0097C45.823 16.549 35.6073 11.3166 23.0198 11.3166Z" fill="#939597"/>
<path d="M23.0198 11.3166C10.4224 11.3166 0.206787 16.549 0.206787 23.0097C0.206787 29.4607 10.4126 34.6931 23.01 34.6931C35.6073 34.6931 45.8131 29.4607 45.8131 23.0097C45.823 16.549 35.6073 11.3166 23.0198 11.3166Z" fill="#939698"/>
<path d="M23.0197 11.3166C10.4224 11.3166 0.216553 16.549 0.216553 23.0097C0.216553 29.4607 10.4224 34.6931 23.0197 34.6931C35.6171 34.6931 45.8229 29.4607 45.8229 23.0097C45.8229 16.549 35.6072 11.3166 23.0197 11.3166Z" fill="#949699"/>
<path d="M23.0197 11.3262C10.4224 11.3262 0.216553 16.5489 0.216553 23.0096C0.216553 29.4607 10.4224 34.6931 23.0197 34.6931C35.6072 34.6931 45.8229 29.4607 45.8229 23.0096C45.8229 16.5489 35.6072 11.3262 23.0197 11.3262Z" fill="#95979A"/>
<path d="M23.0197 11.3262C10.4224 11.3262 0.216553 16.5586 0.216553 23.0096C0.216553 29.4607 10.4224 34.6931 23.0099 34.6931C35.5974 34.6931 45.813 29.4607 45.813 23.0096C45.813 16.5586 35.6072 11.3262 23.0197 11.3262Z" fill="#96989A"/>
<path d="M23.0196 11.3262C10.4321 11.3262 0.226318 16.5586 0.226318 23.0096C0.226318 29.4607 10.4321 34.6834 23.0196 34.6834C35.6071 34.6834 45.813 29.451 45.813 23.0096C45.813 16.5586 35.6071 11.3262 23.0196 11.3262Z" fill="#97999B"/>
<path d="M23.0196 11.3262C10.4321 11.3262 0.226318 16.5586 0.226318 23.0096C0.226318 29.4607 10.4321 34.6834 23.0196 34.6834C35.6071 34.6834 45.813 29.451 45.813 23.0096C45.813 16.5586 35.6071 11.3262 23.0196 11.3262Z" fill="#97999C"/>
<path d="M23.0196 11.3359C10.4321 11.3359 0.226318 16.5587 0.226318 23.0097C0.226318 29.451 10.4321 34.6834 23.0196 34.6834C35.6071 34.6834 45.813 29.4607 45.813 23.0097C45.813 16.5587 35.6071 11.3359 23.0196 11.3359Z" fill="#989A9D"/>
<path d="M23.0196 11.3359C10.4321 11.3359 0.226318 16.5587 0.226318 23.0097C0.226318 29.451 10.4321 34.6834 23.0098 34.6834C35.5973 34.6834 45.8031 29.4607 45.8031 23.0097C45.8031 16.5587 35.6071 11.3359 23.0196 11.3359Z" fill="#999B9E"/>
<path d="M23.0196 11.3359C10.4321 11.3359 0.236084 16.5587 0.236084 23.0097C0.236084 29.451 10.4419 34.6737 23.0196 34.6737C35.6071 34.6737 45.8031 29.451 45.8031 23.0097C45.8031 16.5587 35.5972 11.3359 23.0196 11.3359Z" fill="#9A9C9E"/>
<path d="M23.0196 11.3359C10.4321 11.3359 0.236084 16.5587 0.236084 23.0097C0.236084 29.451 10.4321 34.6737 23.0196 34.6737C35.5972 34.6737 45.8031 29.451 45.8031 23.0097C45.8031 16.5587 35.5972 11.3359 23.0196 11.3359Z" fill="#9A9C9F"/>
<path d="M23.0196 11.3456C10.4419 11.3456 0.236084 16.5683 0.236084 23.0096C0.236084 29.451 10.4321 34.6737 23.0196 34.6737C35.5972 34.6737 45.8031 29.451 45.8031 23.0096C45.8031 16.5683 35.5972 11.3456 23.0196 11.3456Z" fill="#9B9DA0"/>
<path d="M23.0197 11.3456C10.4421 11.3456 0.246094 16.5683 0.246094 23.0096C0.246094 29.451 10.4421 34.6737 23.0197 34.6737C35.5974 34.6737 45.8032 29.451 45.8032 23.0096C45.8032 16.5683 35.5974 11.3456 23.0197 11.3456Z" fill="#9C9EA1"/>
<path d="M23.0197 11.3456C10.4421 11.3456 0.246094 16.5683 0.246094 23.0096C0.246094 29.451 10.4421 34.664 23.0197 34.664C35.5974 34.664 45.7934 29.4413 45.7934 23.0096C45.7934 16.5683 35.5974 11.3456 23.0197 11.3456Z" fill="#9D9FA1"/>
<path d="M23.0197 11.3456C10.4421 11.3456 0.246094 16.5683 0.246094 23.0096C0.246094 29.451 10.4421 34.664 23.0197 34.664C35.5974 34.664 45.7934 29.4413 45.7934 23.0096C45.7934 16.5683 35.5974 11.3456 23.0197 11.3456Z" fill="#9DA0A2"/>
<path d="M23.0197 11.3553C10.4421 11.3553 0.246094 16.5683 0.246094 23.0097C0.246094 29.4414 10.4421 34.6641 23.0197 34.6641C35.5974 34.6641 45.7934 29.4414 45.7934 23.0097C45.7934 16.5683 35.5974 11.3553 23.0197 11.3553Z" fill="#9EA0A3"/>
<path d="M23.0197 11.3553C10.442 11.3553 0.255859 16.5683 0.255859 23.0097C0.255859 29.4414 10.4518 34.6641 23.0197 34.6641C35.5973 34.6641 45.7933 29.451 45.7933 23.0097C45.7933 16.5683 35.5973 11.3553 23.0197 11.3553Z" fill="#9FA1A4"/>
<path d="M23.0197 11.3553C10.4518 11.3553 0.255859 16.5683 0.255859 23.0097C0.255859 29.4414 10.4518 34.6641 23.0197 34.6641C35.5973 34.6641 45.7835 29.451 45.7835 23.0097C45.7835 16.5683 35.5973 11.3553 23.0197 11.3553Z" fill="#A0A2A4"/>
<path d="M23.0197 11.3553C10.4518 11.3553 0.255859 16.578 0.255859 23.0097C0.255859 29.4414 10.4518 34.6544 23.0197 34.6544C35.5875 34.6544 45.7835 29.4414 45.7835 23.0097C45.7835 16.578 35.5875 11.3553 23.0197 11.3553Z" fill="#A1A3A5"/>
<path d="M23.0197 11.3649C10.4518 11.3649 0.255859 16.578 0.255859 23.0097C0.255859 29.4413 10.442 34.6544 23.0197 34.6544C35.5875 34.6544 45.7835 29.4413 45.7835 23.0097C45.7835 16.578 35.5875 11.3649 23.0197 11.3649Z" fill="#A1A3A6"/>
<path d="M23.0196 11.3649C10.4518 11.3649 0.265625 16.578 0.265625 23.0097C0.265625 29.4413 10.4518 34.6544 23.0196 34.6544C35.5874 34.6544 45.7834 29.4413 45.7834 23.0097C45.7834 16.578 35.5874 11.3649 23.0196 11.3649Z" fill="#A2A4A7"/>
<path d="M23.0196 11.3649C10.4518 11.3649 0.265625 16.578 0.265625 23.0097C0.265625 29.4413 10.4518 34.6544 23.0196 34.6544C35.5874 34.6544 45.7735 29.4413 45.7735 23.0097C45.7735 16.578 35.5874 11.3649 23.0196 11.3649Z" fill="#A3A5A8"/>
<path d="M23.0196 11.3649C10.4518 11.3649 0.265625 16.578 0.265625 23.0097C0.265625 29.4413 10.4518 34.6447 23.0196 34.6447C35.5874 34.6447 45.7735 29.4317 45.7735 23.0097C45.7735 16.578 35.5874 11.3649 23.0196 11.3649Z" fill="#A4A6A8"/>
<path d="M23.0198 11.3746C10.4618 11.3746 0.275635 16.578 0.275635 23.0097C0.275635 29.4317 10.4618 34.6447 23.0296 34.6447C35.5974 34.6447 45.7836 29.4317 45.7836 23.0097C45.7737 16.578 35.5876 11.3746 23.0198 11.3746Z" fill="#A4A7A9"/>
<path d="M23.0198 11.3746C10.4618 11.3746 0.275635 16.578 0.275635 23.0097C0.275635 29.4317 10.4618 34.6447 23.0198 34.6447C35.5876 34.6447 45.7737 29.4317 45.7737 23.0097C45.7737 16.578 35.5876 11.3746 23.0198 11.3746Z" fill="#A5A7AA"/>
<path d="M23.0198 11.3746C10.4618 11.3746 0.275635 16.5877 0.275635 23.0097C0.275635 29.4317 10.4618 34.6351 23.0198 34.6351C35.5777 34.6351 45.7639 29.4317 45.7639 23C45.7737 16.5877 35.5876 11.3746 23.0198 11.3746Z" fill="#A6A8AB"/>
<path d="M23.0198 11.3746C10.4618 11.3746 0.275635 16.5877 0.275635 23.0097C0.275635 29.4317 10.4618 34.6351 23.0198 34.6351C35.5876 34.6351 45.7639 29.4317 45.7639 23.0097C45.7639 16.5877 35.5876 11.3746 23.0198 11.3746Z" fill="#A7A9AC"/>
<path d="M23.0197 11.3843C10.4617 11.3843 0.2854 16.5877 0.2854 23.0097C0.2854 29.4317 10.4617 34.635 23.0197 34.635C35.5777 34.635 45.7638 29.4317 45.7638 23.0097C45.7638 16.5877 35.5777 11.3843 23.0197 11.3843Z" fill="#A8AAAC"/>
<path d="M23.0197 11.3843C10.4617 11.3843 0.2854 16.5877 0.2854 23.0097C0.2854 29.4317 10.4617 34.635 23.0197 34.635C35.5777 34.635 45.7638 29.4317 45.7638 23.0097C45.7638 16.5877 35.5777 11.3843 23.0197 11.3843Z" fill="#A8ABAD"/>
<path d="M23.0197 11.3843C10.4617 11.3843 0.2854 16.5877 0.2854 23.0097C0.2854 29.4317 10.4617 34.635 23.0197 34.635C35.5777 34.635 45.754 29.4317 45.754 23.0097C45.7638 16.5877 35.5777 11.3843 23.0197 11.3843Z" fill="#A9ABAE"/>
<path d="M23.0196 11.3843C10.4715 11.3843 0.295166 16.5877 0.295166 23.0097C0.295166 29.422 10.4715 34.6254 23.0294 34.6254C35.5874 34.6254 45.7637 29.422 45.7637 23.0097C45.7539 16.5877 35.5776 11.3843 23.0196 11.3843Z" fill="#AAACAF"/>
<path d="M23.0196 11.394C10.4715 11.394 0.295166 16.5877 0.295166 23.0097C0.295166 29.422 10.4715 34.6254 23.0294 34.6254C35.5874 34.6254 45.7637 29.422 45.7637 23.0097C45.7539 16.5877 35.5776 11.394 23.0196 11.394Z" fill="#ABADAF"/>
<path d="M23.0196 11.394C10.4715 11.394 0.295166 16.5974 0.295166 23.0097C0.295166 29.422 10.4715 34.6254 23.0196 34.6254C35.5677 34.6254 45.7539 29.422 45.7539 23.0097C45.7539 16.5974 35.5776 11.394 23.0196 11.394Z" fill="#ACAEB0"/>
<path d="M23.0196 11.394C10.4715 11.394 0.295166 16.5974 0.295166 23.0097C0.295166 29.422 10.4715 34.6254 23.0196 34.6254C35.5677 34.6254 45.744 29.422 45.744 23.0097C45.7539 16.5974 35.5776 11.394 23.0196 11.394Z" fill="#ACAFB1"/>
<path d="M23.0198 11.394C10.4716 11.394 0.305176 16.5974 0.305176 23.0097C0.305176 29.422 10.4815 34.6157 23.0296 34.6157C35.5778 34.6157 45.754 29.4124 45.754 23.0097C45.7442 16.5974 35.5778 11.394 23.0198 11.394Z" fill="#ADAFB2"/>
<path d="M23.0296 11.4036C10.4815 11.4036 0.305176 16.5973 0.305176 23.0097C0.305176 29.422 10.4815 34.6157 23.0296 34.6157C35.5778 34.6157 45.754 29.422 45.754 23.0097C45.7442 16.5973 35.5679 11.4036 23.0296 11.4036Z" fill="#AEB0B3"/>
<path d="M23.0296 11.4036C10.4815 11.4036 0.305176 16.5973 0.305176 23.0097C0.305176 29.422 10.4815 34.6157 23.0198 34.6157C35.5679 34.6157 45.7442 29.422 45.7442 23.0097C45.7442 16.5973 35.5679 11.4036 23.0296 11.4036Z" fill="#AFB1B3"/>
<path d="M23.0295 11.4036C10.4814 11.4036 0.314941 16.5973 0.314941 23.0097C0.314941 29.422 10.4814 34.6157 23.0295 34.6157C35.5777 34.6157 45.7441 29.422 45.7441 23.0097C45.7441 16.5973 35.5678 11.4036 23.0295 11.4036Z" fill="#B0B2B4"/>
<path d="M23.0295 11.4036C10.4814 11.4036 0.314941 16.5973 0.314941 23.0097C0.314941 29.4123 10.4814 34.6157 23.0295 34.6157C35.5777 34.6157 45.7441 29.422 45.7441 23.0097C45.7441 16.5973 35.5678 11.4036 23.0295 11.4036Z" fill="#B1B3B5"/>
<path d="M23.0295 11.4133C10.4814 11.4133 0.314941 16.607 0.314941 23.0097C0.314941 29.4124 10.4814 34.6061 23.0295 34.6061C35.5678 34.6061 45.7441 29.4124 45.7441 23.0097C45.7343 16.607 35.5678 11.4133 23.0295 11.4133Z" fill="#B1B3B6"/>
<path d="M23.0295 11.4133C10.4814 11.4133 0.314941 16.607 0.314941 23.0097C0.314941 29.4124 10.4814 34.6061 23.0295 34.6061C35.5678 34.6061 45.7343 29.4124 45.7343 23.0097C45.7343 16.607 35.5678 11.4133 23.0295 11.4133Z" fill="#B2B4B7"/>
<path d="M23.0295 11.4133C10.4912 11.4133 0.324707 16.607 0.324707 23.0097C0.324707 29.4124 10.4912 34.6061 23.0295 34.6061C35.5678 34.6061 45.7342 29.4124 45.7342 23.0097C45.7342 16.607 35.5678 11.4133 23.0295 11.4133Z" fill="#B3B5B7"/>
<path d="M23.0295 11.4133C10.4912 11.4133 0.324707 16.607 0.324707 23.0097C0.324707 29.4124 10.4912 34.6061 23.0295 34.6061C35.5678 34.6061 45.7342 29.4124 45.7342 23.0097C45.7342 16.607 35.5678 11.4133 23.0295 11.4133Z" fill="#B4B6B8"/>
<path d="M23.0295 11.423C10.4912 11.423 0.324707 16.607 0.324707 23.0097C0.324707 29.4123 10.4912 34.5964 23.0295 34.5964C35.5678 34.5964 45.7342 29.4027 45.7342 23.0097C45.7244 16.607 35.5678 11.423 23.0295 11.423Z" fill="#B5B7B9"/>
<path d="M23.0295 11.423C10.4912 11.423 0.324707 16.607 0.324707 23.0097C0.324707 29.4123 10.4912 34.5964 23.0295 34.5964C35.5678 34.5964 45.7244 29.4123 45.7244 23.0097C45.7244 16.607 35.5579 11.423 23.0295 11.423Z" fill="#B5B7BA"/>
<path d="M23.0296 11.423C10.4913 11.423 0.334717 16.607 0.334717 23.0097C0.334717 29.4123 10.4913 34.5964 23.0296 34.5964C35.5679 34.5964 45.7245 29.4123 45.7245 23.0097C45.7245 16.607 35.5581 11.423 23.0296 11.423Z" fill="#B6B8BB"/>
<path d="M23.0296 11.423C10.4913 11.423 0.334717 16.6167 0.334717 23.0097C0.334717 29.4027 10.4913 34.5964 23.0296 34.5964C35.5581 34.5964 45.7245 29.4123 45.7245 23.0097C45.7245 16.6167 35.5581 11.423 23.0296 11.423Z" fill="#B7B9BB"/>
<path d="M23.0296 11.4326C10.5012 11.4326 0.334717 16.6166 0.334717 23.0096C0.334717 29.4026 10.4913 34.5867 23.0296 34.5867C35.5581 34.5867 45.7245 29.4026 45.7245 23.0096C45.7245 16.6166 35.5581 11.4326 23.0296 11.4326Z" fill="#B8BABC"/>
<path d="M23.0295 11.4326C10.5011 11.4326 0.344482 16.6166 0.344482 23.0096C0.344482 29.4026 10.5011 34.5867 23.0295 34.5867C35.558 34.5867 45.7146 29.4026 45.7146 23.0096C45.7146 16.6166 35.558 11.4326 23.0295 11.4326Z" fill="#B9BBBD"/>
<path d="M23.0295 11.4326C10.5011 11.4326 0.344482 16.6166 0.344482 23.0096C0.344482 29.4026 10.5011 34.5867 23.0295 34.5867C35.558 34.5867 45.7146 29.4026 45.7146 23.0096C45.7146 16.6166 35.558 11.4326 23.0295 11.4326Z" fill="#BABBBE"/>
<path d="M23.0295 11.4326C10.5011 11.4326 0.344482 16.6166 0.344482 23.0096C0.344482 29.4026 10.5011 34.5867 23.0295 34.5867C35.558 34.5867 45.7146 29.4026 45.7146 23.0096C45.7146 16.6166 35.558 11.4326 23.0295 11.4326Z" fill="#BABCBF"/>
<path d="M23.0295 11.4423C10.5011 11.4423 0.344482 16.6167 0.344482 23.0097C0.344482 29.4027 10.5011 34.577 23.0197 34.577C35.5482 34.577 45.7048 29.393 45.7048 23.0097C45.7146 16.6167 35.558 11.4423 23.0295 11.4423Z" fill="#BBBDBF"/>
<path d="M23.0295 11.4423C10.501 11.4423 0.354248 16.6167 0.354248 23.0097C0.354248 29.4027 10.5109 34.577 23.0295 34.577C35.5579 34.577 45.7047 29.393 45.7047 23.0097C45.7047 16.6167 35.5579 11.4423 23.0295 11.4423Z" fill="#BCBEC0"/>
<path d="M23.0295 11.4423C10.5109 11.4423 0.354248 16.6264 0.354248 23.0097C0.354248 29.393 10.5109 34.577 23.0295 34.577C35.5481 34.577 45.7047 29.393 45.7047 23.0097C45.7047 16.6264 35.5481 11.4423 23.0295 11.4423Z" fill="#BDBFC1"/>
<path d="M23.0295 11.4423C10.5109 11.4423 0.354248 16.6264 0.354248 23.0097C0.354248 29.393 10.501 34.577 23.0295 34.577C35.5481 34.577 45.7047 29.4027 45.7047 23.0097C45.7047 16.6264 35.5481 11.4423 23.0295 11.4423Z" fill="#BEC0C2"/>
<path d="M23.0296 11.452C10.511 11.452 0.364258 16.6263 0.364258 23.0096C0.364258 29.393 10.511 34.5673 23.0296 34.5673C35.5483 34.5673 45.7049 29.393 45.7049 23.0096C45.7049 16.6263 35.5483 11.452 23.0296 11.452Z" fill="#BFC0C3"/>
<path d="M23.0296 11.452C10.511 11.452 0.364258 16.6263 0.364258 23.0096C0.364258 29.393 10.511 34.5673 23.0296 34.5673C35.5483 34.5673 45.695 29.393 45.695 23.0096C45.695 16.6263 35.5483 11.452 23.0296 11.452Z" fill="#BFC1C3"/>
<path d="M23.0296 11.452C10.511 11.452 0.364258 16.6263 0.364258 23.0096C0.364258 29.393 10.511 34.5673 23.0296 34.5673C35.5483 34.5673 45.695 29.393 45.695 23.0096C45.695 16.6263 35.5483 11.452 23.0296 11.452Z" fill="#C0C2C4"/>
<path d="M23.0296 11.452C10.511 11.452 0.364258 16.6263 0.364258 23.0096C0.364258 29.393 10.511 34.5673 23.0296 34.5673C35.5483 34.5673 45.695 29.393 45.695 23.0096C45.695 16.6263 35.5483 11.452 23.0296 11.452Z" fill="#C1C3C5"/>
<path d="M23.0296 11.4617C10.5208 11.4617 0.374023 16.6264 0.374023 23.0097C0.374023 29.393 10.5208 34.5674 23.0296 34.5674C35.5482 34.5674 45.6949 29.393 45.6949 23.0097C45.6949 16.6264 35.5482 11.4617 23.0296 11.4617Z" fill="#C2C4C6"/>
<path d="M23.0296 11.4617C10.5208 11.4617 0.374023 16.636 0.374023 23.0097C0.374023 29.3833 10.5208 34.5577 23.0296 34.5577C35.5383 34.5577 45.6851 29.3833 45.6851 23.0097C45.695 16.636 35.5482 11.4617 23.0296 11.4617Z" fill="#C3C4C7"/>
<path d="M23.0296 11.4617C10.5208 11.4617 0.374023 16.636 0.374023 23.0097C0.374023 29.3833 10.5208 34.5577 23.0296 34.5577C35.5383 34.5577 45.6851 29.3833 45.6851 23.0097C45.6851 16.636 35.5383 11.4617 23.0296 11.4617Z" fill="#C4C5C7"/>
<path d="M23.0296 11.4617C10.5208 11.4617 0.374023 16.636 0.374023 23.0097C0.374023 29.3833 10.5208 34.5577 23.0296 34.5577C35.5383 34.5577 45.6851 29.3833 45.6851 23.0097C45.6851 16.636 35.5383 11.4617 23.0296 11.4617Z" fill="#C4C6C8"/>
<path d="M23.0295 11.4713C10.5207 11.4713 0.383789 16.636 0.383789 23.0096C0.383789 29.3833 10.5207 34.5577 23.0295 34.5577C35.5383 34.5577 45.685 29.393 45.685 23.0096C45.685 16.636 35.5383 11.4713 23.0295 11.4713Z" fill="#C5C7C9"/>
<path d="M23.0295 11.4713C10.5207 11.4713 0.383789 16.636 0.383789 23.0096C0.383789 29.3833 10.5207 34.548 23.0295 34.548C35.5383 34.548 45.6752 29.3833 45.6752 23.0096C45.685 16.636 35.5383 11.4713 23.0295 11.4713Z" fill="#C6C8CA"/>
<path d="M23.0295 11.4713C10.5306 11.4713 0.383789 16.636 0.383789 23.0096C0.383789 29.3833 10.5207 34.548 23.0295 34.548C35.5383 34.548 45.6752 29.3833 45.6752 23.0096C45.6752 16.636 35.5383 11.4713 23.0295 11.4713Z" fill="#C7C9CB"/>
<path d="M23.0294 11.4713C10.5305 11.4713 0.393555 16.636 0.393555 23.0096C0.393555 29.3833 10.5305 34.548 23.0294 34.548C35.5382 34.548 45.6751 29.3833 45.6751 23.0096C45.6751 16.636 35.5382 11.4713 23.0294 11.4713Z" fill="#C8C9CB"/>
<path d="M23.0294 11.481C10.5305 11.481 0.393555 16.636 0.393555 23.0097C0.393555 29.3833 10.5305 34.548 23.0294 34.548C35.5283 34.548 45.6751 29.3833 45.6751 23.0097C45.6751 16.636 35.5382 11.481 23.0294 11.481Z" fill="#C9CACC"/>
<path d="M23.0294 11.481C10.5305 11.481 0.393555 16.6457 0.393555 23.0097C0.393555 29.3737 10.5305 34.5383 23.0294 34.5383C35.5283 34.5383 45.6653 29.3737 45.6653 23.0097C45.6751 16.6457 35.5382 11.481 23.0294 11.481Z" fill="#C9CBCD"/>
<path d="M23.0294 11.481C10.5305 11.481 0.393555 16.6457 0.393555 23.0097C0.393555 29.3833 10.5305 34.5383 23.0294 34.5383C35.5283 34.5383 45.6653 29.3737 45.6653 23.0097C45.6751 16.6457 35.5382 11.481 23.0294 11.481Z" fill="#CACCCE"/>
<path d="M23.0296 11.481C10.5307 11.481 0.403564 16.6457 0.403564 23.0097C0.403564 29.3737 10.5307 34.5383 23.0296 34.5383C35.5285 34.5383 45.6654 29.3737 45.6654 23.0097C45.6654 16.6457 35.5285 11.481 23.0296 11.481Z" fill="#CBCDCE"/>
<path d="M23.0296 11.4907C10.5405 11.4907 0.403564 16.6457 0.403564 23.0097C0.403564 29.3736 10.5405 34.5383 23.0296 34.5383C35.5285 34.5383 45.6654 29.3736 45.6654 23.0097C45.6654 16.6457 35.5285 11.4907 23.0296 11.4907Z" fill="#CCCDCF"/>
<path d="M23.0296 11.4907C10.5405 11.4907 0.403564 16.6457 0.403564 23.0097C0.403564 29.3736 10.5405 34.5383 23.0296 34.5383C35.5285 34.5383 45.6654 29.3736 45.6654 23.0097C45.6654 16.6457 35.5285 11.4907 23.0296 11.4907Z" fill="#CDCED0"/>
<path d="M23.0295 11.4907C10.5404 11.4907 0.41333 16.6457 0.41333 23.0097C0.41333 29.3736 10.5404 34.5286 23.0393 34.5286C35.5383 34.5286 45.6654 29.3736 45.6654 23.0097C45.6654 16.6457 35.5284 11.4907 23.0295 11.4907Z" fill="#CECFD1"/>
<path d="M23.0295 11.4907C10.5404 11.4907 0.41333 16.6457 0.41333 23.0097C0.41333 29.3736 10.5404 34.5286 23.0393 34.5286C35.5383 34.5286 45.6654 29.3736 45.6654 23.0097C45.6555 16.6457 35.5284 11.4907 23.0295 11.4907Z" fill="#CED0D2"/>
<path d="M23.0393 11.5004C10.5404 11.5004 0.41333 16.6554 0.41333 23.0097C0.41333 29.3737 10.5404 34.5287 23.0295 34.5287C35.5186 34.5287 45.6555 29.3737 45.6555 23.0097C45.6555 16.6554 35.5284 11.5004 23.0393 11.5004Z" fill="#CFD1D2"/>
<path d="M23.0393 11.5004C10.5404 11.5004 0.41333 16.6554 0.41333 23.0097C0.41333 29.364 10.5404 34.519 23.0295 34.519C35.5186 34.519 45.6457 29.364 45.6457 23.0097C45.6555 16.6554 35.5284 11.5004 23.0393 11.5004Z" fill="#D0D1D3"/>
<path d="M23.0393 11.5004C10.5502 11.5004 0.423096 16.6554 0.423096 23.0097C0.423096 29.364 10.5502 34.519 23.0393 34.519C35.5284 34.519 45.6554 29.364 45.6554 23.0097C45.6554 16.6554 35.5284 11.5004 23.0393 11.5004Z" fill="#D1D2D4"/>
<path d="M23.0393 11.5004C10.5502 11.5004 0.423096 16.6554 0.423096 23.0097C0.423096 29.364 10.5502 34.519 23.0393 34.519C35.5284 34.519 45.6554 29.364 45.6554 23.0097C45.6456 16.6554 35.5284 11.5004 23.0393 11.5004Z" fill="#D2D3D5"/>
<path d="M23.0393 11.51C10.5502 11.51 0.423096 16.6554 0.423096 23.0097C0.423096 29.364 10.5502 34.519 23.0294 34.519C35.5185 34.519 45.6456 29.364 45.6456 23.0097C45.6456 16.6554 35.5185 11.51 23.0393 11.51Z" fill="#D2D4D6"/>
<path d="M23.0394 11.51C10.5504 11.51 0.433105 16.6554 0.433105 23.0097C0.433105 29.364 10.5602 34.5093 23.0394 34.5093C35.5285 34.5093 45.6458 29.3543 45.6458 23.0097C45.6458 16.6554 35.5187 11.51 23.0394 11.51Z" fill="#D3D5D6"/>
<path d="M23.0394 11.51C10.5504 11.51 0.433105 16.6554 0.433105 23.0097C0.433105 29.364 10.5504 34.5093 23.0394 34.5093C35.5285 34.5093 45.6458 29.3543 45.6458 23.0097C45.6458 16.6554 35.5187 11.51 23.0394 11.51Z" fill="#D4D6D7"/>
<path d="M23.0394 11.51C10.5504 11.51 0.433105 16.665 0.433105 23.0097C0.433105 29.364 10.5504 34.5093 23.0394 34.5093C35.5187 34.5093 45.6458 29.364 45.6458 23.0097C45.6458 16.665 35.5187 11.51 23.0394 11.51Z" fill="#D5D6D8"/>
<path d="M23.0394 11.5197C10.5602 11.5197 0.433105 16.6651 0.433105 23.0097C0.433105 29.3543 10.5503 34.5093 23.0296 34.5093C35.5088 34.5093 45.6359 29.364 45.6359 23.0097C45.6359 16.6651 35.5187 11.5197 23.0394 11.5197Z" fill="#D6D7D9"/>
<path d="M23.0394 11.5197C10.5601 11.5197 0.442871 16.6651 0.442871 23.0097C0.442871 29.3543 10.5601 34.5093 23.0394 34.5093C35.5186 34.5093 45.6359 29.364 45.6359 23.0097C45.6359 16.6651 35.5186 11.5197 23.0394 11.5197Z" fill="#D7D8D9"/>
<path d="M23.0394 11.5197C10.5601 11.5197 0.442871 16.6651 0.442871 23.0097C0.442871 29.3543 10.5601 34.4997 23.0394 34.4997C35.5186 34.4997 45.6359 29.3543 45.6359 23.0097C45.6359 16.6651 35.5186 11.5197 23.0394 11.5197Z" fill="#D7D9DA"/>
<path d="M23.0394 11.5197C10.5601 11.5197 0.442871 16.6651 0.442871 23.0097C0.442871 29.3543 10.5601 34.4997 23.0394 34.4997C35.5186 34.4997 45.6359 29.3543 45.6359 23.0097C45.6359 16.6651 35.5186 11.5197 23.0394 11.5197Z" fill="#D8DADB"/>
<path d="M23.0394 11.5294C10.5601 11.5294 0.442871 16.665 0.442871 23.0097C0.442871 29.3543 10.5601 34.4996 23.0295 34.4996C35.5088 34.4996 45.626 29.3543 45.626 23.0097C45.626 16.665 35.5186 11.5294 23.0394 11.5294Z" fill="#D9DADC"/>
<path d="M23.0393 11.5294C10.56 11.5294 0.452637 16.665 0.452637 23.0097C0.452637 29.3543 10.5699 34.4996 23.0393 34.4996C35.5185 34.4996 45.6259 29.3543 45.6259 23.0097C45.6259 16.665 35.5087 11.5294 23.0393 11.5294Z" fill="#DADBDD"/>
<path d="M23.0393 11.5294C10.5699 11.5294 0.452637 16.6747 0.452637 23.0097C0.452637 29.3543 10.5699 34.49 23.0393 34.49C35.5087 34.49 45.6259 29.3446 45.6259 23.0097C45.6259 16.6747 35.5087 11.5294 23.0393 11.5294Z" fill="#DBDCDD"/>
<path d="M23.0393 11.5294C10.5699 11.5294 0.452637 16.6747 0.452637 23.0097C0.452637 29.3543 10.56 34.49 23.0393 34.49C35.5087 34.49 45.6259 29.3446 45.6259 23.0097C45.6259 16.6747 35.5087 11.5294 23.0393 11.5294Z" fill="#DCDDDE"/>
<path d="M23.0395 11.5391C10.5701 11.5391 0.462646 16.6747 0.462646 23.0097C0.462646 29.3447 10.5701 34.49 23.0395 34.49C35.5089 34.49 45.6261 29.3543 45.6261 23.0097C45.6163 16.6747 35.5089 11.5391 23.0395 11.5391Z" fill="#DCDEDF"/>
<path d="M23.0395 11.5391C10.5701 11.5391 0.462646 16.6747 0.462646 23.0097C0.462646 29.3447 10.5701 34.49 23.0395 34.49C35.5089 34.49 45.6163 29.3543 45.6163 23.0097C45.6163 16.6747 35.5089 11.5391 23.0395 11.5391Z" fill="#DDDEE0"/>
<path d="M23.0395 11.5391C10.5701 11.5391 0.462646 16.6747 0.462646 23.0097C0.462646 29.3447 10.5701 34.4803 23.0395 34.4803C35.5089 34.4803 45.6163 29.3447 45.6163 23.0097C45.6163 16.6747 35.5089 11.5391 23.0395 11.5391Z" fill="#DEDFE0"/>
<path d="M23.0395 11.5391C10.5701 11.5391 0.462646 16.6747 0.462646 23.0097C0.462646 29.3447 10.5701 34.4803 23.0395 34.4803C35.5089 34.4803 45.6163 29.3447 45.6163 23.0097C45.6163 16.6747 35.5089 11.5391 23.0395 11.5391Z" fill="#DFE0E1"/>
<path d="M23.0394 11.5487C10.5798 11.5487 0.472412 16.6747 0.472412 23.0097C0.472412 29.3446 10.5798 34.4803 23.0394 34.4803C35.5088 34.4803 45.6162 29.3446 45.6162 23.0097C45.6162 16.6747 35.5088 11.5487 23.0394 11.5487Z" fill="#E0E1E2"/>
<path d="M23.0394 11.5487C10.5798 11.5487 0.472412 16.6844 0.472412 23.0097C0.472412 29.3446 10.5798 34.4803 23.0394 34.4803C35.4989 34.4803 45.6063 29.3446 45.6063 23.0097C45.6063 16.6844 35.4989 11.5487 23.0394 11.5487Z" fill="#E0E2E3"/>
<path d="M23.0394 11.5487C10.5798 11.5487 0.472412 16.6844 0.472412 23.0097C0.472412 29.3446 10.5798 34.4706 23.0394 34.4706C35.4989 34.4706 45.6063 29.335 45.6063 23.0097C45.6063 16.6844 35.4989 11.5487 23.0394 11.5487Z" fill="#E1E2E3"/>
<path d="M23.0393 11.5487C10.5797 11.5487 0.482178 16.6844 0.482178 23.0193C0.482178 29.3446 10.5797 34.4803 23.0491 34.4803C35.5087 34.4803 45.6161 29.3446 45.6161 23.0193C45.6063 16.6844 35.4989 11.5487 23.0393 11.5487Z" fill="#E2E3E4"/>
<path d="M23.0393 11.5583C10.5797 11.5583 0.482178 16.6843 0.482178 23.0193C0.482178 29.3446 10.5797 34.4803 23.0393 34.4803C35.4989 34.4803 45.6063 29.3446 45.6063 23.0193C45.6063 16.6843 35.4989 11.5583 23.0393 11.5583Z" fill="#E3E4E5"/>
<path d="M23.0393 11.5583C10.5797 11.5583 0.482178 16.6843 0.482178 23.0193C0.482178 29.3446 10.5797 34.4803 23.0393 34.4803C35.4989 34.4803 45.5964 29.3446 45.5964 23.0193C45.5964 16.6843 35.4989 11.5583 23.0393 11.5583Z" fill="#E4E5E6"/>
<path d="M23.0393 11.5583C10.5896 11.5583 0.482178 16.6843 0.482178 23.0193C0.482178 29.3446 10.5797 34.4706 23.0393 34.4706C35.4989 34.4706 45.5964 29.3446 45.5964 23.0193C45.5964 16.6843 35.4989 11.5583 23.0393 11.5583Z" fill="#E5E6E7"/>
<path d="M23.0395 11.5583C10.5897 11.5583 0.492188 16.6843 0.492188 23.0193C0.492188 29.3446 10.5897 34.4706 23.0493 34.4706C35.5089 34.4706 45.6064 29.3446 45.6064 23.0193C45.5966 16.6843 35.499 11.5583 23.0395 11.5583Z" fill="#E5E6E7"/>
<path d="M23.0395 11.5681C10.5897 11.5681 0.492188 16.6941 0.492188 23.0193C0.492188 29.3446 10.5897 34.4706 23.0395 34.4706C35.4892 34.4706 45.5966 29.3446 45.5966 23.0193C45.5966 16.6941 35.499 11.5681 23.0395 11.5681Z" fill="#E6E7E8"/>
<path d="M23.0001 12.071C10.7964 12.071 0.905518 16.9649 0.905518 23C0.905518 29.0351 10.7964 33.929 23.0001 33.929C35.2038 33.929 45.0947 29.0351 45.0947 23C45.0947 16.9649 35.2038 12.071 23.0001 12.071Z" fill="url(#paint0_linear_2309_172)"/>
<path d="M23.0001 13.3766C11.5641 13.3766 2.29321 17.7289 2.29321 23.0967C2.29321 28.4645 11.5641 32.8168 23.0001 32.8168C34.4361 32.8168 43.707 28.4645 43.707 23.0967C43.707 17.7289 34.4361 13.3766 23.0001 13.3766Z" stroke="#004E24"/>
<path d="M23 12.806C11.2588 12.806 1.74194 17.3807 1.74194 23.0097C1.74194 28.6483 11.2588 33.2133 23 33.2133C34.7411 33.2133 44.2678 28.6386 44.2678 23.0097C44.258 17.3807 34.7411 12.806 23 12.806Z" stroke="#F5F0CC"/>
<path d="M35.7547 18.3673H32.2806L31.8574 19.6149H34.1013L31.5425 20.524L31.3752 21.027L35.3217 19.7019L35.7547 18.3673ZM13.9653 20.4563L13.4929 21.7814H10.1073C10.1073 21.7814 10.1861 21.7523 10.2943 21.5299C10.4026 21.3075 11.9674 16.8295 11.9674 16.8295C11.9674 16.8295 12.1839 16.3555 11.9379 16.2395H13.8964C13.8964 16.2395 13.7881 16.2105 13.6011 16.6844C13.4929 16.9552 12.1839 20.5531 12.1839 20.5531H13.6011C13.6011 20.5531 13.9259 20.5821 13.9653 20.4563ZM19.5357 21.7814H21.13C21.13 21.7814 21.0218 21.6169 21.0906 21.4332C21.1792 21.1817 22.0256 18.8122 22.0256 18.8122L22.3996 21.7814H23.8463L25.7359 16.5006C25.7359 16.5006 25.8146 16.2492 25.9229 16.2492H24.3876C24.3876 16.2492 24.427 16.4329 24.3778 16.5683C24.3187 16.7134 23.4526 19.1023 23.4526 19.1023L23.1082 16.2492H21.4548C21.4548 16.2492 21.5434 16.3942 21.4843 16.5393C21.4351 16.665 19.7325 21.4719 19.7325 21.4719C19.7325 21.4719 19.6341 21.7814 19.5357 21.7814ZM28.6392 16.2492H26.8283C26.8283 16.2492 26.9661 16.4716 26.789 16.9939C26.6118 17.5161 25.2241 21.3655 25.2241 21.3655C25.2241 21.3655 25.1159 21.733 24.9683 21.8007H27.1531C27.1531 21.8007 29.8005 21.9071 30.6174 19.0443C30.6075 19.0346 31.6409 16.2201 28.6392 16.2492ZM28.836 19.2764C28.3735 20.437 27.6846 20.5144 27.3204 20.5144H27.0645L28.1274 17.4388H28.5408C28.531 17.4388 29.5939 17.3807 28.836 19.2764ZM7.68628 26.2497H11.1604L11.5836 25.002H9.32984L11.8985 24.0929L12.0658 23.59L8.11931 24.9247L7.68628 26.2497ZM17.5772 25.0891C18.2267 22.942 16.032 23 16.032 23H13.7783C13.9456 23.1838 13.8176 23.5803 13.8176 23.5803C13.8176 23.5803 12.4201 27.6908 12.3119 28.0099C12.2036 28.3291 12.0068 28.5419 12.0068 28.5419H13.7881C13.7291 28.5419 13.7291 28.3581 13.7291 28.3581L14.3688 26.6172C14.3688 26.6172 15.166 28.2227 15.225 28.3291C15.2742 28.4452 15.2545 28.5322 15.2545 28.5322H17.154C16.967 28.5322 16.78 28.1744 16.78 28.1744L15.8352 26.4238C17.1441 26.4431 17.5772 25.0891 17.5772 25.0891ZM16.0222 24.8956C15.7761 25.4469 15.0971 25.3792 15.0971 25.3792H14.7526L15.1167 24.267H15.4907C16.3076 24.267 16.0222 24.8956 16.0222 24.8956ZM37.231 25.1568C37.9298 22.9033 35.7055 23.0193 35.7055 23.0193H33.4715C33.6388 23.2031 33.5108 23.5996 33.5108 23.5996C33.5108 23.5996 32.0543 27.7295 31.946 28.039C31.8378 28.3581 31.6311 28.5612 31.6311 28.5612H33.4912C33.3534 28.5612 33.4518 28.2227 33.4518 28.2227L34.0226 26.6366C34.0226 26.6366 34.7903 28.2421 34.8493 28.3484C34.9084 28.4645 34.8788 28.5516 34.8788 28.5516H36.8472C36.6602 28.5516 36.4633 28.1937 36.4633 28.1937L35.5185 26.4431C36.8373 26.4625 37.231 25.1568 37.231 25.1568ZM35.6563 24.9247C35.4496 25.4566 34.7804 25.4082 34.7804 25.4082H34.436L34.8001 24.3057H35.2922C35.2922 24.3057 35.8925 24.2863 35.6563 24.9247ZM21.1103 22.8549C19.3683 22.8549 18.2366 24.209 17.9413 25.8918C17.6756 27.4393 18.522 28.6773 19.9293 28.6773C21.8977 28.6773 23.0688 26.6946 23.0688 25.2728C23.0688 23.7834 22.4685 22.8549 21.1103 22.8549ZM21.3662 25.9402C21.0808 27.1008 20.5395 27.4586 20.0573 27.3716C19.388 27.2459 19.5061 26.182 19.6144 25.6887C19.8506 24.6152 20.4313 24.1026 20.8643 24.1509C21.0021 24.1703 21.7894 24.1896 21.3662 25.9402ZM23.5314 23.0193C23.5314 23.0193 23.6692 23.0967 23.6692 23.4449V28.2421C23.6692 28.2421 23.6495 28.5032 23.5511 28.5612H25.0076C25.0076 28.5612 25.0076 28.4452 25.1553 28.2614C25.3029 28.0776 28.3341 23.8898 28.3341 23.8898C28.3341 23.8898 29.023 23.0097 29.21 23.0097H27.1137C27.1137 23.0097 27.2811 23.1257 27.1531 23.3288C27.0252 23.5319 25.1651 26.3948 25.1651 26.3948L25.1946 23.5126C25.1946 23.5126 25.1946 23.0484 25.3718 23.0097L23.5314 23.0193ZM32.3692 24.325L32.8416 23.0193H29.2986C29.2986 23.0193 29.4265 23.1354 29.2592 23.5996C29.0919 24.0639 27.655 28.039 27.655 28.039C27.655 28.039 27.3992 28.5612 27.3303 28.5612H30.9815L31.4146 27.2362C31.4146 27.2362 31.3555 27.3136 31.0111 27.3136H29.4659L29.7907 26.4141H31.0012C31.0012 26.4141 31.2571 26.3948 31.3063 26.4721L31.7984 25.0504C31.7984 25.0504 31.759 25.1761 31.4342 25.1761H30.2729L30.6174 24.1896H32.0936C32.0936 24.1993 32.2905 24.1703 32.3692 24.325ZM19.3487 21.791C19.3487 21.791 19.2207 21.7137 19.1912 21.4912L18.9747 16.6167C18.9747 16.6167 18.9648 16.3072 19.1125 16.2395H17.3803C17.3803 16.2395 17.4984 16.3942 17.2721 16.7424C17.0359 17.0906 14.0834 21.5976 14.0834 21.5976C14.0834 21.5976 14.0243 21.7137 13.8767 21.7814H15.6285C15.6285 21.7814 15.6187 21.646 15.6679 21.5492C15.7466 21.3848 15.9631 20.998 15.9631 20.998H17.7248V21.4815C17.7248 21.4815 17.7346 21.6556 17.6067 21.7814H19.3487V21.791ZM16.7209 19.7503L17.6953 18.1255L17.7051 19.7503H16.7209Z" fill="#F5F0CC"/>
</g>
</g>
<defs>
<linearGradient id="paint0_linear_2309_172" x1="17.19" y1="10.759" x2="28.4763" y2="35.3878" gradientUnits="userSpaceOnUse">
<stop stop-color="#008948"/>
<stop offset="0.042" stop-color="#008847"/>
<stop offset="0.096" stop-color="#008244"/>
<stop offset="0.157" stop-color="#00793F"/>
<stop offset="0.222" stop-color="#006A37"/>
<stop offset="0.291" stop-color="#00572B"/>
<stop offset="0.319" stop-color="#004E24"/>
<stop offset="1"/>
</linearGradient>
<clipPath id="clip0_2309_172">
<rect width="46" height="23.7419" fill="white" transform="translate(0 11.129)"/>
</clipPath>
</defs>
</svg>
