<svg width="46" height="46" viewBox="0 0 46 46" fill="none" xmlns="http://www.w3.org/2000/svg">
<mask id="mask0_2768_444" style="mask-type:alpha" maskUnits="userSpaceOnUse" x="0" y="0" width="46" height="46">
<rect width="46" height="46" fill="#D9D9D9"/>
</mask>
<g mask="url(#mask0_2768_444)">
<path fill-rule="evenodd" clip-rule="evenodd" d="M23.9228 8.77791C21.5142 11.7482 14.6441 21.3376 13.8612 22.5792C12.3539 24.9583 12.2207 26.1111 12.1763 26.8793C12.1326 27.6333 12.1326 28.9926 13.3588 30.1011C15.4129 31.9333 18.2937 31.6373 20.8503 31.6373H41.9065C42.8078 31.6373 43.0741 31.371 43.5618 30.7212C45.246 28.1498 46 25.3571 46 22.8597C46 17.5104 42.528 10.7729 33.7356 7.72863L32.7448 9.14717C39.7191 12.4564 42.6013 16.786 42.6013 22.8443C42.6457 24.47 42.2166 26.2282 41.1525 27.8539H20.6721C19.4459 27.8539 19.2683 26.4649 19.7116 25.6813C21.4674 22.5565 23.4269 19.5506 25.5775 16.6831C27.6464 13.92 29.6851 11.3338 31.828 8.62993C32.4045 7.8766 32.0197 7.1522 30.8676 6.91611C28.4737 6.41367 25.977 6.0592 22.9475 6.0592C6.14768 6.0592 0 15.7078 0 22.8597C0 30.6176 6.1914 39.6165 22.9919 39.6165C32.3157 39.6165 38.419 36.616 41.9502 32.7599H38.3887C35.3001 35.6118 29.9952 37.637 22.9919 37.637C8.76213 37.637 3.51709 29.6424 3.51709 22.7561C3.62 16.6091 9.24977 8.12749 23.3471 7.84701C23.8791 7.83221 24.2934 8.31986 23.9228 8.77791Z" fill="black"/>
</g>
</svg>
