<svg width="46" height="46" viewBox="0 0 46 46" fill="none" xmlns="http://www.w3.org/2000/svg">
<path d="M45.4972 23.0002C45.4972 35.4345 35.4347 45.497 23.0003 45.497C10.5659 45.497 0.503418 35.4345 0.503418 23.0002C0.503418 10.5658 10.5659 0.503296 23.0003 0.503296C35.4347 0.503296 45.4972 10.5658 45.4972 23.0002ZM23.0003 1.86892C11.2847 1.86892 1.86904 11.2845 1.86904 23.0002C1.86904 34.7158 11.3565 44.1314 23.0003 44.1314C34.7159 44.1314 44.1315 34.6439 44.1315 23.0002C44.1315 11.2845 34.7159 1.86892 23.0003 1.86892Z" fill="url(#paint0_linear_305_2904)"/>
<path d="M23.0001 1.8689C11.2845 1.8689 1.8689 11.2845 1.8689 23.0001C1.8689 34.7158 11.3564 44.1314 23.0001 44.1314C34.7158 44.1314 44.1314 34.6439 44.1314 23.0001C44.1314 11.2845 34.7158 1.8689 23.0001 1.8689ZM23.0001 42.7658C12.0751 42.7658 3.23452 33.9251 3.23452 23.0001C3.23452 12.0751 12.0751 3.23452 23.0001 3.23452C33.9251 3.23452 42.7658 12.0751 42.7658 23.0001C42.7658 33.9251 33.9251 42.7658 23.0001 42.7658Z" fill="url(#paint1_linear_305_2904)"/>
<path opacity="0.4" d="M23 45.4969C35.4344 45.4969 45.4969 35.4344 45.4969 23C45.4969 10.5656 35.4344 0.503125 23 0.503125C10.5656 0.503125 0.503125 10.5656 0.503125 23C0.503125 35.4344 10.5656 45.4969 23 45.4969ZM23 0C35.65 0 46 10.35 46 23C46 35.65 35.65 46 23 46C10.35 46 0 35.65 0 23C0 10.35 10.35 0 23 0Z" fill="url(#paint2_linear_305_2904)"/>
<path d="M1.58154 23.072C1.58154 11.2845 11.1409 1.58142 23.0003 1.58142C34.8597 1.58142 44.419 11.2127 44.419 23.072C44.419 34.8595 34.8597 44.4189 23.0003 44.4189C11.1409 44.4189 1.58154 34.8595 1.58154 23.072ZM8.26592 8.2658C4.45654 12.0752 2.08467 17.322 2.08467 23.072C2.08467 28.822 4.45654 34.0689 8.19404 37.8064C12.0034 41.5439 17.2503 43.9158 23.0003 43.9158C28.7503 43.9158 33.9972 41.6158 37.7347 37.8064C41.544 34.0689 43.844 28.822 43.844 23.072C43.844 17.322 41.4722 12.0752 37.7347 8.2658C33.9972 4.45642 28.7503 2.08455 23.0003 2.08455C17.2503 2.08455 12.0034 4.45642 8.26592 8.2658Z" fill="white"/>
<path opacity="0.4" d="M22.9999 42.8374C17.6811 42.8374 12.7217 40.753 8.98423 37.0155C5.24673 33.278 3.16235 28.3186 3.16235 22.9999C3.16235 17.6811 5.24673 12.7217 8.98423 8.98423C12.7217 5.24673 17.6811 3.16235 22.9999 3.16235C28.3186 3.16235 33.278 5.24673 37.0155 8.98423C40.753 12.7217 42.8374 17.6811 42.8374 22.9999C42.8374 28.3186 40.753 33.278 37.0155 37.0155C33.278 40.753 28.3186 42.8374 22.9999 42.8374ZM22.9999 42.2624C28.103 42.2624 32.9905 40.2499 36.5842 36.6561C40.2499 32.9905 42.1905 28.1749 42.1905 23.0717C42.1905 17.9686 40.178 13.0811 36.5842 9.48735C32.9186 5.82173 28.103 3.8811 22.9999 3.8811C17.8967 3.8811 13.0092 5.8936 9.41548 9.48735C5.74985 13.0092 3.73735 17.8967 3.73735 22.9999C3.73735 28.103 5.74985 32.9905 9.3436 36.5842C13.0092 40.2499 17.8967 42.2624 22.9999 42.2624Z" fill="url(#paint3_linear_305_2904)"/>
<path d="M40.4653 32.3439C40.106 32.0564 26.2341 21.0595 26.2341 21.0595L22.9997 2.58765C22.7841 2.65952 22.4966 2.87515 22.3528 3.16265L20.0528 21.1314L5.74971 32.1283C5.74971 32.1283 5.46221 32.4876 5.31846 32.7033C5.24658 32.847 5.24658 33.0626 5.24658 33.2783L22.9278 26.0189L40.6091 33.2783C40.7528 32.9189 40.6091 32.5595 40.4653 32.3439Z" fill="white"/>
<path d="M23.1438 23.5752L23 26.8814L39.2437 33.422C39.8187 33.7095 40.25 33.5658 40.6812 33.2783L23.3594 23.5033C23.2875 23.4314 23.1438 23.5033 23.1438 23.5752Z" fill="#565F64"/>
<path d="M23.144 23.5752C23.144 23.5752 24.0784 25.2283 25.1565 26.3783C26.6659 28.0314 28.6784 29.1814 28.6784 29.1814L39.244 33.422C39.819 33.7095 40.2503 33.5658 40.6815 33.2783L23.3597 23.5033C23.2878 23.4314 23.144 23.5033 23.144 23.5752Z" fill="url(#paint4_linear_305_2904)"/>
<path d="M40.6092 32.6311C40.6092 32.5592 40.5373 32.4874 40.4655 32.3436L25.6592 21.4905L23.6467 22.7842C23.6467 22.7842 23.7905 22.8561 23.8624 22.7842C24.078 22.7124 24.5092 22.6405 24.9405 22.7842C25.2999 22.928 40.6092 32.703 40.6092 32.6311C40.6092 32.703 40.6092 32.703 40.6092 32.6311Z" fill="#A4AAAE" fill-opacity="0.6"/>
<path d="M40.1065 31.9842L26.3065 21.0592L25.6597 21.4905L40.4659 32.4155C40.394 32.2717 40.2503 32.128 40.1065 31.9842Z" fill="#333E46"/>
<path d="M23.3592 22.497L23.2874 22.5689C23.2874 22.5689 23.2874 22.7127 23.4311 22.6408C23.503 22.5689 25.5874 21.4908 26.3061 21.0595L23.7905 3.80955C23.7186 3.16267 23.4311 2.87517 22.928 2.65955L23.2155 22.6408L23.3592 22.497Z" fill="#565F64"/>
<path d="M22.1374 3.80955V4.74392L20.5561 20.6283C20.5561 20.8439 20.628 21.0595 20.8436 21.2033L21.778 21.922L22.4249 4.38455L22.4967 3.01892C22.2811 3.16267 22.2092 3.45017 22.1374 3.80955ZM21.2749 22.2095L20.4124 21.4908L5.82173 32.0564C5.82173 32.0564 5.39048 32.3439 5.3186 32.6314L5.82173 32.3439L21.1311 22.7127C21.4186 22.5689 21.4905 22.4252 21.2749 22.2095Z" fill="#A4AAAE" fill-opacity="0.6"/>
<path d="M22.7841 23.5752C22.7841 23.5033 22.7122 23.4314 22.6403 23.5033L5.24658 33.3502C5.67783 33.6377 6.10908 33.7095 6.68408 33.4939L22.9278 26.9533L22.7841 23.5752Z" fill="#565F64"/>
<path d="M23.2874 22.5686C23.2874 22.5686 23.2874 22.6405 23.3592 22.6405H23.4311C23.503 22.5686 25.5874 21.4905 26.3061 21.0592L26.0186 18.9749L23.7905 3.80923C23.7905 3.52173 23.7186 3.3061 23.5749 3.16235C23.5749 3.16235 24.653 17.6811 24.653 19.2624C24.653 21.3467 23.2874 22.5686 23.2874 22.5686Z" fill="url(#paint5_linear_305_2904)"/>
<path d="M22.7841 23.5752C22.7841 23.5033 22.7122 23.4314 22.6403 23.5033L5.24658 33.3502C5.67783 33.6377 6.10908 33.7095 6.68408 33.4939L22.9278 26.9533L22.7841 23.5752Z" fill="url(#paint6_linear_305_2904)" fill-opacity="0.8"/>
<path opacity="0.8" d="M6.68467 33.4219L22.9284 26.8813L22.7847 23.7188C22.4972 24.5813 21.994 25.5156 20.6284 26.2344C19.6222 26.8094 9.99092 31.5531 6.54092 33.2063C6.32529 33.35 6.03779 33.4219 5.89404 33.4937C6.18154 33.6375 6.39717 33.5656 6.68467 33.4219Z" fill="url(#paint7_linear_305_2904)"/>
<path d="M23.3592 22.497L23.2874 22.5689C23.2874 22.5689 23.2874 22.7127 23.4311 22.6408C23.503 22.5689 25.5874 21.4908 26.3061 21.0595L23.7905 3.80955C23.7186 3.16267 23.4311 2.87517 22.928 2.65955L23.2155 22.6408L23.3592 22.497Z" fill="url(#paint8_linear_305_2904)"/>
<path d="M23.3592 22.497L23.2874 22.5689C23.2874 22.5689 23.2874 22.7127 23.4311 22.6408C23.503 22.5689 25.5874 21.4908 26.3061 21.0595L23.7905 3.80955C23.7186 3.16267 23.4311 2.87517 22.928 2.65955L23.2155 22.6408L23.3592 22.497Z" fill="url(#paint9_linear_305_2904)"/>
<path d="M3.66592 31.9125C3.16279 30.7625 0.287793 25.1562 3.45029 14.375H2.22842C1.58154 16.5312 1.07842 17.825 0.790918 19.7656C0.790918 19.7656 0.647168 20.4844 0.575293 21.275C0.503418 22.0656 0.503418 22.4969 0.503418 23C0.503418 27.3125 1.58154 29.8281 1.58154 29.8281C2.73154 33.4219 4.74404 36.6563 7.47529 39.1C9.84717 41.1844 13.5128 42.7656 16.5315 43.3406C16.0284 43.2687 7.40342 39.6031 3.66592 31.9125Z" fill="url(#paint10_linear_305_2904)"/>
<path d="M23.2875 23.4313H22.6406C22.7125 23.4313 22.7844 23.4313 22.7844 23.5031L22.9281 26.8094H23L23.1438 23.5031C23.1438 23.4313 23.2156 23.3594 23.2875 23.4313Z" fill="url(#paint11_linear_305_2904)"/>
<path d="M30.1875 1.65295C37.7344 4.52795 44.85 12.4342 44.85 22.4248C44.85 34.4998 35.2188 44.3467 23 44.3467V45.4967C35.2188 45.4967 45.4969 35.4342 45.4969 22.9998C45.4969 13.0811 39.1719 4.74358 30.1875 1.65295Z" fill="url(#paint12_linear_305_2904)"/>
<path d="M42.2625 14.5189C37.2312 2.94702 25.875 2.30015 25.2281 2.22827H25.1562C33.8531 3.80952 39.3875 9.48765 41.3281 15.4533V15.5251C42.1906 17.8251 42.6219 20.2689 42.6938 22.9283C42.7656 25.4439 42.1906 28.247 41.1125 30.8345C41.0406 31.1939 40.9688 31.6251 40.8969 31.6251H42.0469C45.4969 25.1564 43.9875 18.6158 42.2625 14.5189Z" fill="url(#paint13_linear_305_2904)"/>
<path d="M1.58154 23.072C1.58154 11.2845 11.1409 1.58142 23.0003 1.58142C34.8597 1.58142 44.419 11.2127 44.419 23.072C44.419 34.8595 34.8597 44.4189 23.0003 44.4189C11.1409 44.4189 1.58154 34.8595 1.58154 23.072ZM8.26592 8.2658C4.45654 12.0752 2.08467 17.322 2.08467 23.072C2.08467 28.822 4.45654 34.0689 8.19404 37.8064C12.0034 41.5439 17.2503 43.9158 23.0003 43.9158C28.7503 43.9158 33.9972 41.6158 37.7347 37.8064C41.544 34.0689 43.844 28.822 43.844 23.072C43.844 17.322 41.4722 12.0752 37.7347 8.2658C33.9972 4.45642 28.7503 2.08455 23.0003 2.08455C17.2503 2.08455 12.0034 4.45642 8.26592 8.2658Z" fill="#FBFBFB"/>
<path d="M5.67798 32.1999L20.3405 21.6342C21.1311 22.0655 22.4249 22.6405 22.5686 22.6405C22.7124 22.7124 22.7124 22.5686 22.7124 22.5686L20.9155 21.0592C20.6999 20.9155 20.628 20.6999 20.628 20.4842L22.353 3.16235C22.2811 3.23423 22.2811 3.37798 22.2092 3.44985C22.1374 3.5936 22.1374 3.66548 22.1374 3.80923L19.6217 21.1311L5.82173 31.9842C5.74985 32.0561 5.67798 32.128 5.67798 32.1999Z" fill="#333F47"/>
<defs>
<linearGradient id="paint0_linear_305_2904" x1="5.74885" y1="8.55186" x2="40.2517" y2="37.4485" gradientUnits="userSpaceOnUse">
<stop stop-color="white"/>
<stop offset="0.1" stop-color="#CDD0D0"/>
<stop offset="0.2" stop-color="#A5ACAF"/>
<stop offset="0.3" stop-color="#98A0A4"/>
<stop offset="0.4" stop-color="#828A8F"/>
<stop offset="0.5" stop-color="#667075"/>
<stop offset="0.6" stop-color="#535C63"/>
<stop offset="0.7" stop-color="#475158"/>
<stop offset="0.8" stop-color="#434D54"/>
<stop offset="1" stop-color="#475157"/>
</linearGradient>
<linearGradient id="paint1_linear_305_2904" x1="6.80743" y1="9.3863" x2="39.1512" y2="36.5551" gradientUnits="userSpaceOnUse">
<stop stop-color="#0B1F2A"/>
<stop offset="0.2" stop-color="#333F47"/>
<stop offset="0.5" stop-color="#81898D"/>
<stop offset="0.7" stop-color="#B3B8B8"/>
<stop offset="0.8" stop-color="#DEE0DD"/>
<stop offset="1" stop-color="#FBFBFB"/>
</linearGradient>
<linearGradient id="paint2_linear_305_2904" x1="30.861" y1="44.6078" x2="15.1203" y2="1.33975" gradientUnits="userSpaceOnUse">
<stop stop-color="#E1E3E1"/>
<stop offset="0.1" stop-color="#C1C5C4"/>
<stop offset="0.3" stop-color="#9BA1A2"/>
<stop offset="0.5" stop-color="#7D8487"/>
<stop offset="0.7" stop-color="#687074" stop-opacity="0"/>
<stop offset="0.8" stop-color="#5B6469" stop-opacity="0"/>
<stop offset="1" stop-color="#576065" stop-opacity="0"/>
</linearGradient>
<linearGradient id="paint3_linear_305_2904" x1="13.0818" y1="5.82245" x2="32.9179" y2="40.1773" gradientUnits="userSpaceOnUse">
<stop stop-color="#E1E3E1"/>
<stop offset="0.1" stop-color="#C1C5C4"/>
<stop offset="0.3" stop-color="#9BA1A2"/>
<stop offset="0.5" stop-color="#7D8487"/>
<stop offset="0.7" stop-color="#687074" stop-opacity="0"/>
<stop offset="0.8" stop-color="#5B6469" stop-opacity="0"/>
<stop offset="1" stop-color="#576065" stop-opacity="0"/>
</linearGradient>
<linearGradient id="paint4_linear_305_2904" x1="31.976" y1="28.3139" x2="30.7542" y2="30.3264" gradientUnits="userSpaceOnUse">
<stop stop-color="#27343C"/>
<stop offset="1" stop-color="#00111E" stop-opacity="0"/>
</linearGradient>
<linearGradient id="paint5_linear_305_2904" x1="28.448" y1="20.9241" x2="26.4355" y2="17.6897" gradientUnits="userSpaceOnUse">
<stop offset="0.1" stop-color="#02131F"/>
<stop offset="0.9" stop-color="#02131F" stop-opacity="0"/>
</linearGradient>
<linearGradient id="paint6_linear_305_2904" x1="22.9868" y1="26.1167" x2="19.968" y2="26.9792" gradientUnits="userSpaceOnUse">
<stop offset="0.2" stop-color="#02131F"/>
<stop offset="0.9" stop-color="#02131F" stop-opacity="0"/>
</linearGradient>
<linearGradient id="paint7_linear_305_2904" x1="14.9438" y1="30.1185" x2="14.5126" y2="29.0404" gradientUnits="userSpaceOnUse">
<stop stop-color="#02131F"/>
<stop offset="0.1" stop-color="#02131F"/>
<stop offset="1" stop-color="#02131F" stop-opacity="0"/>
</linearGradient>
<linearGradient id="paint8_linear_305_2904" x1="25.5888" y1="12.3727" x2="23.145" y2="12.6602" gradientUnits="userSpaceOnUse">
<stop offset="0.3" stop-color="#02131F"/>
<stop offset="0.8" stop-color="#02131F" stop-opacity="0"/>
</linearGradient>
<linearGradient id="paint9_linear_305_2904" x1="25.665" y1="12.3318" x2="24.0111" y2="12.5474" gradientUnits="userSpaceOnUse">
<stop offset="0.4" stop-color="#27343C"/>
<stop offset="1" stop-color="#3B474E" stop-opacity="0"/>
</linearGradient>
<linearGradient id="paint10_linear_305_2904" x1="-0.258457" y1="23.5973" x2="19.7947" y2="35.1692" gradientUnits="userSpaceOnUse">
<stop stop-color="#25323B" stop-opacity="0"/>
<stop offset="0.1" stop-color="#27343C"/>
</linearGradient>
<linearGradient id="paint11_linear_305_2904" x1="22.9641" y1="26.8813" x2="22.9641" y2="23.4313" gradientUnits="userSpaceOnUse">
<stop offset="0.3" stop-color="#A5ABAF"/>
<stop offset="1" stop-color="#A5ABAF" stop-opacity="0"/>
</linearGradient>
<linearGradient id="paint12_linear_305_2904" x1="34.2484" y1="1.65295" x2="34.2484" y2="45.4967" gradientUnits="userSpaceOnUse">
<stop stop-color="#6B7378"/>
<stop offset="0.2" stop-color="#333F47"/>
<stop offset="0.5" stop-color="#27343C"/>
<stop offset="0.8" stop-color="#333F47"/>
<stop offset="1" stop-color="#434D54"/>
</linearGradient>
<linearGradient id="paint13_linear_305_2904" x1="41.1765" y1="5.81699" x2="31.4733" y2="20.0482" gradientUnits="userSpaceOnUse">
<stop offset="0.7" stop-color="#49545B"/>
<stop offset="0.8" stop-color="white" stop-opacity="0"/>
</linearGradient>
</defs>
</svg>
