<svg width="46" height="46" viewBox="0 0 46 46" fill="none" xmlns="http://www.w3.org/2000/svg">
<mask id="mask0_305_3122" style="mask-type:alpha" maskUnits="userSpaceOnUse" x="0" y="0" width="46" height="46">
<rect width="46" height="46" fill="#D9D9D9"/>
</mask>
<g mask="url(#mask0_305_3122)">
<g clip-path="url(#clip0_305_3122)">
<path d="M44.4174 18.2328C43.9923 18.1141 43.519 18.058 42.5219 17.935C38.3953 17.7658 28.1971 17.3694 23.0002 17.3694C17.8036 17.3694 7.60518 17.7656 3.47898 17.935C2.48147 18.058 2.00767 18.1141 1.58286 18.2328C0.28543 18.5385 0 19.0041 0 19.9329V26.2989C0 27.2279 0.99567 27.854 1.68199 27.9802C2.36877 28.1073 2.80324 28.1581 3.52567 28.2269C7.21648 28.4554 15.7794 28.9318 23 28.9394C30.2208 28.9325 38.7833 28.4557 42.4743 28.2269C43.1965 28.1581 43.6312 28.1071 44.3182 27.9802C45.0043 27.8537 46 27.2279 46 26.2989V19.9329C46 19.0041 45.7148 18.5385 44.4174 18.2328Z" fill="url(#paint0_linear_305_3122)"/>
<path d="M6.4515 18.4831C8.48194 11.4226 15.1535 6.24207 23.0731 6.24207C30.97 6.24207 37.628 11.3941 39.6782 18.4263C39.6847 18.4512 39.689 18.464 39.6962 18.4879C40.8733 18.3557 41.9278 18.1516 42.673 17.9527C42.6595 17.9074 42.656 17.8982 42.6443 17.8536C40.3142 9.47689 32.4348 3.31281 23.0731 3.31281C13.6799 3.31281 5.7799 9.5169 3.47852 17.935C4.51375 18.2185 5.27206 18.3373 6.4515 18.4831Z" fill="url(#paint1_radial_305_3122)"/>
<path d="M39.6294 27.7369C39.6089 27.7997 39.5862 27.8689 39.5756 27.9032C37.4166 34.7664 30.8455 39.7582 23.0731 39.7582C15.2393 39.7582 8.62679 34.6894 6.52022 27.7436C5.23268 27.9714 4.79775 28.0581 3.52539 28.2273C5.88289 36.5631 13.7406 42.6875 23.0731 42.6875C32.4095 42.6875 40.27 36.5567 42.6231 28.214C41.5021 28.0756 40.8417 27.971 39.6294 27.7369Z" fill="url(#paint2_radial_305_3122)"/>
<path d="M6.86644 18.4679C7.35519 18.266 7.82806 17.9442 8.56522 17.737C10.7629 12.0295 16.4287 7.9652 23.0734 7.9652C29.6974 7.9652 35.3492 12.0045 37.5606 17.6844C37.5684 17.7037 37.5765 17.7271 37.5827 17.7416C37.9631 17.8734 39.0839 18.3277 39.4326 18.4796C39.4821 18.4808 39.5876 18.4845 39.6966 18.4874C39.6903 18.467 39.6843 18.4465 39.6787 18.4258C37.6276 11.3959 30.9697 6.24548 23.0734 6.24548C15.1559 6.24548 8.48426 11.4237 6.45312 18.4828C6.57043 18.4831 6.79376 18.473 6.86644 18.4679Z" fill="url(#paint3_radial_305_3122)"/>
<path d="M22.9471 6.72303C30.356 6.72303 36.9237 11.1391 39.4114 18.4183L39.4316 18.4801C39.4703 18.4801 39.6112 18.4852 39.6957 18.4879C39.689 18.4615 39.6821 18.4461 39.6777 18.4263C37.6266 11.3964 30.9688 6.24597 23.0724 6.24597C15.1549 6.24597 8.48328 11.4242 6.45215 18.4833C6.61039 18.4808 6.68652 18.4808 6.86592 18.4682C9.09002 11.5576 15.5926 6.72303 22.9471 6.72303Z" fill="white"/>
<path d="M39.2099 27.757C38.6777 28.0542 38.015 28.3402 37.4853 28.5074C37.4782 28.5244 37.4481 28.5998 37.4417 28.6175C35.1504 34.1404 29.5805 38.0389 23.0733 38.0389C16.5252 38.0389 10.9268 34.093 8.66221 28.5154C8.05294 28.3464 7.14214 27.9312 6.79737 27.7579C6.66834 27.7517 6.59888 27.748 6.51953 27.7438C8.6261 34.6887 15.2397 39.7584 23.0736 39.7584C30.8719 39.7584 37.4601 34.7351 39.5974 27.8393C39.602 27.8259 39.6257 27.7501 39.6308 27.7372C39.5073 27.742 39.3185 27.757 39.2099 27.757Z" fill="url(#paint4_radial_305_3122)"/>
<path d="M44.0487 18.6937C42.9557 18.5608 42.2105 18.5751 39.548 18.4834C39.4271 18.479 39.304 18.4753 39.1791 18.4709C34.3514 18.3054 27.0995 18.0842 23 18.0842C18.9007 18.0842 11.649 18.3054 6.82065 18.4709C6.69599 18.4753 6.5734 18.479 6.45265 18.4834C3.78971 18.5751 3.04474 18.5608 1.95155 18.6937C0.85859 18.8278 0 19.3062 0 20.1198V26.0232C0 26.8373 1.03431 27.4965 1.95132 27.4965C1.95132 27.4965 13.6229 28.2168 23 28.2253C32.3773 28.2168 44.0487 27.4965 44.0487 27.4965C44.9657 27.4965 46 26.8373 46 26.0232V20.1198C46 19.3062 45.1416 18.8278 44.0487 18.6937Z" fill="url(#paint5_radial_305_3122)"/>
<path d="M39.2095 27.757C36.9189 34.5492 30.4771 39.2807 23.2006 39.2807C15.85 39.2807 9.32766 34.934 6.79628 27.757C6.70336 27.7521 6.61136 27.7485 6.52051 27.7432C8.62662 34.6883 15.2414 39.758 23.0754 39.758C30.912 39.758 37.5275 34.685 39.6318 27.7363C39.4933 27.7427 39.3528 27.7503 39.2095 27.757Z" fill="white"/>
<path d="M39.2226 27.7565L39.2086 27.7569C38.6764 28.0542 38.0142 28.3402 37.484 28.5074C37.4769 28.5244 37.4468 28.5998 37.4406 28.6175C36.7156 30.3652 35.6622 31.9502 34.3535 33.3009C36.4019 31.804 38.0726 29.9128 39.2226 27.7565Z" fill="#8C8C8C"/>
<path d="M12.2336 33.7403C10.6931 32.2735 9.46672 30.4979 8.66172 28.515C8.05245 28.3458 7.14187 27.9303 6.79688 27.757C7.16554 28.5209 7.60021 29.2513 8.09592 29.9397C9.10999 31.2598 10.3391 32.4365 11.7382 33.4323C11.901 33.5389 12.0662 33.6415 12.2336 33.7403Z" fill="#4D4D4D"/>
<path d="M6.51999 27.7441V27.7436L6.5147 27.7445C5.2313 27.9719 4.79591 28.059 3.52539 28.2273C3.62774 28.5906 3.74113 28.9485 3.86464 29.3028L6.51999 27.7441Z" fill="#252525"/>
<path d="M32.3464 21.3082C31.9628 20.4511 32.0989 20.541 31.2638 20.5189C31.196 20.4959 31.015 20.4959 30.767 20.4959C30.5195 20.4959 30.474 20.4959 30.2707 20.5189C29.4813 20.5189 29.6165 20.4739 29.3461 21.0376C29.3461 21.0376 27.9911 24.082 27.4051 25.3449L27.3826 25.39C27.2699 25.6151 27.3377 25.6151 27.5178 25.6151H28.7366C28.8272 25.6151 28.8718 25.5709 28.8944 25.525C28.8944 25.525 29.0749 25.1415 29.3005 24.6005H32.2788C32.5047 25.1194 32.6624 25.5024 32.6624 25.525C32.685 25.5928 32.7528 25.6151 32.8202 25.6151H34.0838C34.2644 25.6151 34.3097 25.6388 34.2421 25.4799C34.016 24.9389 32.5495 21.7811 32.3464 21.3082ZM29.7513 23.5181C30.135 22.6161 30.5191 21.7367 30.5191 21.714C30.5418 21.6687 30.5869 21.6462 30.6543 21.6462C30.6771 21.6232 30.7452 21.6232 30.8126 21.6232C30.8579 21.6232 30.925 21.6232 30.9478 21.6462C30.9926 21.6462 31.0386 21.6687 31.0603 21.7365C31.1513 21.9841 31.489 22.7513 31.8048 23.5181H29.7513ZM13.506 20.4509C13.6187 20.4509 13.6414 20.4957 13.6414 20.5861V25.413C13.6414 25.5252 13.6187 25.5712 13.4837 25.5712H12.3102C12.1752 25.5712 12.1526 25.5482 12.1526 25.413V20.5861C12.1526 20.4957 12.1752 20.4509 12.2651 20.4509H13.506ZM11.0015 20.4957C11.1365 20.4957 11.1597 20.5405 11.1597 20.6539V25.4581C11.1597 25.5937 11.1365 25.6162 11.0015 25.6162H9.62495C8.81305 25.6162 8.7452 25.6162 8.47472 25.1656C7.91053 24.2862 6.21796 21.6924 6.21796 21.6924V25.4585C6.21796 25.5944 6.19542 25.6165 6.06041 25.6165H5.04473C4.90949 25.6165 4.88672 25.5944 4.88672 25.4585V20.6539C4.88672 20.541 4.90949 20.4957 5.04473 20.4957H6.21796C7.09794 20.4957 7.21064 20.4734 7.52712 20.9245C7.77506 21.3307 9.82827 24.4881 9.82827 24.4881V20.6539C9.82827 20.541 9.85081 20.4957 9.98651 20.4957H11.0015ZM41.1232 20.4957C41.2594 20.4957 41.2815 20.5405 41.2815 20.6539V25.4581C41.2815 25.5937 41.2589 25.6162 41.1232 25.6162H39.7481C38.935 25.6162 38.8672 25.6162 38.5967 25.1656C38.032 24.2855 36.3399 21.6919 36.3399 21.6919V25.4583C36.3399 25.5939 36.3174 25.616 36.1817 25.616H35.1669C35.0317 25.616 35.0084 25.5939 35.0084 25.4583V20.6539C35.0084 20.541 35.0319 20.4957 35.1669 20.4957H36.3399C37.2199 20.4957 37.3331 20.4734 37.6484 20.9245C37.9193 21.3307 39.9502 24.4881 39.9502 24.4881V20.6539C39.9502 20.541 39.973 20.4957 40.1085 20.4957H41.1232ZM18.6732 22.4587C19.5759 22.5486 20.2305 22.7063 20.4108 23.5636C20.4108 23.6307 20.4336 23.8565 20.4336 24.1048C20.4336 24.263 20.4336 24.4653 20.3883 24.646C20.2307 25.4578 19.621 25.6155 18.6738 25.6155H14.8825C14.747 25.6155 14.7243 25.5935 14.7243 25.4578V24.646C14.7243 24.5104 14.747 24.4878 14.8825 24.4878H18.7178C18.876 24.4878 18.9211 24.443 18.9434 24.3297V24.1266V23.9915C18.9206 23.9009 18.8983 23.7657 18.6955 23.7436C18.2665 23.7211 17.0033 23.608 16.1454 23.5181C15.0398 23.4052 14.7694 22.932 14.724 22.5258C14.7015 22.3901 14.7015 22.2099 14.7015 22.052C14.7015 21.9165 14.7015 21.7138 14.724 21.5556C14.8823 20.8334 15.4239 20.4957 16.3711 20.4957H20.0488C20.1847 20.4957 20.23 20.5187 20.23 20.6311V21.4659C20.23 21.5779 20.1847 21.6234 20.0488 21.6009H16.4389C16.2809 21.6009 16.2135 21.6685 16.1905 21.8262V22.0292C16.1905 22.1421 16.2584 22.2324 16.4162 22.2543C16.8458 22.3003 18.1766 22.4129 18.6732 22.4587ZM25.1934 22.4587C26.0969 22.5486 26.7508 22.7063 26.9315 23.5636C26.9315 23.6307 26.9541 23.8565 26.9541 24.1048C26.9541 24.263 26.9541 24.4653 26.909 24.646C26.7514 25.4578 26.1424 25.6155 25.1943 25.6155H21.4032C21.2678 25.6155 21.245 25.5935 21.245 25.4578V24.646C21.245 24.5104 21.2678 24.4878 21.4032 24.4878H25.2392C25.397 24.4878 25.4414 24.443 25.4646 24.3297V24.1266V23.9915C25.4411 23.9009 25.3965 23.7657 25.2162 23.7436C24.7877 23.7211 23.5241 23.608 22.6669 23.5181C21.5608 23.4052 21.3131 22.932 21.245 22.5258C21.2225 22.3901 21.2225 22.2099 21.2225 22.052C21.2225 21.9165 21.2225 21.7138 21.245 21.5556C21.4032 20.8334 21.9447 20.4957 22.892 20.4957H26.5704C26.7052 20.4957 26.751 20.5187 26.751 20.6311V21.4659C26.751 21.5779 26.7052 21.6234 26.5704 21.6009H22.9599C22.8021 21.6009 22.7347 21.6685 22.7117 21.8262V22.0292C22.7117 22.1421 22.757 22.2324 22.9378 22.2543C23.3665 22.3003 24.6973 22.4129 25.1934 22.4587Z" fill="url(#paint6_radial_305_3122)"/>
</g>
</g>
<defs>
<linearGradient id="paint0_linear_305_3122" x1="23" y1="3.89403" x2="23" y2="35.9436" gradientUnits="userSpaceOnUse">
<stop offset="0.194" stop-color="white"/>
<stop offset="0.208" stop-color="#F8F8F8"/>
<stop offset="0.366" stop-color="#AEAEAE"/>
<stop offset="0.513" stop-color="#707070"/>
<stop offset="0.647" stop-color="#404040"/>
<stop offset="0.764" stop-color="#1D1D1D"/>
<stop offset="0.86" stop-color="#080808"/>
<stop offset="0.922"/>
</linearGradient>
<radialGradient id="paint1_radial_305_3122" cx="0" cy="0" r="1" gradientUnits="userSpaceOnUse" gradientTransform="translate(10.0871 -4.60273) scale(32.0765 32.0638)">
<stop offset="0.202" stop-color="white"/>
<stop offset="0.382" stop-color="#FDFDFD"/>
<stop offset="0.487" stop-color="#F4F4F4"/>
<stop offset="0.573" stop-color="#E6E6E6"/>
<stop offset="0.648" stop-color="#D2D2D2"/>
<stop offset="0.689" stop-color="#C4C4C4"/>
<stop offset="1" stop-color="#333333"/>
</radialGradient>
<radialGradient id="paint2_radial_305_3122" cx="0" cy="0" r="1" gradientUnits="userSpaceOnUse" gradientTransform="translate(87.7139 46.7552) scale(66.8035 66.777)">
<stop offset="0.202" stop-color="white"/>
<stop offset="0.368" stop-color="#E4E4E4"/>
<stop offset="0.594" stop-color="#C4C4C4"/>
<stop offset="1" stop-color="#333333"/>
</radialGradient>
<radialGradient id="paint3_radial_305_3122" cx="0" cy="0" r="1" gradientUnits="userSpaceOnUse" gradientTransform="translate(17.7921 32.0192) scale(20.5089 20.5007)">
<stop offset="0.202" stop-color="white"/>
<stop offset="0.368" stop-color="#E4E4E4"/>
<stop offset="0.594" stop-color="#C4C4C4"/>
<stop offset="1" stop-color="#333333"/>
</radialGradient>
<radialGradient id="paint4_radial_305_3122" cx="0" cy="0" r="1" gradientUnits="userSpaceOnUse" gradientTransform="translate(34.3419 52.9819) scale(38.9146 38.8992)">
<stop offset="0.202" stop-color="white"/>
<stop offset="0.368" stop-color="#E4E4E4"/>
<stop offset="0.594" stop-color="#C4C4C4"/>
<stop offset="1" stop-color="#333333"/>
</radialGradient>
<radialGradient id="paint5_radial_305_3122" cx="0" cy="0" r="1" gradientUnits="userSpaceOnUse" gradientTransform="translate(22.6918 7.3691) scale(30.924 30.9117)">
<stop offset="0.202" stop-color="white"/>
<stop offset="0.397" stop-color="#FDFDFD"/>
<stop offset="0.51" stop-color="#F4F4F4"/>
<stop offset="0.603" stop-color="#E6E6E6"/>
<stop offset="0.684" stop-color="#D2D2D2"/>
<stop offset="0.728" stop-color="#C4C4C4"/>
<stop offset="1" stop-color="#4D4D4D"/>
</radialGradient>
<radialGradient id="paint6_radial_305_3122" cx="0" cy="0" r="1" gradientUnits="userSpaceOnUse" gradientTransform="translate(23.4079 10.4645) scale(20.829 20.8208)">
<stop offset="0.111" stop-color="#4D4D4D"/>
<stop offset="0.248" stop-color="#494949"/>
<stop offset="0.355" stop-color="#404040"/>
<stop offset="0.451" stop-color="#2F2F2F"/>
<stop offset="0.541" stop-color="#181818"/>
<stop offset="0.611"/>
</radialGradient>
<clipPath id="clip0_305_3122">
<rect width="46" height="39.3788" fill="white" transform="translate(0 3.31061)"/>
</clipPath>
</defs>
</svg>
