<svg width="46" height="46" viewBox="0 0 46 46" fill="none" xmlns="http://www.w3.org/2000/svg">
<path d="M23.2009 46L29.6362 9.65226C35.7702 9.65226 37.705 10.3278 37.9844 13.085C37.9844 13.085 42.0992 11.5442 44.1746 8.41473C36.0759 4.64586 27.9385 4.47589 27.9385 4.47589L23.1901 10.284L23.2009 10.2833L18.4525 4.47498C18.4525 4.47498 10.315 4.64513 2.21729 8.414C4.29086 11.5434 8.40736 13.0843 8.40736 13.0843C8.68835 10.3269 10.6208 9.65135 16.7136 9.64697L23.2009 46Z" fill="#E82127"/>
<path d="M23.1982 2.79824C29.7449 2.74795 37.2384 3.81533 44.9094 7.17303C45.9347 5.31974 46.1982 4.50068 46.1982 4.50068C37.8127 1.16885 29.9597 0.0286018 23.1973 0C16.4353 0.0286018 8.58271 1.16903 0.198242 4.50068C0.198242 4.50068 0.572288 5.50957 1.48618 7.17303C9.15575 3.81533 16.6504 2.74795 23.1973 2.79824H23.1982Z" fill="#E82127"/>
</svg>
