<svg width="46" height="46" viewBox="0 0 46 46" fill="none" xmlns="http://www.w3.org/2000/svg">
<mask id="mask0_305_2937" style="mask-type:alpha" maskUnits="userSpaceOnUse" x="0" y="0" width="46" height="46">
<rect width="46" height="46" fill="#D9D9D9"/>
</mask>
<g mask="url(#mask0_305_2937)">
<path d="M0 23.4565C0 31.4221 10.318 37.903 23 37.903C35.6819 37.903 46 31.4221 46 23.4565C45.9998 15.4902 35.6818 9.01013 22.9998 9.01013C10.3178 9.01013 0 15.4902 0 23.4565ZM0.705792 23.4565C0.705792 15.8823 10.7067 9.71987 23 9.71987C35.293 9.71987 45.2942 15.8823 45.2942 23.4565C45.2942 31.0322 35.293 37.1945 23 37.1945C10.7067 37.1944 0.705792 31.0324 0.705792 23.4565Z" fill="black"/>
<path d="M20.8266 11.6363C15.4435 11.9663 11.5336 13.3985 10.8672 15.2854C10.7993 15.4756 10.7643 15.6759 10.7638 15.8779C10.7638 16.1962 10.8534 16.5145 11.0313 16.8188C11.7783 18.0966 14.0974 19.1503 17.3975 19.7155L17.7469 19.7728L17.8054 19.4225C18.3471 16.1055 19.5362 13.4972 21.069 12.2657L21.9375 11.5671L20.8266 11.6363ZM11.6405 16.4615C11.5255 16.2651 11.4688 16.0713 11.4688 15.8804C11.4688 15.7599 11.4895 15.6423 11.5322 15.5226C12.0409 14.0812 15.4966 12.8222 19.9112 12.416C18.6519 13.8459 17.6835 16.1501 17.1784 18.9496C14.3097 18.4168 12.247 17.4993 11.6405 16.4615ZM19.8424 19.6345L19.7734 20.0199L20.1628 20.0497C21.0863 20.1189 22.0411 20.1563 22.999 20.1563C23.9578 20.1563 24.9131 20.1189 25.8368 20.0497L26.2255 20.0199L26.1564 19.6345C25.6254 16.6415 24.4443 14.8536 22.9995 14.8536C21.5537 14.8536 20.3731 16.6415 19.8424 19.6345ZM22.9997 15.5621C23.9875 15.5621 24.8994 17.0469 25.3798 19.3648C24.5987 19.4159 23.8031 19.4478 22.999 19.4478C22.196 19.4478 21.4 19.4159 20.6198 19.3648C21.0989 17.0469 22.0121 15.5621 22.9997 15.5621ZM24.9297 12.266C26.462 13.4975 27.6523 16.1062 28.194 19.4229L28.2519 19.7732L28.6007 19.7158C31.9022 19.1506 34.2225 18.0966 34.967 16.819C35.2565 16.328 35.3116 15.7977 35.1325 15.286C34.4662 13.3992 30.5561 11.967 25.1734 11.6367L24.0639 11.5674L24.9297 12.266ZM26.0897 12.416C30.503 12.8222 33.9586 14.0835 34.4658 15.5226C34.51 15.6423 34.5306 15.7599 34.5306 15.8804C34.5306 16.0713 34.4727 16.2651 34.3603 16.4615C33.7518 17.4991 31.6884 18.4168 28.8211 18.9496C28.3159 16.1503 27.349 13.8461 26.0897 12.416ZM7.46101 16.676C5.04173 18.7103 3.76318 21.127 3.76318 23.666C3.76318 29.639 11.0187 34.6877 20.6392 35.4072L21.7138 35.4881L20.8956 34.7865C18.7879 32.9765 17.479 28.682 17.479 23.5782L17.5011 22.3723L17.2061 22.3121C12.1457 21.4017 8.54563 19.2657 8.03305 16.8739L7.91042 16.2996L7.46101 16.676ZM4.46968 23.666C4.46968 21.4888 5.52766 19.3993 7.51412 17.5845C8.43959 20.0013 11.8976 22.0147 16.7856 22.9515C16.7794 23.2282 16.7739 23.5782 16.7739 23.5782C16.7739 28.3106 17.8926 32.3975 19.7377 34.6025C10.9718 33.6636 4.46968 29.0674 4.46968 23.666ZM19.5549 23.0277L19.5528 23.1563C19.5528 27.9003 21.0346 31.4795 22.9997 31.4795C24.9641 31.4795 26.4461 27.9003 26.4461 23.1563L26.4413 22.6444L26.0623 22.677C25.0629 22.7648 24.0339 22.8084 23.0001 22.8084C21.9663 22.8084 20.9358 22.7648 19.9391 22.677L19.5586 22.6424L19.5549 23.0277ZM25.7361 23.408C25.683 27.822 24.2977 30.7715 22.9997 30.7715C21.7005 30.7715 20.3151 27.822 20.2634 23.408C21.1608 23.4744 22.0774 23.5158 22.9997 23.5158C23.9234 23.5158 24.8374 23.4744 25.7361 23.408ZM37.9652 16.8739C37.4531 19.2657 33.8523 21.4015 28.7936 22.3121L28.4971 22.3674L28.5206 23.578C28.5206 28.6818 27.211 32.9765 25.104 34.7864L24.2859 35.4879L25.359 35.407C34.9804 34.6875 42.2361 29.6388 42.2361 23.6658C42.2361 21.1268 40.9561 18.7101 38.5369 16.6758L38.0889 16.2995L37.9652 16.8739ZM38.4841 17.5845C40.472 19.3993 41.5307 21.4888 41.5307 23.666C41.5307 29.0674 35.0289 33.6636 26.2621 34.6025C28.1072 32.3975 29.2259 28.3106 29.2259 23.5782C29.2259 23.5782 29.219 23.228 29.2142 22.9515C34.1006 22.0147 37.5584 20.0012 38.4841 17.5845Z" fill="black"/>
<path d="M38.2156 15.0502C38.2481 15.1402 38.2777 15.2319 38.301 15.3242C38.434 15.8549 38.4065 16.376 38.2341 16.8838C40.5293 18.7838 41.8824 21.1271 41.8824 23.6662C41.8824 30.0037 33.428 35.1424 22.9999 35.1424C12.5712 35.1424 4.11753 30.0037 4.11753 23.6662C4.11753 21.1293 5.47195 18.784 7.76436 16.8838C7.59338 16.376 7.56586 15.8549 7.6989 15.3242C7.72643 15.2235 7.76311 15.1256 7.80847 15.0316C4.67652 17.2715 2.77759 20.207 2.77759 23.4219C2.77759 30.4417 11.8308 36.1318 22.9998 36.1318C34.1673 36.1318 43.2219 30.4417 43.2219 23.4219C43.2223 20.2137 41.331 17.285 38.2156 15.0502Z" fill="url(#paint0_linear_305_2937)"/>
<path d="M25.8093 19.6969C24.9181 19.764 23.9787 19.8007 22.9992 19.8007C22.0205 19.8007 21.0818 19.764 20.1905 19.6969H20.1877L19.6052 20.1216C20.6798 20.2157 21.8146 20.269 22.9998 20.269C24.1851 20.269 25.3197 20.2157 26.395 20.1216L25.8093 19.6969ZM36.1388 15.2438C35.4289 12.8886 29.5772 11.159 22.9999 11.159C16.4237 11.159 10.5722 12.889 9.86232 15.2438C9.24616 17.2869 12.6096 19.1779 17.9161 19.9278L17.4551 19.3644C13.1624 18.6311 10.611 17.0675 11.1996 15.405C11.913 13.3865 17.0946 11.9249 22.9994 11.9249C28.9041 11.9249 34.0869 13.3869 34.7995 15.405C35.3875 17.0677 32.8373 18.6313 28.5436 19.3644L28.0841 19.9278C33.3887 19.1779 36.7544 17.2869 36.1388 15.2438Z" fill="url(#paint1_linear_305_2937)"/>
<path d="M20.1974 19.6969C20.6903 16.9479 21.7594 15.23 22.9993 15.23C24.2406 15.23 25.3088 16.9479 25.8023 19.6969H25.8122L26.3887 20.1168C25.902 16.4865 24.5691 14.1666 23.0001 14.1666C21.4301 14.1666 20.0978 16.4865 19.6118 20.1168L20.1881 19.6969H20.1974Z" fill="url(#paint2_linear_305_2937)"/>
<path d="M26.5634 22.1738L26.092 23.0296C26.092 23.092 26.0948 23.1561 26.0948 23.2211C26.0948 27.7778 24.7067 31.2327 22.9995 31.2327C21.2908 31.2327 19.9055 27.7774 19.9055 23.2211C19.9055 23.1492 19.9069 23.0778 19.9083 23.0089L19.4362 22.1738C19.4223 22.5211 19.4154 22.8687 19.4155 23.2163C19.4155 28.3825 21.0201 32.2958 23.0002 32.2958C24.9803 32.2958 26.5864 28.3825 26.5864 23.2163C26.5857 22.8687 26.578 22.5211 26.5634 22.1738Z" fill="url(#paint3_linear_305_2937)"/>
<path d="M17.9237 19.93C18.6019 14.8841 20.618 11.1587 23.0001 11.1587C20.4464 11.1587 18.2697 14.4592 17.4619 19.3744L17.9168 19.93H17.9237Z" fill="url(#paint4_linear_305_2937)"/>
<path d="M28.0769 19.93H28.0816L28.5365 19.3744C27.7301 14.4592 25.5521 11.1587 22.9998 11.1587C25.3818 11.159 27.3993 14.8841 28.0769 19.93Z" fill="url(#paint5_linear_305_2937)"/>
<path d="M28.8537 22.658L28.2747 21.9641H28.27C28.3024 22.5154 28.321 23.0759 28.321 23.6451C28.321 30.5412 25.9382 36.1314 23 36.1314C26.2945 36.1314 28.8724 30.9467 28.8724 23.6451C28.8724 23.3111 28.8655 22.9834 28.8537 22.658Z" fill="url(#paint6_linear_305_2937)"/>
<path d="M17.6804 23.6453C17.6804 23.076 17.6989 22.5156 17.7306 21.9642H17.7268L17.1464 22.6561C17.1341 22.9857 17.1277 23.3155 17.1272 23.6453C17.1272 30.9469 19.707 36.1316 23.0003 36.1316C20.0631 36.1316 17.6804 30.5413 17.6804 23.6453Z" fill="url(#paint7_linear_305_2937)"/>
<path d="M38.2341 16.8836C39.1116 17.6102 39.8518 18.403 40.4307 19.245C40.2303 17.9058 39.6995 16.6382 38.8868 15.5573C38.6675 15.3824 38.4435 15.2133 38.2152 15.0504C38.2479 15.1404 38.2775 15.2321 38.3004 15.3244C38.434 15.8549 38.4065 16.3758 38.2341 16.8836ZM7.76453 16.8836C7.59355 16.3758 7.56602 15.8547 7.69906 15.324C7.7266 15.2233 7.76327 15.1254 7.80864 15.0314C7.57327 15.2019 7.34143 15.3772 7.11326 15.5573C6.30169 16.6389 5.77109 17.9062 5.56934 19.245C6.14826 18.403 6.88705 17.61 7.76453 16.8836Z" fill="#2D2F34"/>
<path d="M0.353027 23.4565C0.353027 15.6748 10.4917 9.36493 23.0001 9.36493C35.5068 9.36493 45.6456 15.6748 45.6456 23.4565C45.6456 31.2398 35.5068 37.5474 23.0001 37.5474C10.4917 37.5472 0.353027 31.24 0.353027 23.4565ZM23 36.1316C34.1677 36.1316 43.2221 30.4415 43.2221 23.4218C43.2221 16.4013 34.1677 10.7093 23 10.7093C11.8308 10.7093 2.77707 16.4017 2.77707 23.4218C2.77707 30.4415 11.831 36.1316 23 36.1316Z" fill="url(#paint8_linear_305_2937)"/>
<path d="M17.6802 23.6453C17.6802 16.8216 20.0629 11.159 22.9997 11.159C25.9379 11.159 28.3209 16.8216 28.3209 23.6453C28.3209 30.5414 25.9379 36.1316 22.9997 36.1316C20.0615 36.1316 17.6802 30.5413 17.6802 23.6453ZM22.9997 32.2958C24.98 32.2958 26.586 28.3825 26.586 23.2184C26.586 17.8592 24.9798 14.1667 22.9997 14.1667C21.0196 14.1667 19.415 17.8592 19.415 23.2184C19.415 28.3825 21.0196 32.2958 22.9997 32.2958Z" fill="url(#paint9_linear_305_2937)"/>
<path d="M7.69903 15.324C8.28272 13.0043 15.3417 9.62793 22.9999 9.62793C30.6574 9.62793 37.4739 12.0404 38.3009 15.324C39.2266 19.0047 32.4236 22.3356 22.9999 22.3356C13.5746 22.3356 6.77197 19.0048 7.69903 15.324ZM22.9999 11.159C16.4237 11.159 10.5721 12.8889 9.86228 15.2438C9.06685 17.8821 14.9075 20.269 22.9999 20.269C31.0939 20.269 36.9335 17.8817 36.1387 15.2438C35.4289 12.8886 29.5775 11.159 22.9999 11.159Z" fill="url(#paint10_linear_305_2937)"/>
<path d="M19.4289 22.1669L19.433 22.1697L19.9189 23.0296C20.9079 23.1145 21.9364 23.163 22.9999 23.163C24.0683 23.163 25.0992 23.1147 26.0948 23.0275L26.5676 22.1693L26.5705 22.1665C25.4333 22.2751 24.2408 22.3353 23.0002 22.3353C21.8078 22.336 20.616 22.2798 19.4289 22.1669ZM38.3808 16.1199C38.2594 18.7516 34.2296 21.0832 28.2727 21.9619L28.2748 21.9641L28.8558 22.661C34.6844 21.6093 38.5188 19.0258 38.3808 16.1199ZM7.61907 16.1199C7.48127 19.0286 11.3153 21.6091 17.1429 22.661L17.7253 21.9641L17.7267 21.9619C11.7688 21.0834 7.74171 18.7517 7.61907 16.1199Z" fill="url(#paint11_linear_305_2937)"/>
</g>
<defs>
<linearGradient id="paint0_linear_305_2937" x1="22.9998" y1="34.5618" x2="22.9998" y2="18.5047" gradientUnits="userSpaceOnUse">
<stop stop-color="#F0F3F5"/>
<stop offset="0.056" stop-color="#E2E5E8"/>
<stop offset="0.138" stop-color="#D4D8DD"/>
<stop offset="0.242" stop-color="#CCD0D6"/>
<stop offset="0.44" stop-color="#CACED4"/>
<stop offset="0.568" stop-color="#B3B7BD"/>
<stop offset="0.835" stop-color="#797C83"/>
<stop offset="1" stop-color="#52545C"/>
</linearGradient>
<linearGradient id="paint1_linear_305_2937" x1="23.0005" y1="22.3272" x2="23.0005" y2="13.6261" gradientUnits="userSpaceOnUse">
<stop stop-color="#F0F3F5"/>
<stop offset="0.056" stop-color="#E2E5E8"/>
<stop offset="0.138" stop-color="#D4D8DD"/>
<stop offset="0.242" stop-color="#CCD0D6"/>
<stop offset="0.44" stop-color="#CACED4"/>
<stop offset="0.568" stop-color="#B3B7BD"/>
<stop offset="0.835" stop-color="#797C83"/>
<stop offset="1" stop-color="#52545C"/>
</linearGradient>
<linearGradient id="paint2_linear_305_2937" x1="25.8777" y1="20.7279" x2="20.4484" y2="16.1895" gradientUnits="userSpaceOnUse">
<stop stop-color="#F0F3F5"/>
<stop offset="0.056" stop-color="#E2E5E8"/>
<stop offset="0.138" stop-color="#D4D8DD"/>
<stop offset="0.242" stop-color="#CCD0D6"/>
<stop offset="0.44" stop-color="#CACED4"/>
<stop offset="0.568" stop-color="#B3B7BD"/>
<stop offset="0.835" stop-color="#797C83"/>
<stop offset="1" stop-color="#52545C"/>
</linearGradient>
<linearGradient id="paint3_linear_305_2937" x1="26.4283" y1="28.3118" x2="18.5212" y2="23.7641" gradientUnits="userSpaceOnUse">
<stop stop-color="#F0F3F5"/>
<stop offset="0.056" stop-color="#E2E5E8"/>
<stop offset="0.138" stop-color="#D4D8DD"/>
<stop offset="0.242" stop-color="#CCD0D6"/>
<stop offset="0.44" stop-color="#CACED4"/>
<stop offset="0.568" stop-color="#B3B7BD"/>
<stop offset="0.835" stop-color="#797C83"/>
<stop offset="1" stop-color="#52545C"/>
</linearGradient>
<linearGradient id="paint4_linear_305_2937" x1="20.2311" y1="9.36372" x2="20.2311" y2="23.1645" gradientUnits="userSpaceOnUse">
<stop stop-color="#F0F3F5"/>
<stop offset="0.056" stop-color="#E2E5E8"/>
<stop offset="0.138" stop-color="#D4D8DD"/>
<stop offset="0.242" stop-color="#CCD0D6"/>
<stop offset="0.44" stop-color="#CACED4"/>
<stop offset="0.568" stop-color="#B3B7BD"/>
<stop offset="0.835" stop-color="#797C83"/>
<stop offset="1" stop-color="#52545C"/>
</linearGradient>
<linearGradient id="paint5_linear_305_2937" x1="25.7682" y1="9.36372" x2="25.7682" y2="23.1645" gradientUnits="userSpaceOnUse">
<stop stop-color="#F0F3F5"/>
<stop offset="0.056" stop-color="#E2E5E8"/>
<stop offset="0.138" stop-color="#D4D8DD"/>
<stop offset="0.242" stop-color="#CCD0D6"/>
<stop offset="0.44" stop-color="#CACED4"/>
<stop offset="0.568" stop-color="#B3B7BD"/>
<stop offset="0.835" stop-color="#797C83"/>
<stop offset="1" stop-color="#52545C"/>
</linearGradient>
<linearGradient id="paint6_linear_305_2937" x1="25.9361" y1="9.24766" x2="25.9361" y2="32.2797" gradientUnits="userSpaceOnUse">
<stop stop-color="#F0F3F5"/>
<stop offset="0.056" stop-color="#E2E5E8"/>
<stop offset="0.138" stop-color="#D4D8DD"/>
<stop offset="0.242" stop-color="#CCD0D6"/>
<stop offset="0.44" stop-color="#CACED4"/>
<stop offset="0.568" stop-color="#B3B7BD"/>
<stop offset="0.835" stop-color="#797C83"/>
<stop offset="1" stop-color="#52545C"/>
</linearGradient>
<linearGradient id="paint7_linear_305_2937" x1="20.0636" y1="9.24766" x2="20.0636" y2="32.2797" gradientUnits="userSpaceOnUse">
<stop stop-color="#F0F3F5"/>
<stop offset="0.056" stop-color="#E2E5E8"/>
<stop offset="0.138" stop-color="#D4D8DD"/>
<stop offset="0.242" stop-color="#CCD0D6"/>
<stop offset="0.44" stop-color="#CACED4"/>
<stop offset="0.568" stop-color="#B3B7BD"/>
<stop offset="0.835" stop-color="#797C83"/>
<stop offset="1" stop-color="#52545C"/>
</linearGradient>
<linearGradient id="paint8_linear_305_2937" x1="22.9992" y1="9.36493" x2="22.9992" y2="37.5474" gradientUnits="userSpaceOnUse">
<stop stop-color="#F0F3F5"/>
<stop offset="0.253" stop-color="#EDF0F3"/>
<stop offset="0.406" stop-color="#E5E8EA"/>
<stop offset="0.531" stop-color="#D7DADC"/>
<stop offset="0.642" stop-color="#C3C5C9"/>
<stop offset="0.744" stop-color="#A9ABAF"/>
<stop offset="0.839" stop-color="#888B90"/>
<stop offset="0.926" stop-color="#63656B"/>
<stop offset="1" stop-color="#3D3F46"/>
</linearGradient>
<linearGradient id="paint9_linear_305_2937" x1="23.0004" y1="9.3635" x2="23.0004" y2="37.5477" gradientUnits="userSpaceOnUse">
<stop stop-color="#F0F3F5"/>
<stop offset="0.253" stop-color="#EDF0F3"/>
<stop offset="0.406" stop-color="#E5E8EA"/>
<stop offset="0.531" stop-color="#D7DADC"/>
<stop offset="0.642" stop-color="#C3C5C9"/>
<stop offset="0.744" stop-color="#A9ABAF"/>
<stop offset="0.839" stop-color="#888B90"/>
<stop offset="0.926" stop-color="#63656B"/>
<stop offset="1" stop-color="#3D3F46"/>
</linearGradient>
<linearGradient id="paint10_linear_305_2937" x1="22.9999" y1="9.3665" x2="22.9999" y2="37.55" gradientUnits="userSpaceOnUse">
<stop stop-color="#F0F3F5"/>
<stop offset="0.253" stop-color="#EDF0F3"/>
<stop offset="0.406" stop-color="#E5E8EA"/>
<stop offset="0.531" stop-color="#D7DADC"/>
<stop offset="0.642" stop-color="#C3C5C9"/>
<stop offset="0.744" stop-color="#A9ABAF"/>
<stop offset="0.839" stop-color="#888B90"/>
<stop offset="0.926" stop-color="#63656B"/>
<stop offset="1" stop-color="#3D3F46"/>
</linearGradient>
<linearGradient id="paint11_linear_305_2937" x1="23" y1="15.21" x2="23" y2="23.2422" gradientUnits="userSpaceOnUse">
<stop stop-color="#CACED4"/>
<stop offset="1" stop-color="#52545C"/>
</linearGradient>
</defs>
</svg>
