<svg width="52" height="35" viewBox="0 0 52 35" fill="none" xmlns="http://www.w3.org/2000/svg">
<mask id="mask0_3958_10" style="mask-type:alpha" maskUnits="userSpaceOnUse" x="0" y="0" width="52" height="35">
<rect x="0.0429688" width="51.0417" height="35" fill="#016FD0"/>
</mask>
<g mask="url(#mask0_3958_10)">
<rect x="0.0429688" width="51.0417" height="35" fill="#016FD0"/>
<path d="M9.9707 26.7751V18.7451H18.473L19.3851 19.9343L20.3275 18.7451H51.1886V26.2213C51.1886 26.2213 50.3815 26.7671 49.4481 26.7751H32.3597L31.3312 25.5093V26.7751H27.961V24.6143C27.961 24.6143 27.5006 24.9159 26.5053 24.9159H25.3582V26.7751H20.2554L19.3445 25.5604L18.4196 26.7751H9.9707Z" fill="white"/>
<path d="M0.0429688 12.6935L1.96026 8.22363H5.27601L6.3641 10.7275V8.22363H10.4859L11.1336 10.0333L11.7616 8.22363H30.2641V9.13343C30.2641 9.13343 31.2368 8.22363 32.8353 8.22363L38.8387 8.24461L39.908 10.7157V8.22363H43.3573L44.3067 9.64307V8.22363H47.7877V16.2536H44.3067L43.3969 14.8296V16.2536H38.3291L37.8194 14.9878H36.457L35.9557 16.2536H32.5189C31.1434 16.2536 30.2641 15.3624 30.2641 15.3624V16.2536H25.0822L24.0538 14.9878V16.2536H4.7848L4.27551 14.9878H2.91746L2.41177 16.2536H0.0429688V12.6935Z" fill="white"/>
<path d="M2.63679 9.21289L0.0507812 15.2255H1.7344L2.21156 14.0215H4.98545L5.46013 15.2255H7.18084L4.59731 9.21289H2.63679ZM3.59356 10.6122L4.43908 12.7161H2.74557L3.59356 10.6122V10.6122Z" fill="#016FD0"/>
<path d="M7.35938 15.2245V9.21191L9.7519 9.2208L11.1435 13.0973L12.5017 9.21191H14.8751V15.2245H13.372V10.7942L11.7786 15.2245H10.4603L8.86252 10.7942V15.2245H7.35938Z" fill="#016FD0"/>
<path d="M15.9043 15.2246V9.21191H20.8093V10.5569H17.4233V11.5853H20.7302V12.8511H17.4233V13.9192H20.8093V15.2246H15.9043Z" fill="#016FD0"/>
<path d="M21.6797 9.21289V15.2255H23.1828V13.0895H23.8158L25.6181 15.2255H27.455L25.4771 13.0104C26.2889 12.9419 27.1262 12.2452 27.1262 11.1635C27.1262 9.89827 26.1331 9.21289 25.0247 9.21289H21.6797V9.21289ZM23.1828 10.5578H24.9011C25.3133 10.5578 25.6131 10.8802 25.6131 11.1907C25.6131 11.5902 25.2246 11.8236 24.9234 11.8236H23.1828V10.5578V10.5578Z" fill="#016FD0"/>
<path d="M29.277 15.2246H27.7422V9.21191H29.277V15.2246Z" fill="#016FD0"/>
<path d="M32.9152 15.2246H32.584C30.981 15.2246 30.0078 13.9617 30.0078 12.243C30.0078 10.4817 30.9701 9.21191 32.9944 9.21191H34.6557V10.636H32.9336C32.1119 10.636 31.5308 11.2772 31.5308 12.2578C31.5308 13.4222 32.1953 13.9113 33.1526 13.9113H33.5482L32.9152 15.2246Z" fill="#016FD0"/>
<path d="M36.1876 9.21289L33.6016 15.2255H35.2852L35.7623 14.0215H38.5362L39.0109 15.2255H40.7316L38.1481 9.21289H36.1876ZM37.1443 10.6122L37.9899 12.7161H36.2963L37.1443 10.6122Z" fill="#016FD0"/>
<path d="M40.9043 15.2246V9.21191H42.8154L45.2556 12.9896V9.21191H46.7587V15.2246H44.9094L42.4075 11.348V15.2246H40.9043Z" fill="#016FD0"/>
<path d="M11.0002 25.747V19.7344H15.9052V21.0793H12.5191V22.1078H15.8261V23.3736H12.5191V24.4416H15.9052V25.747H11.0002Z" fill="#016FD0"/>
<path d="M35.0332 25.747V19.7344H39.9383V21.0793H36.5522V22.1078H39.8433V23.3736H36.5522V24.4416H39.9383V25.747H35.0332Z" fill="#016FD0"/>
<path d="M16.0961 25.747L18.4843 22.7778L16.0392 19.7344H17.933L19.3892 21.6158L20.8503 19.7344H22.6699L20.2569 22.7407L22.6495 25.747H20.7561L19.3422 23.8952L17.9627 25.747H16.0961Z" fill="#016FD0"/>
<path d="M22.8262 19.7354V25.748H24.3689V23.8493H25.9512C27.29 23.8493 28.3048 23.139 28.3048 21.7577C28.3048 20.6134 27.5089 19.7354 26.1465 19.7354H22.8262V19.7354ZM24.3689 21.0951H26.0352C26.4677 21.0951 26.7769 21.3602 26.7769 21.7874C26.7769 22.1886 26.4693 22.4796 26.0303 22.4796H24.3689V21.0951Z" fill="#016FD0"/>
<path d="M28.959 19.7344V25.747H30.4621V23.6109H31.0951L32.8974 25.747H34.7343L32.7564 23.5318C33.5682 23.4633 34.4055 22.7667 34.4055 21.685C34.4055 20.4198 33.4124 19.7344 32.304 19.7344H28.959V19.7344ZM30.4621 21.0793H32.1804C32.5926 21.0793 32.8924 21.4017 32.8924 21.7122C32.8924 22.1117 32.5039 22.3451 32.2026 22.3451H30.4621V21.0793V21.0793Z" fill="#016FD0"/>
<path d="M40.6361 25.747V24.4416H43.6444C44.0896 24.4416 44.2823 24.2011 44.2823 23.9373C44.2823 23.6845 44.0902 23.429 43.6444 23.429H42.285C41.1034 23.429 40.4453 22.7091 40.4453 21.6282C40.4453 20.6641 41.0479 19.7344 42.8039 19.7344H45.7311L45.0982 21.0872H42.5665C42.0826 21.0872 41.9336 21.3412 41.9336 21.5837C41.9336 21.8329 42.1177 22.1078 42.4874 22.1078H43.9115C45.2287 22.1078 45.8003 22.855 45.8003 23.8335C45.8003 24.8854 45.1634 25.747 43.8397 25.747H40.6361Z" fill="#016FD0"/>
<path d="M46.1518 25.747V24.4416H49.1601C49.6053 24.4416 49.798 24.2011 49.798 23.9373C49.798 23.6845 49.6059 23.429 49.1601 23.429H47.8007C46.6191 23.429 45.961 22.7091 45.961 21.6282C45.961 20.6641 46.5636 19.7344 48.3195 19.7344H51.187L50.6138 21.0872H48.0822C47.5983 21.0872 47.4493 21.3412 47.4493 21.5837C47.4493 21.8329 47.6334 22.1078 48.0031 22.1078H49.4271C50.7444 22.1078 51.316 22.855 51.316 23.8335C51.316 24.8854 50.679 25.747 49.3554 25.747H46.1518Z" fill="#016FD0"/>
</g>
</svg>
