<svg width="136" height="53" viewBox="0 0 136 53" fill="none" xmlns="http://www.w3.org/2000/svg">
<path d="M135.354 49.3536C135.549 49.1583 135.549 48.8417 135.354 48.6464L132.172 45.4645C131.976 45.2692 131.66 45.2692 131.464 45.4645C131.269 45.6597 131.269 45.9763 131.464 46.1716L134.293 49L131.464 51.8284C131.269 52.0237 131.269 52.3403 131.464 52.5355C131.66 52.7308 131.976 52.7308 132.172 52.5355L135.354 49.3536ZM0.333333 3C0.333333 4.47276 1.52724 5.66667 3 5.66667C4.47276 5.66667 5.66667 4.47276 5.66667 3C5.66667 1.52724 4.47276 0.333333 3 0.333333C1.52724 0.333333 0.333333 1.52724 0.333333 3ZM10 49.5H135V48.5H10V49.5ZM3.5 42V3H2.5V42H3.5ZM10 48.5C6.41015 48.5 3.5 45.5899 3.5 42H2.5C2.5 46.1421 5.85786 49.5 10 49.5V48.5Z" fill="#23291F" fill-opacity="0.733333"/>
</svg>
