<svg width="11" height="11" viewBox="0 0 11 11" fill="none" xmlns="http://www.w3.org/2000/svg">
<g clip-path="url(#clip0_3908_7)">
<path d="M5.01723 10.3451C4.98395 10.3451 4.95104 10.3382 4.92055 10.3248C4.89007 10.3115 4.86267 10.292 4.84009 10.2676L0.0640286 5.10125C0.0321902 5.0668 0.0110833 5.02383 0.00329122 4.97757C-0.00450086 4.93132 0.00135982 4.8838 0.0201561 4.84083C0.0389523 4.79786 0.0698688 4.76129 0.109122 4.73562C0.148374 4.70994 0.194261 4.69627 0.241165 4.69627H2.5401C2.57461 4.69627 2.60873 4.70368 2.64014 4.71799C2.67155 4.7323 2.69952 4.75318 2.72218 4.77923L4.31835 6.61557C4.49086 6.24683 4.8248 5.63285 5.41079 4.88469C6.2771 3.77865 7.88848 2.152 10.6454 0.683582C10.6986 0.655206 10.7606 0.647842 10.8191 0.662942C10.8775 0.678043 10.9282 0.714511 10.9611 0.765146C10.994 0.81578 11.0066 0.876901 10.9967 0.936438C10.9867 0.995975 10.9547 1.0496 10.9071 1.08673C10.8966 1.09495 9.83362 1.93202 8.61029 3.46527C7.48442 4.87623 5.98777 7.18336 5.25132 10.1618C5.23838 10.2142 5.20829 10.2607 5.16585 10.2939C5.1234 10.3271 5.07106 10.3452 5.01715 10.3452L5.01723 10.3451Z" fill="white"/>
</g>
<defs>
<clipPath id="clip0_3908_7">
<rect width="11" height="11" fill="white"/>
</clipPath>
</defs>
</svg>
