<svg width="52" height="35" viewBox="0 0 52 35" fill="none" xmlns="http://www.w3.org/2000/svg">
<rect x="0.0839844" width="51.0417" height="35" fill="#232342"/>
<path d="M22.3223 35.0007L51.1244 26.6152V31.0007C51.1244 33.2098 49.3335 35.0007 47.1244 35.0007H22.3223Z" fill="#FD6020"/>
<path fill-rule="evenodd" clip-rule="evenodd" d="M44.1039 14.0162C45.6885 14.0162 46.56 14.7213 46.56 16.0533C46.6392 17.0719 45.9262 17.9337 44.9754 18.0904L47.1146 20.9895H45.4508L43.6285 18.1688H43.4701V20.9895H42.1232V14.0162H44.1039ZM43.4709 17.2286H43.867C44.7385 17.2286 45.1347 16.8368 45.1347 16.1317C45.1347 15.5048 44.7385 15.1131 43.867 15.1131H43.4709V17.2286ZM37.4492 20.9895H41.2522V19.8142H38.7961V17.9338H41.1729V16.7585H38.7961V15.1915H41.2522V14.0162H37.4492V20.9895V20.9895ZM33.4866 18.7173L31.6644 14.0162H30.2383L33.1697 21.1462H33.8828L36.8142 14.0162H35.3881L33.4866 18.7173V18.7173ZM17.4041 17.542C17.4041 19.5008 18.9886 21.1462 20.9693 21.1462C21.6032 21.1462 22.1577 20.9895 22.7123 20.7544V19.1874C22.3162 19.6575 21.7616 19.9709 21.1278 19.9709C19.8601 19.9709 18.8302 19.0307 18.8302 17.777V17.6203C18.7509 16.3667 19.7809 15.2698 21.0486 15.1914C21.6824 15.1914 22.3162 15.5048 22.7123 15.9749V14.4079C22.237 14.0945 21.6032 14.0161 21.0486 14.0161C18.9886 13.8594 17.4041 15.5048 17.4041 17.542V17.542ZM14.9477 16.6801C14.1554 16.3667 13.9177 16.21 13.9177 15.8182C13.9969 15.3481 14.3931 14.9564 14.8684 15.0347C15.2646 15.0347 15.6607 15.2698 15.9776 15.5832L16.6907 14.643C16.1361 14.1728 15.423 13.8594 14.71 13.8594C13.6008 13.7811 12.65 14.643 12.5708 15.7399V15.8182C12.5708 16.7585 12.967 17.3069 14.2346 17.6987C14.5515 17.777 14.8684 17.9337 15.1853 18.0904C15.423 18.2471 15.5815 18.4822 15.5815 18.7956C15.5815 19.3441 15.1061 19.8142 14.6307 19.8142H14.5515C13.9177 19.8142 13.3631 19.4224 13.1254 18.874L12.2539 19.7358C12.7293 20.5977 13.68 21.0678 14.6307 21.0678C15.8984 21.1462 16.9284 20.2059 17.0076 18.9523V18.7173C16.9284 17.777 16.5322 17.3069 14.9477 16.6801V16.6801ZM10.3535 20.9895H11.7004V14.0162H10.3535V20.9895V20.9895ZM4.09375 14.0162H6.07445H6.47059C8.37207 14.0945 9.8774 15.6615 9.79817 17.542C9.79817 18.5606 9.3228 19.5008 8.53052 20.2059C7.81747 20.7544 6.94596 21.0678 6.07445 20.9895H4.09375V14.0162ZM5.83755 19.8142C6.47137 19.8926 7.18442 19.6575 7.65979 19.2657C8.13516 18.7956 8.37284 18.1688 8.37284 17.4636C8.37284 16.8368 8.13516 16.21 7.65979 15.7399C7.18442 15.3482 6.47137 15.1131 5.83755 15.1914H5.44141V19.8142H5.83755Z" fill="white"/>
<path fill-rule="evenodd" clip-rule="evenodd" d="M26.7539 13.8545C24.7732 13.8545 23.1094 15.4215 23.1094 17.4587C23.1094 19.4175 24.6939 21.0629 26.7539 21.1412C28.8138 21.2196 30.3984 19.5742 30.4776 17.537C30.3984 15.4999 28.8138 13.8545 26.7539 13.8545V13.8545Z" fill="#FD6020"/>
</svg>
