<svg width="52" height="35" viewBox="0 0 52 35" fill="none" xmlns="http://www.w3.org/2000/svg">
<rect x="0.125" width="51.0417" height="35" fill="black"/>
<path fill-rule="evenodd" clip-rule="evenodd" d="M26.0099 25.0207C24.2722 26.5204 22.018 27.4257 19.5548 27.4257C14.0589 27.4257 9.60352 22.9186 9.60352 17.3588C9.60352 11.7991 14.0589 7.29199 19.5548 7.29199C22.018 7.29199 24.2722 8.19731 26.0099 9.69697C27.7477 8.19731 30.0018 7.29199 32.465 7.29199C37.961 7.29199 42.4163 11.7991 42.4163 17.3588C42.4163 22.9186 37.961 27.4257 32.465 27.4257C30.0018 27.4257 27.7477 26.5204 26.0099 25.0207Z" fill="#ED0006"/>
<path fill-rule="evenodd" clip-rule="evenodd" d="M26.0098 25.0207C28.1493 23.1743 29.506 20.4268 29.506 17.3588C29.506 14.2909 28.1493 11.5434 26.0098 9.69697C27.7475 8.19731 30.0017 7.29199 32.4648 7.29199C37.9608 7.29199 42.4162 11.7991 42.4162 17.3588C42.4162 22.9186 37.9608 27.4257 32.4648 27.4257C30.0017 27.4257 27.7475 26.5204 26.0098 25.0207Z" fill="#F9A000"/>
<path fill-rule="evenodd" clip-rule="evenodd" d="M26.01 9.69727C28.1497 11.5437 29.5064 14.2912 29.5064 17.3592C29.5064 20.4273 28.1497 23.1748 26.01 25.0212C23.8704 23.1748 22.5137 20.4273 22.5137 17.3592C22.5137 14.2912 23.8704 11.5437 26.01 9.69727Z" fill="#FF5E00"/>
</svg>
