<svg width="52" height="35" viewBox="0 0 52 35" fill="none" xmlns="http://www.w3.org/2000/svg">
<rect x="0.210938" width="51.0417" height="35" fill="#253B80"/>
<path fill-rule="evenodd" clip-rule="evenodd" d="M13.5156 13.2178H11.0153C10.8442 13.2178 10.6987 13.3421 10.6721 13.511L9.66083 19.9223C9.64073 20.0489 9.7387 20.1629 9.86703 20.1629H11.0607C11.2318 20.1629 11.3773 20.0386 11.404 19.8694L11.6767 18.1402C11.703 17.9708 11.8489 17.8466 12.0196 17.8466H12.8111C14.4581 17.8466 15.4086 17.0496 15.6569 15.4703C15.7688 14.7793 15.6617 14.2364 15.338 13.8561C14.9827 13.4387 14.3524 13.2178 13.5156 13.2178ZM13.804 15.5594C13.6673 16.4566 12.9818 16.4566 12.319 16.4566H11.9417L12.2064 14.781C12.2221 14.6799 12.3099 14.6052 12.4122 14.6052H12.5852C13.0367 14.6052 13.4626 14.6052 13.6827 14.8626C13.8138 15.0162 13.8541 15.2442 13.804 15.5594ZM20.9894 15.5307H19.7921C19.6901 15.5307 19.6019 15.6053 19.5862 15.7066L19.5332 16.0414L19.4495 15.9201C19.1903 15.5439 18.6124 15.4182 18.0355 15.4182C16.7123 15.4182 15.5823 16.4202 15.3622 17.826C15.2478 18.5271 15.4104 19.1975 15.8082 19.6652C16.1731 20.0951 16.6952 20.2742 17.3163 20.2742C18.3823 20.2742 18.9736 19.5887 18.9736 19.5887L18.9201 19.9215C18.9 20.0487 18.9979 20.1627 19.1255 20.1627H20.2041C20.3756 20.1627 20.5203 20.0384 20.5473 19.8692L21.1945 15.7713C21.2149 15.6452 21.1173 15.5307 20.9894 15.5307ZM19.3204 17.861C19.2049 18.545 18.662 19.0042 17.9697 19.0042C17.622 19.0042 17.344 18.8927 17.1657 18.6814C16.9887 18.4716 16.9214 18.1728 16.9777 17.8402C17.0857 17.1619 17.6377 16.6879 18.3195 16.6879C18.6594 16.6879 18.9359 16.8007 19.1179 17.0139C19.3003 17.2293 19.3727 17.5297 19.3204 17.861ZM26.1629 15.5305H27.3661C27.5346 15.5305 27.6329 15.7195 27.5371 15.8577L23.5354 21.634C23.4706 21.7275 23.3639 21.7832 23.2499 21.7832H22.0481C21.879 21.7832 21.7802 21.5927 21.8781 21.4541L23.1242 19.6953L21.7989 15.8061C21.7531 15.6709 21.8529 15.5305 21.9967 15.5305H23.179C23.3326 15.5305 23.4681 15.6313 23.5124 15.7784L24.2157 18.1273L25.8752 15.6829C25.9402 15.5875 26.0481 15.5305 26.1629 15.5305Z" fill="white"/>
<path fill-rule="evenodd" clip-rule="evenodd" d="M39.208 19.9217L40.2341 13.3931C40.2499 13.2917 40.3377 13.2171 40.4397 13.2168H41.5949C41.7224 13.2168 41.8204 13.3312 41.8003 13.4577L40.7884 19.8687C40.762 20.0379 40.6165 20.1623 40.4451 20.1623H39.4134C39.2859 20.1623 39.1879 20.0482 39.208 19.9217ZM31.3497 13.2171H28.849C28.6783 13.2171 28.5328 13.3415 28.506 13.5103L27.4948 19.9217C27.4747 20.0482 27.5726 20.1623 27.7004 20.1623H28.9835C29.1027 20.1623 29.2048 20.0753 29.2234 19.9569L29.5103 18.1395C29.5367 17.9702 29.6825 17.846 29.8532 17.846H30.6443C32.2917 17.846 33.242 17.049 33.4905 15.4696C33.6027 14.7787 33.4949 14.2358 33.1714 13.8555C32.8163 13.4381 32.1864 13.2171 31.3497 13.2171ZM31.6381 15.5588C31.5017 16.456 30.8162 16.456 30.153 16.456H29.7761L30.0412 14.7804C30.0569 14.6792 30.1439 14.6046 30.2466 14.6046H30.4195C30.8707 14.6046 31.297 14.6046 31.517 14.8619C31.6483 15.0155 31.6882 15.2436 31.6381 15.5588ZM38.8228 15.53H37.6263C37.5235 15.53 37.4362 15.6046 37.4208 15.706L37.3678 16.0408L37.2837 15.9195C37.0246 15.5432 36.447 15.4175 35.8701 15.4175C34.5469 15.4175 33.4172 16.4196 33.1971 17.8253C33.0831 18.5264 33.245 19.1969 33.6428 19.6645C34.0084 20.0944 34.5298 20.2736 35.1509 20.2736C36.2169 20.2736 36.808 19.5881 36.808 19.5881L36.7547 19.9208C36.7346 20.0481 36.8325 20.1621 36.9609 20.1621H38.039C38.2097 20.1621 38.3552 20.0377 38.3819 19.8686L39.0294 15.7706C39.0492 15.6446 38.9512 15.53 38.8228 15.53ZM37.154 17.8604C37.0391 18.5444 36.4955 19.0035 35.8031 19.0035C35.4561 19.0035 35.1776 18.892 34.9991 18.6807C34.8221 18.4709 34.7556 18.1722 34.8113 17.8396C34.9198 17.1613 35.4711 16.6872 36.1529 16.6872C36.493 16.6872 36.7693 16.8001 36.9515 17.0133C37.1345 17.2286 37.2069 17.5291 37.154 17.8604Z" fill="#179BD7"/>
</svg>
