<svg width="52" height="35" viewBox="0 0 52 35" fill="none" xmlns="http://www.w3.org/2000/svg">
<rect x="0.251953" width="51.0417" height="35" fill="#862165"/>
<path fill-rule="evenodd" clip-rule="evenodd" d="M33.7318 11.4189C32.9066 11.4189 32.2363 12.0857 32.2363 12.9077C32.2363 13.7301 32.9066 14.3954 33.7318 14.3954C34.5586 14.3954 35.2283 13.7301 35.2283 12.9077C35.2283 12.0857 34.5586 11.4189 33.7318 11.4189ZM12.1573 16.4068C11.7738 16.3821 10.8854 16.3246 10.8854 15.5292C10.8854 14.5695 12.1636 14.5695 12.6434 14.5695C13.4871 14.5695 14.5787 14.817 15.3593 15.0496C15.3593 15.0496 15.7938 15.2024 16.1637 15.3581L16.1982 15.3677V12.7389L16.152 12.7249C15.2305 12.4043 14.1607 12.0964 12.1763 12.0964C8.75512 12.0964 7.54297 14.0782 7.54297 15.7778C7.54297 16.7564 7.96484 19.0617 11.8817 19.3272L11.8854 19.3274C12.221 19.3479 13.0963 19.4012 13.0963 20.2202C13.0963 20.899 12.3746 21.2984 11.161 21.2984C9.83119 21.2984 8.5403 20.9619 7.75682 20.6413V23.348C8.93009 23.655 10.2531 23.8068 11.8035 23.8068C15.1474 23.8068 16.6463 21.9313 16.6463 20.0718C16.6463 17.9642 14.97 16.5944 12.1573 16.4068ZM22.255 15.2385L22.2704 15.1985H25.8525C25.7504 15.523 25.1113 17.4807 23.6542 19.319C23.6542 19.319 25.277 22.148 25.6479 23.6826H21.8972C21.8972 23.6826 21.4491 21.6451 20.5421 20.2913V23.6826H17.4102V12.7128L20.5421 12.0964V18.1489C21.6519 16.8136 22.1464 15.5222 22.255 15.2385ZM40.9668 23.6826V12.6364L44.002 12.0964V23.6826H40.9668ZM30.5019 15.0839C27.698 15.1738 26.2734 16.4261 26.2734 18.9152V23.6826H29.3335V19.7942C29.3335 18.3045 29.5298 17.6658 31.3072 17.6049V15.1279C31.0083 15.0646 30.5019 15.0839 30.5019 15.0839ZM32.2147 23.6826V15.2082H35.2495V23.6826H32.2147ZM36.5352 12.6364L39.5685 12.0964V23.6826H36.5352V12.6364Z" fill="white"/>
</svg>
