<svg width="52" height="35" viewBox="0 0 52 35" fill="none" xmlns="http://www.w3.org/2000/svg">
<rect x="0.167969" width="51.0417" height="35" fill="#6461FC"/>
<path fill-rule="evenodd" clip-rule="evenodd" d="M27.5929 11.8741L25 12.4305V10.3284L27.5929 9.78223V11.8741ZM17.0563 10.9775L14.5358 11.5134L14.5254 19.7674C14.5254 21.2925 15.6721 22.4157 17.2009 22.4157C18.0479 22.4157 18.6677 22.2611 19.0086 22.0756V19.9838C18.6781 20.1177 17.0459 20.5918 17.0459 19.0667V15.4085H19.0086V13.2136H17.0459L17.0563 10.9775ZM10.9505 15.2746C10.403 15.2746 10.0725 15.4292 10.0725 15.8311C10.0725 16.2699 10.6413 16.4629 11.3471 16.7023C12.4977 17.0927 14.0121 17.6065 14.0185 19.5098C14.0185 21.3544 12.5413 22.4157 10.3927 22.4157C9.50431 22.4157 8.5333 22.2406 7.57261 21.8284V19.3759C8.44033 19.8499 9.5353 20.2002 10.3927 20.2002C10.9712 20.2002 11.3844 20.0457 11.3844 19.5716C11.3844 19.0856 10.7677 18.8634 10.0231 18.5952C8.8893 18.1868 7.45898 17.6715 7.45898 15.9547C7.45898 14.1308 8.85352 13.0385 10.9505 13.0385C11.8079 13.0385 12.6549 13.1725 13.5123 13.5125V15.9341C12.7272 15.5116 11.7356 15.2746 10.9505 15.2746ZM22.2208 13.9762L22.0555 13.2137H19.8243V22.2302H22.4067V16.1196C23.0162 15.3261 24.0492 15.4704 24.3694 15.5838V13.2137C24.0389 13.09 22.8303 12.8633 22.2208 13.9762ZM24.9981 13.2137H27.5909V22.2302H24.9981V13.2137ZM44.6458 17.758C44.6458 15.12 43.3649 13.0385 40.9168 13.0385C38.4583 13.0385 36.9707 15.12 36.9707 17.7374C36.9707 20.8391 38.7268 22.4054 41.2473 22.4054C42.4766 22.4054 43.4063 22.1272 44.1087 21.7356V19.6747C43.4063 20.0251 42.6005 20.2415 41.5779 20.2415C40.5759 20.2415 39.6875 19.8911 39.5739 18.6751H44.6252C44.6252 18.6184 44.6289 18.4893 44.6332 18.3407C44.639 18.1387 44.6458 17.9005 44.6458 17.758ZM39.5428 16.7791C39.5428 15.6147 40.2556 15.1304 40.9064 15.1304C41.5365 15.1304 42.2079 15.6147 42.2079 16.7791H39.5428ZM30.9596 13.8423C31.3212 13.5125 31.972 13.0385 32.9843 13.0385C34.792 13.0385 36.4965 14.6666 36.5068 17.655C36.5068 20.9216 34.823 22.4054 32.974 22.4054C32.0649 22.4054 31.5175 22.0242 31.1456 21.7562L31.1353 24.6725L28.5528 25.2186V13.2034H30.8254L30.9596 13.8423ZM31.1451 19.654C31.3931 19.922 31.7546 20.1384 32.3641 20.1384C33.3144 20.1384 33.9549 19.1079 33.9549 17.7271C33.9549 16.3772 33.3041 15.3261 32.3641 15.3261C31.7753 15.3261 31.4034 15.5322 31.1348 15.831L31.1451 19.654Z" fill="white"/>
</svg>
