<svg width="52" height="35" viewBox="0 0 52 35" fill="none" xmlns="http://www.w3.org/2000/svg">
<rect width="51.0417" height="35" fill="#00579F"/>
<path d="M21.8372 23.4545H18.9512L20.7563 12.293H23.6422L21.8372 23.4545Z" fill="white"/>
<path d="M32.2979 12.565C31.7286 12.3392 30.8258 12.0898 29.7093 12.0898C26.8593 12.0898 24.8523 13.6096 24.84 15.7825C24.8164 17.3856 26.277 18.276 27.3694 18.8105C28.4859 19.3567 28.8655 19.7132 28.8655 20.2001C28.8541 20.9478 27.9633 21.2925 27.1323 21.2925C25.9801 21.2925 25.3627 21.1148 24.4245 20.6988L24.0445 20.5205L23.6406 23.026C24.3175 23.3344 25.5646 23.608 26.8593 23.62C29.8875 23.62 31.859 22.1237 31.8823 19.8082C31.8939 18.5376 31.1226 17.5641 29.4598 16.7685C28.4504 16.2578 27.8323 15.9135 27.8323 15.3909C27.8441 14.9159 28.3551 14.4293 29.4946 14.4293C30.4328 14.4055 31.1221 14.631 31.6444 14.8567L31.9054 14.9752L32.2979 12.565Z" fill="white"/>
<path d="M36.1351 19.5003C36.3727 18.8591 37.2873 16.3774 37.2873 16.3774C37.2753 16.4013 37.5245 15.7244 37.667 15.3089L37.8687 16.2706C37.8687 16.2706 38.4152 18.9423 38.5339 19.5003C38.0828 19.5003 36.7051 19.5003 36.1351 19.5003ZM39.6975 12.293H37.4651C36.7767 12.293 36.2537 12.4947 35.9567 13.219L31.6699 23.4543H34.6981C34.6981 23.4543 35.1967 22.0767 35.3038 21.78C35.636 21.78 38.5819 21.78 39.0092 21.78C39.0921 22.1719 39.3536 23.4543 39.3536 23.4543H42.0258L39.6975 12.293V12.293Z" fill="white"/>
<path d="M16.5413 12.293L13.715 19.904L13.4061 18.3604C12.8836 16.5793 11.2448 14.6441 9.41602 13.6819L12.0049 23.4426H15.0567L19.593 12.293H16.5413V12.293Z" fill="white"/>
<path d="M11.0893 12.293H6.44594L6.39844 12.5185C10.0205 13.4447 12.4193 15.6774 13.4049 18.3609L12.3955 13.2312C12.2293 12.5183 11.7186 12.3165 11.0893 12.293Z" fill="#FAA61A"/>
</svg>
