<svg width="35" height="21" viewBox="0 0 35 21" fill="none" xmlns="http://www.w3.org/2000/svg">
<path fill-rule="evenodd" clip-rule="evenodd" d="M1.3292 20.687H1.22194C1.22194 20.6351 1.19508 20.557 1.19508 20.5308C1.19508 20.5049 1.19508 20.453 1.11449 20.453H0.953309V20.687H0.87272V20.1406H1.11449C1.22194 20.1406 1.30233 20.1668 1.30233 20.2706C1.30233 20.3487 1.27547 20.3749 1.2488 20.4006C1.27566 20.4268 1.30233 20.4528 1.30233 20.5049V20.6089C1.30233 20.6351 1.30233 20.6351 1.3292 20.6351V20.687ZM1.22194 20.2968C1.22194 20.2187 1.16821 20.2187 1.14135 20.2187H0.953309V20.3749H1.11449C1.16821 20.3749 1.22194 20.3487 1.22194 20.2968ZM1.67841 20.4008C1.67841 20.0887 1.40998 19.8282 1.06076 19.8282C0.7386 19.8282 0.469971 20.0887 0.469971 20.4008C0.469971 20.739 0.7386 20.9996 1.06076 20.9996C1.40978 20.9994 1.67841 20.739 1.67841 20.4008ZM1.59783 20.4008C1.59783 20.6872 1.35625 20.8952 1.06076 20.8952C0.765269 20.8952 0.55056 20.687 0.55056 20.4008C0.55056 20.1406 0.765463 19.9063 1.06076 19.9063C1.35606 19.9063 1.59783 20.1406 1.59783 20.4008ZM34.6809 14.4685C34.6809 15.2493 34.1707 15.6133 33.2576 15.6133H31.5125V14.8324H33.2576C33.4188 14.8324 33.5531 14.8066 33.607 14.7547C33.6605 14.7024 33.7142 14.6243 33.7142 14.5204C33.7142 14.4161 33.6607 14.3121 33.607 14.2602C33.5531 14.208 33.4458 14.1821 33.2846 14.1821C32.4525 14.1559 31.405 14.208 31.405 13.063C31.405 12.5423 31.754 11.9697 32.6938 11.9697H34.4929V12.7506H32.828C32.6672 12.7506 32.5595 12.7506 32.4789 12.8025C32.3983 12.8806 32.3448 12.9587 32.3448 13.0889C32.3448 13.219 32.4254 13.2971 32.5327 13.3494C32.6403 13.3752 32.7478 13.4013 32.8821 13.4013H33.3652C33.8754 13.4013 34.1978 13.5052 34.4127 13.6876C34.5735 13.8697 34.6809 14.1042 34.6809 14.4685ZM30.8946 13.6876C30.6797 13.5052 30.3573 13.4013 29.8471 13.4013H29.364C29.2299 13.4013 29.1222 13.375 29.015 13.3494C28.9073 13.2971 28.8271 13.219 28.8271 13.0889C28.8271 12.9587 28.8538 12.8806 28.9613 12.8025C29.0418 12.7506 29.1491 12.7506 29.3103 12.7506H30.9752V11.9697H29.1762C28.2093 11.9697 27.8869 12.5423 27.8869 13.063C27.8869 14.2078 28.9344 14.1559 29.7669 14.1821C29.9277 14.1821 30.0354 14.208 30.0889 14.2602C30.1424 14.3121 30.1966 14.4161 30.1966 14.5204C30.1966 14.6243 30.1426 14.7024 30.0889 14.7547C30.0083 14.8066 29.9011 14.8324 29.7399 14.8324H27.9944V15.6133H29.7399C30.6526 15.6133 31.163 15.2492 31.163 14.4685C31.163 14.1042 31.0558 13.8697 30.8946 13.6876ZM27.4573 14.8588H25.3363V14.13H27.4038V13.4016H25.3363V12.7247H27.4573V11.9701H24.45V15.6135H27.4573V14.8588ZM23.4832 12.1524C23.1877 11.9962 22.8386 11.9699 22.3822 11.9699H20.3147V15.6133H21.2274V14.2861H22.1943C22.5163 14.2861 22.7045 14.3123 22.8388 14.4423C23 14.6243 23 14.9367 23 15.1711V15.6133H23.8859V14.9105C23.8859 14.5723 23.8592 14.4161 23.7518 14.234C23.6712 14.1297 23.5104 13.9997 23.2955 13.9216C23.5369 13.8439 23.94 13.5314 23.94 12.9587C23.9398 12.5425 23.7787 12.3082 23.4832 12.1524ZM18.3811 11.9699H15.5078L14.3531 13.1671L13.2521 11.9699H9.62693V15.6133H13.1985L14.3533 14.416L15.4542 15.6133H17.1998V14.3904H18.3276C19.1062 14.3904 19.8853 14.1821 19.8853 13.1671C19.8851 12.1782 19.0794 11.9699 18.3811 11.9699ZM22.7581 13.4796C22.6239 13.5314 22.4896 13.5314 22.3284 13.5314L21.2274 13.5577V12.7246H22.3284C22.4896 12.7246 22.6508 12.7246 22.7581 12.8027C22.8657 12.8549 22.9459 12.9589 22.9459 13.1151C22.9459 13.2713 22.8657 13.4015 22.7581 13.4796ZM18.3811 13.6616H17.1996V12.7246H18.3811C18.7035 12.7246 18.9182 12.8549 18.9182 13.1671C18.9182 13.4796 18.7033 13.6616 18.3811 13.6616ZM14.917 13.7916L16.3133 12.3605V15.3012L14.917 13.7916ZM12.7419 14.8588H10.513V14.13H12.5001V13.4016H10.513V12.7247H12.7687L13.7623 13.7918L12.7419 14.8588ZM32.1834 9.34139H30.8946L29.2028 6.6087V9.34139H27.3771L27.0277 8.5345H25.1481L24.7991 9.34139H23.7516C23.322 9.34139 22.7581 9.23725 22.4361 8.92483C22.1406 8.61261 21.9794 8.19624 21.9794 7.54557C21.9794 6.99903 22.06 6.50456 22.4626 6.11423C22.731 5.82785 23.2145 5.69787 23.832 5.69787H24.6912V6.47871H23.832C23.51 6.47871 23.3218 6.53079 23.1339 6.68699C22.9728 6.8432 22.8922 7.12939 22.8922 7.51972C22.8922 7.91005 22.9728 8.19643 23.1339 8.37867C23.2681 8.50866 23.51 8.56073 23.7514 8.56073H24.1543L25.4432 5.69806H26.7859L28.2897 9.1333V5.69787H29.6862L31.2705 8.22228V5.69787H32.1833L32.1834 9.34139ZM21.5229 5.69787H20.6102V9.34139H21.5229V5.69787ZM19.6163 5.85407C19.3208 5.69787 18.9988 5.69787 18.5423 5.69787H16.4745V9.34139H17.3605V8.014H18.3272C18.6496 8.014 18.8645 8.04004 18.9986 8.17021C19.1598 8.35245 19.1327 8.66486 19.1327 8.87295V9.34139H20.0455V8.61261C20.0455 8.30038 20.0188 8.14417 19.8847 7.96193C19.8041 7.85779 19.6429 7.72762 19.4551 7.6497C19.6965 7.54557 20.0996 7.25938 20.0996 6.6868C20.0998 6.27044 19.9116 6.03613 19.6163 5.85407ZM15.8299 8.58676H13.7354V7.85798H15.8031V7.10336H13.7354V6.45268H15.8299V5.69806H12.8225V9.34157H15.8299V8.58676ZM12.1511 5.69787H10.6742L9.5732 8.17021L8.39162 5.69787H6.94161V9.13311L5.411 5.69787H4.06844L2.45725 9.34139H3.42392L3.77295 8.5345H5.65258L6.0016 9.34139H7.8277V6.47871L9.1434 9.34139H9.92203L11.2379 6.47871V9.34139H12.1509L12.1511 5.69787ZM26.7057 7.75384L26.0879 6.32251L25.4704 7.75384H26.7057ZM18.9182 7.18146C18.7841 7.25956 18.6498 7.25956 18.4617 7.25956H17.3605V6.45287H18.4615C18.6227 6.45287 18.8104 6.45287 18.918 6.50494C19.0253 6.58304 19.0792 6.68718 19.0792 6.8432C19.0792 6.99922 19.0255 7.1292 18.9182 7.18146ZM4.09511 7.75384L4.71276 6.32251L5.33041 7.75384H4.09511ZM34.4127 0H2.37666L2.43019 7.38955L3.53118 4.96928H5.86728L6.18964 5.56788V4.96928H8.92869L9.54634 6.27044L10.1371 4.96928H18.8645C19.267 4.96928 19.6161 5.04738 19.8849 5.25547V4.96928H22.2747V5.25547C22.6773 5.04719 23.1875 4.96928 23.7785 4.96928H27.2424L27.5648 5.56788V4.96928H30.1158L30.4919 5.56788V4.96928H32.9889V10.0702H30.465L29.9819 9.28951V10.0702H26.8399L26.4908 9.23744H25.7118L25.3628 10.0702H23.7249C23.0804 10.0702 22.5969 9.91396 22.2749 9.75794V10.0702H18.3811V8.89899C18.3811 8.74278 18.3543 8.71674 18.2468 8.71674H18.1127V10.07H10.5936V9.4193L10.3252 10.07H8.74084L8.47241 9.44534V10.07H5.43787L5.11571 9.23725H4.33687L3.98785 10.07H2.43019V20.2359H34.4662V16.1077C34.1172 16.2639 33.6337 16.342 33.1503 16.342H30.814V16.0296C30.5456 16.2381 30.0621 16.342 29.6058 16.342H22.2479V15.1711C22.2479 15.0148 22.2212 15.0148 22.0867 15.0148H21.9526V16.342H19.5357V14.9628C19.1331 15.1448 18.6764 15.1448 18.2737 15.1448H18.0051V16.342H15.0513L14.3533 15.5612L13.5746 16.342H8.82124V11.2413H13.6548L14.3531 12.0218L15.105 11.2413H18.3543C18.73 11.2413 19.3478 11.2932 19.6163 11.5534V11.2413H22.5163C22.8118 11.2413 23.3759 11.2932 23.7516 11.5534V11.2413H28.1287V11.5536C28.3705 11.3453 28.8271 11.2415 29.2297 11.2415H31.6732V11.5536C31.9421 11.3715 32.3178 11.2415 32.8013 11.2415H34.4662L34.4127 0Z" fill="#0077A6"/>
</svg>
