<svg width="1920" height="211" viewBox="0 0 1920 211" fill="none" xmlns="http://www.w3.org/2000/svg">
<g opacity="0.2">
<path fill-rule="evenodd" clip-rule="evenodd" d="M1487 1.5024C1487 2.5824 1488.11 3 1491 3C1493.89 3 1495 2.5824 1495 1.5024C1495 0.4176 1493.89 0 1491 0C1488.11 0 1487 0.4176 1487 1.5024ZM1502 1.5024C1502 2.6112 1503.17 3 1506.5 3C1509.84 3 1511 2.6112 1511 1.5024C1511 0.3888 1509.84 0 1506.5 0C1503.17 0 1502 0.3888 1502 1.5024ZM1519 1.44C1519 2.5968 1520.05 3 1523.08 3C1528.29 3 1527.95 0.6336 1522.67 0.192C1519.88 -0.048 1519 0.2544 1519 1.44ZM1458.25 1.7232C1455.09 2.1168 1453.44 5.0016 1456.37 5.0016C1460.34 5.0016 1463.82 3.6912 1463.32 2.3904C1463.03 1.6272 1462.5 1.0704 1462.14 1.1616C1461.79 1.248 1460.04 1.5024 1458.25 1.7232ZM1470.64 2.5008C1471.44 4.5936 1479 4.5936 1479 2.5008C1479 1.392 1477.84 0.9984 1474.53 0.9984C1470.97 0.9984 1470.18 1.3056 1470.64 2.5008ZM1534 2.5008C1534 3.6096 1535.16 3.9984 1538.5 3.9984C1541.83 3.9984 1543 3.6096 1543 2.5008C1543 1.3872 1541.83 0.9984 1538.5 0.9984C1535.16 0.9984 1534 1.3872 1534 2.5008ZM1442.3 2.8032C1439.13 3.0336 1438.24 3.4608 1438.66 4.5552C1439.23 6.048 1443.2 6.3744 1446.21 5.1792C1449.18 4.0032 1446.68 2.4864 1442.3 2.8032ZM1550.25 3.2496C1550.89 5.2128 1559 5.496 1559 3.5568C1559 2.376 1557.9 2.0016 1554.42 2.0016C1551.2 2.0016 1549.95 2.3712 1550.25 3.2496ZM1566 4.5024C1566 5.6112 1567.17 6 1570.5 6C1573.83 6 1575 5.6112 1575 4.5024C1575 3.3888 1573.83 3 1570.5 3C1567.17 3 1566 3.3888 1566 4.5024ZM1424.75 4.6896C1420.74 5.736 1422.88 8.04 1427.25 7.3728C1432.19 6.6144 1432.42 6.4896 1431.54 5.0688C1430.88 3.9936 1428.01 3.8352 1424.75 4.6896ZM1582 5.2656C1582 6.8208 1584.84 7.9632 1588.75 7.9872C1590.09 7.9968 1591 7.392 1591 6.4992C1591 5.616 1590.08 4.9968 1588.75 4.9872C1587.51 4.9776 1585.49 4.6992 1584.25 4.368C1582.65 3.9408 1582 4.2 1582 5.2656ZM1410.58 6.8688C1406.96 7.6512 1405.9 10.0032 1409.16 9.984C1413.06 9.9648 1416 8.8464 1416 7.3824C1416 5.9232 1415.28 5.8512 1410.58 6.8688ZM1598 7.2672C1598 8.8176 1600.84 9.9648 1604.75 9.984C1606.09 9.9936 1607 9.3936 1607 8.5008C1607 7.6128 1606.08 6.9936 1604.75 6.984C1603.51 6.9792 1601.49 6.7008 1600.25 6.3696C1598.65 5.9424 1598 6.1968 1598 7.2672ZM1395.75 10.2864C1390.87 11.4768 1390.39 14.5008 1395.25 13.464C1399.66 12.5232 1401.04 11.6688 1400.2 10.4208C1399.74 9.7248 1398.24 9.6768 1395.75 10.2864ZM1614.25 10.248C1614.76 11.7936 1621.85 13.0512 1622.66 11.736C1623.54 10.3152 1620.96 9.0336 1617.17 9.0144C1614.95 9.0048 1613.97 9.4176 1614.25 10.248ZM1630 12.4128C1630 13.2912 1631.19 14.2224 1632.75 14.5632C1634.26 14.8944 1636.03 15.3264 1636.67 15.5184C1637.31 15.7152 1638.08 15.2304 1638.38 14.448C1638.75 13.4928 1638.03 12.8208 1636.21 12.4176C1634.72 12.0864 1632.71 11.6016 1631.75 11.3376C1630.63 11.0352 1630 11.424 1630 12.4128ZM1916.97 12.5424C1916.05 13.6368 1916 14.3952 1916.76 15.1536C1918.19 16.5888 1920 15.3504 1920 12.9408C1920 10.6032 1918.71 10.4352 1916.97 12.5424ZM1380.5 14.424C1376.04 15.696 1375.94 17.5872 1380.36 17.3424C1383.42 17.1696 1385.45 15.768 1384.86 14.232C1384.64 13.6608 1382.93 13.7328 1380.5 14.424ZM1645.55 14.784C1644.29 16.0464 1645.21 16.968 1648.75 17.9472C1653.6 19.296 1654 19.2672 1654 17.6208C1654 16.2384 1646.58 13.7472 1645.55 14.784ZM1365.25 19.584C1362.7 20.6976 1360.55 24 1362.38 24C1364.33 24 1370 20.6448 1370 19.488C1370 17.7168 1369.5 17.7264 1365.25 19.584ZM1661 19.3776C1661 20.76 1668.42 23.2512 1669.45 22.2144C1670.71 20.952 1669.79 20.0352 1666.25 19.0512C1661.4 17.7072 1661 17.7312 1661 19.3776ZM1907.58 22.92C1903.79 26.8752 1905.19 29.1504 1909.11 25.3968C1911.86 22.7568 1912.92 20.0016 1911.19 20.0016C1910.74 20.0016 1909.11 21.312 1907.58 22.92ZM1676.67 22.6656C1675.39 23.9472 1676.02 24.7536 1678.75 25.3056C1680.26 25.608 1682.29 26.1648 1683.25 26.5392C1684.44 27 1685 26.7312 1685 25.704C1685 23.6544 1678.17 21.1632 1676.67 22.6656ZM1350.25 25.7472C1347.05 27.3408 1346.28 28.4448 1347.75 29.3376C1348.99 30.0912 1356.11 26.8368 1355.73 25.6896C1355.16 24 1353.74 24.0144 1350.25 25.7472ZM1692 27.3552C1692 29.3328 1698.78 31.6224 1700.26 30.144C1701.01 29.3856 1700.63 28.8144 1698.91 28.1712C1693.01 25.9584 1692 25.8384 1692 27.3552ZM1335.75 32.5728C1333.47 33.8064 1331.83 36.9984 1333.46 36.9984C1335.19 36.9984 1341 33.3888 1341 32.3136C1341 30.6144 1339.19 30.7056 1335.75 32.5728ZM1707 32.424C1707 34.3632 1713.81 36.5952 1715.27 35.1312C1716.05 34.3488 1715.33 33.6192 1712.71 32.5248C1708.18 30.6288 1707 30.6096 1707 32.424ZM1896.53 35.1456C1894.59 37.4544 1894.18 38.5824 1895.01 39.3936C1896.21 40.5888 1902.28 34.2576 1901.36 32.7648C1900.48 31.3488 1899.19 31.9824 1896.53 35.1456ZM1722 37.392C1722 38.832 1728.92 42.144 1730.25 41.3376C1731.88 40.3488 1730.82 39.144 1726.98 37.608C1722.1 35.6544 1722 35.6496 1722 37.392ZM1322.25 39.9888C1319.08 41.9184 1317.94 44.0016 1320.05 44.0016C1322.22 44.0016 1327 40.8912 1327 39.4752C1327 37.5264 1326.14 37.6176 1322.25 39.9888ZM1737 43.3488C1737 45.2688 1744.7 48.216 1745.35 46.536C1745.62 45.8304 1744.33 44.5776 1742.38 43.6416C1738.19 41.6496 1737 41.5824 1737 43.3488ZM1886.41 47.5296C1882.78 52.296 1884.54 54.5232 1888.36 49.9824C1891.19 46.6272 1891.55 45.456 1890.07 44.5392C1889.55 44.2224 1887.91 45.5664 1886.41 47.5296ZM1308.3 48.1488C1306.34 49.3584 1305.32 50.6688 1305.65 51.5328C1306.28 53.1792 1314.23 49.248 1313.68 47.5632C1313.16 45.9408 1311.6 46.1088 1308.3 48.1488ZM1752 49.488C1752 50.6448 1757.67 54 1759.62 54C1761.45 54 1759.27 51.0192 1756.46 49.6848C1752.16 47.6304 1752 47.6256 1752 49.488ZM1296.5 55.5984C1295.4 56.4432 1293.83 57.528 1293 58.008C1291.85 58.6704 1291.78 59.1552 1292.67 60.0624C1294.09 61.4928 1300 57.7584 1300 55.4304C1300 53.616 1299.02 53.6592 1296.5 55.5984ZM1766.46 56.0688C1765.63 57.3984 1765.7 57.4608 1770.23 59.3328C1773.31 60.6096 1776.57 60.0672 1774.85 58.56C1772.13 56.1792 1767.28 54.7392 1766.46 56.0688ZM1876.98 60.5328C1874.4 64.704 1875.37 67.4304 1878.17 63.888C1881.59 59.568 1882.08 58.248 1880.53 57.6528C1879.63 57.3072 1878.31 58.3776 1876.98 60.5328ZM1780.46 63.0672C1779.67 64.3392 1779.65 64.3104 1783.7 66.3744C1787.58 68.3424 1789 68.4288 1789 66.6864C1789 64.4544 1781.55 61.3008 1780.46 63.0672ZM1282.48 65.0112C1279.51 66.9648 1278.6 48.0672 1280.5 48.6288C1281.05 48.792 1282.84 68.8272 1284.48 67.4928C1288.43 64.2672 1286.76 62.2032 1282.48 65.0112ZM1794.56 70.9008C1793.87 72.0288 1800.81 76.2336 1802.08 75.4512C1803.64 74.4864 1803.11 73.5696 1799.91 71.7504C1796.44 69.7728 1795.36 69.6048 1794.56 70.9008ZM1868.07 73.9056C1865.7 77.2272 1865.43 78.9984 1867.29 78.9984C1868.61 78.9984 1872 74.0352 1872 72.096C1872 70.1088 1870.17 70.9536 1868.07 73.9056ZM1269.48 53.0112C1266.51 54.9648 1265.61 57.0672 1267.5 57.6288C1268.05 57.792 1269.84 56.8272 1271.48 55.4928C1275.43 52.2672 1273.76 50.2032 1269.48 53.0112ZM1808.46 79.0656C1808.1 79.6512 1807.96 80.2512 1808.15 80.3952C1812.37 83.5248 1815.84 84.8736 1816.33 83.5776C1817.19 81.3504 1809.7 77.0592 1808.46 79.0656ZM1256.23 62.2656C1253.18 64.4016 1252.55 66.0576 1254.56 66.648C1255.08 66.8016 1256.84 65.8272 1258.48 64.4928C1262.62 61.1088 1260.66 59.1696 1256.23 62.2656ZM1859.63 88.6464C1857.23 93.6768 1859.08 95.2176 1861.86 90.5088C1864.33 86.3232 1864.53 84.9984 1862.68 84.9984C1861.96 84.9984 1860.59 86.64 1859.63 88.6464ZM1821.59 87.8592C1821.29 88.3344 1822.71 89.8992 1824.73 91.3344C1829.3 94.5888 1831.48 92.7936 1827.21 89.2896C1824.33 86.9328 1822.45 86.4528 1821.59 87.8592ZM1243.23 71.2656C1240.17 73.4064 1239.56 75.024 1241.56 75.6816C1242.08 75.8496 1243.85 74.8992 1245.5 73.5696C1249.71 70.1712 1247.71 68.136 1243.23 71.2656ZM1834.54 96.936C1833.63 98.4096 1840.89 103.512 1842.13 102.269C1842.85 101.554 1842.11 100.426 1839.74 98.616C1835.97 95.7408 1835.4 95.5536 1834.54 96.936ZM1230.25 80.1168C1227.01 82.1904 1226.29 83.4432 1227.79 84.3744C1229.01 85.1232 1235 80.9904 1235 79.4016C1235 77.5152 1234.09 77.6544 1230.25 80.1168ZM1852.63 102.96C1851.64 105.442 1850.5 106.742 1849.41 106.646C1846.53 106.397 1846.82 108.494 1850.01 110.846C1853.56 113.472 1856.03 112.79 1853.41 109.901C1852.46 108.854 1852.13 108 1852.66 108C1853.44 108 1857 101.914 1857 100.574C1857 98.1504 1853.88 99.8592 1852.63 102.96ZM399.749 79.6896C396.36 80.5776 398.054 81.9984 402.499 81.9984C405.835 81.9984 407.002 81.6096 407.002 80.5008C407.002 79.0128 403.733 78.648 399.749 79.6896ZM414.998 80.5968C414.998 81.576 419.222 83.0016 422.126 83.0016C425.213 83.0016 422.405 80.1552 419.002 79.8288C416.429 79.584 414.998 79.8576 414.998 80.5968ZM382.666 80.6688C381.077 82.2576 382.301 83.0016 386.501 83.0016C389.832 83.0016 390.998 82.6128 390.998 81.4992C390.998 79.9536 384.072 79.2624 382.666 80.6688ZM430.502 81C429.538 82.5552 429.955 82.8096 434.789 83.5824C438.288 84.144 438.998 83.9808 438.998 82.6272C438.998 81.5712 438.149 81 436.584 81C435.25 81 433.498 80.7456 432.682 80.4336C431.87 80.1216 430.886 80.376 430.502 81ZM369.25 81.7248C367.277 81.9696 366 82.6896 366 83.5632C366 85.1472 367.195 85.3104 371.875 84.3744C374.779 83.7936 376.522 80.8032 373.752 81.1584C373.061 81.2496 371.035 81.4992 369.25 81.7248ZM446.002 83.5008C446.002 84.3264 446.621 84.9984 447.374 84.9984C448.133 84.9984 450.158 85.2816 451.877 85.6272C454.262 86.1024 455.002 85.896 455.002 84.7488C455.002 83.8704 453.71 82.992 451.877 82.6272C447.158 81.6816 446.002 81.8544 446.002 83.5008ZM353.251 83.7216C351.278 83.9664 350.002 84.6912 350.002 85.5648C350.002 87.072 352.858 87.4128 356.75 86.3712C359.074 85.7472 359.971 82.8768 357.749 83.16C357.062 83.2464 355.037 83.5008 353.251 83.7216ZM462 85.3392C462 86.8272 464.894 87.9648 468.749 87.984C470.904 87.9984 471.826 86.5872 470.251 85.6896C467.731 84.2544 462 84.0096 462 85.3392ZM335.251 86.664C332.4 87.8112 333.974 89.9568 337.248 89.3904C342.058 88.56 342.998 88.1712 342.998 87.0336C342.998 85.9872 337.56 85.7328 335.251 86.664ZM477.667 88.4208C477.302 89.376 477.59 90 478.406 90C479.146 90 481.157 90.2832 482.875 90.624C485.347 91.1184 486 90.912 486 89.6256C486 88.7328 485.213 87.9936 484.248 87.984C483.288 87.9792 481.55 87.7152 480.389 87.408C478.997 87.0336 478.07 87.3792 477.667 88.4208ZM1216.75 88.7568C1214.12 90.3888 1212.99 93 1214.92 93C1216.74 93 1221.99 89.472 1221.99 88.248C1222 86.5344 1220.03 86.7264 1216.75 88.7568ZM324.499 88.4928C323.952 88.6752 322.262 89.0976 320.75 89.4336C319.238 89.7648 318 90.7152 318 91.536C318 92.6544 318.701 92.88 320.75 92.424C326.242 91.2048 327 90.84 327 89.4336C327 88.0224 326.482 87.8304 324.499 88.4928ZM492.998 91.3392C492.998 92.8272 495.893 93.9648 499.752 93.984C501.902 93.9984 502.824 92.5872 501.25 91.6896C498.73 90.2544 492.998 90.0096 492.998 91.3392ZM303.749 92.688C301.718 93.2208 301.43 94.8528 303.25 95.5248C305.078 96.2064 310.306 94.584 310.766 93.1968C311.165 92.0016 307.416 91.7328 303.749 92.688ZM509.002 94.5792C509.002 97.0752 516.413 98.9712 517.286 96.7008C517.666 95.7024 516.547 95.0064 513.413 94.2864C509.938 93.4944 509.002 93.552 509.002 94.5792ZM1846.61 118.627C1845.21 122.746 1845.22 123.106 1846.69 122.818C1848.95 122.371 1851.36 115.349 1849.49 114.638C1848.6 114.293 1847.64 115.622 1846.61 118.627ZM289.114 96.1536C284.347 97.5264 286.531 99.4224 291.845 98.5248C294.763 98.0352 295.728 97.4496 295.33 96.4224C294.715 94.8144 293.899 94.776 289.114 96.1536ZM1203.25 97.1184C1200.01 99.1872 1199.44 100.104 1200.62 101.29C1201.49 102.158 1209.05 97.7184 1208.68 96.5616C1208.12 94.8528 1206.54 95.0112 1203.25 97.1184ZM1859 118.43C1859 119.717 1863.93 123.998 1865.4 123.998C1866.82 123.998 1865.81 121.171 1863.69 119.174C1861.03 116.674 1859 116.357 1859 118.43ZM524.002 98.376C524.002 99.7632 531.418 102.25 532.45 101.213C533.712 99.9504 532.786 99.0336 529.248 98.0544C524.4 96.7056 524.002 96.7296 524.002 98.376ZM273.25 99.7056C272.011 99.9456 270.998 100.834 270.998 101.683C270.998 103.138 276.725 102.907 279.24 101.352C282.149 99.5568 278.803 98.6352 273.25 99.7056ZM539.717 102.302C539.333 103.296 540.451 103.997 543.59 104.712C547.061 105.509 548.002 105.446 548.002 104.419C548.002 101.923 540.586 100.027 539.717 102.302ZM257.251 103.704C254.837 104.17 254.083 107.002 256.373 107.002C259.968 107.002 264 105.61 264 104.376C264 103.022 261.893 102.811 257.251 103.704ZM1190.25 104.803C1187.19 106.272 1185.76 108.998 1188.05 108.998C1189.78 108.998 1195 106.018 1195 105.034C1195 103.315 1193.5 103.238 1190.25 104.803ZM555 106.181C555 107.875 562.752 110.208 563.635 108.782C564.528 107.333 562.901 106.229 558.749 105.466C555.869 104.938 555 105.101 555 106.181ZM241.805 108.144C240.211 108.725 239.318 109.666 239.616 110.443C240.298 112.224 248.002 110.328 248.002 108.379C248.002 106.8 245.712 106.714 241.805 108.144ZM1870.45 129.082C1869.53 130.574 1875.12 136.282 1876.32 135.072C1876.91 134.491 1876.37 132.998 1874.88 131.122C1872.27 127.824 1871.46 127.45 1870.45 129.082ZM570.494 110.006C569.606 111.446 569.688 111.499 574.752 112.742C578.15 113.578 579 113.52 579 112.454C579 110.122 571.718 108.029 570.494 110.006ZM1842.05 133.752C1840.7 138.605 1840.73 138.998 1842.39 138.998C1843.16 138.998 1844.08 137.765 1844.44 136.248C1844.8 134.736 1845.33 132.71 1845.61 131.75C1845.95 130.622 1845.6 129.998 1844.62 129.998C1843.71 129.998 1842.67 131.52 1842.05 133.752ZM227.251 112.118C224.568 112.891 222.475 116.002 224.635 116.002C227.131 116.002 233.002 113.434 233.002 112.344C233.002 110.822 231.893 110.779 227.251 112.118ZM1175.75 112.57C1173.48 113.808 1171.83 117 1173.47 117C1175.19 117 1181 113.386 1181 112.315C1181 110.616 1179.19 110.702 1175.75 112.57ZM585.998 114.312C585.998 115.123 587.083 116.054 588.408 116.386C589.733 116.722 591.533 117.269 592.406 117.605C594.019 118.224 594.782 115.579 593.251 114.677C590.702 113.174 585.998 112.939 585.998 114.312ZM212.002 116.659C211.176 116.933 209.861 117.365 209.083 117.614C208.104 117.926 207.989 118.387 208.704 119.102C210.149 120.552 216.998 119.136 216.998 117.389C216.998 116.011 214.877 115.699 212.002 116.659ZM600.998 118.334C600.998 119.741 607.747 122.275 609.163 121.397C610.877 120.341 609.888 119.285 606.134 118.157C601.267 116.702 600.998 116.707 600.998 118.334ZM1161.75 119.573C1159.47 120.806 1157.83 123.998 1159.46 123.998C1161.09 123.998 1166.98 120.432 1166.71 119.621C1166.17 118.003 1164.68 117.989 1161.75 119.573ZM1880.47 141.043C1879.53 142.57 1885 149.4 1886.2 148.2C1886.83 147.576 1886.34 145.954 1884.84 143.626C1882.38 139.834 1881.53 139.334 1880.47 141.043ZM196.248 121.253C193.066 122.266 191.683 125.002 194.352 125.002C197.045 125.002 202.08 122.746 201.734 121.699C201.226 120.173 199.958 120.067 196.248 121.253ZM616.699 121.637C615.077 123.254 619.762 125.962 624.25 125.995C626.136 126.01 624.734 123.149 622.594 122.611C621.269 122.28 619.56 121.766 618.792 121.474C618.024 121.181 617.083 121.253 616.699 121.637ZM180.25 126.245C176.933 127.31 176.198 128.386 178.018 129.514C179.606 130.493 186 128.016 186 126.422C186 124.8 184.862 124.766 180.25 126.245ZM632.002 126.581C632.002 129.077 639.413 130.973 640.286 128.698C640.666 127.704 639.547 127.003 636.413 126.288C632.938 125.491 632.002 125.554 632.002 126.581ZM1147.25 126.494C1144.08 127.867 1142.82 129.998 1145.18 129.998C1147.59 129.998 1153.02 127.555 1152.7 126.605C1152.17 125.021 1150.71 124.992 1147.25 126.494ZM1839.67 146.669C1839.3 147.034 1839 149.059 1839 151.166C1839 156.893 1841.69 156.326 1842.16 150.499C1842.49 146.314 1841.52 144.816 1839.67 146.669ZM165.25 131.246C162.542 132.115 160.531 135 162.634 135C165.13 135 171 132.432 171 131.342C171 129.802 169.814 129.782 165.25 131.246ZM647.002 130.939C647.002 132.25 647.942 132.71 652.258 133.522C655.219 134.074 656.002 133.91 656.002 132.734C656.002 131.87 654.691 130.987 652.877 130.627C648.547 129.758 647.002 129.84 647.002 130.939ZM1133.25 132.49C1130.64 133.627 1128.56 137.002 1130.47 137.002C1132.19 137.002 1138 133.387 1138 132.317C1138 130.685 1137.35 130.709 1133.25 132.49ZM662.592 134.621C661.963 136.262 662.578 136.642 667.258 137.52C670.138 138.062 671.002 137.899 671.002 136.819C671.002 134.837 663.283 132.821 662.592 134.621ZM1889 154.464C1889 156.192 1892.61 162 1893.69 162C1895.4 162 1895.35 160.57 1893.48 156.95C1892.22 154.531 1889 152.741 1889 154.464ZM150.25 136.253C147.542 137.117 145.531 140.002 147.634 140.002C149.933 140.002 155.995 137.482 155.717 136.646C155.222 135.173 153.926 135.077 150.25 136.253ZM678.202 138.806C678.518 140.453 683.654 142.306 685.752 141.528C688.229 140.606 686.914 139.315 682.45 138.298C678.528 137.4 677.942 137.467 678.202 138.806ZM1118.25 138.254C1115.17 139.234 1113.65 141.998 1116.18 141.998C1118.59 141.998 1124.02 139.555 1123.7 138.605C1123.22 137.174 1121.9 137.088 1118.25 138.254ZM135.264 141.326C131.894 142.55 130.896 144.288 133.277 144.792C135.6 145.277 140.002 143.141 140.002 141.523C140.002 139.757 139.627 139.742 135.264 141.326ZM693.547 141.787C692.285 143.05 693.216 143.966 696.749 144.946C701.602 146.294 702 146.27 702 144.624C702 143.237 694.584 140.75 693.547 141.787ZM1839 166.502C1839 169.834 1839.39 171 1840.5 171C1842.14 171 1842.32 169.838 1841.38 165.125C1840.45 160.498 1839 161.338 1839 166.502ZM1104.06 143.453C1100.53 144.667 1098.7 147 1101.27 147C1103.59 147 1109 144.874 1109 143.962C1109 142.406 1107.52 142.253 1104.06 143.453ZM708.998 146.376C708.998 148.354 716.702 150.216 717.394 148.411C717.734 147.528 716.65 146.722 714.206 146.04C709.402 144.706 708.998 144.734 708.998 146.376ZM118.752 147.163C115.968 148.181 115.262 149.424 116.894 150.432C118.09 151.176 125.002 148.234 125.002 146.986C125.002 145.762 122.376 145.838 118.752 147.163ZM1088.25 148.253C1085.07 149.266 1083.68 152.002 1086.35 152.002C1089.04 152.002 1094.08 149.746 1093.73 148.699C1093.22 147.173 1091.96 147.067 1088.25 148.253ZM1896.54 169.085C1895.77 171.139 1897.38 176.294 1898.96 176.818C1900 177.168 1900.17 176.4 1899.69 173.472C1898.99 169.138 1897.36 166.877 1896.54 169.085ZM723.998 150.499C723.998 151.325 724.618 152.002 725.376 152.002C726.13 152.002 728.155 152.28 729.874 152.626C732.264 153.101 732.998 152.894 732.998 151.752C732.998 150.869 731.707 149.99 729.874 149.626C725.16 148.68 723.998 148.853 723.998 150.499ZM104.251 152.251C101.174 153.235 99.648 156 102.178 156C104.592 156 110.016 153.552 109.704 152.606C109.224 151.171 107.904 151.085 104.251 152.251ZM740.002 153.379C740.002 155.352 747.701 157.219 748.397 155.414C748.738 154.526 747.653 153.72 745.205 153.038C740.405 151.709 740.002 151.733 740.002 153.379ZM1072.25 153.029C1069.49 154.138 1069.3 156 1071.94 156C1075.01 156 1079.18 154.099 1078.5 153C1077.75 151.795 1075.3 151.805 1072.25 153.029ZM755.405 156.154C754.642 157.392 756.734 158.962 759.168 158.986C760.085 158.995 761.549 159.274 762.418 159.605C763.45 160.003 764.002 159.662 764.002 158.626C764.002 157.709 762.845 156.782 761.251 156.437C759.739 156.106 757.954 155.664 757.282 155.462C756.614 155.256 755.765 155.568 755.405 156.154ZM1058 156.658C1057.18 156.931 1055.86 157.363 1055.08 157.613C1054.1 157.925 1053.99 158.386 1054.7 159.101C1056.15 160.55 1063 159.134 1063 157.387C1063 156.01 1060.88 155.698 1058 156.658ZM88.248 158.222C87.0144 158.818 86.0016 159.941 86.0016 160.718C86.0016 161.726 86.6448 161.933 88.248 161.434C93.5616 159.778 95.0832 158.942 94.5024 158.002C93.7152 156.734 91.1472 156.821 88.248 158.222ZM1840.6 178.843C1839.65 180.37 1842.05 186.998 1843.55 186.998C1845.3 186.998 1845.31 186.773 1843.84 181.867C1842.72 178.104 1841.66 177.125 1840.6 178.843ZM771.211 159.859C771.557 161.659 778.704 163.291 779.635 161.784C780.48 160.411 779.501 159.821 774.989 159C771.533 158.366 770.947 158.496 771.211 159.859ZM1045.5 159.547C1044.95 159.701 1043.26 160.099 1041.75 160.43C1039.38 160.954 1037.66 164.011 1039.75 163.997C1041.93 163.978 1048 161.784 1048 161.011C1048 159.888 1046.8 159.187 1045.5 159.547ZM786.672 162.408C786.11 163.872 788.688 164.962 792.749 164.986C795.13 165 795.869 163.205 793.752 162.552C789.235 161.16 787.166 161.122 786.672 162.408ZM74.2512 163.493C68.8848 165.821 69.8928 168.254 75.4416 166.368C78.5376 165.312 79.7136 164.419 79.3344 163.426C78.672 161.698 78.3696 161.702 74.2512 163.493ZM1025.25 163.704C1022.98 164.146 1022.29 165.446 1023.84 166.402C1025.45 167.395 1032 165.758 1032 164.371C1032 163.022 1029.88 162.811 1025.25 163.704ZM1898 186.917C1898 188.525 1897.73 190.55 1897.39 191.419C1897.01 192.427 1897.33 192.998 1898.28 192.998C1900.07 192.998 1901 190.915 1901 186.917C1901 184.992 1900.49 183.998 1899.5 183.998C1898.51 183.998 1898 184.992 1898 186.917ZM801.998 165.499C801.998 166.325 802.618 167.002 803.376 167.002C804.13 167.002 806.155 167.28 807.874 167.626C810.264 168.101 810.998 167.894 810.998 166.752C810.998 165.869 809.707 164.99 807.874 164.626C803.16 163.68 801.998 163.853 801.998 165.499ZM818.002 167.275C818.002 168.821 820.848 169.963 824.75 169.987C826.09 169.997 827.002 169.392 827.002 168.499C827.002 167.51 826.008 167.002 824.083 167.002C822.475 167.002 820.45 166.728 819.581 166.392C818.578 166.008 818.002 166.33 818.002 167.275ZM1009.25 166.661C1006.4 167.813 1007.97 169.954 1011.25 169.387C1016.06 168.557 1017 168.173 1017 167.03C1017 165.989 1011.56 165.73 1009.25 166.661ZM58.1088 169.642C55.7472 170.674 55.0368 171.437 55.7664 172.166C57.192 173.592 63.9984 171.326 63.9984 169.421C63.9984 167.669 62.5056 167.726 58.1088 169.642ZM834 169.488C834 171.869 841.21 173.088 842.539 170.933C843.427 169.498 843.158 169.358 838.248 168.734C835.157 168.336 834 168.542 834 169.488ZM994.752 168.715C991.987 169.133 990.787 171.998 993.374 171.998C996.965 171.998 1001 170.611 1001 169.373C1001 168.01 1000.06 167.914 994.752 168.715ZM849.638 171.499C849.302 172.373 849.624 173.002 850.406 173.002C851.146 173.002 853.157 173.28 854.875 173.626C857.266 174.101 858 173.894 858 172.752C858 171.869 856.709 170.99 854.875 170.626C850.55 169.762 850.291 169.805 849.638 171.499ZM979.248 170.722C976.042 171.12 975.072 172.306 976.982 173.491C978.667 174.528 984.998 172.872 984.998 171.389C984.998 170.626 984.437 170.074 983.75 170.16C983.064 170.246 981.038 170.501 979.248 170.722ZM865.243 173.251C865.891 175.214 873.998 175.498 873.998 173.558C873.998 172.373 872.899 171.998 869.414 171.998C866.198 171.998 864.955 172.373 865.243 173.251ZM960.998 173.501C960.998 174.586 962.112 174.998 965.002 174.998C967.891 174.998 969 174.586 969 173.501C969 172.416 967.891 171.998 965.002 171.998C962.112 171.998 960.998 172.416 960.998 173.501ZM1846.58 193.867C1845.68 195.322 1849.82 202.224 1851.3 201.734C1853.28 201.072 1852.96 199.522 1850.12 196.099C1848.25 193.838 1847.06 193.09 1846.58 193.867ZM881.002 174.499C881.002 175.613 882.168 176.002 885.499 176.002C888.835 176.002 890.002 175.613 890.002 174.499C890.002 173.39 888.835 173.002 885.499 173.002C882.168 173.002 881.002 173.39 881.002 174.499ZM945 174.499C945 175.613 946.166 176.002 949.502 176.002C952.834 176.002 954 175.613 954 174.499C954 173.39 952.834 173.002 949.502 173.002C946.166 173.002 945 173.39 945 174.499ZM43.0752 175.565C40.6176 176.63 39.9552 177.355 40.7328 178.133C42.192 179.592 48.9984 177.36 48.9984 175.421C48.9984 173.635 47.4336 173.674 43.0752 175.565ZM897 174.883C897 175.896 900.442 176.966 903.749 176.986C905.088 176.995 906 176.395 906 175.502C906 174.389 904.834 174 901.502 174C899.026 174 897 174.398 897 174.883ZM912.998 175.502C912.998 176.611 914.165 177 917.501 177C920.832 177 921.998 176.611 921.998 175.502C921.998 174.389 920.832 174 917.501 174C914.165 174 912.998 174.389 912.998 175.502ZM929.002 175.502C929.002 176.611 930.168 177 933.499 177C936.835 177 938.002 176.611 938.002 175.502C938.002 174.389 936.835 174 933.499 174C930.168 174 929.002 174.389 929.002 175.502ZM1890.29 200.899C1888.13 202.704 1887.37 203.986 1887.94 204.898C1888.57 205.93 1889.64 205.44 1892.53 202.786C1897.2 198.518 1895.17 196.824 1890.29 200.899ZM28.0752 181.565C25.6176 182.63 24.9552 183.355 25.7328 184.133C27.192 185.592 33.9984 183.36 33.9984 181.421C33.9984 179.635 32.4336 179.674 28.0752 181.565ZM1857 206.395C1857 207.835 1863.92 211.142 1865.25 210.336C1866.79 209.4 1865.89 208.334 1862.16 206.693C1857.51 204.638 1857 204.61 1857 206.395ZM13.2768 187.574C11.1168 188.52 10.2432 189.47 10.6224 190.464C11.1264 191.77 11.6112 191.774 14.7168 190.474C16.656 189.662 18.4128 189 18.624 189C18.8304 189 18.9984 188.323 18.9984 187.502C18.9984 185.688 17.544 185.707 13.2768 187.574ZM1875.75 207.706C1872.44 208.219 1872.01 211.008 1875.25 210.984C1878.97 210.965 1882.1 209.818 1881.71 208.622C1881.28 207.341 1879.69 207.096 1875.75 207.706ZM1.248 192.662C0.5616 192.941 0 193.838 0 194.654C0 196.728 3.3936 195.912 3.8112 193.738C4.1472 191.986 3.5472 191.736 1.248 192.662Z" fill="#222222"/>
</g>
</svg>
