<svg width="64" height="64" viewBox="0 0 64 64" fill="none" xmlns="http://www.w3.org/2000/svg">
<path d="M29.9018 0.993086C31.0778 -0.123445 32.9222 -0.123445 34.0982 0.993086C35.0645 1.91057 36.5149 2.0938 37.6791 1.44546C39.0958 0.65646 40.8822 1.11515 41.7436 2.48906C42.4514 3.61803 43.8107 4.1562 45.0995 3.81774C46.6679 3.40586 48.2842 4.29441 48.7768 5.83937C49.1816 7.1089 50.3643 7.9682 51.6968 7.96089C53.3184 7.95199 54.6629 9.21457 54.7559 10.8335C54.8323 12.1638 55.7641 13.2903 57.0566 13.6146C58.6294 14.0092 59.6177 15.5665 59.3051 17.1577C59.0482 18.4652 59.6707 19.788 60.8419 20.4235C62.2672 21.1969 62.8371 22.9511 62.1386 24.4145C61.5647 25.6171 61.8386 27.0531 62.815 27.9599C64.0031 29.0635 64.1189 30.9043 63.0785 32.148C62.2235 33.1701 62.1317 34.6291 62.8518 35.7502C63.7282 37.1146 63.3826 38.9264 62.0655 39.8723C60.9832 40.6496 60.5314 42.04 60.9501 43.305C61.4597 44.8445 60.6744 46.5133 59.1634 47.102C57.9218 47.5857 57.1385 48.8201 57.2294 50.1495C57.3401 51.7673 56.1645 53.1884 54.5546 53.3828C53.2316 53.5426 52.166 54.5433 51.9235 55.8536C51.6283 57.4481 50.1362 58.5322 48.5285 58.3202C47.2074 58.1459 45.9263 58.8502 45.3656 60.059C44.6832 61.53 42.9683 62.209 41.4639 61.6038C40.2277 61.1065 38.8117 61.47 37.968 62.5014C36.9412 63.7565 35.1113 63.9877 33.8047 63.0273C32.731 62.2382 31.269 62.2382 30.1953 63.0273C28.8887 63.9877 27.0588 63.7565 26.032 62.5014C25.1883 61.47 23.7723 61.1065 22.5361 61.6038C21.0317 62.209 19.3168 61.53 18.6344 60.059C18.0737 58.8502 16.7926 58.1459 15.4715 58.3202C13.8638 58.5322 12.3717 57.4481 12.0765 55.8536C11.834 54.5433 10.7684 53.5426 9.44545 53.3828C7.83554 53.1884 6.65987 51.7673 6.77057 50.1495C6.86154 48.8201 6.0782 47.5857 4.83659 47.102C3.32561 46.5133 2.5403 44.8445 3.04985 43.305C3.46857 42.04 3.01681 40.6496 1.93451 39.8723C0.617395 38.9264 0.271787 37.1146 1.14818 35.7502C1.86834 34.6291 1.77655 33.1701 0.92155 32.148C-0.118938 30.9043 -0.0031268 29.0635 1.18504 27.9599C2.16139 27.0531 2.43533 25.6171 1.86137 24.4145C1.16288 22.9511 1.73284 21.1969 3.15812 20.4235C4.32932 19.788 4.95177 18.4652 4.6949 17.1577C4.38231 15.5665 5.3706 14.0092 6.94344 13.6146C8.23589 13.2903 9.16775 12.1638 9.24412 10.8335C9.33706 9.21457 10.6816 7.95199 12.3032 7.96089C13.6356 7.9682 14.8184 7.1089 15.2232 5.83937C15.7158 4.29441 17.3321 3.40586 18.9005 3.81774C20.1893 4.1562 21.5486 3.61803 22.2564 2.48906C23.1178 1.11515 24.9042 0.65646 26.3209 1.44546C27.4851 2.0938 28.9355 1.91057 29.9018 0.993086Z" fill="#CA6E2C"/>
</svg>
