<svg width="36" height="21" viewBox="0 0 36 21" fill="none" xmlns="http://www.w3.org/2000/svg">
<path fill-rule="evenodd" clip-rule="evenodd" d="M18.0609 18.2819C19.175 17.295 20.0644 16.0929 20.672 14.7528C21.2797 13.4126 21.5921 11.964 21.5894 10.4997C21.5922 9.03541 21.2797 7.58674 20.6721 6.24658C20.0644 4.90642 19.175 3.70436 18.0609 2.71751C16.1558 1.02898 13.6286 0 10.8553 0C4.92726 0 0.121338 4.70081 0.121338 10.4997C0.121338 16.2984 4.92726 20.9994 10.8553 20.9994C13.6286 20.9994 16.156 19.9704 18.0609 18.2819Z" fill="#3A9BD9"/>
<path fill-rule="evenodd" clip-rule="evenodd" d="M25.2661 0C22.4928 0 19.9652 1.02898 18.0605 2.71751C17.672 3.06214 17.3099 3.43367 16.9768 3.82917H19.1435C19.4409 4.18219 19.7145 4.55358 19.9623 4.94102H16.1584C15.9295 5.29929 15.7228 5.67058 15.5396 6.05287H20.5802C20.7537 6.4147 20.9058 6.78585 21.0357 7.16453H15.0851C14.9603 7.52926 14.8563 7.90037 14.7734 8.27619H21.3475C21.5085 9.00703 21.5895 9.75233 21.5892 10.4997C21.5892 11.6654 21.3943 12.7869 21.0359 13.8347H15.0851C15.2145 14.2134 15.3663 14.5847 15.5396 14.9465H20.5802C20.3974 15.3288 20.191 15.7001 19.9621 16.0584H16.1584C16.4061 16.4458 16.6794 16.8172 16.9766 17.1702H19.1435C18.8108 17.5659 18.4488 17.9375 18.0605 18.2821C19.9652 19.9706 22.4928 20.9996 25.2661 20.9996C31.1939 20.9996 36 16.2986 36 10.4999C36 4.70081 31.1939 0 25.2661 0Z" fill="#CC2131"/>
<path fill-rule="evenodd" clip-rule="evenodd" d="M34.5737 16.3529C34.5737 16.1656 34.7289 16.0137 34.9207 16.0137C35.112 16.0137 35.2672 16.1656 35.2672 16.3529C35.2672 16.5399 35.112 16.6918 34.9207 16.6918C34.8284 16.6915 34.74 16.6557 34.6749 16.5921C34.6099 16.5286 34.5735 16.4425 34.5737 16.3529ZM34.9205 16.6103C35.0658 16.6103 35.1838 16.4954 35.1838 16.3528C35.1838 16.2101 35.0658 16.0949 34.9205 16.0949C34.7747 16.0949 34.6568 16.2101 34.6568 16.3528C34.6568 16.4954 34.7749 16.6103 34.9205 16.6103ZM34.8737 16.5015H34.8025V16.2032H34.9314C34.9581 16.2032 34.9853 16.204 35.0089 16.2185C35.0211 16.2269 35.0311 16.2381 35.0379 16.2511C35.0446 16.264 35.0481 16.2784 35.0478 16.293C35.0478 16.3265 35.0277 16.3582 34.9951 16.3701L35.0513 16.5014H34.9722L34.9258 16.3835H34.8739V16.5015V16.3328H34.9132C34.9274 16.3328 34.9435 16.3336 34.9563 16.3267C34.962 16.3229 34.9667 16.3178 34.9698 16.3118C34.973 16.3058 34.9745 16.2991 34.9744 16.2924C34.9741 16.2864 34.9724 16.2806 34.9694 16.2753C34.9664 16.2701 34.9622 16.2656 34.9571 16.2623C34.9448 16.255 34.9249 16.2569 34.9115 16.2569H34.8741V16.5015H34.8737Z" fill="#CC2131"/>
<path fill-rule="evenodd" clip-rule="evenodd" d="M32.304 12.7754C32.304 12.5881 32.4592 12.4362 32.6506 12.4362C32.8419 12.4362 32.9971 12.5881 32.9971 12.7754C32.9971 12.9627 32.8419 13.1143 32.6506 13.1143C32.4592 13.1143 32.304 12.9626 32.304 12.7754ZM32.6504 13.0328C32.7957 13.0328 32.9137 12.9175 32.9137 12.7752C32.9137 12.6326 32.7957 12.5173 32.6504 12.5173C32.5046 12.5173 32.3871 12.6326 32.3871 12.7752C32.3871 12.9175 32.5048 13.0328 32.6504 13.0328ZM32.6036 12.924H32.5324V12.6261H32.6613C32.688 12.6261 32.7156 12.6265 32.7388 12.6414C32.751 12.6497 32.761 12.6608 32.7677 12.6737C32.7745 12.6866 32.778 12.701 32.7777 12.7155C32.7777 12.7494 32.7578 12.7806 32.725 12.7926L32.7812 12.9238H32.7025L32.6557 12.806H32.6038V12.924V12.7553H32.6431C32.6576 12.7553 32.6738 12.7564 32.6862 12.7495C32.6919 12.7457 32.6965 12.7405 32.6996 12.7346C32.7027 12.7286 32.7043 12.722 32.7043 12.7153C32.7041 12.7092 32.7025 12.7033 32.6995 12.698C32.6965 12.6926 32.6922 12.6881 32.687 12.6847C32.6747 12.6778 32.6548 12.6793 32.6417 12.6793H32.604V12.924H32.6036ZM9.51711 13.1143H8.1812L8.97515 9.02222L7.14714 13.1143H5.92897L5.70632 9.04568L4.90987 13.1143H3.69727L4.73343 7.7912H6.81805L6.92832 11.0867L8.3981 7.7912H10.5703L9.51711 13.1143ZM24.4471 13.0613C24.0816 13.1594 23.7958 13.2017 23.4871 13.2017C22.8036 13.2017 22.4304 12.8663 22.4304 12.2511C22.4304 12.1293 22.4442 11.9997 22.4697 11.8626L22.551 11.4394L22.6135 11.0968L23.2328 7.79102H24.5614L24.3689 8.78518H25.0506L24.8675 9.83762H24.1828L23.8307 11.6438C23.8177 11.7028 23.8101 11.7628 23.8079 11.8232C23.8079 12.0468 23.9462 12.144 24.2638 12.144C24.4159 12.144 24.5338 12.1306 24.6241 12.1036L24.4471 13.0613ZM28.349 8.82074C28.237 8.77754 28.2107 8.77754 28.1977 8.77401C28.1269 8.75874 28.0891 8.7498 28.0826 8.74868C28.0382 8.74115 27.9932 8.73753 27.9482 8.73788C27.5096 8.73788 27.1934 8.92893 26.7845 9.44082L26.9024 8.78481H25.6925L24.8782 13.1141H26.2151C26.6934 10.4664 26.8982 10.0028 27.5395 10.0028C27.5878 10.0028 27.6437 10.0065 27.7085 10.0138L27.8646 10.0449L28.349 8.82074ZM19.1512 10.1529C19.1512 10.6998 19.4663 11.0765 20.1805 11.3595C20.7278 11.577 20.8124 11.6407 20.8124 11.8373C20.8124 12.1068 20.5711 12.2283 20.0366 12.2283C19.6331 12.2283 19.2582 12.1753 18.8254 12.057L18.6399 13.0557L18.6998 13.0655L18.9473 13.1099C19.0271 13.1233 19.1447 13.1361 19.3006 13.1477C19.622 13.172 19.8707 13.1836 20.046 13.1836C21.4721 13.1836 22.1308 12.7264 22.1308 11.739C22.1308 11.1448 21.8554 10.7964 21.1783 10.534C20.6116 10.3149 20.546 10.2663 20.546 10.0642C20.546 9.83092 20.7708 9.711 21.2074 9.711C21.473 9.711 21.8351 9.7354 22.1786 9.77599L22.3711 8.77382C22.0213 8.72727 21.4905 8.68909 21.1819 8.68909C19.67 8.68928 19.1466 9.35441 19.1512 10.1529ZM13.8601 13.1143H12.7499L12.7758 12.6656C12.4377 13.0208 11.987 13.1892 11.3745 13.1892C10.6505 13.1892 10.1536 12.7069 10.1536 12.0068C10.1536 10.9521 11.0168 10.3374 12.5004 10.3374C12.6525 10.3374 12.8456 10.3491 13.0447 10.3707C13.0861 10.2285 13.0974 10.167 13.0974 10.0896C13.0974 9.80299 12.8644 9.69573 12.2405 9.69573C11.8591 9.69573 11.428 9.74266 11.1303 9.8164L10.9453 9.86239L10.8254 9.89032L11.0107 8.91701C11.6767 8.75017 12.1163 8.68705 12.6101 8.68705C13.7583 8.68705 14.365 9.12687 14.365 9.95698C14.365 10.1706 14.3449 10.3328 14.2565 10.8147L13.9773 12.3505L13.9303 12.6261L13.8961 12.8462L13.8733 12.9968L13.8601 13.1143ZM12.8855 11.1856C12.7864 11.1736 12.6867 11.1676 12.5869 11.1677C11.8297 11.1677 11.4462 11.3891 11.4462 11.8263C11.4462 12.0958 11.6334 12.2678 11.9254 12.2678C12.4701 12.268 12.8625 11.8258 12.8855 11.1856ZM18.2428 13.0208C17.7966 13.1384 17.3362 13.1975 16.8739 13.1964C15.3803 13.1953 14.6019 12.5302 14.6019 11.2569C14.6019 9.77078 15.5922 8.67662 16.9366 8.67662C18.0364 8.67662 18.7387 9.28943 18.7387 10.2503C18.7387 10.5692 18.6907 10.8802 18.5747 11.3191H15.9184C15.9103 11.364 15.906 11.4094 15.9056 11.455C15.9056 11.9569 16.3016 12.2129 17.0775 12.2129C17.5547 12.2129 17.986 12.1282 18.4648 11.939L18.2428 13.0208ZM17.5313 10.4448C17.5386 10.3547 17.5424 10.281 17.5424 10.224C17.5424 9.87245 17.3082 9.66613 16.9105 9.66613C16.4855 9.66613 16.1815 9.94283 16.0582 10.4422L17.5313 10.4448ZM32.5017 11.1515C32.3017 12.5916 31.2736 13.2303 29.9068 13.2303C28.3954 13.2303 27.785 12.3336 27.785 11.2347C27.785 9.70039 28.8189 8.66079 30.4156 8.66079C31.8016 8.66079 32.5374 9.51567 32.5374 10.6147C32.5374 10.8821 32.537 10.8998 32.5017 11.1515ZM31.1259 10.5975C31.1259 10.1447 30.938 9.71715 30.3903 9.71715C29.7085 9.71715 29.286 10.5054 29.286 11.2012C29.286 11.7882 29.5756 12.1825 30.0531 12.1742C30.3427 12.1742 30.9602 11.7883 31.0824 11.1145C31.111 10.9573 31.1259 10.7849 31.1259 10.5975Z" fill="white"/>
</svg>
