<svg width="37" height="21" viewBox="0 0 37 21" fill="none" xmlns="http://www.w3.org/2000/svg">
<path fill-rule="evenodd" clip-rule="evenodd" d="M18.073 18.2777C19.9667 19.9719 22.5097 20.9996 25.2758 20.9996C31.2164 20.9996 36.0245 16.295 36.0245 10.5087C36.0245 4.70478 31.2164 0 25.2758 0C22.5097 0 19.9667 1.02743 18.073 2.72184C15.901 4.65047 14.5271 7.42641 14.5271 10.5087C14.5273 13.591 15.901 16.3671 18.073 18.2777Z" fill="#E9B040"/>
<path fill-rule="evenodd" clip-rule="evenodd" d="M34.6008 16.3488C34.6008 16.1685 34.7494 16.0244 34.9349 16.0244C35.139 16.0244 35.2873 16.1687 35.2873 16.3488C35.2873 16.5474 35.1388 16.6914 34.9349 16.6914C34.7494 16.6914 34.6008 16.5474 34.6008 16.3488ZM34.9349 16.6195C35.0835 16.6195 35.213 16.493 35.213 16.349C35.213 16.205 35.0833 16.0968 34.9349 16.0968C34.8047 16.0968 34.6751 16.205 34.6751 16.349C34.6751 16.493 34.8049 16.6195 34.9349 16.6195ZM34.8978 16.5113H34.8235V16.2047H34.9533C34.972 16.2047 35.0092 16.2047 35.0275 16.223C35.0647 16.2408 35.0647 16.259 35.0647 16.2951C35.0647 16.3312 35.0463 16.3672 35.0092 16.3672L35.0835 16.5115H34.9904L34.9533 16.3851H34.8978V16.5113V16.331H34.972C34.9904 16.331 34.9904 16.3127 34.9904 16.2949C34.9904 16.2767 34.9904 16.2767 34.972 16.2588H34.8978V16.5113Z" fill="#E9B040"/>
<path fill-rule="evenodd" clip-rule="evenodd" d="M21.5476 9.39132C21.5105 9.01285 21.4362 8.65241 21.3619 8.27373H14.7901C14.8644 7.89526 14.9758 7.53482 15.0871 7.17417H21.0464C20.9171 6.79471 20.7684 6.42172 20.6009 6.05658H15.5513C15.7371 5.67477 15.9415 5.30182 16.164 4.93899H19.9699C19.725 4.55403 19.4521 4.18657 19.1532 3.83943H16.9809C17.3169 3.44101 17.6831 3.06745 18.0762 2.72184C16.1642 1.04546 13.6393 0 10.8547 0C4.93266 0 0.105957 4.70478 0.105957 10.5087C0.105957 16.295 4.93266 20.9996 10.8547 20.9996C13.6393 20.9996 16.164 19.9719 18.0762 18.2777C18.4634 17.9382 18.8234 17.5705 19.1532 17.178H16.9809C16.6838 16.8175 16.424 16.4571 16.164 16.0604H19.9699C20.2092 15.7039 20.4202 15.3303 20.6011 14.9428H15.5513C15.3842 14.5823 15.2173 14.2219 15.0871 13.843H21.0464C21.1762 13.4826 21.2693 13.1043 21.3617 12.7254C21.436 12.365 21.5103 11.9867 21.5474 11.6078C21.585 11.2424 21.6037 10.8753 21.6033 10.5081C21.6033 10.1302 21.5848 9.75175 21.5476 9.39132Z" fill="#CC2131"/>
<path fill-rule="evenodd" clip-rule="evenodd" d="M34.6008 12.9428C34.6008 12.7446 34.7494 12.6006 34.9349 12.6006C35.139 12.6006 35.2873 12.7448 35.2873 12.9428C35.2873 13.1231 35.1388 13.2854 34.9349 13.2854C34.7494 13.2854 34.6008 13.1229 34.6008 12.9428ZM34.9349 13.195C35.0835 13.195 35.213 13.0868 35.213 12.9428C35.213 12.7987 35.0833 12.6905 34.9349 12.6905C34.8047 12.6905 34.6751 12.7987 34.6751 12.9428C34.6751 13.0868 34.8049 13.195 34.9349 13.195ZM34.8978 13.0868H34.8235V12.7985H35.0275C35.0647 12.8168 35.0647 12.8528 35.0647 12.8889C35.0647 12.9067 35.0463 12.9428 35.0092 12.961L35.0835 13.087H34.9904L34.9533 12.9788H34.8978V13.0868V12.9247H34.9349C34.9533 12.9247 34.972 12.9247 34.972 12.9065C34.9904 12.9065 34.9904 12.8887 34.9904 12.8704C34.9904 12.8704 34.9904 12.8526 34.972 12.8526C34.972 12.8344 34.9533 12.8526 34.9349 12.8526H34.8978V13.0868Z" fill="white"/>
<path fill-rule="evenodd" clip-rule="evenodd" d="M14.4172 13.5363C14.0646 13.6262 13.8046 13.6805 13.5448 13.6805C12.9879 13.6805 12.6536 13.3379 12.6536 12.725C12.6536 12.599 12.6722 12.4728 12.6907 12.3285L12.765 11.9142L12.8207 11.5716L13.3219 8.61554H14.4358L14.3058 9.2645H15.0113L14.8442 10.346H14.1387L13.8417 12.1124C13.8232 12.2027 13.8232 12.2566 13.8232 12.2927C13.8232 12.5271 13.9346 12.6171 14.213 12.6171C14.343 12.6171 14.4542 12.5992 14.5656 12.581L14.4172 13.5363ZM18.0189 13.5002C17.6105 13.6084 17.2393 13.6623 16.8307 13.6623C15.5683 13.6623 14.8442 13.0133 14.8442 11.7339C14.8442 10.2376 15.6983 9.15609 16.8862 9.15609C17.8329 9.15609 18.4456 9.76898 18.4456 10.7241C18.4456 11.0489 18.4084 11.3552 18.3158 11.7878H15.9952C15.9766 11.8599 15.9766 11.896 15.9766 11.932C15.9766 12.4367 16.3293 12.689 16.9976 12.689C17.4246 12.689 17.7958 12.599 18.2044 12.4189L18.0189 13.5002ZM17.3319 10.9226V10.7062C17.3319 10.3458 17.1276 10.1475 16.775 10.1475C16.4036 10.1475 16.1438 10.4177 16.0323 10.9224H17.3319V10.9226ZM5.50628 13.5902H4.35527L5.02363 9.49871L3.51998 13.5902H2.72183L2.62897 9.51674L1.92346 13.5902H0.791016L1.7006 8.27292H3.38997L3.42712 11.5538L4.55956 8.27292H6.41608L5.50628 13.5902ZM8.30975 11.6618C8.19832 11.6435 8.16117 11.6435 8.08689 11.6435C7.41852 11.6435 7.08445 11.8958 7.08445 12.2925C7.08445 12.563 7.25159 12.7433 7.51138 12.7433C8.06832 12.7433 8.29096 12.2925 8.30975 11.6618ZM9.2379 13.5902H8.23546L8.25403 13.1398C7.99403 13.482 7.64138 13.6623 7.02873 13.6623C6.4718 13.6623 5.98915 13.1758 5.98915 12.4728C5.98915 12.2746 6.02629 12.0945 6.08201 11.9142C6.26751 11.247 6.95445 10.8327 8.0126 10.8144C8.1426 10.8144 8.34667 10.8144 8.53239 10.8327C8.56932 10.6884 8.56932 10.6341 8.56932 10.5442C8.56932 10.2556 8.3281 10.1655 7.78974 10.1655C7.45566 10.1655 7.08423 10.2196 6.82444 10.3097L6.6573 10.3458L6.58301 10.3636L6.75016 9.3903C7.28852 9.22801 7.67831 9.15609 8.10546 9.15609C9.1079 9.15609 9.64626 9.60669 9.64626 10.4358C9.64626 10.6522 9.66483 10.8144 9.59055 11.2831L9.33076 12.8332L9.29362 13.1037L9.27504 13.3201L9.25647 13.4644L9.2379 13.5902ZM23.6254 9.30035C23.9594 9.30035 24.2566 9.39051 24.6649 9.58866L24.869 8.435C24.7576 8.38091 24.7204 8.38091 24.5721 8.32681L24.1082 8.20058C23.9596 8.16452 23.7741 8.14648 23.5696 8.14648C22.9939 8.14648 22.6598 8.16452 22.3074 8.36287C22.1217 8.4891 21.8803 8.65139 21.6203 8.9397L21.4717 8.90364L20.2835 9.71467L20.3395 9.26407H19.1139L18.3903 13.59H19.5601L19.9868 11.265C19.9868 11.265 20.1542 10.9402 20.2282 10.8325C20.4511 10.562 20.6366 10.562 20.8778 10.562H20.9709C20.9319 10.8367 20.9132 11.1138 20.915 11.3911C20.915 12.797 21.7317 13.6803 22.9941 13.6803C23.3099 13.6803 23.5886 13.6443 24.0154 13.5361L24.2199 12.3105C23.8487 12.5086 23.5144 12.5988 23.2358 12.5988C22.5491 12.5988 22.1403 12.0941 22.1403 11.3011C22.1398 10.1294 22.7527 9.30035 23.6254 9.30035ZM33.4826 8.27292L33.223 9.78702C32.9445 9.37248 32.6102 9.17412 32.1647 9.17412C31.5518 9.17412 30.9765 9.51653 30.6236 10.1655V10.1477L29.8812 9.71489L29.9555 9.26429H28.7116L28.0061 13.5902H29.1571L29.5471 11.2653C29.5471 11.2653 29.8441 10.9405 29.9184 10.8327C30.1041 10.6163 30.2896 10.58 30.4381 10.5622C30.3084 10.9226 30.2341 11.3552 30.2341 11.8421C30.2341 12.9236 30.8094 13.6445 31.6632 13.6445C32.0904 13.6445 32.4244 13.5002 32.74 13.1576L32.6845 13.5902H33.78L34.671 8.27292H33.4826ZM32.0534 12.563C31.6634 12.563 31.4594 12.2746 31.4594 11.7156C31.4594 10.8683 31.8306 10.2556 32.3687 10.2556C32.7771 10.2556 32.9816 10.5622 32.9816 11.103C32.9816 11.9681 32.6104 12.563 32.0534 12.563ZM26.6886 11.6618C26.5772 11.6435 26.54 11.6435 26.4657 11.6435C25.7969 11.6435 25.4629 11.8958 25.4629 12.2925C25.4629 12.563 25.6302 12.7433 25.89 12.7433C26.447 12.7433 26.6698 12.2925 26.6886 11.6618ZM27.6168 13.5902H26.5955L26.6327 13.1398C26.3729 13.482 26.0198 13.6623 25.4076 13.6623C24.8319 13.6623 24.3309 13.1937 24.3309 12.4728C24.3309 11.4456 25.1288 10.8147 26.3912 10.8147C26.5215 10.8147 26.7253 10.8147 26.8927 10.8329C26.9298 10.6886 26.9486 10.6343 26.9486 10.5444C26.9486 10.2559 26.7072 10.1657 26.1502 10.1657C25.8345 10.1657 25.4447 10.2198 25.1849 10.31L25.0364 10.346L24.9621 10.3638L25.129 9.39051C25.6676 9.22822 26.0576 9.1563 26.4843 9.1563C27.4868 9.1563 28.0065 9.6069 28.0065 10.436C28.0065 10.6524 28.0437 10.8147 27.951 11.2833L27.7096 12.8334L27.6725 13.1039L27.6353 13.3203L27.617 13.4646V13.5902H27.6168ZM11.6697 10.1835C11.8926 10.1835 12.2081 10.2016 12.5424 10.2556L12.7095 9.24625C12.3752 9.21019 11.9297 9.15609 11.6697 9.15609C10.3703 9.15609 9.94341 9.84111 9.94341 10.6341C9.94341 11.1571 10.1846 11.5353 10.8158 11.8236C11.2799 12.04 11.3542 12.0759 11.3542 12.2744C11.3542 12.5445 11.113 12.707 10.6673 12.707C10.3146 12.707 9.98034 12.6527 9.60912 12.5267L9.47912 13.5178L9.49747 13.5361L9.72033 13.5721C9.79462 13.59 9.88748 13.6082 10.0175 13.626C10.2958 13.6443 10.5373 13.6621 10.6858 13.6621C11.9854 13.6621 12.5238 13.1756 12.5238 12.2201C12.5238 11.6255 12.2266 11.265 11.6511 11.0128C11.1499 10.7962 11.0942 10.7606 11.0942 10.562C11.0942 10.3638 11.3171 10.1835 11.6697 10.1835Z" fill="#1B3771"/>
<path fill-rule="evenodd" clip-rule="evenodd" d="M25.1881 8.09254L24.9836 9.2462C24.5752 9.04784 24.2781 8.95789 23.944 8.95789C23.0713 8.95789 22.4589 9.78696 22.4589 10.9586C22.4589 11.7699 22.8673 12.2563 23.5544 12.2563C23.8325 12.2563 24.1668 12.1664 24.5381 11.9863L24.334 13.1936C23.9068 13.3018 23.6285 13.3561 23.3128 13.3561C22.0505 13.3561 21.2707 12.4727 21.2707 11.049C21.2707 9.15625 22.3475 7.82227 23.8883 7.82227C24.0923 7.82227 24.2778 7.8403 24.4264 7.87636L24.8907 7.98456C25.0395 8.03866 25.0766 8.05669 25.1881 8.09254ZM21.4379 8.88576H21.3265C20.9369 8.88576 20.714 9.06608 20.3612 9.5886L20.4726 8.92161H19.4142L18.6906 13.2477H19.8604C20.2871 10.598 20.3985 10.1474 20.9555 10.1474H21.0297C21.1412 9.62467 21.2895 9.24598 21.4752 8.90358L21.4379 8.88576ZM14.7177 13.1936C14.4022 13.3018 14.1422 13.3379 13.8824 13.3379C13.2884 13.3379 12.9541 13.0135 12.9541 12.3828C12.9541 12.2746 12.9726 12.1305 12.9912 12.0041L13.0655 11.5715L13.1212 11.2293L13.6224 8.27287H14.7734L14.6434 8.92182H15.2375L15.0889 9.98532H14.4949L14.1794 11.7879C14.1608 11.8601 14.1608 11.9144 14.1608 11.9683C14.1608 12.1846 14.2722 12.2748 14.5506 12.2748C14.6806 12.2748 14.7918 12.2748 14.8661 12.2387L14.7177 13.1936ZM10.2437 10.2917C10.2437 10.8326 10.5035 11.2109 11.1161 11.4994C11.5988 11.7158 11.6731 11.7877 11.6731 11.968C11.6731 12.2385 11.4688 12.3645 11.0047 12.3645C10.652 12.3645 10.3363 12.3107 9.9651 12.2025L9.79796 13.1936L9.85367 13.2119L10.058 13.2479C10.132 13.2657 10.2251 13.284 10.3735 13.284C10.6333 13.3201 10.8561 13.3201 11.0047 13.3201C12.2298 13.3201 12.8055 12.8692 12.8055 11.8781C12.8055 11.283 12.5643 10.9404 11.9888 10.6703C11.4876 10.4539 11.4318 10.4001 11.4318 10.2017C11.4318 9.96749 11.6361 9.8593 12.0073 9.8593C12.2302 9.8593 12.5457 9.87733 12.8429 9.9134L13.0098 8.92203C12.7129 8.86794 12.2488 8.83187 11.9888 8.83187C10.6892 8.83166 10.2251 9.49865 10.2437 10.2917ZM34.0805 13.2479H32.9849L33.0409 12.8332C32.7252 13.1575 32.3909 13.3018 31.9637 13.3018C31.1098 13.3018 30.5529 12.5992 30.5529 11.5177C30.5529 10.0755 31.4256 8.84969 32.4464 8.84969C32.9107 8.84969 33.2447 9.04805 33.5607 9.44455L33.8205 7.93046H34.9715L34.0805 13.2479ZM32.3723 12.2385C32.9109 12.2385 33.2821 11.6256 33.2821 10.7783C33.2821 10.2195 33.0776 9.931 32.6692 9.931C32.1494 9.931 31.7599 10.5259 31.7599 11.3732C31.7599 11.9502 31.9639 12.2385 32.3723 12.2385ZM18.282 13.1575C17.8734 13.284 17.5022 13.3379 17.0753 13.3379C15.7757 13.3379 15.1073 12.6711 15.1073 11.3912C15.1073 9.91318 15.9614 8.81363 17.131 8.81363C18.0963 8.81363 18.7087 9.42652 18.7087 10.3818C18.7087 10.7064 18.6716 11.013 18.5601 11.4633H16.2585C16.24 11.5177 16.24 11.5537 16.24 11.5898C16.24 12.0945 16.5928 12.3467 17.261 12.3467C17.6879 12.3467 18.0591 12.2746 18.4677 12.0762L18.282 13.1575ZM17.6322 10.58V10.3638C17.6322 10.0033 17.4279 9.80499 17.0753 9.80499C16.704 9.80499 16.444 10.0755 16.3326 10.58H17.6322ZM5.80677 13.2479H4.65576L5.32412 9.15603L3.82046 13.2479H3.02209L2.92923 9.1921L2.22394 13.2479H1.14722L2.0568 7.93046H3.7276L3.78332 11.2291L4.89697 7.93046H6.71635L5.80677 13.2479ZM8.68431 11.3191C8.57287 11.3191 8.51716 11.3013 8.4243 11.3013C7.77451 11.3013 7.44043 11.5355 7.44043 11.968C7.44043 12.2385 7.58901 12.4006 7.84879 12.4006C8.33144 12.4006 8.66573 11.968 8.68431 11.3191ZM9.53817 13.2479H8.57266L8.59123 12.7971C8.29408 13.1575 7.90429 13.3201 7.36593 13.3201C6.7347 13.3201 6.30777 12.8514 6.30777 12.1484C6.30777 11.0851 7.05021 10.4722 8.34979 10.4722C8.4798 10.4722 8.64694 10.4902 8.83244 10.508C8.86959 10.364 8.86959 10.3099 8.86959 10.2378C8.86959 9.94946 8.6653 9.84127 8.12693 9.84127C7.79286 9.84127 7.42142 9.87733 7.16164 9.94946L6.99449 10.0036L6.88306 10.0216L7.05021 9.04826C7.62571 8.88597 8.0155 8.83187 8.44265 8.83187C9.44509 8.83187 9.98346 9.26444 9.98346 10.0935C9.98346 10.3099 9.96488 10.4722 9.8906 10.9589L9.63059 12.4912L9.59345 12.7613L9.57488 12.9776L9.5563 13.1402L9.53817 13.2479ZM27.0632 11.3191C26.9329 11.3191 26.8774 11.3013 26.8034 11.3013C26.135 11.3013 25.8005 11.5355 25.8005 11.968C25.8005 12.2385 25.9679 12.4006 26.2277 12.4006C26.6919 12.4006 27.0444 11.968 27.0632 11.3191ZM27.917 13.2479H26.9517L26.9701 12.7971C26.6732 13.1575 26.2834 13.3201 25.745 13.3201C25.1138 13.3201 24.6866 12.8514 24.6866 12.1484C24.6866 11.0851 25.4291 10.4722 26.7287 10.4722C26.8589 10.4722 27.026 10.4902 27.193 10.508C27.2301 10.364 27.2489 10.3099 27.2489 10.2378C27.2489 9.94946 27.0444 9.84127 26.5064 9.84127C26.1719 9.84127 25.7824 9.87733 25.5224 9.94946L25.3738 10.0036L25.2624 10.0216L25.4293 9.04826C26.005 8.88597 26.3946 8.83187 26.8217 8.83187C27.8242 8.83187 28.344 9.26444 28.344 10.0935C28.344 10.3099 28.344 10.4722 28.2513 10.9589L28.0099 12.4912L27.9727 12.7613L27.9356 12.9776L27.9172 13.1402V13.2479H27.917ZM31.0358 8.88576H30.9244C30.5348 8.88576 30.3119 9.06608 29.9591 9.5886L30.0705 8.92161H29.0121L28.3066 13.2477H29.4576C29.8848 10.598 29.9962 10.1474 30.5531 10.1474H30.6274C30.7388 9.62467 30.8872 9.24598 31.0729 8.90358L31.0358 8.88576Z" fill="white"/>
</svg>
