<svg width="53" height="27" viewBox="0 0 53 27" fill="none" xmlns="http://www.w3.org/2000/svg">
<path d="M41.4621 7.43683C33.4629 11.1826 25.4285 14.984 17.4282 18.7297C17.2945 18.5654 17.1384 18.3091 17.0037 18.1447C19.1008 15.8247 21.2352 13.4492 23.2766 11.0941C24.4686 9.70652 25.603 8.2847 26.5108 6.71892C28.3988 3.47412 26.8974 0.944609 23.1345 0.867735C21.8678 0.861307 20.474 0.931978 19.2919 1.29513C13.531 3.12676 7.84925 5.08656 2.14603 6.95446C1.74029 7.09374 1.29823 7.29164 1.02721 7.5943C0.791358 7.84228 0.525851 8.38834 0.646732 8.70129C0.844635 9.14335 1.36204 9.70697 1.73254 9.62436C2.92124 9.50165 4.03183 9.25179 5.17766 8.94526C9.77684 7.56966 14.4475 6.08076 19.1043 4.74044C20.4712 4.33546 22.0145 4.27963 24.1857 3.98512C23.2212 5.51566 22.7627 6.49351 22.0776 7.32842C18.859 10.9216 15.5271 14.4423 12.3084 18.0354C11.5667 18.8341 10.7673 19.5965 10.3664 20.6116C9.9794 21.4762 9.73465 22.7466 10.0728 23.5944C10.5543 24.8472 11.9333 24.926 13.172 24.5981C14.3189 24.2916 15.4647 23.9851 16.5677 23.4927C23.0433 20.5281 29.426 17.5849 35.9006 14.6203C36.9118 14.1494 37.9806 13.7138 39.6547 12.9485C37.5671 16.3837 34.0284 17.7156 32.9848 21.8881C34.4084 21.5183 35.3556 21.4032 36.0891 20.9945C41.6757 17.5499 46.6818 13.2619 51.2486 8.5395C53.1889 6.59573 52.4973 4.41809 49.7604 3.72177C48.5234 3.41627 47.2149 3.22507 45.9343 3.36722C42.4046 3.67574 38.8963 4.07616 35.3527 4.53425C34.7408 4.62344 33.8996 5.20206 33.7632 5.67009C33.5685 6.73431 34.4917 7.15965 35.4231 7.19202C37.4365 7.27363 39.5213 7.24195 41.5132 7.23066C41.3989 7.15915 41.4418 7.34396 41.4621 7.43683Z" fill="#FF7A00"/>
</svg>
