<svg width="57" height="24" viewBox="0 0 57 24" fill="none" xmlns="http://www.w3.org/2000/svg">
<path d="M53.1909 14.7977C51.6491 13.8411 50.3915 13.1467 49.1944 12.3736C48.505 11.9056 47.7349 11.3772 48.5229 10.1063C51.122 11.355 53.7451 12.3446 56.0764 13.9703C57.0693 14.641 57.1237 15.3621 56.5422 16.4358C56.3342 16.8334 56.0454 17.1699 55.7969 17.4872C54.3732 19.2109 52.9486 20.9353 51.4636 22.6383C50.9884 23.2133 50.4116 23.7869 49.6214 23.2179C48.9118 22.7102 48.9809 21.9309 49.3543 21.2549C49.7906 20.4994 50.327 19.8456 50.8441 19.152C51.2151 18.6756 51.6281 18.1808 51.7981 17.5025L51.0606 17.8543C48.3133 19.1635 47.0098 18.9891 44.7026 17.0032C42.8814 15.3827 41.4506 13.5268 40.5749 11.2572C40.3607 10.7288 40.148 10.1999 39.9368 9.6704C38.9579 7.49863 37.7367 7.1851 35.9264 8.7451C35.0002 9.53504 34.2355 10.5468 33.4111 11.4369C30.9774 14.1898 28.8324 14.4659 25.7512 12.3515C23.4401 10.7662 21.5412 8.78487 20.1361 6.36916C19.7146 5.62434 19.2736 4.83975 18.7488 4.19357C17.8615 3.12375 17.0867 3.09546 16.26 4.18593C15.3517 5.31616 14.6662 6.58787 13.9194 7.83969C13.3806 8.69387 12.9839 9.6291 12.3846 10.4626C11.144 12.1488 9.44158 13.1093 7.26246 12.7055C5.63297 12.3866 3.98485 11.9286 2.39806 11.391C1.36091 11.0392 0.531801 10.2898 0.526367 8.75046C1.05504 8.89575 1.48201 9.04104 1.95013 9.16569C3.61921 9.66428 5.28674 10.1636 6.99696 10.5422C8.64663 10.9008 9.8375 10.1338 10.6255 8.76269C11.29 7.55063 11.8326 6.29651 12.5173 5.12422C13.1601 4.07122 13.7827 2.97846 14.6274 2.1281C16.4207 0.227808 18.8474 0.31575 20.5212 2.35369C21.2882 3.28204 21.9302 4.36945 22.5116 5.43545C23.7157 7.5491 25.4135 9.2284 27.4001 10.5705C29.063 11.6686 29.8602 11.5378 31.1792 10.1124C32.2722 8.94469 33.2636 7.67604 34.4972 6.68957C35.2789 6.01816 36.3852 5.59069 37.4472 5.38193C39.2878 5.0034 40.7488 5.79946 41.6113 7.42904C42.0515 8.31381 42.4707 9.25822 42.7471 10.2217C43.4403 12.4295 44.934 14.1065 46.5929 15.6045C47.4019 16.3134 48.2566 16.6032 49.3636 16.0756C50.4699 15.5479 51.6561 15.2795 53.1909 14.7977Z" fill="#00340F"/>
</svg>
