<svg width="49" height="23" viewBox="0 0 49 23" fill="none" xmlns="http://www.w3.org/2000/svg">
<path d="M43.8862 11.8487C42.9816 12.961 42.1491 13.9091 41.3742 14.8635C38.6159 18.0821 35.2536 20.1401 31.085 20.8438C28.061 21.3241 25.327 20.683 23.1468 18.5457C20.9667 16.4074 18.9224 14.0544 16.8649 11.8137C15.8123 10.6631 14.8753 9.46659 13.8167 8.37167C11.8893 6.49197 10.392 6.33035 7.96642 7.50986C5.0666 8.92685 3.04625 11.5331 1.9639 15.3359C0.276569 14.8661 0.312882 13.486 0.719371 12.3199C1.21134 10.8744 1.87657 9.38918 2.78739 8.21917C3.82802 6.89017 5.13992 5.64778 6.52516 4.76031C10.0225 2.48549 13.0769 2.75785 16.0762 5.61825C17.8551 7.30891 19.3277 9.25518 20.9849 11.0484C22.5026 12.7359 24.0633 14.3844 25.6653 15.9922C26.8786 17.2195 28.4062 17.6137 30.0982 17.5087C32.6976 17.3276 34.9325 16.3588 36.971 14.6186C37.4018 14.2617 37.777 13.8979 38.1593 13.4785C39.81 11.6964 41.4598 9.91411 43.2393 7.97387C39.5935 8.50267 36.2313 9.00375 32.8134 9.49981C32.7587 9.49391 32.6223 9.19153 32.481 8.94494C32.7273 8.74119 32.9363 8.36043 33.1704 8.27003C36.4404 7.067 39.7228 5.74864 43.0724 4.84287C45.6705 4.14265 47.0806 5.10252 47.4629 7.79509C47.8273 10.1407 47.734 12.5517 47.5932 14.9001C47.5874 15.4758 46.7135 16.3038 46.134 16.4726C45.7835 16.6078 44.8591 15.816 44.6371 15.273C44.1817 14.3015 44.1325 13.2009 43.8862 11.8487Z" fill="#F194C1"/>
</svg>
